G04 #@! TF.GenerationSoftware,KiCad,Pcbnew,5.1.0-060a0da~80~ubuntu16.04.1*
G04 #@! TF.CreationDate,2019-04-04T13:00:51+02:00*
G04 #@! TF.ProjectId,k2,6b322e6b-6963-4616-945f-706362585858,RevPB*
G04 #@! TF.SameCoordinates,Original*
G04 #@! TF.FileFunction,Legend,Bot*
G04 #@! TF.FilePolarity,Positive*
%FSLAX46Y46*%
G04 Gerber Fmt 4.6, Leading zero omitted, Abs format (unit mm)*
G04 Created by KiCad (PCBNEW 5.1.0-060a0da~80~ubuntu16.04.1) date 2019-04-04 13:00:51*
%MOMM*%
%LPD*%
G04 APERTURE LIST*
%ADD10C,0.150000*%
%ADD11C,0.200000*%
%ADD12C,0.120000*%
%ADD13C,0.010000*%
G04 APERTURE END LIST*
D10*
X146035000Y-87975000D02*
X146035000Y-88855000D01*
X146035000Y-88845000D02*
X146035000Y-88855000D01*
X146035000Y-88855000D02*
X145685000Y-88505000D01*
X146045000Y-88855000D02*
X146365000Y-88535000D01*
X143540000Y-88010000D02*
X143220000Y-88330000D01*
X143550000Y-88010000D02*
X143900000Y-88360000D01*
X143550000Y-88020000D02*
X143550000Y-88010000D01*
X143550000Y-88890000D02*
X143550000Y-88010000D01*
D11*
X119147142Y-101021428D02*
X119832857Y-101021428D01*
X116607142Y-101021428D02*
X117292857Y-101021428D01*
X116950000Y-101402380D02*
X116950000Y-100640476D01*
X131026666Y-100104285D02*
X131026666Y-100532857D01*
X131312380Y-100018571D02*
X130312380Y-100318571D01*
X131312380Y-100618571D01*
X131312380Y-101432857D02*
X130836190Y-101132857D01*
X131312380Y-100918571D02*
X130312380Y-100918571D01*
X130312380Y-101261428D01*
X130360000Y-101347142D01*
X130407619Y-101390000D01*
X130502857Y-101432857D01*
X130645714Y-101432857D01*
X130740952Y-101390000D01*
X130788571Y-101347142D01*
X130836190Y-101261428D01*
X130836190Y-100918571D01*
X130788571Y-101818571D02*
X130788571Y-102118571D01*
X131312380Y-102247142D02*
X131312380Y-101818571D01*
X130312380Y-101818571D01*
X130312380Y-102247142D01*
X130788571Y-102932857D02*
X130788571Y-102632857D01*
X131312380Y-102632857D02*
X130312380Y-102632857D01*
X130312380Y-103061428D01*
X133002380Y-99975714D02*
X132002380Y-99975714D01*
X132002380Y-100190000D01*
X132050000Y-100318571D01*
X132145238Y-100404285D01*
X132240476Y-100447142D01*
X132430952Y-100490000D01*
X132573809Y-100490000D01*
X132764285Y-100447142D01*
X132859523Y-100404285D01*
X132954761Y-100318571D01*
X133002380Y-100190000D01*
X133002380Y-99975714D01*
X132716666Y-100832857D02*
X132716666Y-101261428D01*
X133002380Y-100747142D02*
X132002380Y-101047142D01*
X133002380Y-101347142D01*
X132907142Y-102161428D02*
X132954761Y-102118571D01*
X133002380Y-101990000D01*
X133002380Y-101904285D01*
X132954761Y-101775714D01*
X132859523Y-101690000D01*
X132764285Y-101647142D01*
X132573809Y-101604285D01*
X132430952Y-101604285D01*
X132240476Y-101647142D01*
X132145238Y-101690000D01*
X132050000Y-101775714D01*
X132002380Y-101904285D01*
X132002380Y-101990000D01*
X132050000Y-102118571D01*
X132097619Y-102161428D01*
X132002380Y-102718571D02*
X132002380Y-102804285D01*
X132050000Y-102890000D01*
X132097619Y-102932857D01*
X132192857Y-102975714D01*
X132383333Y-103018571D01*
X132621428Y-103018571D01*
X132811904Y-102975714D01*
X132907142Y-102932857D01*
X132954761Y-102890000D01*
X133002380Y-102804285D01*
X133002380Y-102718571D01*
X132954761Y-102632857D01*
X132907142Y-102590000D01*
X132811904Y-102547142D01*
X132621428Y-102504285D01*
X132383333Y-102504285D01*
X132192857Y-102547142D01*
X132097619Y-102590000D01*
X132050000Y-102632857D01*
X132002380Y-102718571D01*
X134416666Y-101732857D02*
X134416666Y-102161428D01*
X134702380Y-101647142D02*
X133702380Y-101947142D01*
X134702380Y-102247142D01*
X133702380Y-102718571D02*
X133702380Y-102804285D01*
X133750000Y-102890000D01*
X133797619Y-102932857D01*
X133892857Y-102975714D01*
X134083333Y-103018571D01*
X134321428Y-103018571D01*
X134511904Y-102975714D01*
X134607142Y-102932857D01*
X134654761Y-102890000D01*
X134702380Y-102804285D01*
X134702380Y-102718571D01*
X134654761Y-102632857D01*
X134607142Y-102590000D01*
X134511904Y-102547142D01*
X134321428Y-102504285D01*
X134083333Y-102504285D01*
X133892857Y-102547142D01*
X133797619Y-102590000D01*
X133750000Y-102632857D01*
X133702380Y-102718571D01*
X136106666Y-101732857D02*
X136106666Y-102161428D01*
X136392380Y-101647142D02*
X135392380Y-101947142D01*
X136392380Y-102247142D01*
X136392380Y-103018571D02*
X136392380Y-102504285D01*
X136392380Y-102761428D02*
X135392380Y-102761428D01*
X135535238Y-102675714D01*
X135630476Y-102590000D01*
X135678095Y-102504285D01*
X138646666Y-101732857D02*
X138646666Y-102161428D01*
X138932380Y-101647142D02*
X137932380Y-101947142D01*
X138932380Y-102247142D01*
X138027619Y-102504285D02*
X137980000Y-102547142D01*
X137932380Y-102632857D01*
X137932380Y-102847142D01*
X137980000Y-102932857D01*
X138027619Y-102975714D01*
X138122857Y-103018571D01*
X138218095Y-103018571D01*
X138360952Y-102975714D01*
X138932380Y-102461428D01*
X138932380Y-103018571D01*
X141186666Y-101732857D02*
X141186666Y-102161428D01*
X141472380Y-101647142D02*
X140472380Y-101947142D01*
X141472380Y-102247142D01*
X140472380Y-102461428D02*
X140472380Y-103018571D01*
X140853333Y-102718571D01*
X140853333Y-102847142D01*
X140900952Y-102932857D01*
X140948571Y-102975714D01*
X141043809Y-103018571D01*
X141281904Y-103018571D01*
X141377142Y-102975714D01*
X141424761Y-102932857D01*
X141472380Y-102847142D01*
X141472380Y-102590000D01*
X141424761Y-102504285D01*
X141377142Y-102461428D01*
X143726666Y-101732857D02*
X143726666Y-102161428D01*
X144012380Y-101647142D02*
X143012380Y-101947142D01*
X144012380Y-102247142D01*
X143345714Y-102932857D02*
X144012380Y-102932857D01*
X142964761Y-102718571D02*
X143679047Y-102504285D01*
X143679047Y-103061428D01*
X146266666Y-101732857D02*
X146266666Y-102161428D01*
X146552380Y-101647142D02*
X145552380Y-101947142D01*
X146552380Y-102247142D01*
X145552380Y-102975714D02*
X145552380Y-102547142D01*
X146028571Y-102504285D01*
X145980952Y-102547142D01*
X145933333Y-102632857D01*
X145933333Y-102847142D01*
X145980952Y-102932857D01*
X146028571Y-102975714D01*
X146123809Y-103018571D01*
X146361904Y-103018571D01*
X146457142Y-102975714D01*
X146504761Y-102932857D01*
X146552380Y-102847142D01*
X146552380Y-102632857D01*
X146504761Y-102547142D01*
X146457142Y-102504285D01*
X148806666Y-101732857D02*
X148806666Y-102161428D01*
X149092380Y-101647142D02*
X148092380Y-101947142D01*
X149092380Y-102247142D01*
X148092380Y-102932857D02*
X148092380Y-102761428D01*
X148140000Y-102675714D01*
X148187619Y-102632857D01*
X148330476Y-102547142D01*
X148520952Y-102504285D01*
X148901904Y-102504285D01*
X148997142Y-102547142D01*
X149044761Y-102590000D01*
X149092380Y-102675714D01*
X149092380Y-102847142D01*
X149044761Y-102932857D01*
X148997142Y-102975714D01*
X148901904Y-103018571D01*
X148663809Y-103018571D01*
X148568571Y-102975714D01*
X148520952Y-102932857D01*
X148473333Y-102847142D01*
X148473333Y-102675714D01*
X148520952Y-102590000D01*
X148568571Y-102547142D01*
X148663809Y-102504285D01*
X150632380Y-102718571D02*
X150632380Y-102804285D01*
X150680000Y-102890000D01*
X150727619Y-102932857D01*
X150822857Y-102975714D01*
X151013333Y-103018571D01*
X151251428Y-103018571D01*
X151441904Y-102975714D01*
X151537142Y-102932857D01*
X151584761Y-102890000D01*
X151632380Y-102804285D01*
X151632380Y-102718571D01*
X151584761Y-102632857D01*
X151537142Y-102590000D01*
X151441904Y-102547142D01*
X151251428Y-102504285D01*
X151013333Y-102504285D01*
X150822857Y-102547142D01*
X150727619Y-102590000D01*
X150680000Y-102632857D01*
X150632380Y-102718571D01*
X154172380Y-103018571D02*
X154172380Y-102504285D01*
X154172380Y-102761428D02*
X153172380Y-102761428D01*
X153315238Y-102675714D01*
X153410476Y-102590000D01*
X153458095Y-102504285D01*
X156331428Y-101775714D02*
X156283809Y-101818571D01*
X156236190Y-101904285D01*
X156331428Y-102075714D01*
X156283809Y-102161428D01*
X156236190Y-102204285D01*
X155807619Y-102504285D02*
X155760000Y-102547142D01*
X155712380Y-102632857D01*
X155712380Y-102847142D01*
X155760000Y-102932857D01*
X155807619Y-102975714D01*
X155902857Y-103018571D01*
X155998095Y-103018571D01*
X156140952Y-102975714D01*
X156712380Y-102461428D01*
X156712380Y-103018571D01*
X158871428Y-101775714D02*
X158823809Y-101818571D01*
X158776190Y-101904285D01*
X158871428Y-102075714D01*
X158823809Y-102161428D01*
X158776190Y-102204285D01*
X158252380Y-102461428D02*
X158252380Y-103018571D01*
X158633333Y-102718571D01*
X158633333Y-102847142D01*
X158680952Y-102932857D01*
X158728571Y-102975714D01*
X158823809Y-103018571D01*
X159061904Y-103018571D01*
X159157142Y-102975714D01*
X159204761Y-102932857D01*
X159252380Y-102847142D01*
X159252380Y-102590000D01*
X159204761Y-102504285D01*
X159157142Y-102461428D01*
X161411428Y-101775714D02*
X161363809Y-101818571D01*
X161316190Y-101904285D01*
X161411428Y-102075714D01*
X161363809Y-102161428D01*
X161316190Y-102204285D01*
X161125714Y-102932857D02*
X161792380Y-102932857D01*
X160744761Y-102718571D02*
X161459047Y-102504285D01*
X161459047Y-103061428D01*
X163951428Y-101775714D02*
X163903809Y-101818571D01*
X163856190Y-101904285D01*
X163951428Y-102075714D01*
X163903809Y-102161428D01*
X163856190Y-102204285D01*
X163332380Y-102975714D02*
X163332380Y-102547142D01*
X163808571Y-102504285D01*
X163760952Y-102547142D01*
X163713333Y-102632857D01*
X163713333Y-102847142D01*
X163760952Y-102932857D01*
X163808571Y-102975714D01*
X163903809Y-103018571D01*
X164141904Y-103018571D01*
X164237142Y-102975714D01*
X164284761Y-102932857D01*
X164332380Y-102847142D01*
X164332380Y-102632857D01*
X164284761Y-102547142D01*
X164237142Y-102504285D01*
X163332380Y-86730000D02*
X163332380Y-86558571D01*
X163380000Y-86472857D01*
X163427619Y-86430000D01*
X163570476Y-86344285D01*
X163760952Y-86301428D01*
X164141904Y-86301428D01*
X164237142Y-86344285D01*
X164284761Y-86387142D01*
X164332380Y-86472857D01*
X164332380Y-86644285D01*
X164284761Y-86730000D01*
X164237142Y-86772857D01*
X164141904Y-86815714D01*
X163903809Y-86815714D01*
X163808571Y-86772857D01*
X163760952Y-86730000D01*
X163713333Y-86644285D01*
X163713333Y-86472857D01*
X163760952Y-86387142D01*
X163808571Y-86344285D01*
X163903809Y-86301428D01*
X160792380Y-86258571D02*
X160792380Y-86858571D01*
X161792380Y-86472857D01*
X158680952Y-86472857D02*
X158633333Y-86387142D01*
X158585714Y-86344285D01*
X158490476Y-86301428D01*
X158442857Y-86301428D01*
X158347619Y-86344285D01*
X158300000Y-86387142D01*
X158252380Y-86472857D01*
X158252380Y-86644285D01*
X158300000Y-86730000D01*
X158347619Y-86772857D01*
X158442857Y-86815714D01*
X158490476Y-86815714D01*
X158585714Y-86772857D01*
X158633333Y-86730000D01*
X158680952Y-86644285D01*
X158680952Y-86472857D01*
X158728571Y-86387142D01*
X158776190Y-86344285D01*
X158871428Y-86301428D01*
X159061904Y-86301428D01*
X159157142Y-86344285D01*
X159204761Y-86387142D01*
X159252380Y-86472857D01*
X159252380Y-86644285D01*
X159204761Y-86730000D01*
X159157142Y-86772857D01*
X159061904Y-86815714D01*
X158871428Y-86815714D01*
X158776190Y-86772857D01*
X158728571Y-86730000D01*
X158680952Y-86644285D01*
X159252380Y-87887142D02*
X158252380Y-87887142D01*
X158966666Y-88187142D01*
X158252380Y-88487142D01*
X159252380Y-88487142D01*
X158252380Y-89087142D02*
X158252380Y-89258571D01*
X158300000Y-89344285D01*
X158395238Y-89430000D01*
X158585714Y-89472857D01*
X158919047Y-89472857D01*
X159109523Y-89430000D01*
X159204761Y-89344285D01*
X159252380Y-89258571D01*
X159252380Y-89087142D01*
X159204761Y-89001428D01*
X159109523Y-88915714D01*
X158919047Y-88872857D01*
X158585714Y-88872857D01*
X158395238Y-88915714D01*
X158300000Y-89001428D01*
X158252380Y-89087142D01*
X159204761Y-89815714D02*
X159252380Y-89944285D01*
X159252380Y-90158571D01*
X159204761Y-90244285D01*
X159157142Y-90287142D01*
X159061904Y-90330000D01*
X158966666Y-90330000D01*
X158871428Y-90287142D01*
X158823809Y-90244285D01*
X158776190Y-90158571D01*
X158728571Y-89987142D01*
X158680952Y-89901428D01*
X158633333Y-89858571D01*
X158538095Y-89815714D01*
X158442857Y-89815714D01*
X158347619Y-89858571D01*
X158300000Y-89901428D01*
X158252380Y-89987142D01*
X158252380Y-90201428D01*
X158300000Y-90330000D01*
X159252380Y-90715714D02*
X158252380Y-90715714D01*
X156712380Y-86387142D02*
X156712380Y-86558571D01*
X156664761Y-86644285D01*
X156617142Y-86687142D01*
X156474285Y-86772857D01*
X156283809Y-86815714D01*
X155902857Y-86815714D01*
X155807619Y-86772857D01*
X155760000Y-86730000D01*
X155712380Y-86644285D01*
X155712380Y-86472857D01*
X155760000Y-86387142D01*
X155807619Y-86344285D01*
X155902857Y-86301428D01*
X156140952Y-86301428D01*
X156236190Y-86344285D01*
X156283809Y-86387142D01*
X156331428Y-86472857D01*
X156331428Y-86644285D01*
X156283809Y-86730000D01*
X156236190Y-86772857D01*
X156140952Y-86815714D01*
X156664761Y-87844285D02*
X156712380Y-87972857D01*
X156712380Y-88187142D01*
X156664761Y-88272857D01*
X156617142Y-88315714D01*
X156521904Y-88358571D01*
X156426666Y-88358571D01*
X156331428Y-88315714D01*
X156283809Y-88272857D01*
X156236190Y-88187142D01*
X156188571Y-88015714D01*
X156140952Y-87930000D01*
X156093333Y-87887142D01*
X155998095Y-87844285D01*
X155902857Y-87844285D01*
X155807619Y-87887142D01*
X155760000Y-87930000D01*
X155712380Y-88015714D01*
X155712380Y-88230000D01*
X155760000Y-88358571D01*
X156617142Y-89258571D02*
X156664761Y-89215714D01*
X156712380Y-89087142D01*
X156712380Y-89001428D01*
X156664761Y-88872857D01*
X156569523Y-88787142D01*
X156474285Y-88744285D01*
X156283809Y-88701428D01*
X156140952Y-88701428D01*
X155950476Y-88744285D01*
X155855238Y-88787142D01*
X155760000Y-88872857D01*
X155712380Y-89001428D01*
X155712380Y-89087142D01*
X155760000Y-89215714D01*
X155807619Y-89258571D01*
X156712380Y-89644285D02*
X155712380Y-89644285D01*
X156712380Y-90158571D02*
X156140952Y-89772857D01*
X155712380Y-90158571D02*
X156283809Y-89644285D01*
X154172380Y-86815714D02*
X154172380Y-86301428D01*
X154172380Y-86558571D02*
X153172380Y-86558571D01*
X153315238Y-86472857D01*
X153410476Y-86387142D01*
X153458095Y-86301428D01*
X153172380Y-87372857D02*
X153172380Y-87458571D01*
X153220000Y-87544285D01*
X153267619Y-87587142D01*
X153362857Y-87630000D01*
X153553333Y-87672857D01*
X153791428Y-87672857D01*
X153981904Y-87630000D01*
X154077142Y-87587142D01*
X154124761Y-87544285D01*
X154172380Y-87458571D01*
X154172380Y-87372857D01*
X154124761Y-87287142D01*
X154077142Y-87244285D01*
X153981904Y-87201428D01*
X153791428Y-87158571D01*
X153553333Y-87158571D01*
X153362857Y-87201428D01*
X153267619Y-87244285D01*
X153220000Y-87287142D01*
X153172380Y-87372857D01*
X154172380Y-88744285D02*
X153172380Y-88744285D01*
X153886666Y-89044285D01*
X153172380Y-89344285D01*
X154172380Y-89344285D01*
X154172380Y-89772857D02*
X153172380Y-89772857D01*
X154124761Y-90158571D02*
X154172380Y-90287142D01*
X154172380Y-90501428D01*
X154124761Y-90587142D01*
X154077142Y-90630000D01*
X153981904Y-90672857D01*
X153886666Y-90672857D01*
X153791428Y-90630000D01*
X153743809Y-90587142D01*
X153696190Y-90501428D01*
X153648571Y-90330000D01*
X153600952Y-90244285D01*
X153553333Y-90201428D01*
X153458095Y-90158571D01*
X153362857Y-90158571D01*
X153267619Y-90201428D01*
X153220000Y-90244285D01*
X153172380Y-90330000D01*
X153172380Y-90544285D01*
X153220000Y-90672857D01*
X153172380Y-91230000D02*
X153172380Y-91401428D01*
X153220000Y-91487142D01*
X153315238Y-91572857D01*
X153505714Y-91615714D01*
X153839047Y-91615714D01*
X154029523Y-91572857D01*
X154124761Y-91487142D01*
X154172380Y-91401428D01*
X154172380Y-91230000D01*
X154124761Y-91144285D01*
X154029523Y-91058571D01*
X153839047Y-91015714D01*
X153505714Y-91015714D01*
X153315238Y-91058571D01*
X153220000Y-91144285D01*
X153172380Y-91230000D01*
X151632380Y-86815714D02*
X151632380Y-86301428D01*
X151632380Y-86558571D02*
X150632380Y-86558571D01*
X150775238Y-86472857D01*
X150870476Y-86387142D01*
X150918095Y-86301428D01*
X151632380Y-87672857D02*
X151632380Y-87158571D01*
X151632380Y-87415714D02*
X150632380Y-87415714D01*
X150775238Y-87330000D01*
X150870476Y-87244285D01*
X150918095Y-87158571D01*
X151584761Y-88701428D02*
X151632380Y-88830000D01*
X151632380Y-89044285D01*
X151584761Y-89130000D01*
X151537142Y-89172857D01*
X151441904Y-89215714D01*
X151346666Y-89215714D01*
X151251428Y-89172857D01*
X151203809Y-89130000D01*
X151156190Y-89044285D01*
X151108571Y-88872857D01*
X151060952Y-88787142D01*
X151013333Y-88744285D01*
X150918095Y-88701428D01*
X150822857Y-88701428D01*
X150727619Y-88744285D01*
X150680000Y-88787142D01*
X150632380Y-88872857D01*
X150632380Y-89087142D01*
X150680000Y-89215714D01*
X151632380Y-89601428D02*
X150632380Y-89601428D01*
X150632380Y-89815714D01*
X150680000Y-89944285D01*
X150775238Y-90030000D01*
X150870476Y-90072857D01*
X151060952Y-90115714D01*
X151203809Y-90115714D01*
X151394285Y-90072857D01*
X151489523Y-90030000D01*
X151584761Y-89944285D01*
X151632380Y-89815714D01*
X151632380Y-89601428D01*
X151346666Y-90458571D02*
X151346666Y-90887142D01*
X151632380Y-90372857D02*
X150632380Y-90672857D01*
X151632380Y-90972857D01*
X149092380Y-86815714D02*
X149092380Y-86301428D01*
X149092380Y-86558571D02*
X148092380Y-86558571D01*
X148235238Y-86472857D01*
X148330476Y-86387142D01*
X148378095Y-86301428D01*
X148187619Y-87158571D02*
X148140000Y-87201428D01*
X148092380Y-87287142D01*
X148092380Y-87501428D01*
X148140000Y-87587142D01*
X148187619Y-87630000D01*
X148282857Y-87672857D01*
X148378095Y-87672857D01*
X148520952Y-87630000D01*
X149092380Y-87115714D01*
X149092380Y-87672857D01*
X149044761Y-88701428D02*
X149092380Y-88830000D01*
X149092380Y-89044285D01*
X149044761Y-89130000D01*
X148997142Y-89172857D01*
X148901904Y-89215714D01*
X148806666Y-89215714D01*
X148711428Y-89172857D01*
X148663809Y-89130000D01*
X148616190Y-89044285D01*
X148568571Y-88872857D01*
X148520952Y-88787142D01*
X148473333Y-88744285D01*
X148378095Y-88701428D01*
X148282857Y-88701428D01*
X148187619Y-88744285D01*
X148140000Y-88787142D01*
X148092380Y-88872857D01*
X148092380Y-89087142D01*
X148140000Y-89215714D01*
X148997142Y-90115714D02*
X149044761Y-90072857D01*
X149092380Y-89944285D01*
X149092380Y-89858571D01*
X149044761Y-89730000D01*
X148949523Y-89644285D01*
X148854285Y-89601428D01*
X148663809Y-89558571D01*
X148520952Y-89558571D01*
X148330476Y-89601428D01*
X148235238Y-89644285D01*
X148140000Y-89730000D01*
X148092380Y-89858571D01*
X148092380Y-89944285D01*
X148140000Y-90072857D01*
X148187619Y-90115714D01*
X149092380Y-90930000D02*
X149092380Y-90501428D01*
X148092380Y-90501428D01*
X146552380Y-86815714D02*
X146552380Y-86301428D01*
X146552380Y-86558571D02*
X145552380Y-86558571D01*
X145695238Y-86472857D01*
X145790476Y-86387142D01*
X145838095Y-86301428D01*
X145552380Y-87115714D02*
X145552380Y-87672857D01*
X145933333Y-87372857D01*
X145933333Y-87501428D01*
X145980952Y-87587142D01*
X146028571Y-87630000D01*
X146123809Y-87672857D01*
X146361904Y-87672857D01*
X146457142Y-87630000D01*
X146504761Y-87587142D01*
X146552380Y-87501428D01*
X146552380Y-87244285D01*
X146504761Y-87158571D01*
X146457142Y-87115714D01*
X146552380Y-89944285D02*
X146076190Y-89644285D01*
X146552380Y-89430000D02*
X145552380Y-89430000D01*
X145552380Y-89772857D01*
X145600000Y-89858571D01*
X145647619Y-89901428D01*
X145742857Y-89944285D01*
X145885714Y-89944285D01*
X145980952Y-89901428D01*
X146028571Y-89858571D01*
X146076190Y-89772857D01*
X146076190Y-89430000D01*
X145552380Y-90244285D02*
X146552380Y-90844285D01*
X145552380Y-90844285D02*
X146552380Y-90244285D01*
X144012380Y-86815714D02*
X144012380Y-86301428D01*
X144012380Y-86558571D02*
X143012380Y-86558571D01*
X143155238Y-86472857D01*
X143250476Y-86387142D01*
X143298095Y-86301428D01*
X143345714Y-87587142D02*
X144012380Y-87587142D01*
X142964761Y-87372857D02*
X143679047Y-87158571D01*
X143679047Y-87715714D01*
X143012380Y-89301428D02*
X143012380Y-89815714D01*
X144012380Y-89558571D02*
X143012380Y-89558571D01*
X143012380Y-90030000D02*
X144012380Y-90630000D01*
X143012380Y-90630000D02*
X144012380Y-90030000D01*
X141472380Y-86858571D02*
X140996190Y-86558571D01*
X141472380Y-86344285D02*
X140472380Y-86344285D01*
X140472380Y-86687142D01*
X140520000Y-86772857D01*
X140567619Y-86815714D01*
X140662857Y-86858571D01*
X140805714Y-86858571D01*
X140900952Y-86815714D01*
X140948571Y-86772857D01*
X140996190Y-86687142D01*
X140996190Y-86344285D01*
X140948571Y-87244285D02*
X140948571Y-87544285D01*
X141472380Y-87672857D02*
X141472380Y-87244285D01*
X140472380Y-87244285D01*
X140472380Y-87672857D01*
X141424761Y-88015714D02*
X141472380Y-88144285D01*
X141472380Y-88358571D01*
X141424761Y-88444285D01*
X141377142Y-88487142D01*
X141281904Y-88530000D01*
X141186666Y-88530000D01*
X141091428Y-88487142D01*
X141043809Y-88444285D01*
X140996190Y-88358571D01*
X140948571Y-88187142D01*
X140900952Y-88101428D01*
X140853333Y-88058571D01*
X140758095Y-88015714D01*
X140662857Y-88015714D01*
X140567619Y-88058571D01*
X140520000Y-88101428D01*
X140472380Y-88187142D01*
X140472380Y-88401428D01*
X140520000Y-88530000D01*
X140948571Y-88915714D02*
X140948571Y-89215714D01*
X141472380Y-89344285D02*
X141472380Y-88915714D01*
X140472380Y-88915714D01*
X140472380Y-89344285D01*
X140472380Y-89601428D02*
X140472380Y-90115714D01*
X141472380Y-89858571D02*
X140472380Y-89858571D01*
X137980000Y-86815714D02*
X137932380Y-86730000D01*
X137932380Y-86601428D01*
X137980000Y-86472857D01*
X138075238Y-86387142D01*
X138170476Y-86344285D01*
X138360952Y-86301428D01*
X138503809Y-86301428D01*
X138694285Y-86344285D01*
X138789523Y-86387142D01*
X138884761Y-86472857D01*
X138932380Y-86601428D01*
X138932380Y-86687142D01*
X138884761Y-86815714D01*
X138837142Y-86858571D01*
X138503809Y-86858571D01*
X138503809Y-86687142D01*
X138932380Y-87244285D02*
X137932380Y-87244285D01*
X138932380Y-87758571D01*
X137932380Y-87758571D01*
X138932380Y-88187142D02*
X137932380Y-88187142D01*
X137932380Y-88401428D01*
X137980000Y-88530000D01*
X138075238Y-88615714D01*
X138170476Y-88658571D01*
X138360952Y-88701428D01*
X138503809Y-88701428D01*
X138694285Y-88658571D01*
X138789523Y-88615714D01*
X138884761Y-88530000D01*
X138932380Y-88401428D01*
X138932380Y-88187142D01*
X135392380Y-86215714D02*
X136392380Y-86515714D01*
X135392380Y-86815714D01*
X136297142Y-87630000D02*
X136344761Y-87587142D01*
X136392380Y-87458571D01*
X136392380Y-87372857D01*
X136344761Y-87244285D01*
X136249523Y-87158571D01*
X136154285Y-87115714D01*
X135963809Y-87072857D01*
X135820952Y-87072857D01*
X135630476Y-87115714D01*
X135535238Y-87158571D01*
X135440000Y-87244285D01*
X135392380Y-87372857D01*
X135392380Y-87458571D01*
X135440000Y-87587142D01*
X135487619Y-87630000D01*
X136297142Y-88530000D02*
X136344761Y-88487142D01*
X136392380Y-88358571D01*
X136392380Y-88272857D01*
X136344761Y-88144285D01*
X136249523Y-88058571D01*
X136154285Y-88015714D01*
X135963809Y-87972857D01*
X135820952Y-87972857D01*
X135630476Y-88015714D01*
X135535238Y-88058571D01*
X135440000Y-88144285D01*
X135392380Y-88272857D01*
X135392380Y-88358571D01*
X135440000Y-88487142D01*
X135487619Y-88530000D01*
X132852380Y-86215714D02*
X133852380Y-86515714D01*
X132852380Y-86815714D01*
X133852380Y-87115714D02*
X132852380Y-87115714D01*
X133852380Y-87544285D02*
X132852380Y-87544285D01*
X133852380Y-88058571D01*
X132852380Y-88058571D01*
X130312380Y-86772857D02*
X130312380Y-86344285D01*
X130788571Y-86301428D01*
X130740952Y-86344285D01*
X130693333Y-86430000D01*
X130693333Y-86644285D01*
X130740952Y-86730000D01*
X130788571Y-86772857D01*
X130883809Y-86815714D01*
X131121904Y-86815714D01*
X131217142Y-86772857D01*
X131264761Y-86730000D01*
X131312380Y-86644285D01*
X131312380Y-86430000D01*
X131264761Y-86344285D01*
X131217142Y-86301428D01*
X130312380Y-87072857D02*
X131312380Y-87372857D01*
X130312380Y-87672857D01*
X117378571Y-83992380D02*
X117711904Y-83516190D01*
X117950000Y-83992380D02*
X117950000Y-82992380D01*
X117569047Y-82992380D01*
X117473809Y-83040000D01*
X117426190Y-83087619D01*
X117378571Y-83182857D01*
X117378571Y-83325714D01*
X117426190Y-83420952D01*
X117473809Y-83468571D01*
X117569047Y-83516190D01*
X117950000Y-83516190D01*
X116569047Y-83944761D02*
X116664285Y-83992380D01*
X116854761Y-83992380D01*
X116950000Y-83944761D01*
X116997619Y-83849523D01*
X116997619Y-83468571D01*
X116950000Y-83373333D01*
X116854761Y-83325714D01*
X116664285Y-83325714D01*
X116569047Y-83373333D01*
X116521428Y-83468571D01*
X116521428Y-83563809D01*
X116997619Y-83659047D01*
X116188095Y-83325714D02*
X115950000Y-83992380D01*
X115711904Y-83325714D01*
X115330952Y-83992380D02*
X115330952Y-82992380D01*
X114950000Y-82992380D01*
X114854761Y-83040000D01*
X114807142Y-83087619D01*
X114759523Y-83182857D01*
X114759523Y-83325714D01*
X114807142Y-83420952D01*
X114854761Y-83468571D01*
X114950000Y-83516190D01*
X115330952Y-83516190D01*
X114378571Y-83706666D02*
X113902380Y-83706666D01*
X114473809Y-83992380D02*
X114140476Y-82992380D01*
X113807142Y-83992380D01*
D12*
X150335000Y-96455000D02*
X150335000Y-92925000D01*
X143865000Y-96455000D02*
X143865000Y-92925000D01*
X150270000Y-97780000D02*
X150270000Y-96455000D01*
X150335000Y-96455000D02*
X150270000Y-96455000D01*
X150335000Y-92925000D02*
X150270000Y-92925000D01*
X143930000Y-96455000D02*
X143865000Y-96455000D01*
X143930000Y-92925000D02*
X143865000Y-92925000D01*
X134890000Y-98560000D02*
X140090000Y-98560000D01*
X134890000Y-90820000D02*
X140090000Y-90820000D01*
X133450000Y-97990000D02*
X134890000Y-97990000D01*
X134890000Y-98560000D02*
X134890000Y-97990000D01*
X140090000Y-98560000D02*
X140090000Y-97990000D01*
X134890000Y-91390000D02*
X134890000Y-90820000D01*
X140090000Y-91390000D02*
X140090000Y-90820000D01*
X134890000Y-96470000D02*
X134890000Y-95450000D01*
X140090000Y-96470000D02*
X140090000Y-95450000D01*
X134890000Y-93930000D02*
X134890000Y-92910000D01*
X140090000Y-93930000D02*
X140090000Y-92910000D01*
X153450000Y-93750000D02*
X153450000Y-91750000D01*
X150650000Y-93750000D02*
X153450000Y-93750000D01*
X150650000Y-91750000D02*
X150650000Y-93750000D01*
X153450000Y-91750000D02*
X150650000Y-91750000D01*
X153430000Y-97850000D02*
X153430000Y-95850000D01*
X150630000Y-97850000D02*
X153430000Y-97850000D01*
X150630000Y-95850000D02*
X150630000Y-97850000D01*
X153430000Y-95850000D02*
X150630000Y-95850000D01*
D13*
G36*
X116420625Y-92327590D02*
G01*
X116483231Y-92401664D01*
X116599716Y-92448724D01*
X116739208Y-92462857D01*
X116908630Y-92446357D01*
X117015366Y-92395195D01*
X117061777Y-92306875D01*
X117050230Y-92178905D01*
X117040203Y-92145357D01*
X117029758Y-92101470D01*
X117044524Y-92077030D01*
X117098980Y-92066356D01*
X117207602Y-92063765D01*
X117248245Y-92063714D01*
X117483094Y-92063714D01*
X117464498Y-92202359D01*
X117461583Y-92316751D01*
X117495450Y-92393355D01*
X117575500Y-92438741D01*
X117711138Y-92459480D01*
X117837306Y-92462857D01*
X117980071Y-92459960D01*
X118063588Y-92449499D01*
X118101014Y-92428815D01*
X118106857Y-92408429D01*
X118089981Y-92376660D01*
X118030235Y-92359697D01*
X117913942Y-92354079D01*
X117891735Y-92354000D01*
X117733434Y-92339955D01*
X117621695Y-92300743D01*
X117566913Y-92240752D01*
X117563127Y-92215337D01*
X117588241Y-92147084D01*
X117665351Y-92101881D01*
X117802601Y-92075864D01*
X117868516Y-92070437D01*
X118008524Y-92056331D01*
X118084996Y-92034648D01*
X118106857Y-92005059D01*
X118095552Y-91988582D01*
X118056377Y-91976003D01*
X117981443Y-91966845D01*
X117862861Y-91960633D01*
X117692743Y-91956892D01*
X117463199Y-91955147D01*
X117273746Y-91954857D01*
X116783393Y-91954857D01*
X116783393Y-92080696D01*
X116849503Y-92097910D01*
X116927563Y-92154807D01*
X116943210Y-92228822D01*
X116896081Y-92299437D01*
X116853538Y-92324983D01*
X116743458Y-92348915D01*
X116645018Y-92327178D01*
X116579537Y-92268187D01*
X116564714Y-92211007D01*
X116595587Y-92132652D01*
X116675054Y-92086603D01*
X116783393Y-92080696D01*
X116783393Y-91954857D01*
X116440636Y-91954857D01*
X116443462Y-92054643D01*
X116436034Y-92161494D01*
X116420504Y-92232717D01*
X116420625Y-92327590D01*
X116420625Y-92327590D01*
G37*
X116420625Y-92327590D02*
X116483231Y-92401664D01*
X116599716Y-92448724D01*
X116739208Y-92462857D01*
X116908630Y-92446357D01*
X117015366Y-92395195D01*
X117061777Y-92306875D01*
X117050230Y-92178905D01*
X117040203Y-92145357D01*
X117029758Y-92101470D01*
X117044524Y-92077030D01*
X117098980Y-92066356D01*
X117207602Y-92063765D01*
X117248245Y-92063714D01*
X117483094Y-92063714D01*
X117464498Y-92202359D01*
X117461583Y-92316751D01*
X117495450Y-92393355D01*
X117575500Y-92438741D01*
X117711138Y-92459480D01*
X117837306Y-92462857D01*
X117980071Y-92459960D01*
X118063588Y-92449499D01*
X118101014Y-92428815D01*
X118106857Y-92408429D01*
X118089981Y-92376660D01*
X118030235Y-92359697D01*
X117913942Y-92354079D01*
X117891735Y-92354000D01*
X117733434Y-92339955D01*
X117621695Y-92300743D01*
X117566913Y-92240752D01*
X117563127Y-92215337D01*
X117588241Y-92147084D01*
X117665351Y-92101881D01*
X117802601Y-92075864D01*
X117868516Y-92070437D01*
X118008524Y-92056331D01*
X118084996Y-92034648D01*
X118106857Y-92005059D01*
X118095552Y-91988582D01*
X118056377Y-91976003D01*
X117981443Y-91966845D01*
X117862861Y-91960633D01*
X117692743Y-91956892D01*
X117463199Y-91955147D01*
X117273746Y-91954857D01*
X116783393Y-91954857D01*
X116783393Y-92080696D01*
X116849503Y-92097910D01*
X116927563Y-92154807D01*
X116943210Y-92228822D01*
X116896081Y-92299437D01*
X116853538Y-92324983D01*
X116743458Y-92348915D01*
X116645018Y-92327178D01*
X116579537Y-92268187D01*
X116564714Y-92211007D01*
X116595587Y-92132652D01*
X116675054Y-92086603D01*
X116783393Y-92080696D01*
X116783393Y-91954857D01*
X116440636Y-91954857D01*
X116443462Y-92054643D01*
X116436034Y-92161494D01*
X116420504Y-92232717D01*
X116420625Y-92327590D01*
G36*
X117478131Y-92963696D02*
G01*
X117510735Y-93022694D01*
X117571517Y-93056431D01*
X117678188Y-93074635D01*
X117830895Y-93079714D01*
X118094035Y-93079714D01*
X118099169Y-92884611D01*
X118094627Y-92750760D01*
X118069067Y-92667258D01*
X118039222Y-92630611D01*
X117939986Y-92577562D01*
X117854447Y-92586721D01*
X117854447Y-92697732D01*
X117911444Y-92697863D01*
X117967439Y-92744055D01*
X117997320Y-92813921D01*
X117998000Y-92825714D01*
X117971830Y-92902354D01*
X117945161Y-92933252D01*
X117878923Y-92960064D01*
X117833452Y-92922012D01*
X117816571Y-92825714D01*
X117828497Y-92742343D01*
X117854447Y-92697732D01*
X117854447Y-92586721D01*
X117844540Y-92587782D01*
X117765929Y-92652561D01*
X117717199Y-92763190D01*
X117707714Y-92851931D01*
X117699479Y-92941003D01*
X117668020Y-92966953D01*
X117603210Y-92938039D01*
X117602591Y-92937648D01*
X117568915Y-92881228D01*
X117572988Y-92775582D01*
X117575869Y-92679903D01*
X117554393Y-92622506D01*
X117517215Y-92616089D01*
X117486499Y-92648709D01*
X117459026Y-92738285D01*
X117456982Y-92854777D01*
X117478131Y-92963696D01*
X117478131Y-92963696D01*
G37*
X117478131Y-92963696D02*
X117510735Y-93022694D01*
X117571517Y-93056431D01*
X117678188Y-93074635D01*
X117830895Y-93079714D01*
X118094035Y-93079714D01*
X118099169Y-92884611D01*
X118094627Y-92750760D01*
X118069067Y-92667258D01*
X118039222Y-92630611D01*
X117939986Y-92577562D01*
X117854447Y-92586721D01*
X117854447Y-92697732D01*
X117911444Y-92697863D01*
X117967439Y-92744055D01*
X117997320Y-92813921D01*
X117998000Y-92825714D01*
X117971830Y-92902354D01*
X117945161Y-92933252D01*
X117878923Y-92960064D01*
X117833452Y-92922012D01*
X117816571Y-92825714D01*
X117828497Y-92742343D01*
X117854447Y-92697732D01*
X117854447Y-92586721D01*
X117844540Y-92587782D01*
X117765929Y-92652561D01*
X117717199Y-92763190D01*
X117707714Y-92851931D01*
X117699479Y-92941003D01*
X117668020Y-92966953D01*
X117603210Y-92938039D01*
X117602591Y-92937648D01*
X117568915Y-92881228D01*
X117572988Y-92775582D01*
X117575869Y-92679903D01*
X117554393Y-92622506D01*
X117517215Y-92616089D01*
X117486499Y-92648709D01*
X117459026Y-92738285D01*
X117456982Y-92854777D01*
X117478131Y-92963696D01*
G36*
X117461876Y-93526085D02*
G01*
X117470260Y-93608627D01*
X117477113Y-93632504D01*
X117512778Y-93644316D01*
X117553617Y-93612415D01*
X117577315Y-93560250D01*
X117574498Y-93530171D01*
X117573916Y-93452666D01*
X117641024Y-93400448D01*
X117775406Y-93373739D01*
X117875443Y-93370000D01*
X118001624Y-93367652D01*
X118071466Y-93357229D01*
X118101136Y-93333659D01*
X118106857Y-93297429D01*
X118101349Y-93262799D01*
X118075568Y-93241349D01*
X118015633Y-93229959D01*
X117907659Y-93225512D01*
X117783769Y-93224857D01*
X117460680Y-93224857D01*
X117459223Y-93413028D01*
X117461876Y-93526085D01*
X117461876Y-93526085D01*
G37*
X117461876Y-93526085D02*
X117470260Y-93608627D01*
X117477113Y-93632504D01*
X117512778Y-93644316D01*
X117553617Y-93612415D01*
X117577315Y-93560250D01*
X117574498Y-93530171D01*
X117573916Y-93452666D01*
X117641024Y-93400448D01*
X117775406Y-93373739D01*
X117875443Y-93370000D01*
X118001624Y-93367652D01*
X118071466Y-93357229D01*
X118101136Y-93333659D01*
X118106857Y-93297429D01*
X118101349Y-93262799D01*
X118075568Y-93241349D01*
X118015633Y-93229959D01*
X117907659Y-93225512D01*
X117783769Y-93224857D01*
X117460680Y-93224857D01*
X117459223Y-93413028D01*
X117461876Y-93526085D01*
G36*
X117203845Y-94162117D02*
G01*
X117224098Y-94182510D01*
X117272261Y-94195064D01*
X117360124Y-94201666D01*
X117499475Y-94204203D01*
X117653286Y-94204572D01*
X117841519Y-94203911D01*
X117968972Y-94200670D01*
X118047436Y-94192964D01*
X118088699Y-94178906D01*
X118104550Y-94156610D01*
X118106857Y-94132000D01*
X118088667Y-94073090D01*
X118063314Y-94059429D01*
X118038069Y-94048719D01*
X118063314Y-94015886D01*
X118101045Y-93934815D01*
X118098876Y-93832960D01*
X118076536Y-93777552D01*
X118004766Y-93723226D01*
X117888166Y-93690356D01*
X117778681Y-93681942D01*
X117778681Y-93805429D01*
X117890222Y-93813575D01*
X117944864Y-93845996D01*
X117957231Y-93914662D01*
X117954309Y-93949214D01*
X117939800Y-94006813D01*
X117900135Y-94033642D01*
X117814243Y-94041108D01*
X117784240Y-94041286D01*
X117656755Y-94027323D01*
X117588764Y-93983840D01*
X117586773Y-93980827D01*
X117571226Y-93905791D01*
X117617073Y-93845659D01*
X117713298Y-93810500D01*
X117778681Y-93805429D01*
X117778681Y-93681942D01*
X117751509Y-93679853D01*
X117619570Y-93692627D01*
X117517120Y-93729589D01*
X117485987Y-93755835D01*
X117462077Y-93827406D01*
X117464727Y-93931801D01*
X117464878Y-93932736D01*
X117485437Y-94059429D01*
X117342576Y-94059429D01*
X117248532Y-94065724D01*
X117207377Y-94091069D01*
X117199714Y-94132000D01*
X117203845Y-94162117D01*
X117203845Y-94162117D01*
G37*
X117203845Y-94162117D02*
X117224098Y-94182510D01*
X117272261Y-94195064D01*
X117360124Y-94201666D01*
X117499475Y-94204203D01*
X117653286Y-94204572D01*
X117841519Y-94203911D01*
X117968972Y-94200670D01*
X118047436Y-94192964D01*
X118088699Y-94178906D01*
X118104550Y-94156610D01*
X118106857Y-94132000D01*
X118088667Y-94073090D01*
X118063314Y-94059429D01*
X118038069Y-94048719D01*
X118063314Y-94015886D01*
X118101045Y-93934815D01*
X118098876Y-93832960D01*
X118076536Y-93777552D01*
X118004766Y-93723226D01*
X117888166Y-93690356D01*
X117778681Y-93681942D01*
X117778681Y-93805429D01*
X117890222Y-93813575D01*
X117944864Y-93845996D01*
X117957231Y-93914662D01*
X117954309Y-93949214D01*
X117939800Y-94006813D01*
X117900135Y-94033642D01*
X117814243Y-94041108D01*
X117784240Y-94041286D01*
X117656755Y-94027323D01*
X117588764Y-93983840D01*
X117586773Y-93980827D01*
X117571226Y-93905791D01*
X117617073Y-93845659D01*
X117713298Y-93810500D01*
X117778681Y-93805429D01*
X117778681Y-93681942D01*
X117751509Y-93679853D01*
X117619570Y-93692627D01*
X117517120Y-93729589D01*
X117485987Y-93755835D01*
X117462077Y-93827406D01*
X117464727Y-93931801D01*
X117464878Y-93932736D01*
X117485437Y-94059429D01*
X117342576Y-94059429D01*
X117248532Y-94065724D01*
X117207377Y-94091069D01*
X117199714Y-94132000D01*
X117203845Y-94162117D01*
G36*
X117468539Y-95168976D02*
G01*
X117524693Y-95166615D01*
X117529344Y-95165172D01*
X117768734Y-95086662D01*
X117941067Y-95022795D01*
X118049583Y-94970178D01*
X118097520Y-94925416D01*
X118088116Y-94885115D01*
X118024611Y-94845883D01*
X117910241Y-94804324D01*
X117882014Y-94795576D01*
X117653286Y-94725978D01*
X117870664Y-94655775D01*
X118011252Y-94603293D01*
X118084255Y-94555712D01*
X118088787Y-94509161D01*
X118023961Y-94459772D01*
X117888890Y-94403675D01*
X117806488Y-94375710D01*
X117647713Y-94324345D01*
X117545554Y-94294059D01*
X117487533Y-94283729D01*
X117461173Y-94292230D01*
X117453999Y-94318437D01*
X117453714Y-94343919D01*
X117472247Y-94388805D01*
X117536813Y-94425048D01*
X117653286Y-94458572D01*
X117761570Y-94488393D01*
X117834048Y-94515715D01*
X117852857Y-94530312D01*
X117821246Y-94553125D01*
X117739418Y-94587583D01*
X117653286Y-94617085D01*
X117541653Y-94660282D01*
X117470234Y-94703877D01*
X117453714Y-94729419D01*
X117486765Y-94766699D01*
X117576208Y-94811559D01*
X117680500Y-94848362D01*
X117907286Y-94917880D01*
X117680500Y-94983293D01*
X117551655Y-95025402D01*
X117480916Y-95063416D01*
X117454842Y-95105376D01*
X117453714Y-95118941D01*
X117468539Y-95168976D01*
X117468539Y-95168976D01*
G37*
X117468539Y-95168976D02*
X117524693Y-95166615D01*
X117529344Y-95165172D01*
X117768734Y-95086662D01*
X117941067Y-95022795D01*
X118049583Y-94970178D01*
X118097520Y-94925416D01*
X118088116Y-94885115D01*
X118024611Y-94845883D01*
X117910241Y-94804324D01*
X117882014Y-94795576D01*
X117653286Y-94725978D01*
X117870664Y-94655775D01*
X118011252Y-94603293D01*
X118084255Y-94555712D01*
X118088787Y-94509161D01*
X118023961Y-94459772D01*
X117888890Y-94403675D01*
X117806488Y-94375710D01*
X117647713Y-94324345D01*
X117545554Y-94294059D01*
X117487533Y-94283729D01*
X117461173Y-94292230D01*
X117453999Y-94318437D01*
X117453714Y-94343919D01*
X117472247Y-94388805D01*
X117536813Y-94425048D01*
X117653286Y-94458572D01*
X117761570Y-94488393D01*
X117834048Y-94515715D01*
X117852857Y-94530312D01*
X117821246Y-94553125D01*
X117739418Y-94587583D01*
X117653286Y-94617085D01*
X117541653Y-94660282D01*
X117470234Y-94703877D01*
X117453714Y-94729419D01*
X117486765Y-94766699D01*
X117576208Y-94811559D01*
X117680500Y-94848362D01*
X117907286Y-94917880D01*
X117680500Y-94983293D01*
X117551655Y-95025402D01*
X117480916Y-95063416D01*
X117454842Y-95105376D01*
X117453714Y-95118941D01*
X117468539Y-95168976D01*
G36*
X117466364Y-95569059D02*
G01*
X117508126Y-95653055D01*
X117595759Y-95702859D01*
X117738804Y-95725340D01*
X117856158Y-95728572D01*
X118097312Y-95728572D01*
X118099079Y-95531826D01*
X118092031Y-95409050D01*
X118072064Y-95309585D01*
X118055665Y-95273290D01*
X117980093Y-95223586D01*
X117879178Y-95215238D01*
X117874662Y-95216830D01*
X117874662Y-95341145D01*
X117941759Y-95344027D01*
X117982963Y-95398376D01*
X117987593Y-95484702D01*
X117975975Y-95526032D01*
X117925466Y-95574456D01*
X117885261Y-95583429D01*
X117836198Y-95554385D01*
X117814420Y-95486572D01*
X117821193Y-95408969D01*
X117857787Y-95350555D01*
X117874662Y-95341145D01*
X117874662Y-95216830D01*
X117786884Y-95247780D01*
X117755901Y-95277400D01*
X117722002Y-95359473D01*
X117707716Y-95464998D01*
X117707714Y-95466025D01*
X117699929Y-95549660D01*
X117670392Y-95577888D01*
X117644214Y-95576178D01*
X117600363Y-95546667D01*
X117582267Y-95470313D01*
X117580714Y-95419303D01*
X117571621Y-95318698D01*
X117541521Y-95277481D01*
X117526286Y-95275000D01*
X117488393Y-95300093D01*
X117466699Y-95382102D01*
X117460934Y-95444003D01*
X117466364Y-95569059D01*
X117466364Y-95569059D01*
G37*
X117466364Y-95569059D02*
X117508126Y-95653055D01*
X117595759Y-95702859D01*
X117738804Y-95725340D01*
X117856158Y-95728572D01*
X118097312Y-95728572D01*
X118099079Y-95531826D01*
X118092031Y-95409050D01*
X118072064Y-95309585D01*
X118055665Y-95273290D01*
X117980093Y-95223586D01*
X117879178Y-95215238D01*
X117874662Y-95216830D01*
X117874662Y-95341145D01*
X117941759Y-95344027D01*
X117982963Y-95398376D01*
X117987593Y-95484702D01*
X117975975Y-95526032D01*
X117925466Y-95574456D01*
X117885261Y-95583429D01*
X117836198Y-95554385D01*
X117814420Y-95486572D01*
X117821193Y-95408969D01*
X117857787Y-95350555D01*
X117874662Y-95341145D01*
X117874662Y-95216830D01*
X117786884Y-95247780D01*
X117755901Y-95277400D01*
X117722002Y-95359473D01*
X117707716Y-95464998D01*
X117707714Y-95466025D01*
X117699929Y-95549660D01*
X117670392Y-95577888D01*
X117644214Y-95576178D01*
X117600363Y-95546667D01*
X117582267Y-95470313D01*
X117580714Y-95419303D01*
X117571621Y-95318698D01*
X117541521Y-95277481D01*
X117526286Y-95275000D01*
X117488393Y-95300093D01*
X117466699Y-95382102D01*
X117460934Y-95444003D01*
X117466364Y-95569059D01*
G36*
X117461222Y-96191398D02*
G01*
X117472169Y-96250200D01*
X117498702Y-96267578D01*
X117518310Y-96265743D01*
X117569746Y-96221785D01*
X117582434Y-96152050D01*
X117597781Y-96068435D01*
X117648494Y-96016748D01*
X117746745Y-95990479D01*
X117898214Y-95983127D01*
X118021721Y-95978253D01*
X118086699Y-95962074D01*
X118106781Y-95930998D01*
X118106857Y-95928143D01*
X118093981Y-95901363D01*
X118047029Y-95884782D01*
X117953513Y-95876277D01*
X117800947Y-95873725D01*
X117786697Y-95873715D01*
X117466536Y-95873715D01*
X117461221Y-96075736D01*
X117461222Y-96191398D01*
X117461222Y-96191398D01*
G37*
X117461222Y-96191398D02*
X117472169Y-96250200D01*
X117498702Y-96267578D01*
X117518310Y-96265743D01*
X117569746Y-96221785D01*
X117582434Y-96152050D01*
X117597781Y-96068435D01*
X117648494Y-96016748D01*
X117746745Y-95990479D01*
X117898214Y-95983127D01*
X118021721Y-95978253D01*
X118086699Y-95962074D01*
X118106781Y-95930998D01*
X118106857Y-95928143D01*
X118093981Y-95901363D01*
X118047029Y-95884782D01*
X117953513Y-95876277D01*
X117800947Y-95873725D01*
X117786697Y-95873715D01*
X117466536Y-95873715D01*
X117461221Y-96075736D01*
X117461222Y-96191398D01*
G36*
X117484550Y-96706261D02*
G01*
X117576188Y-96795308D01*
X117701024Y-96839391D01*
X117816571Y-96862500D01*
X117816571Y-96658393D01*
X117821477Y-96535685D01*
X117838457Y-96471997D01*
X117869723Y-96454286D01*
X117933413Y-96485158D01*
X117973049Y-96557584D01*
X117974856Y-96641277D01*
X117965523Y-96664884D01*
X117951437Y-96751295D01*
X117964936Y-96782813D01*
X117997811Y-96813068D01*
X118036225Y-96786012D01*
X118053118Y-96764851D01*
X118102638Y-96645378D01*
X118090460Y-96515570D01*
X118018884Y-96399306D01*
X118017792Y-96398208D01*
X117904895Y-96326634D01*
X117775809Y-96305743D01*
X117652147Y-96329117D01*
X117652147Y-96454286D01*
X117692469Y-96479673D01*
X117707388Y-96562671D01*
X117707714Y-96584310D01*
X117697393Y-96674942D01*
X117667758Y-96700849D01*
X117664949Y-96700079D01*
X117601669Y-96652748D01*
X117572071Y-96580490D01*
X117577452Y-96508222D01*
X117619110Y-96460859D01*
X117652147Y-96454286D01*
X117652147Y-96329117D01*
X117648472Y-96329812D01*
X117540817Y-96393113D01*
X117470781Y-96489920D01*
X117453714Y-96578296D01*
X117484550Y-96706261D01*
X117484550Y-96706261D01*
G37*
X117484550Y-96706261D02*
X117576188Y-96795308D01*
X117701024Y-96839391D01*
X117816571Y-96862500D01*
X117816571Y-96658393D01*
X117821477Y-96535685D01*
X117838457Y-96471997D01*
X117869723Y-96454286D01*
X117933413Y-96485158D01*
X117973049Y-96557584D01*
X117974856Y-96641277D01*
X117965523Y-96664884D01*
X117951437Y-96751295D01*
X117964936Y-96782813D01*
X117997811Y-96813068D01*
X118036225Y-96786012D01*
X118053118Y-96764851D01*
X118102638Y-96645378D01*
X118090460Y-96515570D01*
X118018884Y-96399306D01*
X118017792Y-96398208D01*
X117904895Y-96326634D01*
X117775809Y-96305743D01*
X117652147Y-96329117D01*
X117652147Y-96454286D01*
X117692469Y-96479673D01*
X117707388Y-96562671D01*
X117707714Y-96584310D01*
X117697393Y-96674942D01*
X117667758Y-96700849D01*
X117664949Y-96700079D01*
X117601669Y-96652748D01*
X117572071Y-96580490D01*
X117577452Y-96508222D01*
X117619110Y-96460859D01*
X117652147Y-96454286D01*
X117652147Y-96329117D01*
X117648472Y-96329812D01*
X117540817Y-96393113D01*
X117470781Y-96489920D01*
X117453714Y-96578296D01*
X117484550Y-96706261D01*
G36*
X116445883Y-91700228D02*
G01*
X116519069Y-91784524D01*
X116650467Y-91830954D01*
X116666414Y-91833725D01*
X116828899Y-91832829D01*
X116956576Y-91778609D01*
X117039405Y-91679712D01*
X117067344Y-91544784D01*
X117062604Y-91492534D01*
X117012651Y-91394043D01*
X116906675Y-91328126D01*
X116756605Y-91301888D01*
X116742089Y-91301715D01*
X116734286Y-91302927D01*
X116734286Y-91440601D01*
X116835772Y-91444217D01*
X116906903Y-91463440D01*
X116907022Y-91463513D01*
X116942213Y-91521522D01*
X116934873Y-91601269D01*
X116893818Y-91662470D01*
X116825256Y-91687967D01*
X116723232Y-91695301D01*
X116703318Y-91694127D01*
X116608785Y-91678103D01*
X116564819Y-91641615D01*
X116552571Y-91596887D01*
X116556729Y-91515728D01*
X116576156Y-91475329D01*
X116636421Y-91451376D01*
X116734286Y-91440601D01*
X116734286Y-91302927D01*
X116583752Y-91326312D01*
X116477800Y-91398411D01*
X116427254Y-91515472D01*
X116423200Y-91569701D01*
X116445883Y-91700228D01*
X116445883Y-91700228D01*
G37*
X116445883Y-91700228D02*
X116519069Y-91784524D01*
X116650467Y-91830954D01*
X116666414Y-91833725D01*
X116828899Y-91832829D01*
X116956576Y-91778609D01*
X117039405Y-91679712D01*
X117067344Y-91544784D01*
X117062604Y-91492534D01*
X117012651Y-91394043D01*
X116906675Y-91328126D01*
X116756605Y-91301888D01*
X116742089Y-91301715D01*
X116734286Y-91302927D01*
X116734286Y-91440601D01*
X116835772Y-91444217D01*
X116906903Y-91463440D01*
X116907022Y-91463513D01*
X116942213Y-91521522D01*
X116934873Y-91601269D01*
X116893818Y-91662470D01*
X116825256Y-91687967D01*
X116723232Y-91695301D01*
X116703318Y-91694127D01*
X116608785Y-91678103D01*
X116564819Y-91641615D01*
X116552571Y-91596887D01*
X116556729Y-91515728D01*
X116576156Y-91475329D01*
X116636421Y-91451376D01*
X116734286Y-91440601D01*
X116734286Y-91302927D01*
X116583752Y-91326312D01*
X116477800Y-91398411D01*
X116427254Y-91515472D01*
X116423200Y-91569701D01*
X116445883Y-91700228D01*
G36*
X116476568Y-92984023D02*
G01*
X116476634Y-92984107D01*
X116565736Y-93059509D01*
X116676205Y-93079714D01*
X116800571Y-93079714D01*
X116800571Y-92878866D01*
X116802255Y-92765471D01*
X116811769Y-92710683D01*
X116835807Y-92700545D01*
X116877227Y-92719043D01*
X116926542Y-92758340D01*
X116940335Y-92819392D01*
X116931577Y-92899558D01*
X116926093Y-93003132D01*
X116945508Y-93059464D01*
X116984175Y-93058742D01*
X117008933Y-93033958D01*
X117056574Y-92924820D01*
X117065402Y-92787381D01*
X117062312Y-92762534D01*
X117014858Y-92668189D01*
X116919400Y-92603227D01*
X116795742Y-92571172D01*
X116663686Y-92575549D01*
X116625471Y-92589591D01*
X116625471Y-92696501D01*
X116667021Y-92698427D01*
X116689018Y-92768608D01*
X116691714Y-92825714D01*
X116682638Y-92929215D01*
X116655691Y-92963843D01*
X116648949Y-92962650D01*
X116579215Y-92908887D01*
X116551354Y-92826937D01*
X116567492Y-92764374D01*
X116625471Y-92696501D01*
X116625471Y-92589591D01*
X116543038Y-92619881D01*
X116490493Y-92660779D01*
X116416603Y-92765040D01*
X116412140Y-92868611D01*
X116476568Y-92984023D01*
X116476568Y-92984023D01*
G37*
X116476568Y-92984023D02*
X116476634Y-92984107D01*
X116565736Y-93059509D01*
X116676205Y-93079714D01*
X116800571Y-93079714D01*
X116800571Y-92878866D01*
X116802255Y-92765471D01*
X116811769Y-92710683D01*
X116835807Y-92700545D01*
X116877227Y-92719043D01*
X116926542Y-92758340D01*
X116940335Y-92819392D01*
X116931577Y-92899558D01*
X116926093Y-93003132D01*
X116945508Y-93059464D01*
X116984175Y-93058742D01*
X117008933Y-93033958D01*
X117056574Y-92924820D01*
X117065402Y-92787381D01*
X117062312Y-92762534D01*
X117014858Y-92668189D01*
X116919400Y-92603227D01*
X116795742Y-92571172D01*
X116663686Y-92575549D01*
X116625471Y-92589591D01*
X116625471Y-92696501D01*
X116667021Y-92698427D01*
X116689018Y-92768608D01*
X116691714Y-92825714D01*
X116682638Y-92929215D01*
X116655691Y-92963843D01*
X116648949Y-92962650D01*
X116579215Y-92908887D01*
X116551354Y-92826937D01*
X116567492Y-92764374D01*
X116625471Y-92696501D01*
X116625471Y-92589591D01*
X116543038Y-92619881D01*
X116490493Y-92660779D01*
X116416603Y-92765040D01*
X116412140Y-92868611D01*
X116476568Y-92984023D01*
G36*
X116425674Y-94447283D02*
G01*
X116452433Y-94535136D01*
X116497231Y-94582769D01*
X116512592Y-94585572D01*
X116547251Y-94563292D01*
X116555363Y-94488177D01*
X116552914Y-94450451D01*
X116551160Y-94351471D01*
X116562108Y-94282734D01*
X116565215Y-94276332D01*
X116604558Y-94256370D01*
X116648394Y-94289218D01*
X116682024Y-94357703D01*
X116691714Y-94424137D01*
X116718850Y-94537568D01*
X116788387Y-94613006D01*
X116882522Y-94638734D01*
X116973591Y-94609679D01*
X117026033Y-94539974D01*
X117056057Y-94428236D01*
X117057704Y-94303114D01*
X117048041Y-94251715D01*
X117008480Y-94146880D01*
X116963400Y-94112991D01*
X116911778Y-94147312D01*
X116890124Y-94201006D01*
X116907667Y-94221626D01*
X116933415Y-94270679D01*
X116945571Y-94359066D01*
X116945714Y-94369999D01*
X116937289Y-94456628D01*
X116904555Y-94491127D01*
X116873143Y-94494857D01*
X116818420Y-94476070D01*
X116800791Y-94408140D01*
X116800571Y-94394074D01*
X116776750Y-94270904D01*
X116715842Y-94184332D01*
X116633681Y-94140846D01*
X116546102Y-94146934D01*
X116468937Y-94209084D01*
X116445686Y-94248652D01*
X116421808Y-94343644D01*
X116425674Y-94447283D01*
X116425674Y-94447283D01*
G37*
X116425674Y-94447283D02*
X116452433Y-94535136D01*
X116497231Y-94582769D01*
X116512592Y-94585572D01*
X116547251Y-94563292D01*
X116555363Y-94488177D01*
X116552914Y-94450451D01*
X116551160Y-94351471D01*
X116562108Y-94282734D01*
X116565215Y-94276332D01*
X116604558Y-94256370D01*
X116648394Y-94289218D01*
X116682024Y-94357703D01*
X116691714Y-94424137D01*
X116718850Y-94537568D01*
X116788387Y-94613006D01*
X116882522Y-94638734D01*
X116973591Y-94609679D01*
X117026033Y-94539974D01*
X117056057Y-94428236D01*
X117057704Y-94303114D01*
X117048041Y-94251715D01*
X117008480Y-94146880D01*
X116963400Y-94112991D01*
X116911778Y-94147312D01*
X116890124Y-94201006D01*
X116907667Y-94221626D01*
X116933415Y-94270679D01*
X116945571Y-94359066D01*
X116945714Y-94369999D01*
X116937289Y-94456628D01*
X116904555Y-94491127D01*
X116873143Y-94494857D01*
X116818420Y-94476070D01*
X116800791Y-94408140D01*
X116800571Y-94394074D01*
X116776750Y-94270904D01*
X116715842Y-94184332D01*
X116633681Y-94140846D01*
X116546102Y-94146934D01*
X116468937Y-94209084D01*
X116445686Y-94248652D01*
X116421808Y-94343644D01*
X116425674Y-94447283D01*
G36*
X116450774Y-95846339D02*
G01*
X116498344Y-95862967D01*
X116593011Y-95871362D01*
X116747362Y-95873714D01*
X116750375Y-95873715D01*
X116900688Y-95872750D01*
X116991701Y-95867547D01*
X117036681Y-95854638D01*
X117048894Y-95830558D01*
X117043039Y-95797249D01*
X117039592Y-95700789D01*
X117053329Y-95641125D01*
X117061305Y-95537320D01*
X117044980Y-95490805D01*
X117003048Y-95428395D01*
X116949258Y-95391112D01*
X116865179Y-95372623D01*
X116732381Y-95366592D01*
X116682643Y-95366270D01*
X116547551Y-95369346D01*
X116471302Y-95381318D01*
X116440411Y-95405152D01*
X116437714Y-95420143D01*
X116459379Y-95456254D01*
X116532838Y-95472524D01*
X116598638Y-95474572D01*
X116769289Y-95488505D01*
X116885945Y-95528432D01*
X116941790Y-95591548D01*
X116945714Y-95617540D01*
X116913881Y-95696147D01*
X116817688Y-95744952D01*
X116656093Y-95764429D01*
X116621528Y-95764857D01*
X116506600Y-95770543D01*
X116450032Y-95790270D01*
X116437714Y-95819286D01*
X116450774Y-95846339D01*
X116450774Y-95846339D01*
G37*
X116450774Y-95846339D02*
X116498344Y-95862967D01*
X116593011Y-95871362D01*
X116747362Y-95873714D01*
X116750375Y-95873715D01*
X116900688Y-95872750D01*
X116991701Y-95867547D01*
X117036681Y-95854638D01*
X117048894Y-95830558D01*
X117043039Y-95797249D01*
X117039592Y-95700789D01*
X117053329Y-95641125D01*
X117061305Y-95537320D01*
X117044980Y-95490805D01*
X117003048Y-95428395D01*
X116949258Y-95391112D01*
X116865179Y-95372623D01*
X116732381Y-95366592D01*
X116682643Y-95366270D01*
X116547551Y-95369346D01*
X116471302Y-95381318D01*
X116440411Y-95405152D01*
X116437714Y-95420143D01*
X116459379Y-95456254D01*
X116532838Y-95472524D01*
X116598638Y-95474572D01*
X116769289Y-95488505D01*
X116885945Y-95528432D01*
X116941790Y-95591548D01*
X116945714Y-95617540D01*
X116913881Y-95696147D01*
X116817688Y-95744952D01*
X116656093Y-95764429D01*
X116621528Y-95764857D01*
X116506600Y-95770543D01*
X116450032Y-95790270D01*
X116437714Y-95819286D01*
X116450774Y-95846339D01*
G36*
X116439177Y-96839711D02*
G01*
X116439843Y-96841737D01*
X116482463Y-96928792D01*
X116523424Y-96946799D01*
X116553797Y-96898915D01*
X116564714Y-96797579D01*
X116575608Y-96694397D01*
X116618209Y-96631603D01*
X116660319Y-96603464D01*
X116734672Y-96570189D01*
X116795191Y-96579100D01*
X116854275Y-96613760D01*
X116921043Y-96670009D01*
X116938194Y-96736067D01*
X116929914Y-96799272D01*
X116924955Y-96893171D01*
X116946737Y-96943509D01*
X116987357Y-96938498D01*
X117008541Y-96916529D01*
X117060925Y-96810255D01*
X117057518Y-96684832D01*
X117049375Y-96650854D01*
X116988542Y-96546108D01*
X116885582Y-96480717D01*
X116759840Y-96455465D01*
X116630665Y-96471138D01*
X116517402Y-96528520D01*
X116440410Y-96626145D01*
X116416993Y-96723954D01*
X116439177Y-96839711D01*
X116439177Y-96839711D01*
G37*
X116439177Y-96839711D02*
X116439843Y-96841737D01*
X116482463Y-96928792D01*
X116523424Y-96946799D01*
X116553797Y-96898915D01*
X116564714Y-96797579D01*
X116575608Y-96694397D01*
X116618209Y-96631603D01*
X116660319Y-96603464D01*
X116734672Y-96570189D01*
X116795191Y-96579100D01*
X116854275Y-96613760D01*
X116921043Y-96670009D01*
X116938194Y-96736067D01*
X116929914Y-96799272D01*
X116924955Y-96893171D01*
X116946737Y-96943509D01*
X116987357Y-96938498D01*
X117008541Y-96916529D01*
X117060925Y-96810255D01*
X117057518Y-96684832D01*
X117049375Y-96650854D01*
X116988542Y-96546108D01*
X116885582Y-96480717D01*
X116759840Y-96455465D01*
X116630665Y-96471138D01*
X116517402Y-96528520D01*
X116440410Y-96626145D01*
X116416993Y-96723954D01*
X116439177Y-96839711D01*
G36*
X116433150Y-97386734D02*
G01*
X116512603Y-97471402D01*
X116616222Y-97529202D01*
X116690065Y-97542857D01*
X116753238Y-97539630D01*
X116786118Y-97518040D01*
X116798599Y-97460222D01*
X116800571Y-97348311D01*
X116800571Y-97343286D01*
X116805807Y-97233985D01*
X116819313Y-97161496D01*
X116832414Y-97143714D01*
X116891998Y-97175339D01*
X116930680Y-97252446D01*
X116935534Y-97348388D01*
X116934469Y-97354156D01*
X116928026Y-97448329D01*
X116946051Y-97509080D01*
X116981036Y-97521434D01*
X117007176Y-97499218D01*
X117057439Y-97386981D01*
X117065093Y-97254472D01*
X117061775Y-97234429D01*
X117016169Y-97124938D01*
X116927152Y-97060754D01*
X116784899Y-97035723D01*
X116743153Y-97034857D01*
X116651221Y-97039151D01*
X116651221Y-97147685D01*
X116682420Y-97172796D01*
X116691642Y-97259744D01*
X116691714Y-97273375D01*
X116684635Y-97360299D01*
X116657534Y-97391809D01*
X116628214Y-97390933D01*
X116575138Y-97349880D01*
X116551818Y-97275206D01*
X116564688Y-97202015D01*
X116588754Y-97175588D01*
X116651221Y-97147685D01*
X116651221Y-97039151D01*
X116622442Y-97040496D01*
X116546885Y-97063864D01*
X116489512Y-97114633D01*
X116476634Y-97130465D01*
X116423977Y-97217355D01*
X116401441Y-97294114D01*
X116401429Y-97295400D01*
X116433150Y-97386734D01*
X116433150Y-97386734D01*
G37*
X116433150Y-97386734D02*
X116512603Y-97471402D01*
X116616222Y-97529202D01*
X116690065Y-97542857D01*
X116753238Y-97539630D01*
X116786118Y-97518040D01*
X116798599Y-97460222D01*
X116800571Y-97348311D01*
X116800571Y-97343286D01*
X116805807Y-97233985D01*
X116819313Y-97161496D01*
X116832414Y-97143714D01*
X116891998Y-97175339D01*
X116930680Y-97252446D01*
X116935534Y-97348388D01*
X116934469Y-97354156D01*
X116928026Y-97448329D01*
X116946051Y-97509080D01*
X116981036Y-97521434D01*
X117007176Y-97499218D01*
X117057439Y-97386981D01*
X117065093Y-97254472D01*
X117061775Y-97234429D01*
X117016169Y-97124938D01*
X116927152Y-97060754D01*
X116784899Y-97035723D01*
X116743153Y-97034857D01*
X116651221Y-97039151D01*
X116651221Y-97147685D01*
X116682420Y-97172796D01*
X116691642Y-97259744D01*
X116691714Y-97273375D01*
X116684635Y-97360299D01*
X116657534Y-97391809D01*
X116628214Y-97390933D01*
X116575138Y-97349880D01*
X116551818Y-97275206D01*
X116564688Y-97202015D01*
X116588754Y-97175588D01*
X116651221Y-97147685D01*
X116651221Y-97039151D01*
X116622442Y-97040496D01*
X116546885Y-97063864D01*
X116489512Y-97114633D01*
X116476634Y-97130465D01*
X116423977Y-97217355D01*
X116401441Y-97294114D01*
X116401429Y-97295400D01*
X116433150Y-97386734D01*
G36*
X116464092Y-93638442D02*
G01*
X116524789Y-93705087D01*
X116579463Y-93718737D01*
X116683714Y-93728542D01*
X116809643Y-93732302D01*
X116940211Y-93730509D01*
X117014037Y-93721294D01*
X117046896Y-93700018D01*
X117054565Y-93662043D01*
X117054571Y-93660286D01*
X117047254Y-93621086D01*
X117014635Y-93599191D01*
X116940711Y-93589702D01*
X116817575Y-93587715D01*
X116681343Y-93583570D01*
X116601795Y-93568770D01*
X116563395Y-93539763D01*
X116557801Y-93528354D01*
X116550586Y-93443625D01*
X116606097Y-93384970D01*
X116726859Y-93350664D01*
X116831558Y-93341054D01*
X116963033Y-93329736D01*
X117033564Y-93309671D01*
X117054571Y-93277607D01*
X117054571Y-93277554D01*
X117040103Y-93251118D01*
X116988578Y-93234903D01*
X116887818Y-93226844D01*
X116743862Y-93224857D01*
X116592893Y-93226419D01*
X116501085Y-93232981D01*
X116455060Y-93247363D01*
X116441438Y-93272381D01*
X116442387Y-93288357D01*
X116438462Y-93374038D01*
X116424515Y-93432130D01*
X116422424Y-93532539D01*
X116464092Y-93638442D01*
X116464092Y-93638442D01*
G37*
X116464092Y-93638442D02*
X116524789Y-93705087D01*
X116579463Y-93718737D01*
X116683714Y-93728542D01*
X116809643Y-93732302D01*
X116940211Y-93730509D01*
X117014037Y-93721294D01*
X117046896Y-93700018D01*
X117054565Y-93662043D01*
X117054571Y-93660286D01*
X117047254Y-93621086D01*
X117014635Y-93599191D01*
X116940711Y-93589702D01*
X116817575Y-93587715D01*
X116681343Y-93583570D01*
X116601795Y-93568770D01*
X116563395Y-93539763D01*
X116557801Y-93528354D01*
X116550586Y-93443625D01*
X116606097Y-93384970D01*
X116726859Y-93350664D01*
X116831558Y-93341054D01*
X116963033Y-93329736D01*
X117033564Y-93309671D01*
X117054571Y-93277607D01*
X117054571Y-93277554D01*
X117040103Y-93251118D01*
X116988578Y-93234903D01*
X116887818Y-93226844D01*
X116743862Y-93224857D01*
X116592893Y-93226419D01*
X116501085Y-93232981D01*
X116455060Y-93247363D01*
X116441438Y-93272381D01*
X116442387Y-93288357D01*
X116438462Y-93374038D01*
X116424515Y-93432130D01*
X116422424Y-93532539D01*
X116464092Y-93638442D01*
G36*
X116445281Y-95111846D02*
G01*
X116516870Y-95197277D01*
X116640693Y-95241748D01*
X116811082Y-95248059D01*
X116949557Y-95201240D01*
X116997605Y-95163497D01*
X117038806Y-95083015D01*
X117053301Y-94971985D01*
X117040977Y-94862480D01*
X117001721Y-94786574D01*
X116998939Y-94784144D01*
X116930485Y-94752953D01*
X116822581Y-94728047D01*
X116808883Y-94726280D01*
X116808883Y-94861625D01*
X116886316Y-94869613D01*
X116895101Y-94872301D01*
X116937396Y-94921998D01*
X116940285Y-95003881D01*
X116914348Y-95068711D01*
X116853168Y-95100708D01*
X116732188Y-95105520D01*
X116724404Y-95104997D01*
X116625313Y-95094085D01*
X116578920Y-95070280D01*
X116565379Y-95018633D01*
X116564714Y-94984714D01*
X116571684Y-94913254D01*
X116606637Y-94879575D01*
X116690636Y-94865556D01*
X116704601Y-94864368D01*
X116808883Y-94861625D01*
X116808883Y-94726280D01*
X116771772Y-94721491D01*
X116607849Y-94728987D01*
X116494142Y-94786356D01*
X116433272Y-94891682D01*
X116423200Y-94976649D01*
X116445281Y-95111846D01*
X116445281Y-95111846D01*
G37*
X116445281Y-95111846D02*
X116516870Y-95197277D01*
X116640693Y-95241748D01*
X116811082Y-95248059D01*
X116949557Y-95201240D01*
X116997605Y-95163497D01*
X117038806Y-95083015D01*
X117053301Y-94971985D01*
X117040977Y-94862480D01*
X117001721Y-94786574D01*
X116998939Y-94784144D01*
X116930485Y-94752953D01*
X116822581Y-94728047D01*
X116808883Y-94726280D01*
X116808883Y-94861625D01*
X116886316Y-94869613D01*
X116895101Y-94872301D01*
X116937396Y-94921998D01*
X116940285Y-95003881D01*
X116914348Y-95068711D01*
X116853168Y-95100708D01*
X116732188Y-95105520D01*
X116724404Y-95104997D01*
X116625313Y-95094085D01*
X116578920Y-95070280D01*
X116565379Y-95018633D01*
X116564714Y-94984714D01*
X116571684Y-94913254D01*
X116606637Y-94879575D01*
X116690636Y-94865556D01*
X116704601Y-94864368D01*
X116808883Y-94861625D01*
X116808883Y-94726280D01*
X116771772Y-94721491D01*
X116607849Y-94728987D01*
X116494142Y-94786356D01*
X116433272Y-94891682D01*
X116423200Y-94976649D01*
X116445281Y-95111846D01*
G36*
X116435731Y-96417697D02*
G01*
X116480579Y-96447041D01*
X116524828Y-96418214D01*
X116555921Y-96344621D01*
X116563094Y-96281735D01*
X116567424Y-96228845D01*
X116589062Y-96198127D01*
X116644218Y-96182327D01*
X116749104Y-96174192D01*
X116809643Y-96171414D01*
X116940821Y-96163230D01*
X117014988Y-96149667D01*
X117047704Y-96125536D01*
X117054571Y-96089771D01*
X117048444Y-96055284D01*
X117020639Y-96034203D01*
X116957024Y-96023284D01*
X116843464Y-96019285D01*
X116745566Y-96018857D01*
X116436561Y-96018857D01*
X116440260Y-96118643D01*
X116435118Y-96222572D01*
X116422222Y-96291000D01*
X116419960Y-96375920D01*
X116435731Y-96417697D01*
X116435731Y-96417697D01*
G37*
X116435731Y-96417697D02*
X116480579Y-96447041D01*
X116524828Y-96418214D01*
X116555921Y-96344621D01*
X116563094Y-96281735D01*
X116567424Y-96228845D01*
X116589062Y-96198127D01*
X116644218Y-96182327D01*
X116749104Y-96174192D01*
X116809643Y-96171414D01*
X116940821Y-96163230D01*
X117014988Y-96149667D01*
X117047704Y-96125536D01*
X117054571Y-96089771D01*
X117048444Y-96055284D01*
X117020639Y-96034203D01*
X116957024Y-96023284D01*
X116843464Y-96019285D01*
X116745566Y-96018857D01*
X116436561Y-96018857D01*
X116440260Y-96118643D01*
X116435118Y-96222572D01*
X116422222Y-96291000D01*
X116419960Y-96375920D01*
X116435731Y-96417697D01*
G36*
X111859982Y-94818278D02*
G01*
X111999096Y-94842973D01*
X112111480Y-94866797D01*
X112176856Y-94885353D01*
X112182956Y-94888316D01*
X112215720Y-94932371D01*
X112263143Y-95023687D01*
X112309662Y-95129857D01*
X112397946Y-95347572D01*
X112222545Y-95609004D01*
X112143420Y-95729955D01*
X112082847Y-95828289D01*
X112050244Y-95888475D01*
X112047143Y-95898314D01*
X112071075Y-95934972D01*
X112135005Y-96009079D01*
X112227131Y-96107257D01*
X112270724Y-96151777D01*
X112494305Y-96377363D01*
X112760596Y-96191439D01*
X113026886Y-96005515D01*
X113235515Y-96090290D01*
X113352338Y-96139952D01*
X113443728Y-96182778D01*
X113483609Y-96205372D01*
X113508891Y-96253928D01*
X113538802Y-96353710D01*
X113567294Y-96484162D01*
X113570028Y-96499197D01*
X113595280Y-96634271D01*
X113617899Y-96743689D01*
X113633325Y-96805525D01*
X113634230Y-96808072D01*
X113674119Y-96826755D01*
X113765006Y-96841215D01*
X113887244Y-96850916D01*
X114021185Y-96855322D01*
X114147182Y-96853897D01*
X114245586Y-96846107D01*
X114296751Y-96831415D01*
X114299915Y-96826214D01*
X114308351Y-96780145D01*
X114328041Y-96681940D01*
X114355186Y-96550456D01*
X114363415Y-96511148D01*
X114423857Y-96223295D01*
X114674954Y-96120808D01*
X114926051Y-96018322D01*
X115185987Y-96198016D01*
X115445923Y-96377709D01*
X115669676Y-96151950D01*
X115770048Y-96047750D01*
X115847119Y-95962167D01*
X115889098Y-95908540D01*
X115893429Y-95898813D01*
X115874496Y-95857760D01*
X115824255Y-95773259D01*
X115752543Y-95661644D01*
X115732152Y-95631030D01*
X115652484Y-95509649D01*
X115608599Y-95430171D01*
X115594862Y-95374904D01*
X115605640Y-95326158D01*
X115623295Y-95289257D01*
X115660296Y-95208035D01*
X115675714Y-95154965D01*
X115675714Y-95154926D01*
X115644305Y-95132292D01*
X115559443Y-95089024D01*
X115435180Y-95031132D01*
X115285567Y-94964629D01*
X115124655Y-94895524D01*
X114966494Y-94829829D01*
X114825136Y-94773555D01*
X114714631Y-94732713D01*
X114649031Y-94713314D01*
X114641571Y-94712517D01*
X114599017Y-94738691D01*
X114533313Y-94804806D01*
X114500891Y-94843410D01*
X114343006Y-94990220D01*
X114161725Y-95076370D01*
X113969758Y-95104149D01*
X113779817Y-95075849D01*
X113604611Y-94993761D01*
X113456853Y-94860175D01*
X113349251Y-94677382D01*
X113332931Y-94632912D01*
X113297746Y-94425120D01*
X113326022Y-94229294D01*
X113408687Y-94055048D01*
X113536670Y-93911995D01*
X113700898Y-93809750D01*
X113892300Y-93757926D01*
X114101803Y-93766138D01*
X114142347Y-93775138D01*
X114279353Y-93827356D01*
X114405539Y-93919279D01*
X114475560Y-93988194D01*
X114636711Y-94157925D01*
X115146190Y-93948244D01*
X115324257Y-93872777D01*
X115476999Y-93803900D01*
X115592383Y-93747367D01*
X115658377Y-93708929D01*
X115669103Y-93698262D01*
X115660422Y-93641904D01*
X115621135Y-93564249D01*
X115592615Y-93515515D01*
X115585164Y-93471966D01*
X115604031Y-93416778D01*
X115654467Y-93333127D01*
X115726580Y-93226346D01*
X115804161Y-93108880D01*
X115862538Y-93013015D01*
X115891801Y-92955277D01*
X115893429Y-92948156D01*
X115869241Y-92908418D01*
X115804975Y-92832928D01*
X115713070Y-92736015D01*
X115683733Y-92706650D01*
X115583369Y-92610358D01*
X115501937Y-92537815D01*
X115453377Y-92501263D01*
X115447441Y-92499143D01*
X115406861Y-92517970D01*
X115322265Y-92568056D01*
X115209618Y-92639806D01*
X115171251Y-92665111D01*
X114921658Y-92831080D01*
X114672758Y-92727931D01*
X114423857Y-92624783D01*
X114363415Y-92335177D01*
X114334969Y-92197431D01*
X114312888Y-92087779D01*
X114300938Y-92025017D01*
X114299915Y-92018357D01*
X114264924Y-92006321D01*
X114173829Y-91997009D01*
X114043085Y-91991792D01*
X113972731Y-91991143D01*
X113821417Y-91990799D01*
X113757717Y-91995436D01*
X113757717Y-92136286D01*
X114211724Y-92136286D01*
X114315000Y-92698714D01*
X114529932Y-92802797D01*
X114712896Y-92883720D01*
X114855182Y-92923241D01*
X114975898Y-92921091D01*
X115094151Y-92877002D01*
X115225815Y-92793026D01*
X115435599Y-92642803D01*
X115591942Y-92796242D01*
X115674679Y-92880459D01*
X115731308Y-92943874D01*
X115748170Y-92969341D01*
X115729431Y-93007036D01*
X115680168Y-93087994D01*
X115610628Y-93195443D01*
X115603143Y-93206714D01*
X115509478Y-93360575D01*
X115464835Y-93469506D01*
X115467211Y-93540185D01*
X115494286Y-93569572D01*
X115529134Y-93613094D01*
X115530571Y-93622453D01*
X115499523Y-93645345D01*
X115416804Y-93688470D01*
X115298056Y-93744934D01*
X115158919Y-93807842D01*
X115015033Y-93870301D01*
X114882038Y-93925414D01*
X114775576Y-93966289D01*
X114711285Y-93986030D01*
X114703908Y-93986857D01*
X114662238Y-93962591D01*
X114594262Y-93901710D01*
X114566717Y-93873425D01*
X114388523Y-93731394D01*
X114188021Y-93650200D01*
X113977469Y-93626869D01*
X113769125Y-93658427D01*
X113575248Y-93741900D01*
X113408095Y-93874315D01*
X113279924Y-94052698D01*
X113220949Y-94199908D01*
X113186108Y-94429209D01*
X113213150Y-94639571D01*
X113292697Y-94825789D01*
X113415372Y-94982657D01*
X113571797Y-95104969D01*
X113752595Y-95187519D01*
X113948387Y-95225102D01*
X114149797Y-95212512D01*
X114347447Y-95144543D01*
X114531960Y-95015989D01*
X114588597Y-94959132D01*
X114688726Y-94849505D01*
X115111365Y-95022539D01*
X115291578Y-95098348D01*
X115412329Y-95154874D01*
X115482494Y-95197258D01*
X115510950Y-95230640D01*
X115510028Y-95253429D01*
X115481322Y-95338839D01*
X115479875Y-95412988D01*
X115510632Y-95497310D01*
X115578538Y-95613241D01*
X115601177Y-95648558D01*
X115672239Y-95761973D01*
X115724446Y-95851907D01*
X115747868Y-95901126D01*
X115748286Y-95903860D01*
X115724308Y-95942568D01*
X115662562Y-96012920D01*
X115605048Y-96071425D01*
X115461811Y-96211293D01*
X115230590Y-96060647D01*
X115109039Y-95987469D01*
X115002469Y-95933907D01*
X114931795Y-95910324D01*
X114926512Y-95910000D01*
X114856653Y-95923673D01*
X114745352Y-95958751D01*
X114615826Y-96006326D01*
X114491290Y-96057487D01*
X114394960Y-96103326D01*
X114354464Y-96129533D01*
X114331946Y-96178177D01*
X114302023Y-96278583D01*
X114270371Y-96411133D01*
X114263496Y-96443851D01*
X114205636Y-96726429D01*
X113983446Y-96737119D01*
X113761255Y-96747809D01*
X113735931Y-96610119D01*
X113700485Y-96417249D01*
X113671817Y-96281712D01*
X113641677Y-96189844D01*
X113601815Y-96127979D01*
X113543981Y-96082452D01*
X113459927Y-96039598D01*
X113365738Y-95996908D01*
X113234860Y-95939528D01*
X113127021Y-95896395D01*
X113060931Y-95874868D01*
X113052544Y-95873715D01*
X113004416Y-95893197D01*
X112914324Y-95944986D01*
X112799279Y-96019092D01*
X112763291Y-96043596D01*
X112516902Y-96213477D01*
X112357189Y-96056731D01*
X112197476Y-95899984D01*
X112358167Y-95660451D01*
X112434707Y-95536976D01*
X112491455Y-95427557D01*
X112518062Y-95352589D01*
X112518857Y-95343726D01*
X112503341Y-95257960D01*
X112463923Y-95135451D01*
X112411293Y-95003254D01*
X112356145Y-94888422D01*
X112312430Y-94821429D01*
X112254546Y-94788673D01*
X112146433Y-94751547D01*
X112009516Y-94717183D01*
X111982692Y-94711688D01*
X111702428Y-94656375D01*
X111691376Y-94442911D01*
X111689157Y-94309560D01*
X111709500Y-94229697D01*
X111767123Y-94185726D01*
X111876747Y-94160049D01*
X111935217Y-94151412D01*
X112106626Y-94123519D01*
X112223169Y-94089316D01*
X112302342Y-94036968D01*
X112361640Y-93954636D01*
X112418558Y-93830485D01*
X112422030Y-93822057D01*
X112471064Y-93691278D01*
X112505761Y-93576995D01*
X112518466Y-93505353D01*
X112498170Y-93437830D01*
X112444853Y-93333059D01*
X112369257Y-93211680D01*
X112354300Y-93189929D01*
X112190525Y-92955430D01*
X112508881Y-92637074D01*
X112768356Y-92809613D01*
X112893694Y-92890300D01*
X112990622Y-92938461D01*
X113078046Y-92954182D01*
X113174871Y-92937550D01*
X113300002Y-92888653D01*
X113461443Y-92812814D01*
X113545523Y-92768023D01*
X113603677Y-92718962D01*
X113644707Y-92649603D01*
X113677415Y-92543920D01*
X113710602Y-92385885D01*
X113718384Y-92344929D01*
X113757717Y-92136286D01*
X113757717Y-91995436D01*
X113721714Y-91998058D01*
X113660215Y-92025357D01*
X113623512Y-92085136D01*
X113598199Y-92189832D01*
X113570868Y-92351882D01*
X113568447Y-92366202D01*
X113535548Y-92514684D01*
X113486685Y-92617489D01*
X113406541Y-92690980D01*
X113279797Y-92751520D01*
X113172378Y-92789304D01*
X113099636Y-92810972D01*
X113041753Y-92815038D01*
X112979756Y-92795732D01*
X112894674Y-92747284D01*
X112773779Y-92668076D01*
X112654269Y-92590744D01*
X112557403Y-92532024D01*
X112499127Y-92501440D01*
X112490942Y-92499143D01*
X112450597Y-92523984D01*
X112377693Y-92588216D01*
X112287213Y-92676399D01*
X112194140Y-92773096D01*
X112113461Y-92862869D01*
X112060158Y-92930280D01*
X112047143Y-92956389D01*
X112066715Y-93002349D01*
X112118563Y-93089928D01*
X112192381Y-93201977D01*
X112210037Y-93227480D01*
X112287747Y-93345860D01*
X112345418Y-93447261D01*
X112372504Y-93512808D01*
X112373323Y-93519699D01*
X112359466Y-93583502D01*
X112323242Y-93687153D01*
X112286287Y-93776372D01*
X112198860Y-93974060D01*
X111932502Y-94021520D01*
X111796743Y-94046883D01*
X111686608Y-94069599D01*
X111623860Y-94085151D01*
X111620786Y-94086230D01*
X111596616Y-94124505D01*
X111581851Y-94221208D01*
X111575709Y-94382391D01*
X111575429Y-94437773D01*
X111575429Y-94772067D01*
X111859982Y-94818278D01*
X111859982Y-94818278D01*
G37*
X111859982Y-94818278D02*
X111999096Y-94842973D01*
X112111480Y-94866797D01*
X112176856Y-94885353D01*
X112182956Y-94888316D01*
X112215720Y-94932371D01*
X112263143Y-95023687D01*
X112309662Y-95129857D01*
X112397946Y-95347572D01*
X112222545Y-95609004D01*
X112143420Y-95729955D01*
X112082847Y-95828289D01*
X112050244Y-95888475D01*
X112047143Y-95898314D01*
X112071075Y-95934972D01*
X112135005Y-96009079D01*
X112227131Y-96107257D01*
X112270724Y-96151777D01*
X112494305Y-96377363D01*
X112760596Y-96191439D01*
X113026886Y-96005515D01*
X113235515Y-96090290D01*
X113352338Y-96139952D01*
X113443728Y-96182778D01*
X113483609Y-96205372D01*
X113508891Y-96253928D01*
X113538802Y-96353710D01*
X113567294Y-96484162D01*
X113570028Y-96499197D01*
X113595280Y-96634271D01*
X113617899Y-96743689D01*
X113633325Y-96805525D01*
X113634230Y-96808072D01*
X113674119Y-96826755D01*
X113765006Y-96841215D01*
X113887244Y-96850916D01*
X114021185Y-96855322D01*
X114147182Y-96853897D01*
X114245586Y-96846107D01*
X114296751Y-96831415D01*
X114299915Y-96826214D01*
X114308351Y-96780145D01*
X114328041Y-96681940D01*
X114355186Y-96550456D01*
X114363415Y-96511148D01*
X114423857Y-96223295D01*
X114674954Y-96120808D01*
X114926051Y-96018322D01*
X115185987Y-96198016D01*
X115445923Y-96377709D01*
X115669676Y-96151950D01*
X115770048Y-96047750D01*
X115847119Y-95962167D01*
X115889098Y-95908540D01*
X115893429Y-95898813D01*
X115874496Y-95857760D01*
X115824255Y-95773259D01*
X115752543Y-95661644D01*
X115732152Y-95631030D01*
X115652484Y-95509649D01*
X115608599Y-95430171D01*
X115594862Y-95374904D01*
X115605640Y-95326158D01*
X115623295Y-95289257D01*
X115660296Y-95208035D01*
X115675714Y-95154965D01*
X115675714Y-95154926D01*
X115644305Y-95132292D01*
X115559443Y-95089024D01*
X115435180Y-95031132D01*
X115285567Y-94964629D01*
X115124655Y-94895524D01*
X114966494Y-94829829D01*
X114825136Y-94773555D01*
X114714631Y-94732713D01*
X114649031Y-94713314D01*
X114641571Y-94712517D01*
X114599017Y-94738691D01*
X114533313Y-94804806D01*
X114500891Y-94843410D01*
X114343006Y-94990220D01*
X114161725Y-95076370D01*
X113969758Y-95104149D01*
X113779817Y-95075849D01*
X113604611Y-94993761D01*
X113456853Y-94860175D01*
X113349251Y-94677382D01*
X113332931Y-94632912D01*
X113297746Y-94425120D01*
X113326022Y-94229294D01*
X113408687Y-94055048D01*
X113536670Y-93911995D01*
X113700898Y-93809750D01*
X113892300Y-93757926D01*
X114101803Y-93766138D01*
X114142347Y-93775138D01*
X114279353Y-93827356D01*
X114405539Y-93919279D01*
X114475560Y-93988194D01*
X114636711Y-94157925D01*
X115146190Y-93948244D01*
X115324257Y-93872777D01*
X115476999Y-93803900D01*
X115592383Y-93747367D01*
X115658377Y-93708929D01*
X115669103Y-93698262D01*
X115660422Y-93641904D01*
X115621135Y-93564249D01*
X115592615Y-93515515D01*
X115585164Y-93471966D01*
X115604031Y-93416778D01*
X115654467Y-93333127D01*
X115726580Y-93226346D01*
X115804161Y-93108880D01*
X115862538Y-93013015D01*
X115891801Y-92955277D01*
X115893429Y-92948156D01*
X115869241Y-92908418D01*
X115804975Y-92832928D01*
X115713070Y-92736015D01*
X115683733Y-92706650D01*
X115583369Y-92610358D01*
X115501937Y-92537815D01*
X115453377Y-92501263D01*
X115447441Y-92499143D01*
X115406861Y-92517970D01*
X115322265Y-92568056D01*
X115209618Y-92639806D01*
X115171251Y-92665111D01*
X114921658Y-92831080D01*
X114672758Y-92727931D01*
X114423857Y-92624783D01*
X114363415Y-92335177D01*
X114334969Y-92197431D01*
X114312888Y-92087779D01*
X114300938Y-92025017D01*
X114299915Y-92018357D01*
X114264924Y-92006321D01*
X114173829Y-91997009D01*
X114043085Y-91991792D01*
X113972731Y-91991143D01*
X113821417Y-91990799D01*
X113757717Y-91995436D01*
X113757717Y-92136286D01*
X114211724Y-92136286D01*
X114315000Y-92698714D01*
X114529932Y-92802797D01*
X114712896Y-92883720D01*
X114855182Y-92923241D01*
X114975898Y-92921091D01*
X115094151Y-92877002D01*
X115225815Y-92793026D01*
X115435599Y-92642803D01*
X115591942Y-92796242D01*
X115674679Y-92880459D01*
X115731308Y-92943874D01*
X115748170Y-92969341D01*
X115729431Y-93007036D01*
X115680168Y-93087994D01*
X115610628Y-93195443D01*
X115603143Y-93206714D01*
X115509478Y-93360575D01*
X115464835Y-93469506D01*
X115467211Y-93540185D01*
X115494286Y-93569572D01*
X115529134Y-93613094D01*
X115530571Y-93622453D01*
X115499523Y-93645345D01*
X115416804Y-93688470D01*
X115298056Y-93744934D01*
X115158919Y-93807842D01*
X115015033Y-93870301D01*
X114882038Y-93925414D01*
X114775576Y-93966289D01*
X114711285Y-93986030D01*
X114703908Y-93986857D01*
X114662238Y-93962591D01*
X114594262Y-93901710D01*
X114566717Y-93873425D01*
X114388523Y-93731394D01*
X114188021Y-93650200D01*
X113977469Y-93626869D01*
X113769125Y-93658427D01*
X113575248Y-93741900D01*
X113408095Y-93874315D01*
X113279924Y-94052698D01*
X113220949Y-94199908D01*
X113186108Y-94429209D01*
X113213150Y-94639571D01*
X113292697Y-94825789D01*
X113415372Y-94982657D01*
X113571797Y-95104969D01*
X113752595Y-95187519D01*
X113948387Y-95225102D01*
X114149797Y-95212512D01*
X114347447Y-95144543D01*
X114531960Y-95015989D01*
X114588597Y-94959132D01*
X114688726Y-94849505D01*
X115111365Y-95022539D01*
X115291578Y-95098348D01*
X115412329Y-95154874D01*
X115482494Y-95197258D01*
X115510950Y-95230640D01*
X115510028Y-95253429D01*
X115481322Y-95338839D01*
X115479875Y-95412988D01*
X115510632Y-95497310D01*
X115578538Y-95613241D01*
X115601177Y-95648558D01*
X115672239Y-95761973D01*
X115724446Y-95851907D01*
X115747868Y-95901126D01*
X115748286Y-95903860D01*
X115724308Y-95942568D01*
X115662562Y-96012920D01*
X115605048Y-96071425D01*
X115461811Y-96211293D01*
X115230590Y-96060647D01*
X115109039Y-95987469D01*
X115002469Y-95933907D01*
X114931795Y-95910324D01*
X114926512Y-95910000D01*
X114856653Y-95923673D01*
X114745352Y-95958751D01*
X114615826Y-96006326D01*
X114491290Y-96057487D01*
X114394960Y-96103326D01*
X114354464Y-96129533D01*
X114331946Y-96178177D01*
X114302023Y-96278583D01*
X114270371Y-96411133D01*
X114263496Y-96443851D01*
X114205636Y-96726429D01*
X113983446Y-96737119D01*
X113761255Y-96747809D01*
X113735931Y-96610119D01*
X113700485Y-96417249D01*
X113671817Y-96281712D01*
X113641677Y-96189844D01*
X113601815Y-96127979D01*
X113543981Y-96082452D01*
X113459927Y-96039598D01*
X113365738Y-95996908D01*
X113234860Y-95939528D01*
X113127021Y-95896395D01*
X113060931Y-95874868D01*
X113052544Y-95873715D01*
X113004416Y-95893197D01*
X112914324Y-95944986D01*
X112799279Y-96019092D01*
X112763291Y-96043596D01*
X112516902Y-96213477D01*
X112357189Y-96056731D01*
X112197476Y-95899984D01*
X112358167Y-95660451D01*
X112434707Y-95536976D01*
X112491455Y-95427557D01*
X112518062Y-95352589D01*
X112518857Y-95343726D01*
X112503341Y-95257960D01*
X112463923Y-95135451D01*
X112411293Y-95003254D01*
X112356145Y-94888422D01*
X112312430Y-94821429D01*
X112254546Y-94788673D01*
X112146433Y-94751547D01*
X112009516Y-94717183D01*
X111982692Y-94711688D01*
X111702428Y-94656375D01*
X111691376Y-94442911D01*
X111689157Y-94309560D01*
X111709500Y-94229697D01*
X111767123Y-94185726D01*
X111876747Y-94160049D01*
X111935217Y-94151412D01*
X112106626Y-94123519D01*
X112223169Y-94089316D01*
X112302342Y-94036968D01*
X112361640Y-93954636D01*
X112418558Y-93830485D01*
X112422030Y-93822057D01*
X112471064Y-93691278D01*
X112505761Y-93576995D01*
X112518466Y-93505353D01*
X112498170Y-93437830D01*
X112444853Y-93333059D01*
X112369257Y-93211680D01*
X112354300Y-93189929D01*
X112190525Y-92955430D01*
X112508881Y-92637074D01*
X112768356Y-92809613D01*
X112893694Y-92890300D01*
X112990622Y-92938461D01*
X113078046Y-92954182D01*
X113174871Y-92937550D01*
X113300002Y-92888653D01*
X113461443Y-92812814D01*
X113545523Y-92768023D01*
X113603677Y-92718962D01*
X113644707Y-92649603D01*
X113677415Y-92543920D01*
X113710602Y-92385885D01*
X113718384Y-92344929D01*
X113757717Y-92136286D01*
X113757717Y-91995436D01*
X113721714Y-91998058D01*
X113660215Y-92025357D01*
X113623512Y-92085136D01*
X113598199Y-92189832D01*
X113570868Y-92351882D01*
X113568447Y-92366202D01*
X113535548Y-92514684D01*
X113486685Y-92617489D01*
X113406541Y-92690980D01*
X113279797Y-92751520D01*
X113172378Y-92789304D01*
X113099636Y-92810972D01*
X113041753Y-92815038D01*
X112979756Y-92795732D01*
X112894674Y-92747284D01*
X112773779Y-92668076D01*
X112654269Y-92590744D01*
X112557403Y-92532024D01*
X112499127Y-92501440D01*
X112490942Y-92499143D01*
X112450597Y-92523984D01*
X112377693Y-92588216D01*
X112287213Y-92676399D01*
X112194140Y-92773096D01*
X112113461Y-92862869D01*
X112060158Y-92930280D01*
X112047143Y-92956389D01*
X112066715Y-93002349D01*
X112118563Y-93089928D01*
X112192381Y-93201977D01*
X112210037Y-93227480D01*
X112287747Y-93345860D01*
X112345418Y-93447261D01*
X112372504Y-93512808D01*
X112373323Y-93519699D01*
X112359466Y-93583502D01*
X112323242Y-93687153D01*
X112286287Y-93776372D01*
X112198860Y-93974060D01*
X111932502Y-94021520D01*
X111796743Y-94046883D01*
X111686608Y-94069599D01*
X111623860Y-94085151D01*
X111620786Y-94086230D01*
X111596616Y-94124505D01*
X111581851Y-94221208D01*
X111575709Y-94382391D01*
X111575429Y-94437773D01*
X111575429Y-94772067D01*
X111859982Y-94818278D01*
G36*
X171193441Y-104575199D02*
G01*
X171220785Y-104754350D01*
X171233533Y-104808000D01*
X171333601Y-105097865D01*
X171472376Y-105364993D01*
X171646774Y-105606300D01*
X171853710Y-105818702D01*
X172090100Y-105999115D01*
X172352860Y-106144453D01*
X172638905Y-106251632D01*
X172692000Y-106266467D01*
X172860391Y-106298873D01*
X173054947Y-106316474D01*
X173259574Y-106319254D01*
X173458177Y-106307191D01*
X173634662Y-106280269D01*
X173687066Y-106267646D01*
X173981283Y-106165334D01*
X174250578Y-106025269D01*
X174492409Y-105849928D01*
X174704235Y-105641788D01*
X174883515Y-105403328D01*
X175027708Y-105137024D01*
X175129722Y-104861031D01*
X175168606Y-104687491D01*
X175193156Y-104489418D01*
X175202492Y-104284189D01*
X175195735Y-104089185D01*
X175176223Y-103942091D01*
X175095241Y-103644939D01*
X174973979Y-103368481D01*
X174814847Y-103115786D01*
X174620251Y-102889923D01*
X174392600Y-102693962D01*
X174134300Y-102530972D01*
X174027660Y-102477878D01*
X173872507Y-102410626D01*
X173733383Y-102362573D01*
X173596528Y-102330928D01*
X173448184Y-102312901D01*
X173274595Y-102305699D01*
X173176909Y-102305274D01*
X173119656Y-102305903D01*
X173119656Y-102534304D01*
X173331791Y-102537966D01*
X173532283Y-102561623D01*
X173648966Y-102587999D01*
X173920442Y-102687716D01*
X174167882Y-102825150D01*
X174388251Y-102996891D01*
X174578513Y-103199529D01*
X174735633Y-103429654D01*
X174856576Y-103683857D01*
X174938305Y-103958728D01*
X174956736Y-104057004D01*
X174967616Y-104182551D01*
X174966961Y-104335299D01*
X174955922Y-104498043D01*
X174935649Y-104653578D01*
X174908341Y-104780952D01*
X174810556Y-105047325D01*
X174668881Y-105301115D01*
X174528662Y-105488977D01*
X174470932Y-105558044D01*
X174320375Y-105408826D01*
X174245995Y-105332288D01*
X174200321Y-105276430D01*
X174177054Y-105231812D01*
X174169895Y-105188992D01*
X174169819Y-105183153D01*
X174153174Y-105079309D01*
X174109704Y-104971298D01*
X174049237Y-104883361D01*
X174000132Y-104831091D01*
X174073430Y-104831091D01*
X174116811Y-104828868D01*
X174138442Y-104814251D01*
X174145892Y-104775318D01*
X174146728Y-104715637D01*
X174146728Y-104600182D01*
X173555777Y-104600182D01*
X173467290Y-104501350D01*
X173467290Y-104819546D01*
X173703100Y-105069901D01*
X173785723Y-105158629D01*
X173855703Y-105235703D01*
X173907486Y-105294852D01*
X173935518Y-105329808D01*
X173938909Y-105336082D01*
X173926953Y-105364883D01*
X173902747Y-105403535D01*
X173834850Y-105465647D01*
X173733117Y-105515547D01*
X173608849Y-105550793D01*
X173473344Y-105568946D01*
X173337905Y-105567565D01*
X173229914Y-105548844D01*
X173112054Y-105498606D01*
X173019089Y-105422760D01*
X172955487Y-105329157D01*
X172925716Y-105225647D01*
X172934244Y-105120083D01*
X172955484Y-105066626D01*
X173038004Y-104956525D01*
X173152212Y-104878420D01*
X173294644Y-104834356D01*
X173362509Y-104826461D01*
X173467290Y-104819546D01*
X173467290Y-104501350D01*
X173264903Y-104275300D01*
X173306146Y-104177968D01*
X173322539Y-104129742D01*
X173334907Y-104068036D01*
X173344038Y-103985145D01*
X173350718Y-103873366D01*
X173355736Y-103724996D01*
X173356798Y-103682319D01*
X173366206Y-103284000D01*
X174146728Y-103284000D01*
X174146728Y-103030000D01*
X172461091Y-103030000D01*
X172461091Y-103284000D01*
X173130728Y-103284000D01*
X173130728Y-103617315D01*
X173129201Y-103741661D01*
X173125010Y-103853689D01*
X173118739Y-103943220D01*
X173110972Y-104000078D01*
X173108208Y-104009861D01*
X173086041Y-104052435D01*
X173067799Y-104066863D01*
X173047210Y-104049968D01*
X173000668Y-104004304D01*
X172933364Y-103935201D01*
X172850488Y-103847991D01*
X172757232Y-103748003D01*
X172755500Y-103746130D01*
X172649132Y-103629920D01*
X172571046Y-103541383D01*
X172517221Y-103475186D01*
X172483637Y-103425998D01*
X172466270Y-103388489D01*
X172465504Y-103383871D01*
X172465504Y-103745603D01*
X172465720Y-103745819D01*
X172484462Y-103766148D01*
X172528479Y-103813379D01*
X172591444Y-103880738D01*
X172667031Y-103961449D01*
X172676929Y-103972008D01*
X172751652Y-104054419D01*
X172811610Y-104125763D01*
X172851239Y-104179022D01*
X172864976Y-104207176D01*
X172864531Y-104208690D01*
X172833298Y-104225652D01*
X172793805Y-104230728D01*
X172698295Y-104212330D01*
X172600649Y-104163729D01*
X172531411Y-104105958D01*
X172497959Y-104059970D01*
X172478116Y-104002488D01*
X172467218Y-103918249D01*
X172465232Y-103889391D01*
X172461838Y-103813719D01*
X172461941Y-103762214D01*
X172465504Y-103745603D01*
X172465504Y-103383871D01*
X172461102Y-103357326D01*
X172461091Y-103355813D01*
X172461091Y-103284000D01*
X172461091Y-103030000D01*
X172230182Y-103030000D01*
X172230182Y-103177918D01*
X172137819Y-103087728D01*
X172086794Y-103032909D01*
X172053250Y-102987293D01*
X172045455Y-102967732D01*
X172065895Y-102929578D01*
X172122183Y-102879822D01*
X172206769Y-102822652D01*
X172312103Y-102762260D01*
X172430634Y-102702834D01*
X172554813Y-102648566D01*
X172677089Y-102603643D01*
X172731451Y-102587036D01*
X172913627Y-102550654D01*
X173119656Y-102534304D01*
X173119656Y-102305903D01*
X173036186Y-102306821D01*
X172928988Y-102311138D01*
X172842678Y-102319705D01*
X172764619Y-102334005D01*
X172682173Y-102355520D01*
X172638970Y-102368346D01*
X172344881Y-102480541D01*
X172077885Y-102629151D01*
X171869063Y-102789718D01*
X171869063Y-103113177D01*
X172046904Y-103302852D01*
X172224744Y-103492528D01*
X172234575Y-103786582D01*
X172240881Y-103924825D01*
X172250107Y-104027221D01*
X172263718Y-104104080D01*
X172283180Y-104165716D01*
X172291170Y-104184546D01*
X172359786Y-104294286D01*
X172453685Y-104386409D01*
X172559514Y-104448726D01*
X172593233Y-104460248D01*
X172709972Y-104480239D01*
X172836586Y-104482241D01*
X172952755Y-104466796D01*
X173009588Y-104449131D01*
X173094783Y-104413534D01*
X173170483Y-104493771D01*
X173214886Y-104543341D01*
X173242121Y-104578571D01*
X173246182Y-104587095D01*
X173224189Y-104590893D01*
X173162597Y-104594257D01*
X173067991Y-104597020D01*
X172946952Y-104599011D01*
X172806064Y-104600061D01*
X172736975Y-104600182D01*
X172227769Y-104600182D01*
X172234748Y-104721409D01*
X172241728Y-104842637D01*
X172559124Y-104849060D01*
X172876521Y-104855484D01*
X172814047Y-104949888D01*
X172764061Y-105061055D01*
X172740197Y-105193993D01*
X172743959Y-105331401D01*
X172771279Y-105442182D01*
X172843843Y-105569552D01*
X172952589Y-105672502D01*
X173093087Y-105748602D01*
X173260910Y-105795419D01*
X173442455Y-105810560D01*
X173621285Y-105798704D01*
X173770255Y-105760640D01*
X173899860Y-105692620D01*
X173999161Y-105611753D01*
X174118375Y-105499005D01*
X174201372Y-105598002D01*
X174246881Y-105654102D01*
X174277200Y-105694954D01*
X174284776Y-105708546D01*
X174267491Y-105726642D01*
X174222357Y-105761503D01*
X174175547Y-105794348D01*
X173935586Y-105929406D01*
X173676529Y-106022447D01*
X173398304Y-106073491D01*
X173188455Y-106084250D01*
X172916623Y-106067172D01*
X172667716Y-106013920D01*
X172432999Y-105921947D01*
X172225396Y-105803121D01*
X171994948Y-105625865D01*
X171801058Y-105420758D01*
X171643246Y-105187120D01*
X171521033Y-104924270D01*
X171451546Y-104704091D01*
X171428976Y-104576412D01*
X171417193Y-104420043D01*
X171416116Y-104251178D01*
X171425661Y-104086009D01*
X171445746Y-103940732D01*
X171455669Y-103895909D01*
X171507963Y-103729970D01*
X171580520Y-103557115D01*
X171665375Y-103394054D01*
X171754560Y-103257495D01*
X171768877Y-103238998D01*
X171869063Y-103113177D01*
X171869063Y-102789718D01*
X171840146Y-102811953D01*
X171633829Y-103026723D01*
X171461100Y-103271238D01*
X171324124Y-103543274D01*
X171232355Y-103812935D01*
X171200345Y-103978161D01*
X171183202Y-104171010D01*
X171180907Y-104375388D01*
X171193441Y-104575199D01*
X171193441Y-104575199D01*
G37*
X171193441Y-104575199D02*
X171220785Y-104754350D01*
X171233533Y-104808000D01*
X171333601Y-105097865D01*
X171472376Y-105364993D01*
X171646774Y-105606300D01*
X171853710Y-105818702D01*
X172090100Y-105999115D01*
X172352860Y-106144453D01*
X172638905Y-106251632D01*
X172692000Y-106266467D01*
X172860391Y-106298873D01*
X173054947Y-106316474D01*
X173259574Y-106319254D01*
X173458177Y-106307191D01*
X173634662Y-106280269D01*
X173687066Y-106267646D01*
X173981283Y-106165334D01*
X174250578Y-106025269D01*
X174492409Y-105849928D01*
X174704235Y-105641788D01*
X174883515Y-105403328D01*
X175027708Y-105137024D01*
X175129722Y-104861031D01*
X175168606Y-104687491D01*
X175193156Y-104489418D01*
X175202492Y-104284189D01*
X175195735Y-104089185D01*
X175176223Y-103942091D01*
X175095241Y-103644939D01*
X174973979Y-103368481D01*
X174814847Y-103115786D01*
X174620251Y-102889923D01*
X174392600Y-102693962D01*
X174134300Y-102530972D01*
X174027660Y-102477878D01*
X173872507Y-102410626D01*
X173733383Y-102362573D01*
X173596528Y-102330928D01*
X173448184Y-102312901D01*
X173274595Y-102305699D01*
X173176909Y-102305274D01*
X173119656Y-102305903D01*
X173119656Y-102534304D01*
X173331791Y-102537966D01*
X173532283Y-102561623D01*
X173648966Y-102587999D01*
X173920442Y-102687716D01*
X174167882Y-102825150D01*
X174388251Y-102996891D01*
X174578513Y-103199529D01*
X174735633Y-103429654D01*
X174856576Y-103683857D01*
X174938305Y-103958728D01*
X174956736Y-104057004D01*
X174967616Y-104182551D01*
X174966961Y-104335299D01*
X174955922Y-104498043D01*
X174935649Y-104653578D01*
X174908341Y-104780952D01*
X174810556Y-105047325D01*
X174668881Y-105301115D01*
X174528662Y-105488977D01*
X174470932Y-105558044D01*
X174320375Y-105408826D01*
X174245995Y-105332288D01*
X174200321Y-105276430D01*
X174177054Y-105231812D01*
X174169895Y-105188992D01*
X174169819Y-105183153D01*
X174153174Y-105079309D01*
X174109704Y-104971298D01*
X174049237Y-104883361D01*
X174000132Y-104831091D01*
X174073430Y-104831091D01*
X174116811Y-104828868D01*
X174138442Y-104814251D01*
X174145892Y-104775318D01*
X174146728Y-104715637D01*
X174146728Y-104600182D01*
X173555777Y-104600182D01*
X173467290Y-104501350D01*
X173467290Y-104819546D01*
X173703100Y-105069901D01*
X173785723Y-105158629D01*
X173855703Y-105235703D01*
X173907486Y-105294852D01*
X173935518Y-105329808D01*
X173938909Y-105336082D01*
X173926953Y-105364883D01*
X173902747Y-105403535D01*
X173834850Y-105465647D01*
X173733117Y-105515547D01*
X173608849Y-105550793D01*
X173473344Y-105568946D01*
X173337905Y-105567565D01*
X173229914Y-105548844D01*
X173112054Y-105498606D01*
X173019089Y-105422760D01*
X172955487Y-105329157D01*
X172925716Y-105225647D01*
X172934244Y-105120083D01*
X172955484Y-105066626D01*
X173038004Y-104956525D01*
X173152212Y-104878420D01*
X173294644Y-104834356D01*
X173362509Y-104826461D01*
X173467290Y-104819546D01*
X173467290Y-104501350D01*
X173264903Y-104275300D01*
X173306146Y-104177968D01*
X173322539Y-104129742D01*
X173334907Y-104068036D01*
X173344038Y-103985145D01*
X173350718Y-103873366D01*
X173355736Y-103724996D01*
X173356798Y-103682319D01*
X173366206Y-103284000D01*
X174146728Y-103284000D01*
X174146728Y-103030000D01*
X172461091Y-103030000D01*
X172461091Y-103284000D01*
X173130728Y-103284000D01*
X173130728Y-103617315D01*
X173129201Y-103741661D01*
X173125010Y-103853689D01*
X173118739Y-103943220D01*
X173110972Y-104000078D01*
X173108208Y-104009861D01*
X173086041Y-104052435D01*
X173067799Y-104066863D01*
X173047210Y-104049968D01*
X173000668Y-104004304D01*
X172933364Y-103935201D01*
X172850488Y-103847991D01*
X172757232Y-103748003D01*
X172755500Y-103746130D01*
X172649132Y-103629920D01*
X172571046Y-103541383D01*
X172517221Y-103475186D01*
X172483637Y-103425998D01*
X172466270Y-103388489D01*
X172465504Y-103383871D01*
X172465504Y-103745603D01*
X172465720Y-103745819D01*
X172484462Y-103766148D01*
X172528479Y-103813379D01*
X172591444Y-103880738D01*
X172667031Y-103961449D01*
X172676929Y-103972008D01*
X172751652Y-104054419D01*
X172811610Y-104125763D01*
X172851239Y-104179022D01*
X172864976Y-104207176D01*
X172864531Y-104208690D01*
X172833298Y-104225652D01*
X172793805Y-104230728D01*
X172698295Y-104212330D01*
X172600649Y-104163729D01*
X172531411Y-104105958D01*
X172497959Y-104059970D01*
X172478116Y-104002488D01*
X172467218Y-103918249D01*
X172465232Y-103889391D01*
X172461838Y-103813719D01*
X172461941Y-103762214D01*
X172465504Y-103745603D01*
X172465504Y-103383871D01*
X172461102Y-103357326D01*
X172461091Y-103355813D01*
X172461091Y-103284000D01*
X172461091Y-103030000D01*
X172230182Y-103030000D01*
X172230182Y-103177918D01*
X172137819Y-103087728D01*
X172086794Y-103032909D01*
X172053250Y-102987293D01*
X172045455Y-102967732D01*
X172065895Y-102929578D01*
X172122183Y-102879822D01*
X172206769Y-102822652D01*
X172312103Y-102762260D01*
X172430634Y-102702834D01*
X172554813Y-102648566D01*
X172677089Y-102603643D01*
X172731451Y-102587036D01*
X172913627Y-102550654D01*
X173119656Y-102534304D01*
X173119656Y-102305903D01*
X173036186Y-102306821D01*
X172928988Y-102311138D01*
X172842678Y-102319705D01*
X172764619Y-102334005D01*
X172682173Y-102355520D01*
X172638970Y-102368346D01*
X172344881Y-102480541D01*
X172077885Y-102629151D01*
X171869063Y-102789718D01*
X171869063Y-103113177D01*
X172046904Y-103302852D01*
X172224744Y-103492528D01*
X172234575Y-103786582D01*
X172240881Y-103924825D01*
X172250107Y-104027221D01*
X172263718Y-104104080D01*
X172283180Y-104165716D01*
X172291170Y-104184546D01*
X172359786Y-104294286D01*
X172453685Y-104386409D01*
X172559514Y-104448726D01*
X172593233Y-104460248D01*
X172709972Y-104480239D01*
X172836586Y-104482241D01*
X172952755Y-104466796D01*
X173009588Y-104449131D01*
X173094783Y-104413534D01*
X173170483Y-104493771D01*
X173214886Y-104543341D01*
X173242121Y-104578571D01*
X173246182Y-104587095D01*
X173224189Y-104590893D01*
X173162597Y-104594257D01*
X173067991Y-104597020D01*
X172946952Y-104599011D01*
X172806064Y-104600061D01*
X172736975Y-104600182D01*
X172227769Y-104600182D01*
X172234748Y-104721409D01*
X172241728Y-104842637D01*
X172559124Y-104849060D01*
X172876521Y-104855484D01*
X172814047Y-104949888D01*
X172764061Y-105061055D01*
X172740197Y-105193993D01*
X172743959Y-105331401D01*
X172771279Y-105442182D01*
X172843843Y-105569552D01*
X172952589Y-105672502D01*
X173093087Y-105748602D01*
X173260910Y-105795419D01*
X173442455Y-105810560D01*
X173621285Y-105798704D01*
X173770255Y-105760640D01*
X173899860Y-105692620D01*
X173999161Y-105611753D01*
X174118375Y-105499005D01*
X174201372Y-105598002D01*
X174246881Y-105654102D01*
X174277200Y-105694954D01*
X174284776Y-105708546D01*
X174267491Y-105726642D01*
X174222357Y-105761503D01*
X174175547Y-105794348D01*
X173935586Y-105929406D01*
X173676529Y-106022447D01*
X173398304Y-106073491D01*
X173188455Y-106084250D01*
X172916623Y-106067172D01*
X172667716Y-106013920D01*
X172432999Y-105921947D01*
X172225396Y-105803121D01*
X171994948Y-105625865D01*
X171801058Y-105420758D01*
X171643246Y-105187120D01*
X171521033Y-104924270D01*
X171451546Y-104704091D01*
X171428976Y-104576412D01*
X171417193Y-104420043D01*
X171416116Y-104251178D01*
X171425661Y-104086009D01*
X171445746Y-103940732D01*
X171455669Y-103895909D01*
X171507963Y-103729970D01*
X171580520Y-103557115D01*
X171665375Y-103394054D01*
X171754560Y-103257495D01*
X171768877Y-103238998D01*
X171869063Y-103113177D01*
X171869063Y-102789718D01*
X171840146Y-102811953D01*
X171633829Y-103026723D01*
X171461100Y-103271238D01*
X171324124Y-103543274D01*
X171232355Y-103812935D01*
X171200345Y-103978161D01*
X171183202Y-104171010D01*
X171180907Y-104375388D01*
X171193441Y-104575199D01*
G36*
X124489380Y-97855129D02*
G01*
X124506803Y-97967485D01*
X124528160Y-98055000D01*
X124567440Y-98168792D01*
X124617276Y-98274618D01*
X124678581Y-98374019D01*
X124752267Y-98468535D01*
X124810806Y-98531705D01*
X124902978Y-98617371D01*
X124997912Y-98690134D01*
X125097474Y-98751177D01*
X125203536Y-98801679D01*
X125287857Y-98833145D01*
X125346114Y-98850271D01*
X125412997Y-98866068D01*
X125484242Y-98879806D01*
X125555586Y-98890758D01*
X125622765Y-98898194D01*
X125681517Y-98901385D01*
X125687458Y-98901447D01*
X125731556Y-98901667D01*
X125731556Y-96797038D01*
X125796820Y-96801190D01*
X125916103Y-96815268D01*
X126029336Y-96841836D01*
X126136133Y-96880721D01*
X126236110Y-96931747D01*
X126328881Y-96994740D01*
X126414060Y-97069524D01*
X126434917Y-97090879D01*
X126504438Y-97173250D01*
X126560974Y-97260039D01*
X126604802Y-97351960D01*
X126636197Y-97449726D01*
X126655435Y-97554051D01*
X126662791Y-97665648D01*
X126662889Y-97680737D01*
X126660132Y-97765335D01*
X126651243Y-97842649D01*
X126635293Y-97918511D01*
X126613054Y-97993640D01*
X126579353Y-98083789D01*
X126540250Y-98165139D01*
X126494370Y-98239393D01*
X126440338Y-98308255D01*
X126376779Y-98373428D01*
X126302319Y-98436616D01*
X126215584Y-98499521D01*
X126192103Y-98515217D01*
X126105549Y-98572237D01*
X126170027Y-98696383D01*
X126189863Y-98734496D01*
X126207455Y-98768143D01*
X126221781Y-98795385D01*
X126231822Y-98814282D01*
X126236558Y-98822898D01*
X126236754Y-98823192D01*
X126243690Y-98821259D01*
X126260222Y-98813139D01*
X126284018Y-98800190D01*
X126312750Y-98783769D01*
X126344087Y-98765233D01*
X126375698Y-98745939D01*
X126405254Y-98727244D01*
X126430424Y-98710505D01*
X126431340Y-98709872D01*
X126535042Y-98629822D01*
X126627895Y-98540768D01*
X126709761Y-98442888D01*
X126780499Y-98336356D01*
X126839970Y-98221350D01*
X126863808Y-98164881D01*
X126893521Y-98074807D01*
X126916114Y-97974470D01*
X126931319Y-97865946D01*
X126938864Y-97751310D01*
X126938480Y-97632636D01*
X126937092Y-97602199D01*
X126923762Y-97472404D01*
X126898304Y-97348711D01*
X126860955Y-97231619D01*
X126811953Y-97121627D01*
X126751534Y-97019233D01*
X126679936Y-96924937D01*
X126597395Y-96839237D01*
X126558315Y-96804918D01*
X126446030Y-96719133D01*
X126331092Y-96647132D01*
X126213116Y-96588771D01*
X126091719Y-96543907D01*
X125966519Y-96512395D01*
X125837131Y-96494092D01*
X125714452Y-96488796D01*
X125577671Y-96495592D01*
X125470500Y-96511868D01*
X125470500Y-96828426D01*
X125470500Y-97699241D01*
X125470471Y-97808844D01*
X125470386Y-97914461D01*
X125470249Y-98015242D01*
X125470064Y-98110336D01*
X125469833Y-98198894D01*
X125469562Y-98280064D01*
X125469252Y-98352997D01*
X125468908Y-98416843D01*
X125468533Y-98470750D01*
X125468131Y-98513869D01*
X125467706Y-98545350D01*
X125467261Y-98564343D01*
X125466842Y-98570056D01*
X125455951Y-98567712D01*
X125434792Y-98561363D01*
X125406281Y-98552027D01*
X125373335Y-98540727D01*
X125338869Y-98528482D01*
X125305801Y-98516313D01*
X125277048Y-98505242D01*
X125255526Y-98496287D01*
X125253762Y-98495492D01*
X125163401Y-98446664D01*
X125080548Y-98386269D01*
X125005828Y-98315061D01*
X124939864Y-98233792D01*
X124883282Y-98143213D01*
X124836705Y-98044077D01*
X124806206Y-97956222D01*
X124784265Y-97862019D01*
X124772240Y-97763324D01*
X124769998Y-97662927D01*
X124777405Y-97563618D01*
X124794329Y-97468184D01*
X124820637Y-97379414D01*
X124835489Y-97342415D01*
X124885586Y-97243968D01*
X124945257Y-97155379D01*
X125014804Y-97076393D01*
X125094525Y-97006754D01*
X125184721Y-96946205D01*
X125285691Y-96894492D01*
X125397735Y-96851358D01*
X125419347Y-96844409D01*
X125470500Y-96828426D01*
X125470500Y-96511868D01*
X125445793Y-96515621D01*
X125318815Y-96548881D01*
X125196733Y-96595376D01*
X125079542Y-96655107D01*
X124967238Y-96728074D01*
X124952186Y-96739137D01*
X124851146Y-96821714D01*
X124763016Y-96909358D01*
X124687300Y-97002735D01*
X124623502Y-97102512D01*
X124571124Y-97209354D01*
X124539850Y-97292086D01*
X124511564Y-97394910D01*
X124492328Y-97505612D01*
X124482189Y-97621207D01*
X124481191Y-97738708D01*
X124489380Y-97855129D01*
X124489380Y-97855129D01*
G37*
X124489380Y-97855129D02*
X124506803Y-97967485D01*
X124528160Y-98055000D01*
X124567440Y-98168792D01*
X124617276Y-98274618D01*
X124678581Y-98374019D01*
X124752267Y-98468535D01*
X124810806Y-98531705D01*
X124902978Y-98617371D01*
X124997912Y-98690134D01*
X125097474Y-98751177D01*
X125203536Y-98801679D01*
X125287857Y-98833145D01*
X125346114Y-98850271D01*
X125412997Y-98866068D01*
X125484242Y-98879806D01*
X125555586Y-98890758D01*
X125622765Y-98898194D01*
X125681517Y-98901385D01*
X125687458Y-98901447D01*
X125731556Y-98901667D01*
X125731556Y-96797038D01*
X125796820Y-96801190D01*
X125916103Y-96815268D01*
X126029336Y-96841836D01*
X126136133Y-96880721D01*
X126236110Y-96931747D01*
X126328881Y-96994740D01*
X126414060Y-97069524D01*
X126434917Y-97090879D01*
X126504438Y-97173250D01*
X126560974Y-97260039D01*
X126604802Y-97351960D01*
X126636197Y-97449726D01*
X126655435Y-97554051D01*
X126662791Y-97665648D01*
X126662889Y-97680737D01*
X126660132Y-97765335D01*
X126651243Y-97842649D01*
X126635293Y-97918511D01*
X126613054Y-97993640D01*
X126579353Y-98083789D01*
X126540250Y-98165139D01*
X126494370Y-98239393D01*
X126440338Y-98308255D01*
X126376779Y-98373428D01*
X126302319Y-98436616D01*
X126215584Y-98499521D01*
X126192103Y-98515217D01*
X126105549Y-98572237D01*
X126170027Y-98696383D01*
X126189863Y-98734496D01*
X126207455Y-98768143D01*
X126221781Y-98795385D01*
X126231822Y-98814282D01*
X126236558Y-98822898D01*
X126236754Y-98823192D01*
X126243690Y-98821259D01*
X126260222Y-98813139D01*
X126284018Y-98800190D01*
X126312750Y-98783769D01*
X126344087Y-98765233D01*
X126375698Y-98745939D01*
X126405254Y-98727244D01*
X126430424Y-98710505D01*
X126431340Y-98709872D01*
X126535042Y-98629822D01*
X126627895Y-98540768D01*
X126709761Y-98442888D01*
X126780499Y-98336356D01*
X126839970Y-98221350D01*
X126863808Y-98164881D01*
X126893521Y-98074807D01*
X126916114Y-97974470D01*
X126931319Y-97865946D01*
X126938864Y-97751310D01*
X126938480Y-97632636D01*
X126937092Y-97602199D01*
X126923762Y-97472404D01*
X126898304Y-97348711D01*
X126860955Y-97231619D01*
X126811953Y-97121627D01*
X126751534Y-97019233D01*
X126679936Y-96924937D01*
X126597395Y-96839237D01*
X126558315Y-96804918D01*
X126446030Y-96719133D01*
X126331092Y-96647132D01*
X126213116Y-96588771D01*
X126091719Y-96543907D01*
X125966519Y-96512395D01*
X125837131Y-96494092D01*
X125714452Y-96488796D01*
X125577671Y-96495592D01*
X125470500Y-96511868D01*
X125470500Y-96828426D01*
X125470500Y-97699241D01*
X125470471Y-97808844D01*
X125470386Y-97914461D01*
X125470249Y-98015242D01*
X125470064Y-98110336D01*
X125469833Y-98198894D01*
X125469562Y-98280064D01*
X125469252Y-98352997D01*
X125468908Y-98416843D01*
X125468533Y-98470750D01*
X125468131Y-98513869D01*
X125467706Y-98545350D01*
X125467261Y-98564343D01*
X125466842Y-98570056D01*
X125455951Y-98567712D01*
X125434792Y-98561363D01*
X125406281Y-98552027D01*
X125373335Y-98540727D01*
X125338869Y-98528482D01*
X125305801Y-98516313D01*
X125277048Y-98505242D01*
X125255526Y-98496287D01*
X125253762Y-98495492D01*
X125163401Y-98446664D01*
X125080548Y-98386269D01*
X125005828Y-98315061D01*
X124939864Y-98233792D01*
X124883282Y-98143213D01*
X124836705Y-98044077D01*
X124806206Y-97956222D01*
X124784265Y-97862019D01*
X124772240Y-97763324D01*
X124769998Y-97662927D01*
X124777405Y-97563618D01*
X124794329Y-97468184D01*
X124820637Y-97379414D01*
X124835489Y-97342415D01*
X124885586Y-97243968D01*
X124945257Y-97155379D01*
X125014804Y-97076393D01*
X125094525Y-97006754D01*
X125184721Y-96946205D01*
X125285691Y-96894492D01*
X125397735Y-96851358D01*
X125419347Y-96844409D01*
X125470500Y-96828426D01*
X125470500Y-96511868D01*
X125445793Y-96515621D01*
X125318815Y-96548881D01*
X125196733Y-96595376D01*
X125079542Y-96655107D01*
X124967238Y-96728074D01*
X124952186Y-96739137D01*
X124851146Y-96821714D01*
X124763016Y-96909358D01*
X124687300Y-97002735D01*
X124623502Y-97102512D01*
X124571124Y-97209354D01*
X124539850Y-97292086D01*
X124511564Y-97394910D01*
X124492328Y-97505612D01*
X124482189Y-97621207D01*
X124481191Y-97738708D01*
X124489380Y-97855129D01*
G36*
X125296538Y-86650559D02*
G01*
X125437774Y-86716411D01*
X125575645Y-86780684D01*
X125709606Y-86843122D01*
X125839109Y-86903472D01*
X125963609Y-86961480D01*
X126082561Y-87016892D01*
X126195417Y-87069453D01*
X126301632Y-87118909D01*
X126400660Y-87165007D01*
X126491954Y-87207492D01*
X126574969Y-87246109D01*
X126649158Y-87280605D01*
X126713976Y-87310726D01*
X126768877Y-87336217D01*
X126813314Y-87356825D01*
X126846741Y-87372295D01*
X126868613Y-87382372D01*
X126878382Y-87386804D01*
X126878872Y-87387000D01*
X126879630Y-87380266D01*
X126880162Y-87361349D01*
X126880458Y-87332174D01*
X126880503Y-87294667D01*
X126880286Y-87250754D01*
X126879973Y-87217325D01*
X126878083Y-87047651D01*
X126357736Y-86799501D01*
X125837389Y-86551352D01*
X125837389Y-85187908D01*
X126357736Y-84940800D01*
X126878083Y-84693693D01*
X126879968Y-84516379D01*
X126881853Y-84339066D01*
X126851746Y-84353367D01*
X126842713Y-84357641D01*
X126821481Y-84367674D01*
X126788613Y-84383202D01*
X126744671Y-84403960D01*
X126690217Y-84429681D01*
X126625811Y-84460102D01*
X126552017Y-84494955D01*
X126469396Y-84533976D01*
X126378509Y-84576900D01*
X126279920Y-84623462D01*
X126174189Y-84673395D01*
X126061878Y-84726434D01*
X125943550Y-84782315D01*
X125819766Y-84840772D01*
X125691088Y-84901539D01*
X125558078Y-84964351D01*
X125523636Y-84980615D01*
X125523636Y-85336653D01*
X125525685Y-85338064D01*
X125527444Y-85342075D01*
X125528937Y-85349608D01*
X125530184Y-85361583D01*
X125531209Y-85378922D01*
X125532032Y-85402545D01*
X125532676Y-85433374D01*
X125533162Y-85472331D01*
X125533513Y-85520335D01*
X125533750Y-85578308D01*
X125533895Y-85647172D01*
X125533971Y-85727847D01*
X125533998Y-85821255D01*
X125534000Y-85872650D01*
X125534000Y-86412418D01*
X125475792Y-86385099D01*
X125460232Y-86377798D01*
X125433003Y-86365023D01*
X125395211Y-86347293D01*
X125347962Y-86325126D01*
X125292362Y-86299042D01*
X125229518Y-86269560D01*
X125160534Y-86237199D01*
X125086517Y-86202476D01*
X125008574Y-86165912D01*
X124927810Y-86128025D01*
X124906056Y-86117820D01*
X124826466Y-86080420D01*
X124750705Y-86044693D01*
X124679726Y-86011097D01*
X124614483Y-85980089D01*
X124555927Y-85952126D01*
X124505014Y-85927664D01*
X124462697Y-85907162D01*
X124429928Y-85891077D01*
X124407661Y-85879864D01*
X124396849Y-85873983D01*
X124395945Y-85873228D01*
X124402323Y-85869694D01*
X124420346Y-85860657D01*
X124448903Y-85846644D01*
X124486885Y-85828186D01*
X124533179Y-85805811D01*
X124586675Y-85780050D01*
X124646263Y-85751430D01*
X124710831Y-85720483D01*
X124779269Y-85687737D01*
X124850466Y-85653722D01*
X124923312Y-85618966D01*
X124996695Y-85584000D01*
X125069504Y-85549352D01*
X125140629Y-85515553D01*
X125208960Y-85483130D01*
X125273385Y-85452615D01*
X125332793Y-85424536D01*
X125386074Y-85399422D01*
X125432117Y-85377804D01*
X125469812Y-85360209D01*
X125498046Y-85347169D01*
X125515711Y-85339211D01*
X125521278Y-85336920D01*
X125523636Y-85336653D01*
X125523636Y-84980615D01*
X125421298Y-85028943D01*
X125281309Y-85095049D01*
X125269417Y-85100665D01*
X123717195Y-85833661D01*
X123717195Y-85914118D01*
X125296538Y-86650559D01*
X125296538Y-86650559D01*
G37*
X125296538Y-86650559D02*
X125437774Y-86716411D01*
X125575645Y-86780684D01*
X125709606Y-86843122D01*
X125839109Y-86903472D01*
X125963609Y-86961480D01*
X126082561Y-87016892D01*
X126195417Y-87069453D01*
X126301632Y-87118909D01*
X126400660Y-87165007D01*
X126491954Y-87207492D01*
X126574969Y-87246109D01*
X126649158Y-87280605D01*
X126713976Y-87310726D01*
X126768877Y-87336217D01*
X126813314Y-87356825D01*
X126846741Y-87372295D01*
X126868613Y-87382372D01*
X126878382Y-87386804D01*
X126878872Y-87387000D01*
X126879630Y-87380266D01*
X126880162Y-87361349D01*
X126880458Y-87332174D01*
X126880503Y-87294667D01*
X126880286Y-87250754D01*
X126879973Y-87217325D01*
X126878083Y-87047651D01*
X126357736Y-86799501D01*
X125837389Y-86551352D01*
X125837389Y-85187908D01*
X126357736Y-84940800D01*
X126878083Y-84693693D01*
X126879968Y-84516379D01*
X126881853Y-84339066D01*
X126851746Y-84353367D01*
X126842713Y-84357641D01*
X126821481Y-84367674D01*
X126788613Y-84383202D01*
X126744671Y-84403960D01*
X126690217Y-84429681D01*
X126625811Y-84460102D01*
X126552017Y-84494955D01*
X126469396Y-84533976D01*
X126378509Y-84576900D01*
X126279920Y-84623462D01*
X126174189Y-84673395D01*
X126061878Y-84726434D01*
X125943550Y-84782315D01*
X125819766Y-84840772D01*
X125691088Y-84901539D01*
X125558078Y-84964351D01*
X125523636Y-84980615D01*
X125523636Y-85336653D01*
X125525685Y-85338064D01*
X125527444Y-85342075D01*
X125528937Y-85349608D01*
X125530184Y-85361583D01*
X125531209Y-85378922D01*
X125532032Y-85402545D01*
X125532676Y-85433374D01*
X125533162Y-85472331D01*
X125533513Y-85520335D01*
X125533750Y-85578308D01*
X125533895Y-85647172D01*
X125533971Y-85727847D01*
X125533998Y-85821255D01*
X125534000Y-85872650D01*
X125534000Y-86412418D01*
X125475792Y-86385099D01*
X125460232Y-86377798D01*
X125433003Y-86365023D01*
X125395211Y-86347293D01*
X125347962Y-86325126D01*
X125292362Y-86299042D01*
X125229518Y-86269560D01*
X125160534Y-86237199D01*
X125086517Y-86202476D01*
X125008574Y-86165912D01*
X124927810Y-86128025D01*
X124906056Y-86117820D01*
X124826466Y-86080420D01*
X124750705Y-86044693D01*
X124679726Y-86011097D01*
X124614483Y-85980089D01*
X124555927Y-85952126D01*
X124505014Y-85927664D01*
X124462697Y-85907162D01*
X124429928Y-85891077D01*
X124407661Y-85879864D01*
X124396849Y-85873983D01*
X124395945Y-85873228D01*
X124402323Y-85869694D01*
X124420346Y-85860657D01*
X124448903Y-85846644D01*
X124486885Y-85828186D01*
X124533179Y-85805811D01*
X124586675Y-85780050D01*
X124646263Y-85751430D01*
X124710831Y-85720483D01*
X124779269Y-85687737D01*
X124850466Y-85653722D01*
X124923312Y-85618966D01*
X124996695Y-85584000D01*
X125069504Y-85549352D01*
X125140629Y-85515553D01*
X125208960Y-85483130D01*
X125273385Y-85452615D01*
X125332793Y-85424536D01*
X125386074Y-85399422D01*
X125432117Y-85377804D01*
X125469812Y-85360209D01*
X125498046Y-85347169D01*
X125515711Y-85339211D01*
X125521278Y-85336920D01*
X125523636Y-85336653D01*
X125523636Y-84980615D01*
X125421298Y-85028943D01*
X125281309Y-85095049D01*
X125269417Y-85100665D01*
X123717195Y-85833661D01*
X123717195Y-85914118D01*
X125296538Y-86650559D01*
G36*
X126881611Y-88085500D02*
G01*
X126881611Y-87782111D01*
X123636056Y-87782111D01*
X123636056Y-88085500D01*
X126881611Y-88085500D01*
X126881611Y-88085500D01*
G37*
X126881611Y-88085500D02*
X126881611Y-87782111D01*
X123636056Y-87782111D01*
X123636056Y-88085500D01*
X126881611Y-88085500D01*
G36*
X126881611Y-88967445D02*
G01*
X126881611Y-88664056D01*
X123636056Y-88664056D01*
X123636056Y-88967445D01*
X126881611Y-88967445D01*
X126881611Y-88967445D01*
G37*
X126881611Y-88967445D02*
X126881611Y-88664056D01*
X123636056Y-88664056D01*
X123636056Y-88967445D01*
X126881611Y-88967445D01*
G36*
X123732940Y-93278268D02*
G01*
X123741457Y-93275740D01*
X123762929Y-93269501D01*
X123796746Y-93259726D01*
X123842297Y-93246591D01*
X123898972Y-93230270D01*
X123966160Y-93210940D01*
X124043251Y-93188775D01*
X124129635Y-93163950D01*
X124224701Y-93136642D01*
X124327840Y-93107026D01*
X124438440Y-93075276D01*
X124555891Y-93041568D01*
X124679583Y-93006077D01*
X124808905Y-92968979D01*
X124943248Y-92930449D01*
X125082000Y-92890662D01*
X125224551Y-92849794D01*
X125304695Y-92826821D01*
X125448976Y-92785465D01*
X125589740Y-92745114D01*
X125726379Y-92705944D01*
X125858286Y-92668129D01*
X125984855Y-92631841D01*
X126105479Y-92597256D01*
X126219551Y-92564547D01*
X126326466Y-92533888D01*
X126425616Y-92505454D01*
X126516394Y-92479417D01*
X126598195Y-92455953D01*
X126670411Y-92435235D01*
X126732436Y-92417437D01*
X126783663Y-92402733D01*
X126823486Y-92391297D01*
X126851297Y-92383303D01*
X126866491Y-92378925D01*
X126869264Y-92378117D01*
X126877667Y-92371326D01*
X126881250Y-92355632D01*
X126881611Y-92344168D01*
X126881611Y-92314009D01*
X125685751Y-91845759D01*
X125561508Y-91797074D01*
X125440889Y-91749738D01*
X125324543Y-91704008D01*
X125213118Y-91660143D01*
X125107264Y-91618399D01*
X125007628Y-91579035D01*
X124914860Y-91542307D01*
X124829607Y-91508474D01*
X124752518Y-91477794D01*
X124684243Y-91450523D01*
X124625428Y-91426919D01*
X124576724Y-91407241D01*
X124538779Y-91391746D01*
X124512240Y-91380690D01*
X124497757Y-91374333D01*
X124495126Y-91372825D01*
X124502123Y-91369762D01*
X124521572Y-91361735D01*
X124552819Y-91349008D01*
X124595210Y-91331843D01*
X124648089Y-91310504D01*
X124710802Y-91285252D01*
X124782693Y-91256351D01*
X124863108Y-91224064D01*
X124951393Y-91188653D01*
X125046892Y-91150381D01*
X125148950Y-91109511D01*
X125256913Y-91066306D01*
X125370127Y-91021028D01*
X125487935Y-90973941D01*
X125609683Y-90925308D01*
X125690986Y-90892846D01*
X126881611Y-90417552D01*
X126881611Y-90387470D01*
X126881241Y-90369007D01*
X126880311Y-90358156D01*
X126879847Y-90356992D01*
X126872992Y-90355066D01*
X126853154Y-90349476D01*
X126820928Y-90340389D01*
X126776912Y-90327975D01*
X126721702Y-90312401D01*
X126655896Y-90293836D01*
X126580090Y-90272448D01*
X126494881Y-90248405D01*
X126400865Y-90221877D01*
X126298640Y-90193031D01*
X126188802Y-90162035D01*
X126071948Y-90129059D01*
X125948675Y-90094271D01*
X125819579Y-90057838D01*
X125685257Y-90019930D01*
X125546306Y-89980715D01*
X125403323Y-89940361D01*
X125297639Y-89910533D01*
X123717195Y-89464471D01*
X123715291Y-89619729D01*
X123714863Y-89665389D01*
X123714727Y-89706430D01*
X123714871Y-89740704D01*
X123715281Y-89766065D01*
X123715944Y-89780368D01*
X123716296Y-89782564D01*
X123723291Y-89785268D01*
X123743167Y-89791582D01*
X123775218Y-89801302D01*
X123818739Y-89814225D01*
X123873025Y-89830148D01*
X123937369Y-89848868D01*
X124011067Y-89870182D01*
X124093413Y-89893886D01*
X124183702Y-89919779D01*
X124281228Y-89947656D01*
X124385285Y-89977315D01*
X124495169Y-90008552D01*
X124610173Y-90041165D01*
X124729592Y-90074950D01*
X124852721Y-90109704D01*
X124855916Y-90110605D01*
X125003430Y-90152209D01*
X125137917Y-90190177D01*
X125259941Y-90224674D01*
X125370064Y-90255865D01*
X125468848Y-90283915D01*
X125556858Y-90308990D01*
X125634655Y-90331253D01*
X125702804Y-90350871D01*
X125761865Y-90368008D01*
X125812403Y-90382829D01*
X125854981Y-90395500D01*
X125890161Y-90406184D01*
X125918506Y-90415048D01*
X125940579Y-90422255D01*
X125956943Y-90427972D01*
X125968160Y-90432363D01*
X125974795Y-90435593D01*
X125977409Y-90437828D01*
X125976745Y-90439147D01*
X125968576Y-90442585D01*
X125947977Y-90450961D01*
X125915630Y-90464002D01*
X125872220Y-90481436D01*
X125818430Y-90502990D01*
X125754942Y-90528391D01*
X125682440Y-90557366D01*
X125601608Y-90589642D01*
X125513128Y-90624947D01*
X125417683Y-90663007D01*
X125315959Y-90703550D01*
X125208636Y-90746304D01*
X125096399Y-90790995D01*
X124979932Y-90837350D01*
X124859916Y-90885097D01*
X124837264Y-90894106D01*
X123713667Y-91340988D01*
X123713667Y-91405519D01*
X124852900Y-91853357D01*
X125012785Y-91916255D01*
X125159697Y-91974147D01*
X125293826Y-92027110D01*
X125415363Y-92075221D01*
X125524499Y-92118556D01*
X125621425Y-92157192D01*
X125706331Y-92191205D01*
X125779408Y-92220673D01*
X125840847Y-92245672D01*
X125890838Y-92266279D01*
X125929572Y-92282570D01*
X125957241Y-92294623D01*
X125974033Y-92302513D01*
X125980142Y-92306318D01*
X125980025Y-92306639D01*
X125972026Y-92309152D01*
X125951179Y-92315353D01*
X125918199Y-92325035D01*
X125873800Y-92337991D01*
X125818699Y-92354014D01*
X125753609Y-92372897D01*
X125679245Y-92394433D01*
X125596323Y-92418417D01*
X125505557Y-92444640D01*
X125407663Y-92472897D01*
X125303355Y-92502979D01*
X125193349Y-92534682D01*
X125078358Y-92567797D01*
X124959099Y-92602118D01*
X124842556Y-92635637D01*
X123717195Y-92959190D01*
X123715301Y-93121995D01*
X123713408Y-93284801D01*
X123732940Y-93278268D01*
X123732940Y-93278268D01*
G37*
X123732940Y-93278268D02*
X123741457Y-93275740D01*
X123762929Y-93269501D01*
X123796746Y-93259726D01*
X123842297Y-93246591D01*
X123898972Y-93230270D01*
X123966160Y-93210940D01*
X124043251Y-93188775D01*
X124129635Y-93163950D01*
X124224701Y-93136642D01*
X124327840Y-93107026D01*
X124438440Y-93075276D01*
X124555891Y-93041568D01*
X124679583Y-93006077D01*
X124808905Y-92968979D01*
X124943248Y-92930449D01*
X125082000Y-92890662D01*
X125224551Y-92849794D01*
X125304695Y-92826821D01*
X125448976Y-92785465D01*
X125589740Y-92745114D01*
X125726379Y-92705944D01*
X125858286Y-92668129D01*
X125984855Y-92631841D01*
X126105479Y-92597256D01*
X126219551Y-92564547D01*
X126326466Y-92533888D01*
X126425616Y-92505454D01*
X126516394Y-92479417D01*
X126598195Y-92455953D01*
X126670411Y-92435235D01*
X126732436Y-92417437D01*
X126783663Y-92402733D01*
X126823486Y-92391297D01*
X126851297Y-92383303D01*
X126866491Y-92378925D01*
X126869264Y-92378117D01*
X126877667Y-92371326D01*
X126881250Y-92355632D01*
X126881611Y-92344168D01*
X126881611Y-92314009D01*
X125685751Y-91845759D01*
X125561508Y-91797074D01*
X125440889Y-91749738D01*
X125324543Y-91704008D01*
X125213118Y-91660143D01*
X125107264Y-91618399D01*
X125007628Y-91579035D01*
X124914860Y-91542307D01*
X124829607Y-91508474D01*
X124752518Y-91477794D01*
X124684243Y-91450523D01*
X124625428Y-91426919D01*
X124576724Y-91407241D01*
X124538779Y-91391746D01*
X124512240Y-91380690D01*
X124497757Y-91374333D01*
X124495126Y-91372825D01*
X124502123Y-91369762D01*
X124521572Y-91361735D01*
X124552819Y-91349008D01*
X124595210Y-91331843D01*
X124648089Y-91310504D01*
X124710802Y-91285252D01*
X124782693Y-91256351D01*
X124863108Y-91224064D01*
X124951393Y-91188653D01*
X125046892Y-91150381D01*
X125148950Y-91109511D01*
X125256913Y-91066306D01*
X125370127Y-91021028D01*
X125487935Y-90973941D01*
X125609683Y-90925308D01*
X125690986Y-90892846D01*
X126881611Y-90417552D01*
X126881611Y-90387470D01*
X126881241Y-90369007D01*
X126880311Y-90358156D01*
X126879847Y-90356992D01*
X126872992Y-90355066D01*
X126853154Y-90349476D01*
X126820928Y-90340389D01*
X126776912Y-90327975D01*
X126721702Y-90312401D01*
X126655896Y-90293836D01*
X126580090Y-90272448D01*
X126494881Y-90248405D01*
X126400865Y-90221877D01*
X126298640Y-90193031D01*
X126188802Y-90162035D01*
X126071948Y-90129059D01*
X125948675Y-90094271D01*
X125819579Y-90057838D01*
X125685257Y-90019930D01*
X125546306Y-89980715D01*
X125403323Y-89940361D01*
X125297639Y-89910533D01*
X123717195Y-89464471D01*
X123715291Y-89619729D01*
X123714863Y-89665389D01*
X123714727Y-89706430D01*
X123714871Y-89740704D01*
X123715281Y-89766065D01*
X123715944Y-89780368D01*
X123716296Y-89782564D01*
X123723291Y-89785268D01*
X123743167Y-89791582D01*
X123775218Y-89801302D01*
X123818739Y-89814225D01*
X123873025Y-89830148D01*
X123937369Y-89848868D01*
X124011067Y-89870182D01*
X124093413Y-89893886D01*
X124183702Y-89919779D01*
X124281228Y-89947656D01*
X124385285Y-89977315D01*
X124495169Y-90008552D01*
X124610173Y-90041165D01*
X124729592Y-90074950D01*
X124852721Y-90109704D01*
X124855916Y-90110605D01*
X125003430Y-90152209D01*
X125137917Y-90190177D01*
X125259941Y-90224674D01*
X125370064Y-90255865D01*
X125468848Y-90283915D01*
X125556858Y-90308990D01*
X125634655Y-90331253D01*
X125702804Y-90350871D01*
X125761865Y-90368008D01*
X125812403Y-90382829D01*
X125854981Y-90395500D01*
X125890161Y-90406184D01*
X125918506Y-90415048D01*
X125940579Y-90422255D01*
X125956943Y-90427972D01*
X125968160Y-90432363D01*
X125974795Y-90435593D01*
X125977409Y-90437828D01*
X125976745Y-90439147D01*
X125968576Y-90442585D01*
X125947977Y-90450961D01*
X125915630Y-90464002D01*
X125872220Y-90481436D01*
X125818430Y-90502990D01*
X125754942Y-90528391D01*
X125682440Y-90557366D01*
X125601608Y-90589642D01*
X125513128Y-90624947D01*
X125417683Y-90663007D01*
X125315959Y-90703550D01*
X125208636Y-90746304D01*
X125096399Y-90790995D01*
X124979932Y-90837350D01*
X124859916Y-90885097D01*
X124837264Y-90894106D01*
X123713667Y-91340988D01*
X123713667Y-91405519D01*
X124852900Y-91853357D01*
X125012785Y-91916255D01*
X125159697Y-91974147D01*
X125293826Y-92027110D01*
X125415363Y-92075221D01*
X125524499Y-92118556D01*
X125621425Y-92157192D01*
X125706331Y-92191205D01*
X125779408Y-92220673D01*
X125840847Y-92245672D01*
X125890838Y-92266279D01*
X125929572Y-92282570D01*
X125957241Y-92294623D01*
X125974033Y-92302513D01*
X125980142Y-92306318D01*
X125980025Y-92306639D01*
X125972026Y-92309152D01*
X125951179Y-92315353D01*
X125918199Y-92325035D01*
X125873800Y-92337991D01*
X125818699Y-92354014D01*
X125753609Y-92372897D01*
X125679245Y-92394433D01*
X125596323Y-92418417D01*
X125505557Y-92444640D01*
X125407663Y-92472897D01*
X125303355Y-92502979D01*
X125193349Y-92534682D01*
X125078358Y-92567797D01*
X124959099Y-92602118D01*
X124842556Y-92635637D01*
X123717195Y-92959190D01*
X123715301Y-93121995D01*
X123713408Y-93284801D01*
X123732940Y-93278268D01*
G36*
X126881611Y-94103889D02*
G01*
X126881611Y-93800500D01*
X124539167Y-93800500D01*
X124539167Y-94103889D01*
X126881611Y-94103889D01*
X126881611Y-94103889D01*
G37*
X126881611Y-94103889D02*
X126881611Y-93800500D01*
X124539167Y-93800500D01*
X124539167Y-94103889D01*
X126881611Y-94103889D01*
G36*
X124539192Y-95527801D02*
G01*
X124539273Y-95646799D01*
X124539416Y-95752937D01*
X124539627Y-95846840D01*
X124539913Y-95929132D01*
X124540280Y-96000440D01*
X124540734Y-96061389D01*
X124541282Y-96112603D01*
X124541931Y-96154708D01*
X124542687Y-96188329D01*
X124543557Y-96214092D01*
X124544546Y-96232622D01*
X124545661Y-96244544D01*
X124546909Y-96250483D01*
X124547986Y-96251360D01*
X124554785Y-96247053D01*
X124572861Y-96235540D01*
X124601603Y-96217213D01*
X124640397Y-96192464D01*
X124688630Y-96161684D01*
X124745688Y-96125265D01*
X124810959Y-96083598D01*
X124883829Y-96037075D01*
X124963684Y-95986087D01*
X125049912Y-95931026D01*
X125141900Y-95872284D01*
X125239034Y-95810251D01*
X125340700Y-95745319D01*
X125446287Y-95677880D01*
X125555180Y-95608326D01*
X125581913Y-95591250D01*
X125691406Y-95521321D01*
X125797684Y-95453468D01*
X125900139Y-95388080D01*
X125998161Y-95325543D01*
X126091142Y-95266245D01*
X126178473Y-95210574D01*
X126259547Y-95158918D01*
X126333753Y-95111663D01*
X126400484Y-95069197D01*
X126459130Y-95031909D01*
X126509083Y-95000185D01*
X126549735Y-94974413D01*
X126580477Y-94954980D01*
X126600700Y-94942275D01*
X126609795Y-94936685D01*
X126610260Y-94936445D01*
X126610735Y-94943335D01*
X126611189Y-94963343D01*
X126611617Y-94995476D01*
X126612014Y-95038742D01*
X126612374Y-95092147D01*
X126612694Y-95154698D01*
X126612968Y-95225403D01*
X126613190Y-95303268D01*
X126613356Y-95387301D01*
X126613461Y-95476509D01*
X126613500Y-95569898D01*
X126613500Y-96213500D01*
X126881611Y-96213500D01*
X126881611Y-95313500D01*
X126881587Y-95177925D01*
X126881510Y-95055849D01*
X126881373Y-94946659D01*
X126881172Y-94849744D01*
X126880900Y-94764492D01*
X126880552Y-94690291D01*
X126880120Y-94626528D01*
X126879599Y-94572592D01*
X126878983Y-94527870D01*
X126878266Y-94491751D01*
X126877441Y-94463622D01*
X126876504Y-94442871D01*
X126875447Y-94428886D01*
X126874265Y-94421055D01*
X126872952Y-94418766D01*
X126872792Y-94418831D01*
X126865992Y-94423138D01*
X126847910Y-94434646D01*
X126819159Y-94452962D01*
X126780352Y-94477697D01*
X126732102Y-94508458D01*
X126675022Y-94544856D01*
X126609724Y-94586499D01*
X126536823Y-94632996D01*
X126456931Y-94683956D01*
X126370662Y-94738989D01*
X126278627Y-94797702D01*
X126181441Y-94859705D01*
X126079716Y-94924607D01*
X125974066Y-94992017D01*
X125865103Y-95061545D01*
X125837389Y-95079229D01*
X124810806Y-95734297D01*
X124807278Y-95136051D01*
X124803750Y-94537806D01*
X124671458Y-94535886D01*
X124539167Y-94533966D01*
X124539167Y-95395316D01*
X124539192Y-95527801D01*
X124539192Y-95527801D01*
G37*
X124539192Y-95527801D02*
X124539273Y-95646799D01*
X124539416Y-95752937D01*
X124539627Y-95846840D01*
X124539913Y-95929132D01*
X124540280Y-96000440D01*
X124540734Y-96061389D01*
X124541282Y-96112603D01*
X124541931Y-96154708D01*
X124542687Y-96188329D01*
X124543557Y-96214092D01*
X124544546Y-96232622D01*
X124545661Y-96244544D01*
X124546909Y-96250483D01*
X124547986Y-96251360D01*
X124554785Y-96247053D01*
X124572861Y-96235540D01*
X124601603Y-96217213D01*
X124640397Y-96192464D01*
X124688630Y-96161684D01*
X124745688Y-96125265D01*
X124810959Y-96083598D01*
X124883829Y-96037075D01*
X124963684Y-95986087D01*
X125049912Y-95931026D01*
X125141900Y-95872284D01*
X125239034Y-95810251D01*
X125340700Y-95745319D01*
X125446287Y-95677880D01*
X125555180Y-95608326D01*
X125581913Y-95591250D01*
X125691406Y-95521321D01*
X125797684Y-95453468D01*
X125900139Y-95388080D01*
X125998161Y-95325543D01*
X126091142Y-95266245D01*
X126178473Y-95210574D01*
X126259547Y-95158918D01*
X126333753Y-95111663D01*
X126400484Y-95069197D01*
X126459130Y-95031909D01*
X126509083Y-95000185D01*
X126549735Y-94974413D01*
X126580477Y-94954980D01*
X126600700Y-94942275D01*
X126609795Y-94936685D01*
X126610260Y-94936445D01*
X126610735Y-94943335D01*
X126611189Y-94963343D01*
X126611617Y-94995476D01*
X126612014Y-95038742D01*
X126612374Y-95092147D01*
X126612694Y-95154698D01*
X126612968Y-95225403D01*
X126613190Y-95303268D01*
X126613356Y-95387301D01*
X126613461Y-95476509D01*
X126613500Y-95569898D01*
X126613500Y-96213500D01*
X126881611Y-96213500D01*
X126881611Y-95313500D01*
X126881587Y-95177925D01*
X126881510Y-95055849D01*
X126881373Y-94946659D01*
X126881172Y-94849744D01*
X126880900Y-94764492D01*
X126880552Y-94690291D01*
X126880120Y-94626528D01*
X126879599Y-94572592D01*
X126878983Y-94527870D01*
X126878266Y-94491751D01*
X126877441Y-94463622D01*
X126876504Y-94442871D01*
X126875447Y-94428886D01*
X126874265Y-94421055D01*
X126872952Y-94418766D01*
X126872792Y-94418831D01*
X126865992Y-94423138D01*
X126847910Y-94434646D01*
X126819159Y-94452962D01*
X126780352Y-94477697D01*
X126732102Y-94508458D01*
X126675022Y-94544856D01*
X126609724Y-94586499D01*
X126536823Y-94632996D01*
X126456931Y-94683956D01*
X126370662Y-94738989D01*
X126278627Y-94797702D01*
X126181441Y-94859705D01*
X126079716Y-94924607D01*
X125974066Y-94992017D01*
X125865103Y-95061545D01*
X125837389Y-95079229D01*
X124810806Y-95734297D01*
X124807278Y-95136051D01*
X124803750Y-94537806D01*
X124671458Y-94535886D01*
X124539167Y-94533966D01*
X124539167Y-95395316D01*
X124539192Y-95527801D01*
G36*
X124306333Y-101046556D02*
G01*
X124396424Y-101046597D01*
X124482349Y-101046718D01*
X124563076Y-101046912D01*
X124637576Y-101047172D01*
X124704817Y-101047493D01*
X124763770Y-101047867D01*
X124813402Y-101048290D01*
X124852685Y-101048755D01*
X124880586Y-101049255D01*
X124896076Y-101049784D01*
X124899000Y-101050140D01*
X124894259Y-101055631D01*
X124880426Y-101070766D01*
X124858086Y-101094920D01*
X124827825Y-101127467D01*
X124790228Y-101167782D01*
X124745880Y-101215239D01*
X124695368Y-101269212D01*
X124639275Y-101329077D01*
X124578188Y-101394207D01*
X124512693Y-101463977D01*
X124443373Y-101537761D01*
X124370816Y-101614934D01*
X124306424Y-101683376D01*
X123713847Y-102313028D01*
X123713667Y-102743096D01*
X123730285Y-102725617D01*
X123736978Y-102718483D01*
X123752741Y-102701623D01*
X123777021Y-102675632D01*
X123809263Y-102641105D01*
X123848913Y-102598634D01*
X123895416Y-102548814D01*
X123948218Y-102492239D01*
X124006765Y-102429504D01*
X124070503Y-102361201D01*
X124138877Y-102287924D01*
X124211332Y-102210269D01*
X124287315Y-102128829D01*
X124366271Y-102044197D01*
X124439647Y-101965542D01*
X124520530Y-101878863D01*
X124598779Y-101795055D01*
X124673855Y-101714694D01*
X124745218Y-101638355D01*
X124812327Y-101566614D01*
X124874643Y-101500049D01*
X124931626Y-101439235D01*
X124982734Y-101384748D01*
X125027429Y-101337165D01*
X125065169Y-101297061D01*
X125095416Y-101265013D01*
X125117628Y-101241597D01*
X125131266Y-101227389D01*
X125135784Y-101222945D01*
X125141138Y-101227674D01*
X125156116Y-101241452D01*
X125180061Y-101263661D01*
X125212315Y-101293685D01*
X125252221Y-101330907D01*
X125299121Y-101374711D01*
X125352358Y-101424479D01*
X125411273Y-101479596D01*
X125475211Y-101539443D01*
X125543512Y-101603406D01*
X125615520Y-101670866D01*
X125690577Y-101741207D01*
X125768025Y-101813814D01*
X125847208Y-101888068D01*
X125927467Y-101963353D01*
X126008145Y-102039053D01*
X126088584Y-102114551D01*
X126168127Y-102189230D01*
X126246117Y-102262473D01*
X126321896Y-102333664D01*
X126394806Y-102402187D01*
X126464189Y-102467423D01*
X126529390Y-102528758D01*
X126589749Y-102585573D01*
X126644609Y-102637253D01*
X126693313Y-102683181D01*
X126735203Y-102722739D01*
X126769622Y-102755312D01*
X126770486Y-102756131D01*
X126881611Y-102861468D01*
X126881587Y-102650748D01*
X126881564Y-102440028D01*
X126143317Y-101745056D01*
X125405070Y-101050083D01*
X126143340Y-101048287D01*
X126881611Y-101046491D01*
X126881611Y-100729056D01*
X123713667Y-100729056D01*
X123713667Y-101046556D01*
X124306333Y-101046556D01*
X124306333Y-101046556D01*
G37*
X124306333Y-101046556D02*
X124396424Y-101046597D01*
X124482349Y-101046718D01*
X124563076Y-101046912D01*
X124637576Y-101047172D01*
X124704817Y-101047493D01*
X124763770Y-101047867D01*
X124813402Y-101048290D01*
X124852685Y-101048755D01*
X124880586Y-101049255D01*
X124896076Y-101049784D01*
X124899000Y-101050140D01*
X124894259Y-101055631D01*
X124880426Y-101070766D01*
X124858086Y-101094920D01*
X124827825Y-101127467D01*
X124790228Y-101167782D01*
X124745880Y-101215239D01*
X124695368Y-101269212D01*
X124639275Y-101329077D01*
X124578188Y-101394207D01*
X124512693Y-101463977D01*
X124443373Y-101537761D01*
X124370816Y-101614934D01*
X124306424Y-101683376D01*
X123713847Y-102313028D01*
X123713667Y-102743096D01*
X123730285Y-102725617D01*
X123736978Y-102718483D01*
X123752741Y-102701623D01*
X123777021Y-102675632D01*
X123809263Y-102641105D01*
X123848913Y-102598634D01*
X123895416Y-102548814D01*
X123948218Y-102492239D01*
X124006765Y-102429504D01*
X124070503Y-102361201D01*
X124138877Y-102287924D01*
X124211332Y-102210269D01*
X124287315Y-102128829D01*
X124366271Y-102044197D01*
X124439647Y-101965542D01*
X124520530Y-101878863D01*
X124598779Y-101795055D01*
X124673855Y-101714694D01*
X124745218Y-101638355D01*
X124812327Y-101566614D01*
X124874643Y-101500049D01*
X124931626Y-101439235D01*
X124982734Y-101384748D01*
X125027429Y-101337165D01*
X125065169Y-101297061D01*
X125095416Y-101265013D01*
X125117628Y-101241597D01*
X125131266Y-101227389D01*
X125135784Y-101222945D01*
X125141138Y-101227674D01*
X125156116Y-101241452D01*
X125180061Y-101263661D01*
X125212315Y-101293685D01*
X125252221Y-101330907D01*
X125299121Y-101374711D01*
X125352358Y-101424479D01*
X125411273Y-101479596D01*
X125475211Y-101539443D01*
X125543512Y-101603406D01*
X125615520Y-101670866D01*
X125690577Y-101741207D01*
X125768025Y-101813814D01*
X125847208Y-101888068D01*
X125927467Y-101963353D01*
X126008145Y-102039053D01*
X126088584Y-102114551D01*
X126168127Y-102189230D01*
X126246117Y-102262473D01*
X126321896Y-102333664D01*
X126394806Y-102402187D01*
X126464189Y-102467423D01*
X126529390Y-102528758D01*
X126589749Y-102585573D01*
X126644609Y-102637253D01*
X126693313Y-102683181D01*
X126735203Y-102722739D01*
X126769622Y-102755312D01*
X126770486Y-102756131D01*
X126881611Y-102861468D01*
X126881587Y-102650748D01*
X126881564Y-102440028D01*
X126143317Y-101745056D01*
X125405070Y-101050083D01*
X126143340Y-101048287D01*
X126881611Y-101046491D01*
X126881611Y-100729056D01*
X123713667Y-100729056D01*
X123713667Y-101046556D01*
X124306333Y-101046556D01*
G36*
X123639686Y-104297632D02*
G01*
X123653275Y-104414008D01*
X123678823Y-104523267D01*
X123716495Y-104625845D01*
X123766457Y-104722183D01*
X123828874Y-104812717D01*
X123903911Y-104897886D01*
X123915499Y-104909472D01*
X124002172Y-104985695D01*
X124095120Y-105049604D01*
X124195099Y-105101605D01*
X124302862Y-105142108D01*
X124387472Y-105164783D01*
X124411606Y-105169534D01*
X124437695Y-105172996D01*
X124468381Y-105175334D01*
X124506304Y-105176711D01*
X124554106Y-105177294D01*
X124588556Y-105177331D01*
X124639466Y-105177090D01*
X124679265Y-105176399D01*
X124710953Y-105175005D01*
X124737528Y-105172656D01*
X124761990Y-105169099D01*
X124787337Y-105164082D01*
X124811491Y-105158558D01*
X124885957Y-105138288D01*
X124958602Y-105112812D01*
X125030895Y-105081291D01*
X125104306Y-105042888D01*
X125180304Y-104996765D01*
X125260358Y-104942083D01*
X125345937Y-104878005D01*
X125438511Y-104803692D01*
X125449333Y-104794733D01*
X125473321Y-104774774D01*
X125495992Y-104755779D01*
X125518096Y-104737067D01*
X125540382Y-104717961D01*
X125563599Y-104697779D01*
X125588496Y-104675842D01*
X125615824Y-104651472D01*
X125646331Y-104623988D01*
X125680766Y-104592712D01*
X125719880Y-104556963D01*
X125764421Y-104516062D01*
X125815138Y-104469330D01*
X125872782Y-104416087D01*
X125938100Y-104355653D01*
X126011844Y-104287350D01*
X126094762Y-104210498D01*
X126144855Y-104164054D01*
X126210016Y-104103675D01*
X126272242Y-104046094D01*
X126330749Y-103992030D01*
X126384757Y-103942200D01*
X126433483Y-103897324D01*
X126476147Y-103858121D01*
X126511967Y-103825308D01*
X126540161Y-103799606D01*
X126559948Y-103781731D01*
X126570546Y-103772403D01*
X126572131Y-103771176D01*
X126572984Y-103777747D01*
X126573799Y-103797539D01*
X126574569Y-103829661D01*
X126575286Y-103873222D01*
X126575942Y-103927331D01*
X126576531Y-103991099D01*
X126577044Y-104063634D01*
X126577474Y-104144046D01*
X126577814Y-104231444D01*
X126578056Y-104324938D01*
X126578193Y-104423637D01*
X126578222Y-104496134D01*
X126578222Y-105223445D01*
X126881611Y-105223445D01*
X126881611Y-103075787D01*
X126858681Y-103097489D01*
X126839933Y-103115107D01*
X126812068Y-103141116D01*
X126775848Y-103174812D01*
X126732031Y-103215495D01*
X126681380Y-103262463D01*
X126624653Y-103315014D01*
X126562612Y-103372445D01*
X126496016Y-103434056D01*
X126425626Y-103499144D01*
X126352203Y-103567008D01*
X126276506Y-103636945D01*
X126199296Y-103708255D01*
X126121334Y-103780234D01*
X126043380Y-103852182D01*
X125966193Y-103923397D01*
X125890535Y-103993176D01*
X125817166Y-104060818D01*
X125746846Y-104125621D01*
X125680335Y-104186884D01*
X125618395Y-104243904D01*
X125561784Y-104295980D01*
X125511264Y-104342409D01*
X125467595Y-104382491D01*
X125431537Y-104415523D01*
X125403851Y-104440804D01*
X125385296Y-104457631D01*
X125378778Y-104463453D01*
X125288987Y-104541030D01*
X125207149Y-104608527D01*
X125132085Y-104666623D01*
X125062614Y-104715995D01*
X124997558Y-104757322D01*
X124935737Y-104791282D01*
X124875971Y-104818551D01*
X124817081Y-104839809D01*
X124757887Y-104855734D01*
X124697210Y-104867003D01*
X124670530Y-104870567D01*
X124574677Y-104874967D01*
X124479199Y-104865423D01*
X124385253Y-104842077D01*
X124353863Y-104831020D01*
X124286045Y-104798657D01*
X124219318Y-104754307D01*
X124155759Y-104700062D01*
X124097445Y-104638011D01*
X124046453Y-104570244D01*
X124004861Y-104498853D01*
X123988701Y-104463564D01*
X123967949Y-104407287D01*
X123953474Y-104351708D01*
X123944708Y-104293173D01*
X123941083Y-104228030D01*
X123941718Y-104161583D01*
X123945052Y-104096377D01*
X123950972Y-104041454D01*
X123960305Y-103993096D01*
X123973877Y-103947584D01*
X123992514Y-103901200D01*
X124006033Y-103872306D01*
X124055126Y-103787146D01*
X124114837Y-103711065D01*
X124184750Y-103644344D01*
X124264450Y-103587262D01*
X124353523Y-103540099D01*
X124451554Y-103503138D01*
X124558127Y-103476657D01*
X124602667Y-103469119D01*
X124635077Y-103464266D01*
X124663623Y-103459889D01*
X124684555Y-103456569D01*
X124692625Y-103455193D01*
X124708500Y-103452231D01*
X124708500Y-103150449D01*
X124664403Y-103153607D01*
X124534027Y-103168477D01*
X124412598Y-103193901D01*
X124299443Y-103230110D01*
X124193886Y-103277337D01*
X124095253Y-103335812D01*
X124058050Y-103362062D01*
X123964390Y-103439517D01*
X123881414Y-103525270D01*
X123809714Y-103618511D01*
X123749880Y-103718433D01*
X123702503Y-103824227D01*
X123686377Y-103870479D01*
X123667810Y-103934626D01*
X123654301Y-103996800D01*
X123645125Y-104061526D01*
X123639559Y-104133328D01*
X123637891Y-104173701D01*
X123639686Y-104297632D01*
X123639686Y-104297632D01*
G37*
X123639686Y-104297632D02*
X123653275Y-104414008D01*
X123678823Y-104523267D01*
X123716495Y-104625845D01*
X123766457Y-104722183D01*
X123828874Y-104812717D01*
X123903911Y-104897886D01*
X123915499Y-104909472D01*
X124002172Y-104985695D01*
X124095120Y-105049604D01*
X124195099Y-105101605D01*
X124302862Y-105142108D01*
X124387472Y-105164783D01*
X124411606Y-105169534D01*
X124437695Y-105172996D01*
X124468381Y-105175334D01*
X124506304Y-105176711D01*
X124554106Y-105177294D01*
X124588556Y-105177331D01*
X124639466Y-105177090D01*
X124679265Y-105176399D01*
X124710953Y-105175005D01*
X124737528Y-105172656D01*
X124761990Y-105169099D01*
X124787337Y-105164082D01*
X124811491Y-105158558D01*
X124885957Y-105138288D01*
X124958602Y-105112812D01*
X125030895Y-105081291D01*
X125104306Y-105042888D01*
X125180304Y-104996765D01*
X125260358Y-104942083D01*
X125345937Y-104878005D01*
X125438511Y-104803692D01*
X125449333Y-104794733D01*
X125473321Y-104774774D01*
X125495992Y-104755779D01*
X125518096Y-104737067D01*
X125540382Y-104717961D01*
X125563599Y-104697779D01*
X125588496Y-104675842D01*
X125615824Y-104651472D01*
X125646331Y-104623988D01*
X125680766Y-104592712D01*
X125719880Y-104556963D01*
X125764421Y-104516062D01*
X125815138Y-104469330D01*
X125872782Y-104416087D01*
X125938100Y-104355653D01*
X126011844Y-104287350D01*
X126094762Y-104210498D01*
X126144855Y-104164054D01*
X126210016Y-104103675D01*
X126272242Y-104046094D01*
X126330749Y-103992030D01*
X126384757Y-103942200D01*
X126433483Y-103897324D01*
X126476147Y-103858121D01*
X126511967Y-103825308D01*
X126540161Y-103799606D01*
X126559948Y-103781731D01*
X126570546Y-103772403D01*
X126572131Y-103771176D01*
X126572984Y-103777747D01*
X126573799Y-103797539D01*
X126574569Y-103829661D01*
X126575286Y-103873222D01*
X126575942Y-103927331D01*
X126576531Y-103991099D01*
X126577044Y-104063634D01*
X126577474Y-104144046D01*
X126577814Y-104231444D01*
X126578056Y-104324938D01*
X126578193Y-104423637D01*
X126578222Y-104496134D01*
X126578222Y-105223445D01*
X126881611Y-105223445D01*
X126881611Y-103075787D01*
X126858681Y-103097489D01*
X126839933Y-103115107D01*
X126812068Y-103141116D01*
X126775848Y-103174812D01*
X126732031Y-103215495D01*
X126681380Y-103262463D01*
X126624653Y-103315014D01*
X126562612Y-103372445D01*
X126496016Y-103434056D01*
X126425626Y-103499144D01*
X126352203Y-103567008D01*
X126276506Y-103636945D01*
X126199296Y-103708255D01*
X126121334Y-103780234D01*
X126043380Y-103852182D01*
X125966193Y-103923397D01*
X125890535Y-103993176D01*
X125817166Y-104060818D01*
X125746846Y-104125621D01*
X125680335Y-104186884D01*
X125618395Y-104243904D01*
X125561784Y-104295980D01*
X125511264Y-104342409D01*
X125467595Y-104382491D01*
X125431537Y-104415523D01*
X125403851Y-104440804D01*
X125385296Y-104457631D01*
X125378778Y-104463453D01*
X125288987Y-104541030D01*
X125207149Y-104608527D01*
X125132085Y-104666623D01*
X125062614Y-104715995D01*
X124997558Y-104757322D01*
X124935737Y-104791282D01*
X124875971Y-104818551D01*
X124817081Y-104839809D01*
X124757887Y-104855734D01*
X124697210Y-104867003D01*
X124670530Y-104870567D01*
X124574677Y-104874967D01*
X124479199Y-104865423D01*
X124385253Y-104842077D01*
X124353863Y-104831020D01*
X124286045Y-104798657D01*
X124219318Y-104754307D01*
X124155759Y-104700062D01*
X124097445Y-104638011D01*
X124046453Y-104570244D01*
X124004861Y-104498853D01*
X123988701Y-104463564D01*
X123967949Y-104407287D01*
X123953474Y-104351708D01*
X123944708Y-104293173D01*
X123941083Y-104228030D01*
X123941718Y-104161583D01*
X123945052Y-104096377D01*
X123950972Y-104041454D01*
X123960305Y-103993096D01*
X123973877Y-103947584D01*
X123992514Y-103901200D01*
X124006033Y-103872306D01*
X124055126Y-103787146D01*
X124114837Y-103711065D01*
X124184750Y-103644344D01*
X124264450Y-103587262D01*
X124353523Y-103540099D01*
X124451554Y-103503138D01*
X124558127Y-103476657D01*
X124602667Y-103469119D01*
X124635077Y-103464266D01*
X124663623Y-103459889D01*
X124684555Y-103456569D01*
X124692625Y-103455193D01*
X124708500Y-103452231D01*
X124708500Y-103150449D01*
X124664403Y-103153607D01*
X124534027Y-103168477D01*
X124412598Y-103193901D01*
X124299443Y-103230110D01*
X124193886Y-103277337D01*
X124095253Y-103335812D01*
X124058050Y-103362062D01*
X123964390Y-103439517D01*
X123881414Y-103525270D01*
X123809714Y-103618511D01*
X123749880Y-103718433D01*
X123702503Y-103824227D01*
X123686377Y-103870479D01*
X123667810Y-103934626D01*
X123654301Y-103996800D01*
X123645125Y-104061526D01*
X123639559Y-104133328D01*
X123637891Y-104173701D01*
X123639686Y-104297632D01*
G36*
X123585600Y-94019693D02*
G01*
X123605588Y-94068817D01*
X123635171Y-94112304D01*
X123672899Y-94148725D01*
X123717319Y-94176650D01*
X123766982Y-94194652D01*
X123820436Y-94201300D01*
X123870825Y-94196346D01*
X123925082Y-94178406D01*
X123972480Y-94149473D01*
X124011829Y-94111382D01*
X124041937Y-94065966D01*
X124061611Y-94015061D01*
X124069660Y-93960499D01*
X124064892Y-93904114D01*
X124063853Y-93899278D01*
X124051551Y-93857721D01*
X124033722Y-93823288D01*
X124007201Y-93790329D01*
X123996918Y-93779725D01*
X123951306Y-93743427D01*
X123900800Y-93719443D01*
X123847397Y-93707771D01*
X123793094Y-93708412D01*
X123739887Y-93721365D01*
X123689775Y-93746629D01*
X123649045Y-93779817D01*
X123616138Y-93818400D01*
X123594322Y-93858917D01*
X123580927Y-93906429D01*
X123580218Y-93910245D01*
X123576660Y-93966359D01*
X123585600Y-94019693D01*
X123585600Y-94019693D01*
G37*
X123585600Y-94019693D02*
X123605588Y-94068817D01*
X123635171Y-94112304D01*
X123672899Y-94148725D01*
X123717319Y-94176650D01*
X123766982Y-94194652D01*
X123820436Y-94201300D01*
X123870825Y-94196346D01*
X123925082Y-94178406D01*
X123972480Y-94149473D01*
X124011829Y-94111382D01*
X124041937Y-94065966D01*
X124061611Y-94015061D01*
X124069660Y-93960499D01*
X124064892Y-93904114D01*
X124063853Y-93899278D01*
X124051551Y-93857721D01*
X124033722Y-93823288D01*
X124007201Y-93790329D01*
X123996918Y-93779725D01*
X123951306Y-93743427D01*
X123900800Y-93719443D01*
X123847397Y-93707771D01*
X123793094Y-93708412D01*
X123739887Y-93721365D01*
X123689775Y-93746629D01*
X123649045Y-93779817D01*
X123616138Y-93818400D01*
X123594322Y-93858917D01*
X123580927Y-93906429D01*
X123580218Y-93910245D01*
X123576660Y-93966359D01*
X123585600Y-94019693D01*
M02*
