G04 #@! TF.GenerationSoftware,KiCad,Pcbnew,5.1.0-060a0da~80~ubuntu16.04.1*
G04 #@! TF.CreationDate,2019-04-04T13:00:51+02:00*
G04 #@! TF.ProjectId,k2,6b322e6b-6963-4616-945f-706362585858,RevPB*
G04 #@! TF.SameCoordinates,Original*
G04 #@! TF.FileFunction,Other,Fab,Bot*
%FSLAX46Y46*%
G04 Gerber Fmt 4.6, Leading zero omitted, Abs format (unit mm)*
G04 Created by KiCad (PCBNEW 5.1.0-060a0da~80~ubuntu16.04.1) date 2019-04-04 13:00:51*
%MOMM*%
%LPD*%
G04 APERTURE LIST*
%ADD10C,0.100000*%
%ADD11C,0.150000*%
G04 APERTURE END LIST*
D10*
X143925000Y-92985000D02*
X143925000Y-96395000D01*
X150275000Y-95960000D02*
X150275000Y-92985000D01*
X143925000Y-96395000D02*
X149840000Y-96395000D01*
X149840000Y-96395000D02*
X150275000Y-95960000D01*
X150275000Y-92985000D02*
X143925000Y-92985000D01*
X149840000Y-96395000D02*
X149840000Y-97440000D01*
X149840000Y-97440000D02*
X149440000Y-97440000D01*
X149440000Y-97440000D02*
X149440000Y-96395000D01*
X149840000Y-92985000D02*
X149840000Y-91940000D01*
X149840000Y-91940000D02*
X149440000Y-91940000D01*
X149440000Y-91940000D02*
X149440000Y-92985000D01*
X148570000Y-96395000D02*
X148570000Y-97440000D01*
X148570000Y-97440000D02*
X148170000Y-97440000D01*
X148170000Y-97440000D02*
X148170000Y-96395000D01*
X148570000Y-92985000D02*
X148570000Y-91940000D01*
X148570000Y-91940000D02*
X148170000Y-91940000D01*
X148170000Y-91940000D02*
X148170000Y-92985000D01*
X147300000Y-96395000D02*
X147300000Y-97440000D01*
X147300000Y-97440000D02*
X146900000Y-97440000D01*
X146900000Y-97440000D02*
X146900000Y-96395000D01*
X147300000Y-92985000D02*
X147300000Y-91940000D01*
X147300000Y-91940000D02*
X146900000Y-91940000D01*
X146900000Y-91940000D02*
X146900000Y-92985000D01*
X146030000Y-96395000D02*
X146030000Y-97440000D01*
X146030000Y-97440000D02*
X145630000Y-97440000D01*
X145630000Y-97440000D02*
X145630000Y-96395000D01*
X146030000Y-92985000D02*
X146030000Y-91940000D01*
X146030000Y-91940000D02*
X145630000Y-91940000D01*
X145630000Y-91940000D02*
X145630000Y-92985000D01*
X144760000Y-96395000D02*
X144760000Y-97440000D01*
X144760000Y-97440000D02*
X144360000Y-97440000D01*
X144360000Y-97440000D02*
X144360000Y-96395000D01*
X144760000Y-92985000D02*
X144760000Y-91940000D01*
X144760000Y-91940000D02*
X144360000Y-91940000D01*
X144360000Y-91940000D02*
X144360000Y-92985000D01*
X140030000Y-90880000D02*
X134950000Y-90880000D01*
X135900000Y-98500000D02*
X140030000Y-98500000D01*
X134950000Y-90880000D02*
X134950000Y-97550000D01*
X134950000Y-97550000D02*
X135900000Y-98500000D01*
X140030000Y-98500000D02*
X140030000Y-90880000D01*
X134950000Y-97550000D02*
X133890000Y-97550000D01*
X133890000Y-97550000D02*
X133890000Y-96910000D01*
X133890000Y-96910000D02*
X134950000Y-96910000D01*
X140030000Y-97550000D02*
X141090000Y-97550000D01*
X141090000Y-97550000D02*
X141090000Y-96910000D01*
X141090000Y-96910000D02*
X140030000Y-96910000D01*
X134950000Y-95010000D02*
X133890000Y-95010000D01*
X133890000Y-95010000D02*
X133890000Y-94370000D01*
X133890000Y-94370000D02*
X134950000Y-94370000D01*
X140030000Y-95010000D02*
X141090000Y-95010000D01*
X141090000Y-95010000D02*
X141090000Y-94370000D01*
X141090000Y-94370000D02*
X140030000Y-94370000D01*
X134950000Y-92470000D02*
X133890000Y-92470000D01*
X133890000Y-92470000D02*
X133890000Y-91830000D01*
X133890000Y-91830000D02*
X134950000Y-91830000D01*
X140030000Y-92470000D02*
X141090000Y-92470000D01*
X141090000Y-92470000D02*
X141090000Y-91830000D01*
X141090000Y-91830000D02*
X140030000Y-91830000D01*
D11*
X147083333Y-93666666D02*
X147083333Y-94166666D01*
X147116666Y-94266666D01*
X147183333Y-94333333D01*
X147283333Y-94366666D01*
X147350000Y-94366666D01*
X146816666Y-93666666D02*
X146383333Y-93666666D01*
X146616666Y-93933333D01*
X146516666Y-93933333D01*
X146450000Y-93966666D01*
X146416666Y-94000000D01*
X146383333Y-94066666D01*
X146383333Y-94233333D01*
X146416666Y-94300000D01*
X146450000Y-94333333D01*
X146516666Y-94366666D01*
X146716666Y-94366666D01*
X146783333Y-94333333D01*
X146816666Y-94300000D01*
X136942380Y-94356666D02*
X137656666Y-94356666D01*
X137799523Y-94309047D01*
X137894761Y-94213809D01*
X137942380Y-94070952D01*
X137942380Y-93975714D01*
X136942380Y-95309047D02*
X136942380Y-94832857D01*
X137418571Y-94785238D01*
X137370952Y-94832857D01*
X137323333Y-94928095D01*
X137323333Y-95166190D01*
X137370952Y-95261428D01*
X137418571Y-95309047D01*
X137513809Y-95356666D01*
X137751904Y-95356666D01*
X137847142Y-95309047D01*
X137894761Y-95261428D01*
X137942380Y-95166190D01*
X137942380Y-94928095D01*
X137894761Y-94832857D01*
X137847142Y-94785238D01*
M02*
