G04 #@! TF.GenerationSoftware,KiCad,Pcbnew,5.1.0-060a0da~80~ubuntu16.04.1*
G04 #@! TF.CreationDate,2019-04-04T13:00:51+02:00*
G04 #@! TF.ProjectId,k2,6b322e6b-6963-4616-945f-706362585858,RevPB*
G04 #@! TF.SameCoordinates,Original*
G04 #@! TF.FileFunction,Soldermask,Bot*
G04 #@! TF.FilePolarity,Negative*
%FSLAX46Y46*%
G04 Gerber Fmt 4.6, Leading zero omitted, Abs format (unit mm)*
G04 Created by KiCad (PCBNEW 5.1.0-060a0da~80~ubuntu16.04.1) date 2019-04-04 13:00:51*
%MOMM*%
%LPD*%
G04 APERTURE LIST*
%ADD10C,0.150000*%
G04 APERTURE END LIST*
D10*
G36*
X168353779Y-103641879D02*
G01*
X168599463Y-103743645D01*
X168599465Y-103743646D01*
X168710769Y-103818017D01*
X168820574Y-103891386D01*
X169008614Y-104079426D01*
X169156355Y-104300537D01*
X169258121Y-104546221D01*
X169310000Y-104807035D01*
X169310000Y-105072965D01*
X169258121Y-105333779D01*
X169233594Y-105392992D01*
X169156354Y-105579465D01*
X169081983Y-105690769D01*
X169008614Y-105800574D01*
X168820574Y-105988614D01*
X168767489Y-106024084D01*
X168599465Y-106136354D01*
X168599464Y-106136355D01*
X168599463Y-106136355D01*
X168353779Y-106238121D01*
X168092965Y-106290000D01*
X167827035Y-106290000D01*
X167566221Y-106238121D01*
X167320537Y-106136355D01*
X167320536Y-106136355D01*
X167320535Y-106136354D01*
X167152511Y-106024084D01*
X167099426Y-105988614D01*
X166911386Y-105800574D01*
X166838017Y-105690769D01*
X166763646Y-105579465D01*
X166686406Y-105392992D01*
X166661879Y-105333779D01*
X166610000Y-105072965D01*
X166610000Y-104807035D01*
X166661879Y-104546221D01*
X166763645Y-104300537D01*
X166911386Y-104079426D01*
X167099426Y-103891386D01*
X167209231Y-103818017D01*
X167320535Y-103743646D01*
X167320537Y-103743645D01*
X167566221Y-103641879D01*
X167827035Y-103590000D01*
X168092965Y-103590000D01*
X168353779Y-103641879D01*
X168353779Y-103641879D01*
G37*
G36*
X111353779Y-103641879D02*
G01*
X111599463Y-103743645D01*
X111599465Y-103743646D01*
X111710769Y-103818017D01*
X111820574Y-103891386D01*
X112008614Y-104079426D01*
X112156355Y-104300537D01*
X112258121Y-104546221D01*
X112310000Y-104807035D01*
X112310000Y-105072965D01*
X112258121Y-105333779D01*
X112233594Y-105392992D01*
X112156354Y-105579465D01*
X112081983Y-105690769D01*
X112008614Y-105800574D01*
X111820574Y-105988614D01*
X111767489Y-106024084D01*
X111599465Y-106136354D01*
X111599464Y-106136355D01*
X111599463Y-106136355D01*
X111353779Y-106238121D01*
X111092965Y-106290000D01*
X110827035Y-106290000D01*
X110566221Y-106238121D01*
X110320537Y-106136355D01*
X110320536Y-106136355D01*
X110320535Y-106136354D01*
X110152511Y-106024084D01*
X110099426Y-105988614D01*
X109911386Y-105800574D01*
X109838017Y-105690769D01*
X109763646Y-105579465D01*
X109686406Y-105392992D01*
X109661879Y-105333779D01*
X109610000Y-105072965D01*
X109610000Y-104807035D01*
X109661879Y-104546221D01*
X109763645Y-104300537D01*
X109911386Y-104079426D01*
X110099426Y-103891386D01*
X110209231Y-103818017D01*
X110320535Y-103743646D01*
X110320537Y-103743645D01*
X110566221Y-103641879D01*
X110827035Y-103590000D01*
X111092965Y-103590000D01*
X111353779Y-103641879D01*
X111353779Y-103641879D01*
G37*
G36*
X117165637Y-101885916D02*
G01*
X117319033Y-101932449D01*
X117372991Y-101948817D01*
X117564079Y-102050955D01*
X117564080Y-102050956D01*
X117564084Y-102050958D01*
X117731581Y-102188419D01*
X117731583Y-102188422D01*
X117869043Y-102355916D01*
X117971183Y-102547008D01*
X117987551Y-102600966D01*
X118034084Y-102754362D01*
X118050000Y-102915964D01*
X118050000Y-105024036D01*
X118034084Y-105185638D01*
X117989145Y-105333779D01*
X117971183Y-105392992D01*
X117869043Y-105584084D01*
X117731581Y-105751581D01*
X117564084Y-105889043D01*
X117372992Y-105991183D01*
X117319034Y-106007551D01*
X117165638Y-106054084D01*
X116950000Y-106075322D01*
X116734363Y-106054084D01*
X116580967Y-106007551D01*
X116527009Y-105991183D01*
X116335917Y-105889043D01*
X116168420Y-105751581D01*
X116030958Y-105584084D01*
X115928818Y-105392992D01*
X115910856Y-105333779D01*
X115865917Y-105185638D01*
X115850001Y-105024036D01*
X115850000Y-102915965D01*
X115865916Y-102754363D01*
X115928816Y-102547013D01*
X115928817Y-102547009D01*
X116030955Y-102355921D01*
X116030956Y-102355920D01*
X116030958Y-102355916D01*
X116168419Y-102188419D01*
X116221354Y-102144977D01*
X116335916Y-102050957D01*
X116527008Y-101948817D01*
X116580966Y-101932449D01*
X116734362Y-101885916D01*
X116950000Y-101864678D01*
X117165637Y-101885916D01*
X117165637Y-101885916D01*
G37*
G36*
X119705637Y-101885916D02*
G01*
X119859033Y-101932449D01*
X119912991Y-101948817D01*
X120104079Y-102050955D01*
X120104080Y-102050956D01*
X120104084Y-102050958D01*
X120271581Y-102188419D01*
X120271583Y-102188422D01*
X120409043Y-102355916D01*
X120511183Y-102547008D01*
X120527551Y-102600966D01*
X120574084Y-102754362D01*
X120590000Y-102915964D01*
X120590000Y-105024036D01*
X120574084Y-105185638D01*
X120529145Y-105333779D01*
X120511183Y-105392992D01*
X120409043Y-105584084D01*
X120271581Y-105751581D01*
X120104084Y-105889043D01*
X119912992Y-105991183D01*
X119859034Y-106007551D01*
X119705638Y-106054084D01*
X119490000Y-106075322D01*
X119274363Y-106054084D01*
X119120967Y-106007551D01*
X119067009Y-105991183D01*
X118875917Y-105889043D01*
X118708420Y-105751581D01*
X118570958Y-105584084D01*
X118468818Y-105392992D01*
X118450856Y-105333779D01*
X118405917Y-105185638D01*
X118390001Y-105024036D01*
X118390000Y-102915965D01*
X118405916Y-102754363D01*
X118468816Y-102547013D01*
X118468817Y-102547009D01*
X118570955Y-102355921D01*
X118570956Y-102355920D01*
X118570958Y-102355916D01*
X118708419Y-102188419D01*
X118761354Y-102144977D01*
X118875916Y-102050957D01*
X119067008Y-101948817D01*
X119120966Y-101932449D01*
X119274362Y-101885916D01*
X119490000Y-101864678D01*
X119705637Y-101885916D01*
X119705637Y-101885916D01*
G37*
G36*
X138614837Y-103847958D02*
G01*
X138695638Y-103855916D01*
X138812568Y-103891387D01*
X138902992Y-103918817D01*
X139094084Y-104020957D01*
X139261581Y-104158419D01*
X139399043Y-104325916D01*
X139501183Y-104517008D01*
X139501184Y-104517012D01*
X139564084Y-104724362D01*
X139585322Y-104940000D01*
X139564084Y-105155638D01*
X139554984Y-105185636D01*
X139501183Y-105362992D01*
X139399043Y-105554084D01*
X139261581Y-105721581D01*
X139094084Y-105859043D01*
X138902992Y-105961183D01*
X138849034Y-105977551D01*
X138695638Y-106024084D01*
X138614837Y-106032042D01*
X138534038Y-106040000D01*
X138425962Y-106040000D01*
X138345163Y-106032042D01*
X138264362Y-106024084D01*
X138110966Y-105977551D01*
X138057008Y-105961183D01*
X137865916Y-105859043D01*
X137698419Y-105721581D01*
X137560957Y-105554084D01*
X137458817Y-105362992D01*
X137405016Y-105185636D01*
X137395916Y-105155638D01*
X137374678Y-104940000D01*
X137395916Y-104724362D01*
X137458816Y-104517012D01*
X137458817Y-104517008D01*
X137560957Y-104325916D01*
X137698419Y-104158419D01*
X137865916Y-104020957D01*
X138057008Y-103918817D01*
X138147432Y-103891387D01*
X138264362Y-103855916D01*
X138345163Y-103847958D01*
X138425962Y-103840000D01*
X138534038Y-103840000D01*
X138614837Y-103847958D01*
X138614837Y-103847958D01*
G37*
G36*
X131960000Y-106040000D02*
G01*
X129760000Y-106040000D01*
X129760000Y-103840000D01*
X131960000Y-103840000D01*
X131960000Y-106040000D01*
X131960000Y-106040000D01*
G37*
G36*
X133534837Y-103847958D02*
G01*
X133615638Y-103855916D01*
X133732568Y-103891387D01*
X133822992Y-103918817D01*
X134014084Y-104020957D01*
X134181581Y-104158419D01*
X134319043Y-104325916D01*
X134421183Y-104517008D01*
X134421184Y-104517012D01*
X134484084Y-104724362D01*
X134505322Y-104940000D01*
X134484084Y-105155638D01*
X134474984Y-105185636D01*
X134421183Y-105362992D01*
X134319043Y-105554084D01*
X134181581Y-105721581D01*
X134014084Y-105859043D01*
X133822992Y-105961183D01*
X133769034Y-105977551D01*
X133615638Y-106024084D01*
X133534837Y-106032042D01*
X133454038Y-106040000D01*
X133345962Y-106040000D01*
X133265163Y-106032042D01*
X133184362Y-106024084D01*
X133030966Y-105977551D01*
X132977008Y-105961183D01*
X132785916Y-105859043D01*
X132618419Y-105721581D01*
X132480957Y-105554084D01*
X132378817Y-105362992D01*
X132325016Y-105185636D01*
X132315916Y-105155638D01*
X132294678Y-104940000D01*
X132315916Y-104724362D01*
X132378816Y-104517012D01*
X132378817Y-104517008D01*
X132480957Y-104325916D01*
X132618419Y-104158419D01*
X132785916Y-104020957D01*
X132977008Y-103918817D01*
X133067432Y-103891387D01*
X133184362Y-103855916D01*
X133265163Y-103847958D01*
X133345962Y-103840000D01*
X133454038Y-103840000D01*
X133534837Y-103847958D01*
X133534837Y-103847958D01*
G37*
G36*
X136074837Y-103847958D02*
G01*
X136155638Y-103855916D01*
X136272568Y-103891387D01*
X136362992Y-103918817D01*
X136554084Y-104020957D01*
X136721581Y-104158419D01*
X136859043Y-104325916D01*
X136961183Y-104517008D01*
X136961184Y-104517012D01*
X137024084Y-104724362D01*
X137045322Y-104940000D01*
X137024084Y-105155638D01*
X137014984Y-105185636D01*
X136961183Y-105362992D01*
X136859043Y-105554084D01*
X136721581Y-105721581D01*
X136554084Y-105859043D01*
X136362992Y-105961183D01*
X136309034Y-105977551D01*
X136155638Y-106024084D01*
X136074837Y-106032042D01*
X135994038Y-106040000D01*
X135885962Y-106040000D01*
X135805163Y-106032042D01*
X135724362Y-106024084D01*
X135570966Y-105977551D01*
X135517008Y-105961183D01*
X135325916Y-105859043D01*
X135158419Y-105721581D01*
X135020957Y-105554084D01*
X134918817Y-105362992D01*
X134865016Y-105185636D01*
X134855916Y-105155638D01*
X134834678Y-104940000D01*
X134855916Y-104724362D01*
X134918816Y-104517012D01*
X134918817Y-104517008D01*
X135020957Y-104325916D01*
X135158419Y-104158419D01*
X135325916Y-104020957D01*
X135517008Y-103918817D01*
X135607432Y-103891387D01*
X135724362Y-103855916D01*
X135805163Y-103847958D01*
X135885962Y-103840000D01*
X135994038Y-103840000D01*
X136074837Y-103847958D01*
X136074837Y-103847958D01*
G37*
G36*
X143694837Y-103847958D02*
G01*
X143775638Y-103855916D01*
X143892568Y-103891387D01*
X143982992Y-103918817D01*
X144174084Y-104020957D01*
X144341581Y-104158419D01*
X144479043Y-104325916D01*
X144581183Y-104517008D01*
X144581184Y-104517012D01*
X144644084Y-104724362D01*
X144665322Y-104940000D01*
X144644084Y-105155638D01*
X144634984Y-105185636D01*
X144581183Y-105362992D01*
X144479043Y-105554084D01*
X144341581Y-105721581D01*
X144174084Y-105859043D01*
X143982992Y-105961183D01*
X143929034Y-105977551D01*
X143775638Y-106024084D01*
X143694837Y-106032042D01*
X143614038Y-106040000D01*
X143505962Y-106040000D01*
X143425163Y-106032042D01*
X143344362Y-106024084D01*
X143190966Y-105977551D01*
X143137008Y-105961183D01*
X142945916Y-105859043D01*
X142778419Y-105721581D01*
X142640957Y-105554084D01*
X142538817Y-105362992D01*
X142485016Y-105185636D01*
X142475916Y-105155638D01*
X142454678Y-104940000D01*
X142475916Y-104724362D01*
X142538816Y-104517012D01*
X142538817Y-104517008D01*
X142640957Y-104325916D01*
X142778419Y-104158419D01*
X142945916Y-104020957D01*
X143137008Y-103918817D01*
X143227432Y-103891387D01*
X143344362Y-103855916D01*
X143425163Y-103847958D01*
X143505962Y-103840000D01*
X143614038Y-103840000D01*
X143694837Y-103847958D01*
X143694837Y-103847958D01*
G37*
G36*
X146234837Y-103847958D02*
G01*
X146315638Y-103855916D01*
X146432568Y-103891387D01*
X146522992Y-103918817D01*
X146714084Y-104020957D01*
X146881581Y-104158419D01*
X147019043Y-104325916D01*
X147121183Y-104517008D01*
X147121184Y-104517012D01*
X147184084Y-104724362D01*
X147205322Y-104940000D01*
X147184084Y-105155638D01*
X147174984Y-105185636D01*
X147121183Y-105362992D01*
X147019043Y-105554084D01*
X146881581Y-105721581D01*
X146714084Y-105859043D01*
X146522992Y-105961183D01*
X146469034Y-105977551D01*
X146315638Y-106024084D01*
X146234837Y-106032042D01*
X146154038Y-106040000D01*
X146045962Y-106040000D01*
X145965163Y-106032042D01*
X145884362Y-106024084D01*
X145730966Y-105977551D01*
X145677008Y-105961183D01*
X145485916Y-105859043D01*
X145318419Y-105721581D01*
X145180957Y-105554084D01*
X145078817Y-105362992D01*
X145025016Y-105185636D01*
X145015916Y-105155638D01*
X144994678Y-104940000D01*
X145015916Y-104724362D01*
X145078816Y-104517012D01*
X145078817Y-104517008D01*
X145180957Y-104325916D01*
X145318419Y-104158419D01*
X145485916Y-104020957D01*
X145677008Y-103918817D01*
X145767432Y-103891387D01*
X145884362Y-103855916D01*
X145965163Y-103847958D01*
X146045962Y-103840000D01*
X146154038Y-103840000D01*
X146234837Y-103847958D01*
X146234837Y-103847958D01*
G37*
G36*
X148774837Y-103847958D02*
G01*
X148855638Y-103855916D01*
X148972568Y-103891387D01*
X149062992Y-103918817D01*
X149254084Y-104020957D01*
X149421581Y-104158419D01*
X149559043Y-104325916D01*
X149661183Y-104517008D01*
X149661184Y-104517012D01*
X149724084Y-104724362D01*
X149745322Y-104940000D01*
X149724084Y-105155638D01*
X149714984Y-105185636D01*
X149661183Y-105362992D01*
X149559043Y-105554084D01*
X149421581Y-105721581D01*
X149254084Y-105859043D01*
X149062992Y-105961183D01*
X149009034Y-105977551D01*
X148855638Y-106024084D01*
X148774837Y-106032042D01*
X148694038Y-106040000D01*
X148585962Y-106040000D01*
X148505163Y-106032042D01*
X148424362Y-106024084D01*
X148270966Y-105977551D01*
X148217008Y-105961183D01*
X148025916Y-105859043D01*
X147858419Y-105721581D01*
X147720957Y-105554084D01*
X147618817Y-105362992D01*
X147565016Y-105185636D01*
X147555916Y-105155638D01*
X147534678Y-104940000D01*
X147555916Y-104724362D01*
X147618816Y-104517012D01*
X147618817Y-104517008D01*
X147720957Y-104325916D01*
X147858419Y-104158419D01*
X148025916Y-104020957D01*
X148217008Y-103918817D01*
X148307432Y-103891387D01*
X148424362Y-103855916D01*
X148505163Y-103847958D01*
X148585962Y-103840000D01*
X148694038Y-103840000D01*
X148774837Y-103847958D01*
X148774837Y-103847958D01*
G37*
G36*
X151314837Y-103847958D02*
G01*
X151395638Y-103855916D01*
X151512568Y-103891387D01*
X151602992Y-103918817D01*
X151794084Y-104020957D01*
X151961581Y-104158419D01*
X152099043Y-104325916D01*
X152201183Y-104517008D01*
X152201184Y-104517012D01*
X152264084Y-104724362D01*
X152285322Y-104940000D01*
X152264084Y-105155638D01*
X152254984Y-105185636D01*
X152201183Y-105362992D01*
X152099043Y-105554084D01*
X151961581Y-105721581D01*
X151794084Y-105859043D01*
X151602992Y-105961183D01*
X151549034Y-105977551D01*
X151395638Y-106024084D01*
X151314837Y-106032042D01*
X151234038Y-106040000D01*
X151125962Y-106040000D01*
X151045163Y-106032042D01*
X150964362Y-106024084D01*
X150810966Y-105977551D01*
X150757008Y-105961183D01*
X150565916Y-105859043D01*
X150398419Y-105721581D01*
X150260957Y-105554084D01*
X150158817Y-105362992D01*
X150105016Y-105185636D01*
X150095916Y-105155638D01*
X150074678Y-104940000D01*
X150095916Y-104724362D01*
X150158816Y-104517012D01*
X150158817Y-104517008D01*
X150260957Y-104325916D01*
X150398419Y-104158419D01*
X150565916Y-104020957D01*
X150757008Y-103918817D01*
X150847432Y-103891387D01*
X150964362Y-103855916D01*
X151045163Y-103847958D01*
X151125962Y-103840000D01*
X151234038Y-103840000D01*
X151314837Y-103847958D01*
X151314837Y-103847958D01*
G37*
G36*
X153854837Y-103847958D02*
G01*
X153935638Y-103855916D01*
X154052568Y-103891387D01*
X154142992Y-103918817D01*
X154334084Y-104020957D01*
X154501581Y-104158419D01*
X154639043Y-104325916D01*
X154741183Y-104517008D01*
X154741184Y-104517012D01*
X154804084Y-104724362D01*
X154825322Y-104940000D01*
X154804084Y-105155638D01*
X154794984Y-105185636D01*
X154741183Y-105362992D01*
X154639043Y-105554084D01*
X154501581Y-105721581D01*
X154334084Y-105859043D01*
X154142992Y-105961183D01*
X154089034Y-105977551D01*
X153935638Y-106024084D01*
X153854837Y-106032042D01*
X153774038Y-106040000D01*
X153665962Y-106040000D01*
X153585163Y-106032042D01*
X153504362Y-106024084D01*
X153350966Y-105977551D01*
X153297008Y-105961183D01*
X153105916Y-105859043D01*
X152938419Y-105721581D01*
X152800957Y-105554084D01*
X152698817Y-105362992D01*
X152645016Y-105185636D01*
X152635916Y-105155638D01*
X152614678Y-104940000D01*
X152635916Y-104724362D01*
X152698816Y-104517012D01*
X152698817Y-104517008D01*
X152800957Y-104325916D01*
X152938419Y-104158419D01*
X153105916Y-104020957D01*
X153297008Y-103918817D01*
X153387432Y-103891387D01*
X153504362Y-103855916D01*
X153585163Y-103847958D01*
X153665962Y-103840000D01*
X153774038Y-103840000D01*
X153854837Y-103847958D01*
X153854837Y-103847958D01*
G37*
G36*
X156394837Y-103847958D02*
G01*
X156475638Y-103855916D01*
X156592568Y-103891387D01*
X156682992Y-103918817D01*
X156874084Y-104020957D01*
X157041581Y-104158419D01*
X157179043Y-104325916D01*
X157281183Y-104517008D01*
X157281184Y-104517012D01*
X157344084Y-104724362D01*
X157365322Y-104940000D01*
X157344084Y-105155638D01*
X157334984Y-105185636D01*
X157281183Y-105362992D01*
X157179043Y-105554084D01*
X157041581Y-105721581D01*
X156874084Y-105859043D01*
X156682992Y-105961183D01*
X156629034Y-105977551D01*
X156475638Y-106024084D01*
X156394837Y-106032042D01*
X156314038Y-106040000D01*
X156205962Y-106040000D01*
X156125163Y-106032042D01*
X156044362Y-106024084D01*
X155890966Y-105977551D01*
X155837008Y-105961183D01*
X155645916Y-105859043D01*
X155478419Y-105721581D01*
X155340957Y-105554084D01*
X155238817Y-105362992D01*
X155185016Y-105185636D01*
X155175916Y-105155638D01*
X155154678Y-104940000D01*
X155175916Y-104724362D01*
X155238816Y-104517012D01*
X155238817Y-104517008D01*
X155340957Y-104325916D01*
X155478419Y-104158419D01*
X155645916Y-104020957D01*
X155837008Y-103918817D01*
X155927432Y-103891387D01*
X156044362Y-103855916D01*
X156125163Y-103847958D01*
X156205962Y-103840000D01*
X156314038Y-103840000D01*
X156394837Y-103847958D01*
X156394837Y-103847958D01*
G37*
G36*
X161474837Y-103847958D02*
G01*
X161555638Y-103855916D01*
X161672568Y-103891387D01*
X161762992Y-103918817D01*
X161954084Y-104020957D01*
X162121581Y-104158419D01*
X162259043Y-104325916D01*
X162361183Y-104517008D01*
X162361184Y-104517012D01*
X162424084Y-104724362D01*
X162445322Y-104940000D01*
X162424084Y-105155638D01*
X162414984Y-105185636D01*
X162361183Y-105362992D01*
X162259043Y-105554084D01*
X162121581Y-105721581D01*
X161954084Y-105859043D01*
X161762992Y-105961183D01*
X161709034Y-105977551D01*
X161555638Y-106024084D01*
X161474837Y-106032042D01*
X161394038Y-106040000D01*
X161285962Y-106040000D01*
X161205163Y-106032042D01*
X161124362Y-106024084D01*
X160970966Y-105977551D01*
X160917008Y-105961183D01*
X160725916Y-105859043D01*
X160558419Y-105721581D01*
X160420957Y-105554084D01*
X160318817Y-105362992D01*
X160265016Y-105185636D01*
X160255916Y-105155638D01*
X160234678Y-104940000D01*
X160255916Y-104724362D01*
X160318816Y-104517012D01*
X160318817Y-104517008D01*
X160420957Y-104325916D01*
X160558419Y-104158419D01*
X160725916Y-104020957D01*
X160917008Y-103918817D01*
X161007432Y-103891387D01*
X161124362Y-103855916D01*
X161205163Y-103847958D01*
X161285962Y-103840000D01*
X161394038Y-103840000D01*
X161474837Y-103847958D01*
X161474837Y-103847958D01*
G37*
G36*
X164014837Y-103847958D02*
G01*
X164095638Y-103855916D01*
X164212568Y-103891387D01*
X164302992Y-103918817D01*
X164494084Y-104020957D01*
X164661581Y-104158419D01*
X164799043Y-104325916D01*
X164901183Y-104517008D01*
X164901184Y-104517012D01*
X164964084Y-104724362D01*
X164985322Y-104940000D01*
X164964084Y-105155638D01*
X164954984Y-105185636D01*
X164901183Y-105362992D01*
X164799043Y-105554084D01*
X164661581Y-105721581D01*
X164494084Y-105859043D01*
X164302992Y-105961183D01*
X164249034Y-105977551D01*
X164095638Y-106024084D01*
X164014837Y-106032042D01*
X163934038Y-106040000D01*
X163825962Y-106040000D01*
X163745163Y-106032042D01*
X163664362Y-106024084D01*
X163510966Y-105977551D01*
X163457008Y-105961183D01*
X163265916Y-105859043D01*
X163098419Y-105721581D01*
X162960957Y-105554084D01*
X162858817Y-105362992D01*
X162805016Y-105185636D01*
X162795916Y-105155638D01*
X162774678Y-104940000D01*
X162795916Y-104724362D01*
X162858816Y-104517012D01*
X162858817Y-104517008D01*
X162960957Y-104325916D01*
X163098419Y-104158419D01*
X163265916Y-104020957D01*
X163457008Y-103918817D01*
X163547432Y-103891387D01*
X163664362Y-103855916D01*
X163745163Y-103847958D01*
X163825962Y-103840000D01*
X163934038Y-103840000D01*
X164014837Y-103847958D01*
X164014837Y-103847958D01*
G37*
G36*
X158934837Y-103847958D02*
G01*
X159015638Y-103855916D01*
X159132568Y-103891387D01*
X159222992Y-103918817D01*
X159414084Y-104020957D01*
X159581581Y-104158419D01*
X159719043Y-104325916D01*
X159821183Y-104517008D01*
X159821184Y-104517012D01*
X159884084Y-104724362D01*
X159905322Y-104940000D01*
X159884084Y-105155638D01*
X159874984Y-105185636D01*
X159821183Y-105362992D01*
X159719043Y-105554084D01*
X159581581Y-105721581D01*
X159414084Y-105859043D01*
X159222992Y-105961183D01*
X159169034Y-105977551D01*
X159015638Y-106024084D01*
X158934837Y-106032042D01*
X158854038Y-106040000D01*
X158745962Y-106040000D01*
X158665163Y-106032042D01*
X158584362Y-106024084D01*
X158430966Y-105977551D01*
X158377008Y-105961183D01*
X158185916Y-105859043D01*
X158018419Y-105721581D01*
X157880957Y-105554084D01*
X157778817Y-105362992D01*
X157725016Y-105185636D01*
X157715916Y-105155638D01*
X157694678Y-104940000D01*
X157715916Y-104724362D01*
X157778816Y-104517012D01*
X157778817Y-104517008D01*
X157880957Y-104325916D01*
X158018419Y-104158419D01*
X158185916Y-104020957D01*
X158377008Y-103918817D01*
X158467432Y-103891387D01*
X158584362Y-103855916D01*
X158665163Y-103847958D01*
X158745962Y-103840000D01*
X158854038Y-103840000D01*
X158934837Y-103847958D01*
X158934837Y-103847958D01*
G37*
G36*
X141154837Y-103847958D02*
G01*
X141235638Y-103855916D01*
X141352568Y-103891387D01*
X141442992Y-103918817D01*
X141634084Y-104020957D01*
X141801581Y-104158419D01*
X141939043Y-104325916D01*
X142041183Y-104517008D01*
X142041184Y-104517012D01*
X142104084Y-104724362D01*
X142125322Y-104940000D01*
X142104084Y-105155638D01*
X142094984Y-105185636D01*
X142041183Y-105362992D01*
X141939043Y-105554084D01*
X141801581Y-105721581D01*
X141634084Y-105859043D01*
X141442992Y-105961183D01*
X141389034Y-105977551D01*
X141235638Y-106024084D01*
X141154837Y-106032042D01*
X141074038Y-106040000D01*
X140965962Y-106040000D01*
X140885163Y-106032042D01*
X140804362Y-106024084D01*
X140650966Y-105977551D01*
X140597008Y-105961183D01*
X140405916Y-105859043D01*
X140238419Y-105721581D01*
X140100957Y-105554084D01*
X139998817Y-105362992D01*
X139945016Y-105185636D01*
X139935916Y-105155638D01*
X139914678Y-104940000D01*
X139935916Y-104724362D01*
X139998816Y-104517012D01*
X139998817Y-104517008D01*
X140100957Y-104325916D01*
X140238419Y-104158419D01*
X140405916Y-104020957D01*
X140597008Y-103918817D01*
X140687432Y-103891387D01*
X140804362Y-103855916D01*
X140885163Y-103847958D01*
X140965962Y-103840000D01*
X141074038Y-103840000D01*
X141154837Y-103847958D01*
X141154837Y-103847958D01*
G37*
G36*
X150110000Y-97940000D02*
G01*
X149170000Y-97940000D01*
X149170000Y-95340000D01*
X150110000Y-95340000D01*
X150110000Y-97940000D01*
X150110000Y-97940000D01*
G37*
G36*
X145030000Y-97940000D02*
G01*
X144090000Y-97940000D01*
X144090000Y-95340000D01*
X145030000Y-95340000D01*
X145030000Y-97940000D01*
X145030000Y-97940000D01*
G37*
G36*
X148840000Y-97940000D02*
G01*
X147900000Y-97940000D01*
X147900000Y-95340000D01*
X148840000Y-95340000D01*
X148840000Y-97940000D01*
X148840000Y-97940000D01*
G37*
G36*
X147570000Y-97940000D02*
G01*
X146630000Y-97940000D01*
X146630000Y-95340000D01*
X147570000Y-95340000D01*
X147570000Y-97940000D01*
X147570000Y-97940000D01*
G37*
G36*
X146300000Y-97940000D02*
G01*
X145360000Y-97940000D01*
X145360000Y-95340000D01*
X146300000Y-95340000D01*
X146300000Y-97940000D01*
X146300000Y-97940000D01*
G37*
G36*
X136640000Y-97830000D02*
G01*
X133290000Y-97830000D01*
X133290000Y-96630000D01*
X136640000Y-96630000D01*
X136640000Y-97830000D01*
X136640000Y-97830000D01*
G37*
G36*
X141690000Y-97830000D02*
G01*
X138340000Y-97830000D01*
X138340000Y-96630000D01*
X141690000Y-96630000D01*
X141690000Y-97830000D01*
X141690000Y-97830000D01*
G37*
G36*
X153280000Y-97700000D02*
G01*
X150780000Y-97700000D01*
X150780000Y-96000000D01*
X153280000Y-96000000D01*
X153280000Y-97700000D01*
X153280000Y-97700000D01*
G37*
G36*
X141690000Y-95290000D02*
G01*
X138340000Y-95290000D01*
X138340000Y-94090000D01*
X141690000Y-94090000D01*
X141690000Y-95290000D01*
X141690000Y-95290000D01*
G37*
G36*
X136640000Y-95290000D02*
G01*
X133290000Y-95290000D01*
X133290000Y-94090000D01*
X136640000Y-94090000D01*
X136640000Y-95290000D01*
X136640000Y-95290000D01*
G37*
G36*
X146300000Y-94040000D02*
G01*
X145360000Y-94040000D01*
X145360000Y-91440000D01*
X146300000Y-91440000D01*
X146300000Y-94040000D01*
X146300000Y-94040000D01*
G37*
G36*
X145030000Y-94040000D02*
G01*
X144090000Y-94040000D01*
X144090000Y-91440000D01*
X145030000Y-91440000D01*
X145030000Y-94040000D01*
X145030000Y-94040000D01*
G37*
G36*
X147570000Y-94040000D02*
G01*
X146630000Y-94040000D01*
X146630000Y-91440000D01*
X147570000Y-91440000D01*
X147570000Y-94040000D01*
X147570000Y-94040000D01*
G37*
G36*
X148840000Y-94040000D02*
G01*
X147900000Y-94040000D01*
X147900000Y-91440000D01*
X148840000Y-91440000D01*
X148840000Y-94040000D01*
X148840000Y-94040000D01*
G37*
G36*
X150110000Y-94040000D02*
G01*
X149170000Y-94040000D01*
X149170000Y-91440000D01*
X150110000Y-91440000D01*
X150110000Y-94040000D01*
X150110000Y-94040000D01*
G37*
G36*
X153300000Y-93600000D02*
G01*
X150800000Y-93600000D01*
X150800000Y-91900000D01*
X153300000Y-91900000D01*
X153300000Y-93600000D01*
X153300000Y-93600000D01*
G37*
G36*
X136640000Y-92750000D02*
G01*
X133290000Y-92750000D01*
X133290000Y-91550000D01*
X136640000Y-91550000D01*
X136640000Y-92750000D01*
X136640000Y-92750000D01*
G37*
G36*
X141690000Y-92750000D02*
G01*
X138340000Y-92750000D01*
X138340000Y-91550000D01*
X141690000Y-91550000D01*
X141690000Y-92750000D01*
X141690000Y-92750000D01*
G37*
G36*
X168363779Y-83141879D02*
G01*
X168609463Y-83243645D01*
X168609465Y-83243646D01*
X168720769Y-83318017D01*
X168830574Y-83391386D01*
X169018614Y-83579426D01*
X169166355Y-83800537D01*
X169268121Y-84046221D01*
X169320000Y-84307035D01*
X169320000Y-84572965D01*
X169268121Y-84833779D01*
X169176867Y-85054084D01*
X169166354Y-85079465D01*
X169018613Y-85300575D01*
X168830575Y-85488613D01*
X168609465Y-85636354D01*
X168609464Y-85636355D01*
X168609463Y-85636355D01*
X168363779Y-85738121D01*
X168102965Y-85790000D01*
X167837035Y-85790000D01*
X167576221Y-85738121D01*
X167330537Y-85636355D01*
X167330536Y-85636355D01*
X167330535Y-85636354D01*
X167109425Y-85488613D01*
X166921387Y-85300575D01*
X166773646Y-85079465D01*
X166763133Y-85054084D01*
X166671879Y-84833779D01*
X166620000Y-84572965D01*
X166620000Y-84307035D01*
X166671879Y-84046221D01*
X166773645Y-83800537D01*
X166921386Y-83579426D01*
X167109426Y-83391386D01*
X167219231Y-83318017D01*
X167330535Y-83243646D01*
X167330537Y-83243645D01*
X167576221Y-83141879D01*
X167837035Y-83090000D01*
X168102965Y-83090000D01*
X168363779Y-83141879D01*
X168363779Y-83141879D01*
G37*
G36*
X111353779Y-83141879D02*
G01*
X111599463Y-83243645D01*
X111599465Y-83243646D01*
X111710769Y-83318017D01*
X111820574Y-83391386D01*
X112008614Y-83579426D01*
X112156355Y-83800537D01*
X112258121Y-84046221D01*
X112310000Y-84307035D01*
X112310000Y-84572965D01*
X112258121Y-84833779D01*
X112166867Y-85054084D01*
X112156354Y-85079465D01*
X112008613Y-85300575D01*
X111820575Y-85488613D01*
X111599465Y-85636354D01*
X111599464Y-85636355D01*
X111599463Y-85636355D01*
X111353779Y-85738121D01*
X111092965Y-85790000D01*
X110827035Y-85790000D01*
X110566221Y-85738121D01*
X110320537Y-85636355D01*
X110320536Y-85636355D01*
X110320535Y-85636354D01*
X110099425Y-85488613D01*
X109911387Y-85300575D01*
X109763646Y-85079465D01*
X109753133Y-85054084D01*
X109661879Y-84833779D01*
X109610000Y-84572965D01*
X109610000Y-84307035D01*
X109661879Y-84046221D01*
X109763645Y-83800537D01*
X109911386Y-83579426D01*
X110099426Y-83391386D01*
X110209231Y-83318017D01*
X110320535Y-83243646D01*
X110320537Y-83243645D01*
X110566221Y-83141879D01*
X110827035Y-83090000D01*
X111092965Y-83090000D01*
X111353779Y-83141879D01*
X111353779Y-83141879D01*
G37*
G36*
X156394837Y-83347958D02*
G01*
X156475638Y-83355916D01*
X156592568Y-83391387D01*
X156682992Y-83418817D01*
X156874084Y-83520957D01*
X157041581Y-83658419D01*
X157179043Y-83825916D01*
X157281183Y-84017008D01*
X157281184Y-84017012D01*
X157344084Y-84224362D01*
X157365322Y-84440000D01*
X157344084Y-84655638D01*
X157297551Y-84809034D01*
X157281183Y-84862992D01*
X157179043Y-85054084D01*
X157041581Y-85221581D01*
X156874084Y-85359043D01*
X156682992Y-85461183D01*
X156629034Y-85477551D01*
X156475638Y-85524084D01*
X156394837Y-85532042D01*
X156314038Y-85540000D01*
X156205962Y-85540000D01*
X156125163Y-85532042D01*
X156044362Y-85524084D01*
X155890966Y-85477551D01*
X155837008Y-85461183D01*
X155645916Y-85359043D01*
X155478419Y-85221581D01*
X155340957Y-85054084D01*
X155238817Y-84862992D01*
X155222449Y-84809034D01*
X155175916Y-84655638D01*
X155154678Y-84440000D01*
X155175916Y-84224362D01*
X155238816Y-84017012D01*
X155238817Y-84017008D01*
X155340957Y-83825916D01*
X155478419Y-83658419D01*
X155645916Y-83520957D01*
X155837008Y-83418817D01*
X155927432Y-83391387D01*
X156044362Y-83355916D01*
X156125163Y-83347958D01*
X156205962Y-83340000D01*
X156314038Y-83340000D01*
X156394837Y-83347958D01*
X156394837Y-83347958D01*
G37*
G36*
X153854837Y-83347958D02*
G01*
X153935638Y-83355916D01*
X154052568Y-83391387D01*
X154142992Y-83418817D01*
X154334084Y-83520957D01*
X154501581Y-83658419D01*
X154639043Y-83825916D01*
X154741183Y-84017008D01*
X154741184Y-84017012D01*
X154804084Y-84224362D01*
X154825322Y-84440000D01*
X154804084Y-84655638D01*
X154757551Y-84809034D01*
X154741183Y-84862992D01*
X154639043Y-85054084D01*
X154501581Y-85221581D01*
X154334084Y-85359043D01*
X154142992Y-85461183D01*
X154089034Y-85477551D01*
X153935638Y-85524084D01*
X153854837Y-85532042D01*
X153774038Y-85540000D01*
X153665962Y-85540000D01*
X153585163Y-85532042D01*
X153504362Y-85524084D01*
X153350966Y-85477551D01*
X153297008Y-85461183D01*
X153105916Y-85359043D01*
X152938419Y-85221581D01*
X152800957Y-85054084D01*
X152698817Y-84862992D01*
X152682449Y-84809034D01*
X152635916Y-84655638D01*
X152614678Y-84440000D01*
X152635916Y-84224362D01*
X152698816Y-84017012D01*
X152698817Y-84017008D01*
X152800957Y-83825916D01*
X152938419Y-83658419D01*
X153105916Y-83520957D01*
X153297008Y-83418817D01*
X153387432Y-83391387D01*
X153504362Y-83355916D01*
X153585163Y-83347958D01*
X153665962Y-83340000D01*
X153774038Y-83340000D01*
X153854837Y-83347958D01*
X153854837Y-83347958D01*
G37*
G36*
X148774837Y-83347958D02*
G01*
X148855638Y-83355916D01*
X148972568Y-83391387D01*
X149062992Y-83418817D01*
X149254084Y-83520957D01*
X149421581Y-83658419D01*
X149559043Y-83825916D01*
X149661183Y-84017008D01*
X149661184Y-84017012D01*
X149724084Y-84224362D01*
X149745322Y-84440000D01*
X149724084Y-84655638D01*
X149677551Y-84809034D01*
X149661183Y-84862992D01*
X149559043Y-85054084D01*
X149421581Y-85221581D01*
X149254084Y-85359043D01*
X149062992Y-85461183D01*
X149009034Y-85477551D01*
X148855638Y-85524084D01*
X148774837Y-85532042D01*
X148694038Y-85540000D01*
X148585962Y-85540000D01*
X148505163Y-85532042D01*
X148424362Y-85524084D01*
X148270966Y-85477551D01*
X148217008Y-85461183D01*
X148025916Y-85359043D01*
X147858419Y-85221581D01*
X147720957Y-85054084D01*
X147618817Y-84862992D01*
X147602449Y-84809034D01*
X147555916Y-84655638D01*
X147534678Y-84440000D01*
X147555916Y-84224362D01*
X147618816Y-84017012D01*
X147618817Y-84017008D01*
X147720957Y-83825916D01*
X147858419Y-83658419D01*
X148025916Y-83520957D01*
X148217008Y-83418817D01*
X148307432Y-83391387D01*
X148424362Y-83355916D01*
X148505163Y-83347958D01*
X148585962Y-83340000D01*
X148694038Y-83340000D01*
X148774837Y-83347958D01*
X148774837Y-83347958D01*
G37*
G36*
X146234837Y-83347958D02*
G01*
X146315638Y-83355916D01*
X146432568Y-83391387D01*
X146522992Y-83418817D01*
X146714084Y-83520957D01*
X146881581Y-83658419D01*
X147019043Y-83825916D01*
X147121183Y-84017008D01*
X147121184Y-84017012D01*
X147184084Y-84224362D01*
X147205322Y-84440000D01*
X147184084Y-84655638D01*
X147137551Y-84809034D01*
X147121183Y-84862992D01*
X147019043Y-85054084D01*
X146881581Y-85221581D01*
X146714084Y-85359043D01*
X146522992Y-85461183D01*
X146469034Y-85477551D01*
X146315638Y-85524084D01*
X146234837Y-85532042D01*
X146154038Y-85540000D01*
X146045962Y-85540000D01*
X145965163Y-85532042D01*
X145884362Y-85524084D01*
X145730966Y-85477551D01*
X145677008Y-85461183D01*
X145485916Y-85359043D01*
X145318419Y-85221581D01*
X145180957Y-85054084D01*
X145078817Y-84862992D01*
X145062449Y-84809034D01*
X145015916Y-84655638D01*
X144994678Y-84440000D01*
X145015916Y-84224362D01*
X145078816Y-84017012D01*
X145078817Y-84017008D01*
X145180957Y-83825916D01*
X145318419Y-83658419D01*
X145485916Y-83520957D01*
X145677008Y-83418817D01*
X145767432Y-83391387D01*
X145884362Y-83355916D01*
X145965163Y-83347958D01*
X146045962Y-83340000D01*
X146154038Y-83340000D01*
X146234837Y-83347958D01*
X146234837Y-83347958D01*
G37*
G36*
X143694837Y-83347958D02*
G01*
X143775638Y-83355916D01*
X143892568Y-83391387D01*
X143982992Y-83418817D01*
X144174084Y-83520957D01*
X144341581Y-83658419D01*
X144479043Y-83825916D01*
X144581183Y-84017008D01*
X144581184Y-84017012D01*
X144644084Y-84224362D01*
X144665322Y-84440000D01*
X144644084Y-84655638D01*
X144597551Y-84809034D01*
X144581183Y-84862992D01*
X144479043Y-85054084D01*
X144341581Y-85221581D01*
X144174084Y-85359043D01*
X143982992Y-85461183D01*
X143929034Y-85477551D01*
X143775638Y-85524084D01*
X143694837Y-85532042D01*
X143614038Y-85540000D01*
X143505962Y-85540000D01*
X143425163Y-85532042D01*
X143344362Y-85524084D01*
X143190966Y-85477551D01*
X143137008Y-85461183D01*
X142945916Y-85359043D01*
X142778419Y-85221581D01*
X142640957Y-85054084D01*
X142538817Y-84862992D01*
X142522449Y-84809034D01*
X142475916Y-84655638D01*
X142454678Y-84440000D01*
X142475916Y-84224362D01*
X142538816Y-84017012D01*
X142538817Y-84017008D01*
X142640957Y-83825916D01*
X142778419Y-83658419D01*
X142945916Y-83520957D01*
X143137008Y-83418817D01*
X143227432Y-83391387D01*
X143344362Y-83355916D01*
X143425163Y-83347958D01*
X143505962Y-83340000D01*
X143614038Y-83340000D01*
X143694837Y-83347958D01*
X143694837Y-83347958D01*
G37*
G36*
X141154837Y-83347958D02*
G01*
X141235638Y-83355916D01*
X141352568Y-83391387D01*
X141442992Y-83418817D01*
X141634084Y-83520957D01*
X141801581Y-83658419D01*
X141939043Y-83825916D01*
X142041183Y-84017008D01*
X142041184Y-84017012D01*
X142104084Y-84224362D01*
X142125322Y-84440000D01*
X142104084Y-84655638D01*
X142057551Y-84809034D01*
X142041183Y-84862992D01*
X141939043Y-85054084D01*
X141801581Y-85221581D01*
X141634084Y-85359043D01*
X141442992Y-85461183D01*
X141389034Y-85477551D01*
X141235638Y-85524084D01*
X141154837Y-85532042D01*
X141074038Y-85540000D01*
X140965962Y-85540000D01*
X140885163Y-85532042D01*
X140804362Y-85524084D01*
X140650966Y-85477551D01*
X140597008Y-85461183D01*
X140405916Y-85359043D01*
X140238419Y-85221581D01*
X140100957Y-85054084D01*
X139998817Y-84862992D01*
X139982449Y-84809034D01*
X139935916Y-84655638D01*
X139914678Y-84440000D01*
X139935916Y-84224362D01*
X139998816Y-84017012D01*
X139998817Y-84017008D01*
X140100957Y-83825916D01*
X140238419Y-83658419D01*
X140405916Y-83520957D01*
X140597008Y-83418817D01*
X140687432Y-83391387D01*
X140804362Y-83355916D01*
X140885163Y-83347958D01*
X140965962Y-83340000D01*
X141074038Y-83340000D01*
X141154837Y-83347958D01*
X141154837Y-83347958D01*
G37*
G36*
X138614837Y-83347958D02*
G01*
X138695638Y-83355916D01*
X138812568Y-83391387D01*
X138902992Y-83418817D01*
X139094084Y-83520957D01*
X139261581Y-83658419D01*
X139399043Y-83825916D01*
X139501183Y-84017008D01*
X139501184Y-84017012D01*
X139564084Y-84224362D01*
X139585322Y-84440000D01*
X139564084Y-84655638D01*
X139517551Y-84809034D01*
X139501183Y-84862992D01*
X139399043Y-85054084D01*
X139261581Y-85221581D01*
X139094084Y-85359043D01*
X138902992Y-85461183D01*
X138849034Y-85477551D01*
X138695638Y-85524084D01*
X138614837Y-85532042D01*
X138534038Y-85540000D01*
X138425962Y-85540000D01*
X138345163Y-85532042D01*
X138264362Y-85524084D01*
X138110966Y-85477551D01*
X138057008Y-85461183D01*
X137865916Y-85359043D01*
X137698419Y-85221581D01*
X137560957Y-85054084D01*
X137458817Y-84862992D01*
X137442449Y-84809034D01*
X137395916Y-84655638D01*
X137374678Y-84440000D01*
X137395916Y-84224362D01*
X137458816Y-84017012D01*
X137458817Y-84017008D01*
X137560957Y-83825916D01*
X137698419Y-83658419D01*
X137865916Y-83520957D01*
X138057008Y-83418817D01*
X138147432Y-83391387D01*
X138264362Y-83355916D01*
X138345163Y-83347958D01*
X138425962Y-83340000D01*
X138534038Y-83340000D01*
X138614837Y-83347958D01*
X138614837Y-83347958D01*
G37*
G36*
X136074837Y-83347958D02*
G01*
X136155638Y-83355916D01*
X136272568Y-83391387D01*
X136362992Y-83418817D01*
X136554084Y-83520957D01*
X136721581Y-83658419D01*
X136859043Y-83825916D01*
X136961183Y-84017008D01*
X136961184Y-84017012D01*
X137024084Y-84224362D01*
X137045322Y-84440000D01*
X137024084Y-84655638D01*
X136977551Y-84809034D01*
X136961183Y-84862992D01*
X136859043Y-85054084D01*
X136721581Y-85221581D01*
X136554084Y-85359043D01*
X136362992Y-85461183D01*
X136309034Y-85477551D01*
X136155638Y-85524084D01*
X136074837Y-85532042D01*
X135994038Y-85540000D01*
X135885962Y-85540000D01*
X135805163Y-85532042D01*
X135724362Y-85524084D01*
X135570966Y-85477551D01*
X135517008Y-85461183D01*
X135325916Y-85359043D01*
X135158419Y-85221581D01*
X135020957Y-85054084D01*
X134918817Y-84862992D01*
X134902449Y-84809034D01*
X134855916Y-84655638D01*
X134834678Y-84440000D01*
X134855916Y-84224362D01*
X134918816Y-84017012D01*
X134918817Y-84017008D01*
X135020957Y-83825916D01*
X135158419Y-83658419D01*
X135325916Y-83520957D01*
X135517008Y-83418817D01*
X135607432Y-83391387D01*
X135724362Y-83355916D01*
X135805163Y-83347958D01*
X135885962Y-83340000D01*
X135994038Y-83340000D01*
X136074837Y-83347958D01*
X136074837Y-83347958D01*
G37*
G36*
X133534837Y-83347958D02*
G01*
X133615638Y-83355916D01*
X133732568Y-83391387D01*
X133822992Y-83418817D01*
X134014084Y-83520957D01*
X134181581Y-83658419D01*
X134319043Y-83825916D01*
X134421183Y-84017008D01*
X134421184Y-84017012D01*
X134484084Y-84224362D01*
X134505322Y-84440000D01*
X134484084Y-84655638D01*
X134437551Y-84809034D01*
X134421183Y-84862992D01*
X134319043Y-85054084D01*
X134181581Y-85221581D01*
X134014084Y-85359043D01*
X133822992Y-85461183D01*
X133769034Y-85477551D01*
X133615638Y-85524084D01*
X133534837Y-85532042D01*
X133454038Y-85540000D01*
X133345962Y-85540000D01*
X133265163Y-85532042D01*
X133184362Y-85524084D01*
X133030966Y-85477551D01*
X132977008Y-85461183D01*
X132785916Y-85359043D01*
X132618419Y-85221581D01*
X132480957Y-85054084D01*
X132378817Y-84862992D01*
X132362449Y-84809034D01*
X132315916Y-84655638D01*
X132294678Y-84440000D01*
X132315916Y-84224362D01*
X132378816Y-84017012D01*
X132378817Y-84017008D01*
X132480957Y-83825916D01*
X132618419Y-83658419D01*
X132785916Y-83520957D01*
X132977008Y-83418817D01*
X133067432Y-83391387D01*
X133184362Y-83355916D01*
X133265163Y-83347958D01*
X133345962Y-83340000D01*
X133454038Y-83340000D01*
X133534837Y-83347958D01*
X133534837Y-83347958D01*
G37*
G36*
X130994837Y-83347958D02*
G01*
X131075638Y-83355916D01*
X131192568Y-83391387D01*
X131282992Y-83418817D01*
X131474084Y-83520957D01*
X131641581Y-83658419D01*
X131779043Y-83825916D01*
X131881183Y-84017008D01*
X131881184Y-84017012D01*
X131944084Y-84224362D01*
X131965322Y-84440000D01*
X131944084Y-84655638D01*
X131897551Y-84809034D01*
X131881183Y-84862992D01*
X131779043Y-85054084D01*
X131641581Y-85221581D01*
X131474084Y-85359043D01*
X131282992Y-85461183D01*
X131229034Y-85477551D01*
X131075638Y-85524084D01*
X130994837Y-85532042D01*
X130914038Y-85540000D01*
X130805962Y-85540000D01*
X130725163Y-85532042D01*
X130644362Y-85524084D01*
X130490966Y-85477551D01*
X130437008Y-85461183D01*
X130245916Y-85359043D01*
X130078419Y-85221581D01*
X129940957Y-85054084D01*
X129838817Y-84862992D01*
X129822449Y-84809034D01*
X129775916Y-84655638D01*
X129754678Y-84440000D01*
X129775916Y-84224362D01*
X129838816Y-84017012D01*
X129838817Y-84017008D01*
X129940957Y-83825916D01*
X130078419Y-83658419D01*
X130245916Y-83520957D01*
X130437008Y-83418817D01*
X130527432Y-83391387D01*
X130644362Y-83355916D01*
X130725163Y-83347958D01*
X130805962Y-83340000D01*
X130914038Y-83340000D01*
X130994837Y-83347958D01*
X130994837Y-83347958D01*
G37*
G36*
X158934837Y-83347958D02*
G01*
X159015638Y-83355916D01*
X159132568Y-83391387D01*
X159222992Y-83418817D01*
X159414084Y-83520957D01*
X159581581Y-83658419D01*
X159719043Y-83825916D01*
X159821183Y-84017008D01*
X159821184Y-84017012D01*
X159884084Y-84224362D01*
X159905322Y-84440000D01*
X159884084Y-84655638D01*
X159837551Y-84809034D01*
X159821183Y-84862992D01*
X159719043Y-85054084D01*
X159581581Y-85221581D01*
X159414084Y-85359043D01*
X159222992Y-85461183D01*
X159169034Y-85477551D01*
X159015638Y-85524084D01*
X158934837Y-85532042D01*
X158854038Y-85540000D01*
X158745962Y-85540000D01*
X158665163Y-85532042D01*
X158584362Y-85524084D01*
X158430966Y-85477551D01*
X158377008Y-85461183D01*
X158185916Y-85359043D01*
X158018419Y-85221581D01*
X157880957Y-85054084D01*
X157778817Y-84862992D01*
X157762449Y-84809034D01*
X157715916Y-84655638D01*
X157694678Y-84440000D01*
X157715916Y-84224362D01*
X157778816Y-84017012D01*
X157778817Y-84017008D01*
X157880957Y-83825916D01*
X158018419Y-83658419D01*
X158185916Y-83520957D01*
X158377008Y-83418817D01*
X158467432Y-83391387D01*
X158584362Y-83355916D01*
X158665163Y-83347958D01*
X158745962Y-83340000D01*
X158854038Y-83340000D01*
X158934837Y-83347958D01*
X158934837Y-83347958D01*
G37*
G36*
X161474837Y-83347958D02*
G01*
X161555638Y-83355916D01*
X161672568Y-83391387D01*
X161762992Y-83418817D01*
X161954084Y-83520957D01*
X162121581Y-83658419D01*
X162259043Y-83825916D01*
X162361183Y-84017008D01*
X162361184Y-84017012D01*
X162424084Y-84224362D01*
X162445322Y-84440000D01*
X162424084Y-84655638D01*
X162377551Y-84809034D01*
X162361183Y-84862992D01*
X162259043Y-85054084D01*
X162121581Y-85221581D01*
X161954084Y-85359043D01*
X161762992Y-85461183D01*
X161709034Y-85477551D01*
X161555638Y-85524084D01*
X161474837Y-85532042D01*
X161394038Y-85540000D01*
X161285962Y-85540000D01*
X161205163Y-85532042D01*
X161124362Y-85524084D01*
X160970966Y-85477551D01*
X160917008Y-85461183D01*
X160725916Y-85359043D01*
X160558419Y-85221581D01*
X160420957Y-85054084D01*
X160318817Y-84862992D01*
X160302449Y-84809034D01*
X160255916Y-84655638D01*
X160234678Y-84440000D01*
X160255916Y-84224362D01*
X160318816Y-84017012D01*
X160318817Y-84017008D01*
X160420957Y-83825916D01*
X160558419Y-83658419D01*
X160725916Y-83520957D01*
X160917008Y-83418817D01*
X161007432Y-83391387D01*
X161124362Y-83355916D01*
X161205163Y-83347958D01*
X161285962Y-83340000D01*
X161394038Y-83340000D01*
X161474837Y-83347958D01*
X161474837Y-83347958D01*
G37*
G36*
X164980000Y-85540000D02*
G01*
X162780000Y-85540000D01*
X162780000Y-83340000D01*
X164980000Y-83340000D01*
X164980000Y-85540000D01*
X164980000Y-85540000D01*
G37*
G36*
X151314837Y-83347958D02*
G01*
X151395638Y-83355916D01*
X151512568Y-83391387D01*
X151602992Y-83418817D01*
X151794084Y-83520957D01*
X151961581Y-83658419D01*
X152099043Y-83825916D01*
X152201183Y-84017008D01*
X152201184Y-84017012D01*
X152264084Y-84224362D01*
X152285322Y-84440000D01*
X152264084Y-84655638D01*
X152217551Y-84809034D01*
X152201183Y-84862992D01*
X152099043Y-85054084D01*
X151961581Y-85221581D01*
X151794084Y-85359043D01*
X151602992Y-85461183D01*
X151549034Y-85477551D01*
X151395638Y-85524084D01*
X151314837Y-85532042D01*
X151234038Y-85540000D01*
X151125962Y-85540000D01*
X151045163Y-85532042D01*
X150964362Y-85524084D01*
X150810966Y-85477551D01*
X150757008Y-85461183D01*
X150565916Y-85359043D01*
X150398419Y-85221581D01*
X150260957Y-85054084D01*
X150158817Y-84862992D01*
X150142449Y-84809034D01*
X150095916Y-84655638D01*
X150074678Y-84440000D01*
X150095916Y-84224362D01*
X150158816Y-84017012D01*
X150158817Y-84017008D01*
X150260957Y-83825916D01*
X150398419Y-83658419D01*
X150565916Y-83520957D01*
X150757008Y-83418817D01*
X150847432Y-83391387D01*
X150964362Y-83355916D01*
X151045163Y-83347958D01*
X151125962Y-83340000D01*
X151234038Y-83340000D01*
X151314837Y-83347958D01*
X151314837Y-83347958D01*
G37*
M02*
