G04 #@! TF.GenerationSoftware,KiCad,Pcbnew,5.1.0-060a0da~80~ubuntu16.04.1*
G04 #@! TF.CreationDate,2019-04-04T13:00:51+02:00*
G04 #@! TF.ProjectId,k2,6b322e6b-6963-4616-945f-706362585858,RevPB*
G04 #@! TF.SameCoordinates,Original*
G04 #@! TF.FileFunction,Drawing*
%FSLAX46Y46*%
G04 Gerber Fmt 4.6, Leading zero omitted, Abs format (unit mm)*
G04 Created by KiCad (PCBNEW 5.1.0-060a0da~80~ubuntu16.04.1) date 2019-04-04 13:00:51*
%MOMM*%
%LPD*%
G04 APERTURE LIST*
%ADD10C,0.150000*%
%ADD11C,0.304800*%
%ADD12C,0.040000*%
G04 APERTURE END LIST*
D10*
X176310000Y-104100000D02*
X176310000Y-108290000D01*
D11*
X136922000Y-72291638D02*
X136631714Y-72291638D01*
X136486571Y-72388400D01*
X136414000Y-72485161D01*
X136268857Y-72775447D01*
X136196285Y-73162495D01*
X136196285Y-73936590D01*
X136268857Y-74130114D01*
X136341428Y-74226876D01*
X136486571Y-74323638D01*
X136776857Y-74323638D01*
X136922000Y-74226876D01*
X136994571Y-74130114D01*
X137067142Y-73936590D01*
X137067142Y-73452780D01*
X136994571Y-73259257D01*
X136922000Y-73162495D01*
X136776857Y-73065733D01*
X136486571Y-73065733D01*
X136341428Y-73162495D01*
X136268857Y-73259257D01*
X136196285Y-73452780D01*
X137575142Y-72291638D02*
X138591142Y-72291638D01*
X137938000Y-74323638D01*
X139244285Y-74226876D02*
X139244285Y-74323638D01*
X139171714Y-74517161D01*
X139099142Y-74613923D01*
X140550571Y-72291638D02*
X140260285Y-72291638D01*
X140115142Y-72388400D01*
X140042571Y-72485161D01*
X139897428Y-72775447D01*
X139824857Y-73162495D01*
X139824857Y-73936590D01*
X139897428Y-74130114D01*
X139970000Y-74226876D01*
X140115142Y-74323638D01*
X140405428Y-74323638D01*
X140550571Y-74226876D01*
X140623142Y-74130114D01*
X140695714Y-73936590D01*
X140695714Y-73452780D01*
X140623142Y-73259257D01*
X140550571Y-73162495D01*
X140405428Y-73065733D01*
X140115142Y-73065733D01*
X139970000Y-73162495D01*
X139897428Y-73259257D01*
X139824857Y-73452780D01*
X141639142Y-72291638D02*
X141784285Y-72291638D01*
X141929428Y-72388400D01*
X142002000Y-72485161D01*
X142074571Y-72678685D01*
X142147142Y-73065733D01*
X142147142Y-73549542D01*
X142074571Y-73936590D01*
X142002000Y-74130114D01*
X141929428Y-74226876D01*
X141784285Y-74323638D01*
X141639142Y-74323638D01*
X141494000Y-74226876D01*
X141421428Y-74130114D01*
X141348857Y-73936590D01*
X141276285Y-73549542D01*
X141276285Y-73065733D01*
X141348857Y-72678685D01*
X141421428Y-72485161D01*
X141494000Y-72388400D01*
X141639142Y-72291638D01*
X143090571Y-72291638D02*
X143235714Y-72291638D01*
X143380857Y-72388400D01*
X143453428Y-72485161D01*
X143526000Y-72678685D01*
X143598571Y-73065733D01*
X143598571Y-73549542D01*
X143526000Y-73936590D01*
X143453428Y-74130114D01*
X143380857Y-74226876D01*
X143235714Y-74323638D01*
X143090571Y-74323638D01*
X142945428Y-74226876D01*
X142872857Y-74130114D01*
X142800285Y-73936590D01*
X142727714Y-73549542D01*
X142727714Y-73065733D01*
X142800285Y-72678685D01*
X142872857Y-72485161D01*
X142945428Y-72388400D01*
X143090571Y-72291638D01*
X145412857Y-74323638D02*
X145412857Y-72968971D01*
X145412857Y-73162495D02*
X145485428Y-73065733D01*
X145630571Y-72968971D01*
X145848285Y-72968971D01*
X145993428Y-73065733D01*
X146066000Y-73259257D01*
X146066000Y-74323638D01*
X146066000Y-73259257D02*
X146138571Y-73065733D01*
X146283714Y-72968971D01*
X146501428Y-72968971D01*
X146646571Y-73065733D01*
X146719142Y-73259257D01*
X146719142Y-74323638D01*
X147444857Y-74323638D02*
X147444857Y-72968971D01*
X147444857Y-73162495D02*
X147517428Y-73065733D01*
X147662571Y-72968971D01*
X147880285Y-72968971D01*
X148025428Y-73065733D01*
X148098000Y-73259257D01*
X148098000Y-74323638D01*
X148098000Y-73259257D02*
X148170571Y-73065733D01*
X148315714Y-72968971D01*
X148533428Y-72968971D01*
X148678571Y-73065733D01*
X148751142Y-73259257D01*
X148751142Y-74323638D01*
X108710000Y-75030000D02*
X176310000Y-75030000D01*
X108710000Y-86420000D02*
X108710000Y-71778800D01*
X176310000Y-86420000D02*
X176310000Y-71778800D01*
X176310000Y-75030000D02*
X175183496Y-75616421D01*
X176310000Y-75030000D02*
X175183496Y-74443579D01*
X108710000Y-75030000D02*
X109836504Y-75616421D01*
X108710000Y-75030000D02*
X109836504Y-74443579D01*
D10*
X108430000Y-107190000D02*
X108430000Y-107180000D01*
X111400000Y-107190000D02*
X108430000Y-107190000D01*
X108710000Y-104420000D02*
X108710000Y-107700000D01*
X108710000Y-86150000D02*
X108710000Y-81820000D01*
X111630000Y-82190000D02*
X108000000Y-82190000D01*
D11*
X103043638Y-88376285D02*
X103140400Y-88448857D01*
X103237161Y-88594000D01*
X103237161Y-88956857D01*
X103140400Y-89102000D01*
X103043638Y-89174571D01*
X102850114Y-89247142D01*
X102656590Y-89247142D01*
X102366304Y-89174571D01*
X101205161Y-88303714D01*
X101205161Y-89247142D01*
X103237161Y-90190571D02*
X103237161Y-90335714D01*
X103140400Y-90480857D01*
X103043638Y-90553428D01*
X102850114Y-90626000D01*
X102463066Y-90698571D01*
X101979257Y-90698571D01*
X101592209Y-90626000D01*
X101398685Y-90553428D01*
X101301923Y-90480857D01*
X101205161Y-90335714D01*
X101205161Y-90190571D01*
X101301923Y-90045428D01*
X101398685Y-89972857D01*
X101592209Y-89900285D01*
X101979257Y-89827714D01*
X102463066Y-89827714D01*
X102850114Y-89900285D01*
X103043638Y-89972857D01*
X103140400Y-90045428D01*
X103237161Y-90190571D01*
X101301923Y-91424285D02*
X101205161Y-91424285D01*
X101011638Y-91351714D01*
X100914876Y-91279142D01*
X103237161Y-92803142D02*
X103237161Y-92077428D01*
X102269542Y-92004857D01*
X102366304Y-92077428D01*
X102463066Y-92222571D01*
X102463066Y-92585428D01*
X102366304Y-92730571D01*
X102269542Y-92803142D01*
X102076019Y-92875714D01*
X101592209Y-92875714D01*
X101398685Y-92803142D01*
X101301923Y-92730571D01*
X101205161Y-92585428D01*
X101205161Y-92222571D01*
X101301923Y-92077428D01*
X101398685Y-92004857D01*
X103237161Y-93819142D02*
X103237161Y-93964285D01*
X103140400Y-94109428D01*
X103043638Y-94182000D01*
X102850114Y-94254571D01*
X102463066Y-94327142D01*
X101979257Y-94327142D01*
X101592209Y-94254571D01*
X101398685Y-94182000D01*
X101301923Y-94109428D01*
X101205161Y-93964285D01*
X101205161Y-93819142D01*
X101301923Y-93674000D01*
X101398685Y-93601428D01*
X101592209Y-93528857D01*
X101979257Y-93456285D01*
X102463066Y-93456285D01*
X102850114Y-93528857D01*
X103043638Y-93601428D01*
X103140400Y-93674000D01*
X103237161Y-93819142D01*
X103237161Y-95270571D02*
X103237161Y-95415714D01*
X103140400Y-95560857D01*
X103043638Y-95633428D01*
X102850114Y-95706000D01*
X102463066Y-95778571D01*
X101979257Y-95778571D01*
X101592209Y-95706000D01*
X101398685Y-95633428D01*
X101301923Y-95560857D01*
X101205161Y-95415714D01*
X101205161Y-95270571D01*
X101301923Y-95125428D01*
X101398685Y-95052857D01*
X101592209Y-94980285D01*
X101979257Y-94907714D01*
X102463066Y-94907714D01*
X102850114Y-94980285D01*
X103043638Y-95052857D01*
X103140400Y-95125428D01*
X103237161Y-95270571D01*
X101205161Y-97592857D02*
X102559828Y-97592857D01*
X102366304Y-97592857D02*
X102463066Y-97665428D01*
X102559828Y-97810571D01*
X102559828Y-98028285D01*
X102463066Y-98173428D01*
X102269542Y-98246000D01*
X101205161Y-98246000D01*
X102269542Y-98246000D02*
X102463066Y-98318571D01*
X102559828Y-98463714D01*
X102559828Y-98681428D01*
X102463066Y-98826571D01*
X102269542Y-98899142D01*
X101205161Y-98899142D01*
X101205161Y-99624857D02*
X102559828Y-99624857D01*
X102366304Y-99624857D02*
X102463066Y-99697428D01*
X102559828Y-99842571D01*
X102559828Y-100060285D01*
X102463066Y-100205428D01*
X102269542Y-100278000D01*
X101205161Y-100278000D01*
X102269542Y-100278000D02*
X102463066Y-100350571D01*
X102559828Y-100495714D01*
X102559828Y-100713428D01*
X102463066Y-100858571D01*
X102269542Y-100931142D01*
X101205161Y-100931142D01*
X103750000Y-84440000D02*
X103750000Y-104940000D01*
X110960000Y-84440000D02*
X100498800Y-84440000D01*
X110960000Y-104940000D02*
X100498800Y-104940000D01*
X103750000Y-104940000D02*
X103163579Y-103813496D01*
X103750000Y-104940000D02*
X104336421Y-103813496D01*
X103750000Y-84440000D02*
X103163579Y-85566504D01*
X103750000Y-84440000D02*
X104336421Y-85566504D01*
X115757142Y-66413638D02*
X114886285Y-66413638D01*
X115321714Y-66413638D02*
X115321714Y-64381638D01*
X115176571Y-64671923D01*
X115031428Y-64865447D01*
X114886285Y-64962209D01*
X116482857Y-66413638D02*
X116773142Y-66413638D01*
X116918285Y-66316876D01*
X116990857Y-66220114D01*
X117136000Y-65929828D01*
X117208571Y-65542780D01*
X117208571Y-64768685D01*
X117136000Y-64575161D01*
X117063428Y-64478400D01*
X116918285Y-64381638D01*
X116628000Y-64381638D01*
X116482857Y-64478400D01*
X116410285Y-64575161D01*
X116337714Y-64768685D01*
X116337714Y-65252495D01*
X116410285Y-65446019D01*
X116482857Y-65542780D01*
X116628000Y-65639542D01*
X116918285Y-65639542D01*
X117063428Y-65542780D01*
X117136000Y-65446019D01*
X117208571Y-65252495D01*
X117934285Y-66316876D02*
X117934285Y-66413638D01*
X117861714Y-66607161D01*
X117789142Y-66703923D01*
X118660000Y-66413638D02*
X118950285Y-66413638D01*
X119095428Y-66316876D01*
X119168000Y-66220114D01*
X119313142Y-65929828D01*
X119385714Y-65542780D01*
X119385714Y-64768685D01*
X119313142Y-64575161D01*
X119240571Y-64478400D01*
X119095428Y-64381638D01*
X118805142Y-64381638D01*
X118660000Y-64478400D01*
X118587428Y-64575161D01*
X118514857Y-64768685D01*
X118514857Y-65252495D01*
X118587428Y-65446019D01*
X118660000Y-65542780D01*
X118805142Y-65639542D01*
X119095428Y-65639542D01*
X119240571Y-65542780D01*
X119313142Y-65446019D01*
X119385714Y-65252495D01*
X120329142Y-64381638D02*
X120474285Y-64381638D01*
X120619428Y-64478400D01*
X120692000Y-64575161D01*
X120764571Y-64768685D01*
X120837142Y-65155733D01*
X120837142Y-65639542D01*
X120764571Y-66026590D01*
X120692000Y-66220114D01*
X120619428Y-66316876D01*
X120474285Y-66413638D01*
X120329142Y-66413638D01*
X120184000Y-66316876D01*
X120111428Y-66220114D01*
X120038857Y-66026590D01*
X119966285Y-65639542D01*
X119966285Y-65155733D01*
X120038857Y-64768685D01*
X120111428Y-64575161D01*
X120184000Y-64478400D01*
X120329142Y-64381638D01*
X121780571Y-64381638D02*
X121925714Y-64381638D01*
X122070857Y-64478400D01*
X122143428Y-64575161D01*
X122216000Y-64768685D01*
X122288571Y-65155733D01*
X122288571Y-65639542D01*
X122216000Y-66026590D01*
X122143428Y-66220114D01*
X122070857Y-66316876D01*
X121925714Y-66413638D01*
X121780571Y-66413638D01*
X121635428Y-66316876D01*
X121562857Y-66220114D01*
X121490285Y-66026590D01*
X121417714Y-65639542D01*
X121417714Y-65155733D01*
X121490285Y-64768685D01*
X121562857Y-64575161D01*
X121635428Y-64478400D01*
X121780571Y-64381638D01*
X124102857Y-66413638D02*
X124102857Y-65058971D01*
X124102857Y-65252495D02*
X124175428Y-65155733D01*
X124320571Y-65058971D01*
X124538285Y-65058971D01*
X124683428Y-65155733D01*
X124756000Y-65349257D01*
X124756000Y-66413638D01*
X124756000Y-65349257D02*
X124828571Y-65155733D01*
X124973714Y-65058971D01*
X125191428Y-65058971D01*
X125336571Y-65155733D01*
X125409142Y-65349257D01*
X125409142Y-66413638D01*
X126134857Y-66413638D02*
X126134857Y-65058971D01*
X126134857Y-65252495D02*
X126207428Y-65155733D01*
X126352571Y-65058971D01*
X126570285Y-65058971D01*
X126715428Y-65155733D01*
X126788000Y-65349257D01*
X126788000Y-66413638D01*
X126788000Y-65349257D02*
X126860571Y-65155733D01*
X127005714Y-65058971D01*
X127223428Y-65058971D01*
X127368571Y-65155733D01*
X127441142Y-65349257D01*
X127441142Y-66413638D01*
X111250000Y-67120000D02*
X131150000Y-67120000D01*
X111250000Y-84340000D02*
X111250000Y-63868800D01*
X131150000Y-84340000D02*
X131150000Y-63868800D01*
X131150000Y-67120000D02*
X130023496Y-67706421D01*
X131150000Y-67120000D02*
X130023496Y-66533579D01*
X111250000Y-67120000D02*
X112376504Y-67706421D01*
X111250000Y-67120000D02*
X112376504Y-66533579D01*
X185024838Y-88376285D02*
X185121600Y-88448857D01*
X185218361Y-88594000D01*
X185218361Y-88956857D01*
X185121600Y-89102000D01*
X185024838Y-89174571D01*
X184831314Y-89247142D01*
X184637790Y-89247142D01*
X184347504Y-89174571D01*
X183186361Y-88303714D01*
X183186361Y-89247142D01*
X185218361Y-90626000D02*
X185218361Y-89900285D01*
X184250742Y-89827714D01*
X184347504Y-89900285D01*
X184444266Y-90045428D01*
X184444266Y-90408285D01*
X184347504Y-90553428D01*
X184250742Y-90626000D01*
X184057219Y-90698571D01*
X183573409Y-90698571D01*
X183379885Y-90626000D01*
X183283123Y-90553428D01*
X183186361Y-90408285D01*
X183186361Y-90045428D01*
X183283123Y-89900285D01*
X183379885Y-89827714D01*
X183283123Y-91424285D02*
X183186361Y-91424285D01*
X182992838Y-91351714D01*
X182896076Y-91279142D01*
X185218361Y-92367714D02*
X185218361Y-92512857D01*
X185121600Y-92658000D01*
X185024838Y-92730571D01*
X184831314Y-92803142D01*
X184444266Y-92875714D01*
X183960457Y-92875714D01*
X183573409Y-92803142D01*
X183379885Y-92730571D01*
X183283123Y-92658000D01*
X183186361Y-92512857D01*
X183186361Y-92367714D01*
X183283123Y-92222571D01*
X183379885Y-92150000D01*
X183573409Y-92077428D01*
X183960457Y-92004857D01*
X184444266Y-92004857D01*
X184831314Y-92077428D01*
X185024838Y-92150000D01*
X185121600Y-92222571D01*
X185218361Y-92367714D01*
X185218361Y-93819142D02*
X185218361Y-93964285D01*
X185121600Y-94109428D01*
X185024838Y-94182000D01*
X184831314Y-94254571D01*
X184444266Y-94327142D01*
X183960457Y-94327142D01*
X183573409Y-94254571D01*
X183379885Y-94182000D01*
X183283123Y-94109428D01*
X183186361Y-93964285D01*
X183186361Y-93819142D01*
X183283123Y-93674000D01*
X183379885Y-93601428D01*
X183573409Y-93528857D01*
X183960457Y-93456285D01*
X184444266Y-93456285D01*
X184831314Y-93528857D01*
X185024838Y-93601428D01*
X185121600Y-93674000D01*
X185218361Y-93819142D01*
X185218361Y-95270571D02*
X185218361Y-95415714D01*
X185121600Y-95560857D01*
X185024838Y-95633428D01*
X184831314Y-95706000D01*
X184444266Y-95778571D01*
X183960457Y-95778571D01*
X183573409Y-95706000D01*
X183379885Y-95633428D01*
X183283123Y-95560857D01*
X183186361Y-95415714D01*
X183186361Y-95270571D01*
X183283123Y-95125428D01*
X183379885Y-95052857D01*
X183573409Y-94980285D01*
X183960457Y-94907714D01*
X184444266Y-94907714D01*
X184831314Y-94980285D01*
X185024838Y-95052857D01*
X185121600Y-95125428D01*
X185218361Y-95270571D01*
X183186361Y-97592857D02*
X184541028Y-97592857D01*
X184347504Y-97592857D02*
X184444266Y-97665428D01*
X184541028Y-97810571D01*
X184541028Y-98028285D01*
X184444266Y-98173428D01*
X184250742Y-98246000D01*
X183186361Y-98246000D01*
X184250742Y-98246000D02*
X184444266Y-98318571D01*
X184541028Y-98463714D01*
X184541028Y-98681428D01*
X184444266Y-98826571D01*
X184250742Y-98899142D01*
X183186361Y-98899142D01*
X183186361Y-99624857D02*
X184541028Y-99624857D01*
X184347504Y-99624857D02*
X184444266Y-99697428D01*
X184541028Y-99842571D01*
X184541028Y-100060285D01*
X184444266Y-100205428D01*
X184250742Y-100278000D01*
X183186361Y-100278000D01*
X184250742Y-100278000D02*
X184444266Y-100350571D01*
X184541028Y-100495714D01*
X184541028Y-100713428D01*
X184444266Y-100858571D01*
X184250742Y-100931142D01*
X183186361Y-100931142D01*
X182480000Y-82190000D02*
X182480000Y-107190000D01*
X174040000Y-82190000D02*
X185731200Y-82190000D01*
X174040000Y-107190000D02*
X185731200Y-107190000D01*
X182480000Y-107190000D02*
X181893579Y-106063496D01*
X182480000Y-107190000D02*
X183066421Y-106063496D01*
X182480000Y-82190000D02*
X181893579Y-83316504D01*
X182480000Y-82190000D02*
X183066421Y-83316504D01*
D12*
X108870952Y-96061428D02*
X108470952Y-96061428D01*
X108470952Y-95909047D01*
X108490000Y-95870952D01*
X108509047Y-95851904D01*
X108547142Y-95832857D01*
X108604285Y-95832857D01*
X108642380Y-95851904D01*
X108661428Y-95870952D01*
X108680476Y-95909047D01*
X108680476Y-96061428D01*
X108832857Y-95432857D02*
X108851904Y-95451904D01*
X108870952Y-95509047D01*
X108870952Y-95547142D01*
X108851904Y-95604285D01*
X108813809Y-95642380D01*
X108775714Y-95661428D01*
X108699523Y-95680476D01*
X108642380Y-95680476D01*
X108566190Y-95661428D01*
X108528095Y-95642380D01*
X108490000Y-95604285D01*
X108470952Y-95547142D01*
X108470952Y-95509047D01*
X108490000Y-95451904D01*
X108509047Y-95432857D01*
X108661428Y-95128095D02*
X108680476Y-95070952D01*
X108699523Y-95051904D01*
X108737619Y-95032857D01*
X108794761Y-95032857D01*
X108832857Y-95051904D01*
X108851904Y-95070952D01*
X108870952Y-95109047D01*
X108870952Y-95261428D01*
X108470952Y-95261428D01*
X108470952Y-95128095D01*
X108490000Y-95090000D01*
X108509047Y-95070952D01*
X108547142Y-95051904D01*
X108585238Y-95051904D01*
X108623333Y-95070952D01*
X108642380Y-95090000D01*
X108661428Y-95128095D01*
X108661428Y-95261428D01*
X108661428Y-94556666D02*
X108661428Y-94423333D01*
X108870952Y-94366190D02*
X108870952Y-94556666D01*
X108470952Y-94556666D01*
X108470952Y-94366190D01*
X108870952Y-94023333D02*
X108470952Y-94023333D01*
X108851904Y-94023333D02*
X108870952Y-94061428D01*
X108870952Y-94137619D01*
X108851904Y-94175714D01*
X108832857Y-94194761D01*
X108794761Y-94213809D01*
X108680476Y-94213809D01*
X108642380Y-94194761D01*
X108623333Y-94175714D01*
X108604285Y-94137619D01*
X108604285Y-94061428D01*
X108623333Y-94023333D01*
X108604285Y-93661428D02*
X108928095Y-93661428D01*
X108966190Y-93680476D01*
X108985238Y-93699523D01*
X109004285Y-93737619D01*
X109004285Y-93794761D01*
X108985238Y-93832857D01*
X108851904Y-93661428D02*
X108870952Y-93699523D01*
X108870952Y-93775714D01*
X108851904Y-93813809D01*
X108832857Y-93832857D01*
X108794761Y-93851904D01*
X108680476Y-93851904D01*
X108642380Y-93832857D01*
X108623333Y-93813809D01*
X108604285Y-93775714D01*
X108604285Y-93699523D01*
X108623333Y-93661428D01*
X108851904Y-93318571D02*
X108870952Y-93356666D01*
X108870952Y-93432857D01*
X108851904Y-93470952D01*
X108813809Y-93490000D01*
X108661428Y-93490000D01*
X108623333Y-93470952D01*
X108604285Y-93432857D01*
X108604285Y-93356666D01*
X108623333Y-93318571D01*
X108661428Y-93299523D01*
X108699523Y-93299523D01*
X108737619Y-93490000D01*
M02*
