G04 #@! TF.GenerationSoftware,KiCad,Pcbnew,5.1.0-060a0da~80~ubuntu16.04.1*
G04 #@! TF.CreationDate,2019-04-04T13:00:51+02:00*
G04 #@! TF.ProjectId,k2,6b322e6b-6963-4616-945f-706362585858,RevPB*
G04 #@! TF.SameCoordinates,Original*
G04 #@! TF.FileFunction,Other,Fab,Top*
%FSLAX46Y46*%
G04 Gerber Fmt 4.6, Leading zero omitted, Abs format (unit mm)*
G04 Created by KiCad (PCBNEW 5.1.0-060a0da~80~ubuntu16.04.1) date 2019-04-04 13:00:51*
%MOMM*%
%LPD*%
G04 APERTURE LIST*
%ADD10C,0.120000*%
%ADD11C,0.050000*%
%ADD12C,0.100000*%
%ADD13C,0.150000*%
%ADD14C,0.075000*%
%ADD15C,0.105000*%
G04 APERTURE END LIST*
D10*
X133033400Y-92071000D02*
X133033400Y-91309000D01*
X134532000Y-92071000D02*
X133033400Y-92071000D01*
X134532000Y-91309000D02*
X134532000Y-92071000D01*
X133033400Y-91309000D02*
X134532000Y-91309000D01*
X127121000Y-88186600D02*
X126359000Y-88186600D01*
X127121000Y-86688000D02*
X127121000Y-88186600D01*
X126359000Y-86688000D02*
X127121000Y-86688000D01*
X126359000Y-88186600D02*
X126359000Y-86688000D01*
X127869000Y-97963400D02*
X128631000Y-97963400D01*
X127869000Y-99462000D02*
X127869000Y-97963400D01*
X128631000Y-99462000D02*
X127869000Y-99462000D01*
X128631000Y-97963400D02*
X128631000Y-99462000D01*
X122566600Y-96169000D02*
X122566600Y-96931000D01*
X121068000Y-96169000D02*
X122566600Y-96169000D01*
X121068000Y-96931000D02*
X121068000Y-96169000D01*
X122566600Y-96931000D02*
X121068000Y-96931000D01*
X127223400Y-106711000D02*
X127223400Y-105949000D01*
X128722000Y-106711000D02*
X127223400Y-106711000D01*
X128722000Y-105949000D02*
X128722000Y-106711000D01*
X127223400Y-105949000D02*
X128722000Y-105949000D01*
D11*
X142247600Y-101117000D02*
X142247600Y-88188400D01*
X167977800Y-101117000D02*
X142247600Y-101117000D01*
X167977800Y-88188400D02*
X167977800Y-101117000D01*
X144584400Y-88188400D02*
X167977800Y-88188400D01*
X142273000Y-88188400D02*
X144584400Y-88188400D01*
X121014000Y-103970000D02*
X121014000Y-107221200D01*
X121014000Y-107221200D02*
X115426000Y-107221200D01*
X115426000Y-107221200D02*
X115426000Y-103970000D01*
X121014000Y-103970000D02*
X121014000Y-100718800D01*
X121014000Y-100718800D02*
X115426000Y-100718800D01*
X115426000Y-103970000D02*
X115426000Y-100718800D01*
X175081200Y-95767600D02*
X175513000Y-95767600D01*
X175513000Y-95767600D02*
X175563800Y-95767600D01*
X175563800Y-95767600D02*
X175563800Y-98688600D01*
X175563800Y-98688600D02*
X175081200Y-98688600D01*
X173201600Y-98688600D02*
X175081200Y-98688600D01*
X173201600Y-98688600D02*
X173201600Y-95767600D01*
X175081200Y-95767600D02*
X173201600Y-95767600D01*
D12*
X165150000Y-83805000D02*
X165150000Y-85710000D01*
X165150000Y-85710000D02*
X129590000Y-85710000D01*
X129590000Y-85710000D02*
X129590000Y-83170000D01*
X129590000Y-83170000D02*
X164515000Y-83170000D01*
X164515000Y-83170000D02*
X165150000Y-83805000D01*
X129590000Y-105575000D02*
X129590000Y-103670000D01*
X129590000Y-103670000D02*
X165150000Y-103670000D01*
X165150000Y-103670000D02*
X165150000Y-106210000D01*
X165150000Y-106210000D02*
X130225000Y-106210000D01*
X130225000Y-106210000D02*
X129590000Y-105575000D01*
X110050000Y-102000000D02*
X110050000Y-100760000D01*
X112050000Y-102000000D02*
X110050000Y-102000000D01*
X112050000Y-100760000D02*
X112050000Y-102000000D01*
X110050000Y-100760000D02*
X112050000Y-100760000D01*
D11*
X171755400Y-88727400D02*
X169190000Y-88727400D01*
X169190000Y-88727400D02*
X169190000Y-87152600D01*
X169190000Y-87152600D02*
X171755400Y-87152600D01*
X171755400Y-87152600D02*
X171755400Y-88727400D01*
X115314600Y-88842600D02*
X117880000Y-88842600D01*
X117880000Y-88842600D02*
X117880000Y-90417400D01*
X117880000Y-90417400D02*
X115314600Y-90417400D01*
X115314600Y-90417400D02*
X115314600Y-88842600D01*
X129192600Y-99865400D02*
X129192600Y-97300000D01*
X129192600Y-97300000D02*
X130767400Y-97300000D01*
X130767400Y-97300000D02*
X130767400Y-99865400D01*
X130767400Y-99865400D02*
X129192600Y-99865400D01*
D12*
X114740000Y-102210000D02*
X113500000Y-102210000D01*
X114740000Y-100210000D02*
X114740000Y-102210000D01*
X113500000Y-100210000D02*
X114740000Y-100210000D01*
X113500000Y-102210000D02*
X113500000Y-100210000D01*
X117400000Y-90930000D02*
X117400000Y-92170000D01*
X115400000Y-90930000D02*
X117400000Y-90930000D01*
X115400000Y-92170000D02*
X115400000Y-90930000D01*
X117400000Y-92170000D02*
X115400000Y-92170000D01*
D13*
X129400000Y-96490000D02*
X123400000Y-96490000D01*
X123400000Y-96490000D02*
X123400000Y-89490000D01*
X123400000Y-89490000D02*
X130400000Y-89490000D01*
X130400000Y-89490000D02*
X130400000Y-95490000D01*
X130400000Y-95490000D02*
X129400000Y-96490000D01*
X133810000Y-88770000D02*
X131810000Y-88770000D01*
X131810000Y-88770000D02*
X131810000Y-86770000D01*
X131810000Y-86770000D02*
X134810000Y-86770000D01*
X134810000Y-86770000D02*
X134810000Y-87770000D01*
X134810000Y-87770000D02*
X133810000Y-88770000D01*
D11*
X131219400Y-98768800D02*
X131219400Y-95111200D01*
X131219400Y-95111200D02*
X133200600Y-95111200D01*
X133200600Y-95111200D02*
X133200600Y-98768800D01*
X133200600Y-98768800D02*
X131219400Y-98768800D01*
D12*
X108010000Y-98440000D02*
X108010000Y-90940000D01*
X113010000Y-98440000D02*
X108010000Y-98440000D01*
X113010000Y-90940000D02*
X113010000Y-98440000D01*
X108010000Y-90940000D02*
X113010000Y-90940000D01*
X108710000Y-91440000D02*
X108710000Y-97940000D01*
D11*
X123244800Y-84152000D02*
X123244800Y-82628000D01*
X123244800Y-82628000D02*
X123244800Y-82602600D01*
X123244800Y-82602600D02*
X125175200Y-82602600D01*
X125175200Y-82602600D02*
X125175200Y-84177400D01*
X125175200Y-84177400D02*
X123244800Y-84177400D01*
X123244800Y-84177400D02*
X123244800Y-84152000D01*
X127575200Y-102918000D02*
X127575200Y-104442000D01*
X127575200Y-104442000D02*
X127575200Y-104467400D01*
X127575200Y-104467400D02*
X125644800Y-104467400D01*
X125644800Y-104467400D02*
X125644800Y-102892600D01*
X125644800Y-102892600D02*
X127575200Y-102892600D01*
X127575200Y-102892600D02*
X127575200Y-102918000D01*
X124935200Y-84808000D02*
X124935200Y-86332000D01*
X124935200Y-86332000D02*
X124935200Y-86357400D01*
X124935200Y-86357400D02*
X123004800Y-86357400D01*
X123004800Y-86357400D02*
X123004800Y-84782600D01*
X123004800Y-84782600D02*
X124935200Y-84782600D01*
X124935200Y-84782600D02*
X124935200Y-84808000D01*
X119055200Y-84708000D02*
X119055200Y-86232000D01*
X119055200Y-86232000D02*
X119055200Y-86257400D01*
X119055200Y-86257400D02*
X117124800Y-86257400D01*
X117124800Y-86257400D02*
X117124800Y-84682600D01*
X117124800Y-84682600D02*
X119055200Y-84682600D01*
X119055200Y-84682600D02*
X119055200Y-84708000D01*
D12*
X130300000Y-86740000D02*
X130300000Y-87240000D01*
X129300000Y-86740000D02*
X130300000Y-86740000D01*
X129300000Y-87240000D02*
X129300000Y-86740000D01*
X130300000Y-87240000D02*
X129300000Y-87240000D01*
X130300000Y-87640000D02*
X130300000Y-88140000D01*
X129300000Y-87640000D02*
X130300000Y-87640000D01*
X129300000Y-88140000D02*
X129300000Y-87640000D01*
X130300000Y-88140000D02*
X129300000Y-88140000D01*
X129970000Y-101380000D02*
X129970000Y-100880000D01*
X130970000Y-101380000D02*
X129970000Y-101380000D01*
X130970000Y-100880000D02*
X130970000Y-101380000D01*
X129970000Y-100880000D02*
X130970000Y-100880000D01*
X126820000Y-82880000D02*
X126820000Y-83380000D01*
X125820000Y-82880000D02*
X126820000Y-82880000D01*
X125820000Y-83380000D02*
X125820000Y-82880000D01*
X126820000Y-83380000D02*
X125820000Y-83380000D01*
X121660000Y-83300000D02*
X121660000Y-82800000D01*
X122660000Y-83300000D02*
X121660000Y-83300000D01*
X122660000Y-82800000D02*
X122660000Y-83300000D01*
X121660000Y-82800000D02*
X122660000Y-82800000D01*
X121980000Y-105630000D02*
X121480000Y-105630000D01*
X121980000Y-104630000D02*
X121980000Y-105630000D01*
X121480000Y-104630000D02*
X121980000Y-104630000D01*
X121480000Y-105630000D02*
X121480000Y-104630000D01*
X125120000Y-99130000D02*
X124620000Y-99130000D01*
X125120000Y-98130000D02*
X125120000Y-99130000D01*
X124620000Y-98130000D02*
X125120000Y-98130000D01*
X124620000Y-99130000D02*
X124620000Y-98130000D01*
X122870000Y-98530000D02*
X122870000Y-98030000D01*
X123870000Y-98530000D02*
X122870000Y-98530000D01*
X123870000Y-98030000D02*
X123870000Y-98530000D01*
X122870000Y-98030000D02*
X123870000Y-98030000D01*
X121990000Y-103160000D02*
X121490000Y-103160000D01*
X121990000Y-102160000D02*
X121990000Y-103160000D01*
X121490000Y-102160000D02*
X121990000Y-102160000D01*
X121490000Y-103160000D02*
X121490000Y-102160000D01*
X122440000Y-99170000D02*
X122440000Y-99670000D01*
X121440000Y-99170000D02*
X122440000Y-99170000D01*
X121440000Y-99670000D02*
X121440000Y-99170000D01*
X122440000Y-99670000D02*
X121440000Y-99670000D01*
X124980000Y-100420000D02*
X124980000Y-99920000D01*
X125980000Y-100420000D02*
X124980000Y-100420000D01*
X125980000Y-99920000D02*
X125980000Y-100420000D01*
X124980000Y-99920000D02*
X125980000Y-99920000D01*
X128120000Y-103270000D02*
X128620000Y-103270000D01*
X128120000Y-104270000D02*
X128120000Y-103270000D01*
X128620000Y-104270000D02*
X128120000Y-104270000D01*
X128620000Y-103270000D02*
X128620000Y-104270000D01*
X127110000Y-105030000D02*
X127110000Y-105530000D01*
X126110000Y-105030000D02*
X127110000Y-105030000D01*
X126110000Y-105530000D02*
X126110000Y-105030000D01*
X127110000Y-105530000D02*
X126110000Y-105530000D01*
X112470000Y-87420000D02*
X112470000Y-86920000D01*
X113470000Y-87420000D02*
X112470000Y-87420000D01*
X113470000Y-86920000D02*
X113470000Y-87420000D01*
X112470000Y-86920000D02*
X113470000Y-86920000D01*
X118760000Y-88070000D02*
X118260000Y-88070000D01*
X118760000Y-87070000D02*
X118760000Y-88070000D01*
X118260000Y-87070000D02*
X118760000Y-87070000D01*
X118260000Y-88070000D02*
X118260000Y-87070000D01*
X115540000Y-85790000D02*
X115540000Y-86290000D01*
X114540000Y-85790000D02*
X115540000Y-85790000D01*
X114540000Y-86290000D02*
X114540000Y-85790000D01*
X115540000Y-86290000D02*
X114540000Y-86290000D01*
X137140000Y-91830000D02*
X136640000Y-91830000D01*
X137140000Y-90830000D02*
X137140000Y-91830000D01*
X136640000Y-90830000D02*
X137140000Y-90830000D01*
X136640000Y-91830000D02*
X136640000Y-90830000D01*
X137540000Y-90830000D02*
X138040000Y-90830000D01*
X137540000Y-91830000D02*
X137540000Y-90830000D01*
X138040000Y-91830000D02*
X137540000Y-91830000D01*
X138040000Y-90830000D02*
X138040000Y-91830000D01*
X119410000Y-82840000D02*
X119410000Y-83340000D01*
X118410000Y-82840000D02*
X119410000Y-82840000D01*
X118410000Y-83340000D02*
X118410000Y-82840000D01*
X119410000Y-83340000D02*
X118410000Y-83340000D01*
X118510000Y-83740000D02*
X118510000Y-84240000D01*
X117510000Y-83740000D02*
X118510000Y-83740000D01*
X117510000Y-84240000D02*
X117510000Y-83740000D01*
X118510000Y-84240000D02*
X117510000Y-84240000D01*
X121650000Y-85410000D02*
X121650000Y-84910000D01*
X122650000Y-85410000D02*
X121650000Y-85410000D01*
X122650000Y-84910000D02*
X122650000Y-85410000D01*
X121650000Y-84910000D02*
X122650000Y-84910000D01*
X122650000Y-85810000D02*
X122650000Y-86310000D01*
X121650000Y-85810000D02*
X122650000Y-85810000D01*
X121650000Y-86310000D02*
X121650000Y-85810000D01*
X122650000Y-86310000D02*
X121650000Y-86310000D01*
X170250000Y-90800000D02*
X169750000Y-90800000D01*
X170250000Y-89800000D02*
X170250000Y-90800000D01*
X169750000Y-89800000D02*
X170250000Y-89800000D01*
X169750000Y-90800000D02*
X169750000Y-89800000D01*
X140440000Y-87620000D02*
X140440000Y-87120000D01*
X141440000Y-87620000D02*
X140440000Y-87620000D01*
X141440000Y-87120000D02*
X141440000Y-87620000D01*
X140440000Y-87120000D02*
X141440000Y-87120000D01*
X140440000Y-88520000D02*
X140440000Y-88020000D01*
X141440000Y-88520000D02*
X140440000Y-88520000D01*
X141440000Y-88020000D02*
X141440000Y-88520000D01*
X140440000Y-88020000D02*
X141440000Y-88020000D01*
X122640000Y-100020000D02*
X122640000Y-100520000D01*
X121640000Y-100020000D02*
X122640000Y-100020000D01*
X121640000Y-100520000D02*
X121640000Y-100020000D01*
X122640000Y-100520000D02*
X121640000Y-100520000D01*
X122240000Y-95220000D02*
X122240000Y-95720000D01*
X121240000Y-95220000D02*
X122240000Y-95220000D01*
X121240000Y-95720000D02*
X121240000Y-95220000D01*
X122240000Y-95720000D02*
X121240000Y-95720000D01*
X119640000Y-93470000D02*
X119640000Y-92970000D01*
X120640000Y-93470000D02*
X119640000Y-93470000D01*
X120640000Y-92970000D02*
X120640000Y-93470000D01*
X119640000Y-92970000D02*
X120640000Y-92970000D01*
X127140000Y-97990000D02*
X127640000Y-97990000D01*
X127140000Y-98990000D02*
X127140000Y-97990000D01*
X127640000Y-98990000D02*
X127140000Y-98990000D01*
X127640000Y-97990000D02*
X127640000Y-98990000D01*
X127890000Y-88270000D02*
X127390000Y-88270000D01*
X127890000Y-87270000D02*
X127890000Y-88270000D01*
X127390000Y-87270000D02*
X127890000Y-87270000D01*
X127390000Y-88270000D02*
X127390000Y-87270000D01*
X126840000Y-98990000D02*
X126340000Y-98990000D01*
X126840000Y-97990000D02*
X126840000Y-98990000D01*
X126340000Y-97990000D02*
X126840000Y-97990000D01*
X126340000Y-98990000D02*
X126340000Y-97990000D01*
X122840000Y-87160000D02*
X123340000Y-87160000D01*
X122840000Y-88160000D02*
X122840000Y-87160000D01*
X123340000Y-88160000D02*
X122840000Y-88160000D01*
X123340000Y-87160000D02*
X123340000Y-88160000D01*
X133810000Y-95940000D02*
X133810000Y-95440000D01*
X134810000Y-95940000D02*
X133810000Y-95940000D01*
X134810000Y-95440000D02*
X134810000Y-95940000D01*
X133810000Y-95440000D02*
X134810000Y-95440000D01*
X133780000Y-98590000D02*
X133780000Y-98090000D01*
X134780000Y-98590000D02*
X133780000Y-98590000D01*
X134780000Y-98090000D02*
X134780000Y-98590000D01*
X133780000Y-98090000D02*
X134780000Y-98090000D01*
X133430000Y-92840000D02*
X133430000Y-92340000D01*
X134430000Y-92840000D02*
X133430000Y-92840000D01*
X134430000Y-92340000D02*
X134430000Y-92840000D01*
X133430000Y-92340000D02*
X134430000Y-92340000D01*
X133470000Y-91000000D02*
X133470000Y-90500000D01*
X134470000Y-91000000D02*
X133470000Y-91000000D01*
X134470000Y-90500000D02*
X134470000Y-91000000D01*
X133470000Y-90500000D02*
X134470000Y-90500000D01*
X133430000Y-94440000D02*
X133430000Y-93940000D01*
X134430000Y-94440000D02*
X133430000Y-94440000D01*
X134430000Y-93940000D02*
X134430000Y-94440000D01*
X133430000Y-93940000D02*
X134430000Y-93940000D01*
X133430000Y-93640000D02*
X133430000Y-93140000D01*
X134430000Y-93640000D02*
X133430000Y-93640000D01*
X134430000Y-93140000D02*
X134430000Y-93640000D01*
X133430000Y-93140000D02*
X134430000Y-93140000D01*
X125730000Y-85890000D02*
X125230000Y-85890000D01*
X125730000Y-84890000D02*
X125730000Y-85890000D01*
X125230000Y-84890000D02*
X125730000Y-84890000D01*
X125230000Y-85890000D02*
X125230000Y-84890000D01*
X132010000Y-89800000D02*
X132010000Y-89300000D01*
X133010000Y-89800000D02*
X132010000Y-89800000D01*
X133010000Y-89300000D02*
X133010000Y-89800000D01*
X132010000Y-89300000D02*
X133010000Y-89300000D01*
X113780000Y-88780000D02*
X113780000Y-89280000D01*
X112780000Y-88780000D02*
X113780000Y-88780000D01*
X112780000Y-89280000D02*
X112780000Y-88780000D01*
X113780000Y-89280000D02*
X112780000Y-89280000D01*
X117760000Y-88240000D02*
X117260000Y-88240000D01*
X117760000Y-87240000D02*
X117760000Y-88240000D01*
X117260000Y-87240000D02*
X117760000Y-87240000D01*
X117260000Y-88240000D02*
X117260000Y-87240000D01*
D11*
X128796600Y-82685400D02*
X127348800Y-82685400D01*
X127374200Y-82634600D02*
X127348800Y-82634600D01*
X128796600Y-82634600D02*
X127374200Y-82634600D01*
X128796600Y-82583800D02*
X127348800Y-82583800D01*
X128796600Y-82533000D02*
X128796600Y-85327000D01*
X128796600Y-85327000D02*
X127323400Y-85327000D01*
X127323400Y-85327000D02*
X127323400Y-82533000D01*
X127323400Y-82533000D02*
X128796600Y-82533000D01*
X109265400Y-87823400D02*
X109265400Y-89271200D01*
X109214600Y-89245800D02*
X109214600Y-89271200D01*
X109214600Y-87823400D02*
X109214600Y-89245800D01*
X109163800Y-87823400D02*
X109163800Y-89271200D01*
X109113000Y-87823400D02*
X111907000Y-87823400D01*
X111907000Y-87823400D02*
X111907000Y-89296600D01*
X111907000Y-89296600D02*
X109113000Y-89296600D01*
X109113000Y-89296600D02*
X109113000Y-87823400D01*
X137385400Y-86553400D02*
X137385400Y-88001200D01*
X137334600Y-87975800D02*
X137334600Y-88001200D01*
X137334600Y-86553400D02*
X137334600Y-87975800D01*
X137283800Y-86553400D02*
X137283800Y-88001200D01*
X137233000Y-86553400D02*
X140027000Y-86553400D01*
X140027000Y-86553400D02*
X140027000Y-88026600D01*
X140027000Y-88026600D02*
X137233000Y-88026600D01*
X137233000Y-88026600D02*
X137233000Y-86553400D01*
X137385400Y-87833400D02*
X137385400Y-89281200D01*
X137334600Y-89255800D02*
X137334600Y-89281200D01*
X137334600Y-87833400D02*
X137334600Y-89255800D01*
X137283800Y-87833400D02*
X137283800Y-89281200D01*
X137233000Y-87833400D02*
X140027000Y-87833400D01*
X140027000Y-87833400D02*
X140027000Y-89306600D01*
X140027000Y-89306600D02*
X137233000Y-89306600D01*
X137233000Y-89306600D02*
X137233000Y-87833400D01*
X114045600Y-84165800D02*
X114045600Y-84216600D01*
X114045600Y-84216600D02*
X113334400Y-84216600D01*
X113334400Y-84216600D02*
X113334400Y-84165800D01*
X113334400Y-84064200D02*
X113334400Y-84165800D01*
X113334400Y-84165800D02*
X114045600Y-84165800D01*
X114045600Y-84165800D02*
X114045600Y-84140400D01*
X113334400Y-84115000D02*
X114045600Y-84115000D01*
X114045600Y-84115000D02*
X114045600Y-84089600D01*
X113334400Y-82972000D02*
X113334400Y-82921200D01*
X113334400Y-82921200D02*
X114045600Y-82921200D01*
X114045600Y-82921200D02*
X114045600Y-82972000D01*
X113334400Y-84038800D02*
X113334400Y-82972000D01*
X114045600Y-82972000D02*
X114045600Y-84064200D01*
X114045600Y-84064200D02*
X113334400Y-84064200D01*
X113334400Y-84064200D02*
X113334400Y-84038800D01*
X114454400Y-96724200D02*
X114454400Y-96673400D01*
X114454400Y-96673400D02*
X115165600Y-96673400D01*
X115165600Y-96673400D02*
X115165600Y-96724200D01*
X115165600Y-96825800D02*
X115165600Y-96724200D01*
X115165600Y-96724200D02*
X114454400Y-96724200D01*
X114454400Y-96724200D02*
X114454400Y-96749600D01*
X115165600Y-96775000D02*
X114454400Y-96775000D01*
X114454400Y-96775000D02*
X114454400Y-96800400D01*
X115165600Y-97918000D02*
X115165600Y-97968800D01*
X115165600Y-97968800D02*
X114454400Y-97968800D01*
X114454400Y-97968800D02*
X114454400Y-97918000D01*
X115165600Y-96851200D02*
X115165600Y-97918000D01*
X114454400Y-97918000D02*
X114454400Y-96825800D01*
X114454400Y-96825800D02*
X115165600Y-96825800D01*
X115165600Y-96825800D02*
X115165600Y-96851200D01*
D13*
X124080000Y-100990000D02*
X125080000Y-100990000D01*
X125080000Y-100990000D02*
X125080000Y-102990000D01*
X125080000Y-102990000D02*
X123080000Y-102990000D01*
X123080000Y-102990000D02*
X123080000Y-101990000D01*
X123080000Y-101990000D02*
X124080000Y-100990000D01*
X124110000Y-106580000D02*
X123110000Y-106580000D01*
X123110000Y-106580000D02*
X123110000Y-104580000D01*
X123110000Y-104580000D02*
X125110000Y-104580000D01*
X125110000Y-104580000D02*
X125110000Y-105580000D01*
X125110000Y-105580000D02*
X124110000Y-106580000D01*
X120420000Y-86770000D02*
X121420000Y-86770000D01*
X121420000Y-86770000D02*
X121420000Y-88770000D01*
X121420000Y-88770000D02*
X119420000Y-88770000D01*
X119420000Y-88770000D02*
X119420000Y-87770000D01*
X119420000Y-87770000D02*
X120420000Y-86770000D01*
X116490000Y-84110000D02*
X116490000Y-85110000D01*
X116490000Y-85110000D02*
X114490000Y-85110000D01*
X114490000Y-85110000D02*
X114490000Y-83110000D01*
X114490000Y-83110000D02*
X115490000Y-83110000D01*
X115490000Y-83110000D02*
X116490000Y-84110000D01*
X119230000Y-91170000D02*
X119230000Y-90170000D01*
X119230000Y-90170000D02*
X121230000Y-90170000D01*
X121230000Y-90170000D02*
X121230000Y-92170000D01*
X121230000Y-92170000D02*
X120230000Y-92170000D01*
X120230000Y-92170000D02*
X119230000Y-91170000D01*
D12*
X115390000Y-95280000D02*
X114890000Y-94780000D01*
X114890000Y-94780000D02*
X114890000Y-92880000D01*
X117890000Y-95280000D02*
X115390000Y-95280000D01*
X117890000Y-92880000D02*
X117890000Y-95280000D01*
X114890000Y-92880000D02*
X117890000Y-92880000D01*
X169260000Y-97440000D02*
X169760000Y-97440000D01*
X169260000Y-98440000D02*
X169260000Y-97440000D01*
X169760000Y-98440000D02*
X169260000Y-98440000D01*
X169760000Y-97440000D02*
X169760000Y-98440000D01*
X171900000Y-97440000D02*
X171900000Y-98440000D01*
X171900000Y-98440000D02*
X171400000Y-98440000D01*
X171400000Y-98440000D02*
X171400000Y-97440000D01*
X171400000Y-97440000D02*
X171900000Y-97440000D01*
X170080000Y-97640000D02*
X170080000Y-97140000D01*
X171080000Y-97640000D02*
X170080000Y-97640000D01*
X171080000Y-97140000D02*
X171080000Y-97640000D01*
X170080000Y-97140000D02*
X171080000Y-97140000D01*
D14*
X135066666Y-91878571D02*
X135042857Y-91902380D01*
X134971428Y-91926190D01*
X134923809Y-91926190D01*
X134852380Y-91902380D01*
X134804761Y-91854761D01*
X134780952Y-91807142D01*
X134757142Y-91711904D01*
X134757142Y-91640476D01*
X134780952Y-91545238D01*
X134804761Y-91497619D01*
X134852380Y-91450000D01*
X134923809Y-91426190D01*
X134971428Y-91426190D01*
X135042857Y-91450000D01*
X135066666Y-91473809D01*
X135233333Y-91426190D02*
X135566666Y-91426190D01*
X135352380Y-91926190D01*
X126888571Y-86071428D02*
X126912380Y-86095238D01*
X126936190Y-86166666D01*
X126936190Y-86214285D01*
X126912380Y-86285714D01*
X126864761Y-86333333D01*
X126817142Y-86357142D01*
X126721904Y-86380952D01*
X126650476Y-86380952D01*
X126555238Y-86357142D01*
X126507619Y-86333333D01*
X126460000Y-86285714D01*
X126436190Y-86214285D01*
X126436190Y-86166666D01*
X126460000Y-86095238D01*
X126483809Y-86071428D01*
X126936190Y-85595238D02*
X126936190Y-85880952D01*
X126936190Y-85738095D02*
X126436190Y-85738095D01*
X126507619Y-85785714D01*
X126555238Y-85833333D01*
X126579047Y-85880952D01*
X126436190Y-85142857D02*
X126436190Y-85380952D01*
X126674285Y-85404761D01*
X126650476Y-85380952D01*
X126626666Y-85333333D01*
X126626666Y-85214285D01*
X126650476Y-85166666D01*
X126674285Y-85142857D01*
X126721904Y-85119047D01*
X126840952Y-85119047D01*
X126888571Y-85142857D01*
X126912380Y-85166666D01*
X126936190Y-85214285D01*
X126936190Y-85333333D01*
X126912380Y-85380952D01*
X126888571Y-85404761D01*
X128538571Y-100681428D02*
X128562380Y-100705238D01*
X128586190Y-100776666D01*
X128586190Y-100824285D01*
X128562380Y-100895714D01*
X128514761Y-100943333D01*
X128467142Y-100967142D01*
X128371904Y-100990952D01*
X128300476Y-100990952D01*
X128205238Y-100967142D01*
X128157619Y-100943333D01*
X128110000Y-100895714D01*
X128086190Y-100824285D01*
X128086190Y-100776666D01*
X128110000Y-100705238D01*
X128133809Y-100681428D01*
X128586190Y-100205238D02*
X128586190Y-100490952D01*
X128586190Y-100348095D02*
X128086190Y-100348095D01*
X128157619Y-100395714D01*
X128205238Y-100443333D01*
X128229047Y-100490952D01*
X128586190Y-99967142D02*
X128586190Y-99871904D01*
X128562380Y-99824285D01*
X128538571Y-99800476D01*
X128467142Y-99752857D01*
X128371904Y-99729047D01*
X128181428Y-99729047D01*
X128133809Y-99752857D01*
X128110000Y-99776666D01*
X128086190Y-99824285D01*
X128086190Y-99919523D01*
X128110000Y-99967142D01*
X128133809Y-99990952D01*
X128181428Y-100014761D01*
X128300476Y-100014761D01*
X128348095Y-99990952D01*
X128371904Y-99967142D01*
X128395714Y-99919523D01*
X128395714Y-99824285D01*
X128371904Y-99776666D01*
X128348095Y-99752857D01*
X128300476Y-99729047D01*
X119878571Y-96748571D02*
X119854761Y-96772380D01*
X119783333Y-96796190D01*
X119735714Y-96796190D01*
X119664285Y-96772380D01*
X119616666Y-96724761D01*
X119592857Y-96677142D01*
X119569047Y-96581904D01*
X119569047Y-96510476D01*
X119592857Y-96415238D01*
X119616666Y-96367619D01*
X119664285Y-96320000D01*
X119735714Y-96296190D01*
X119783333Y-96296190D01*
X119854761Y-96320000D01*
X119878571Y-96343809D01*
X120069047Y-96343809D02*
X120092857Y-96320000D01*
X120140476Y-96296190D01*
X120259523Y-96296190D01*
X120307142Y-96320000D01*
X120330952Y-96343809D01*
X120354761Y-96391428D01*
X120354761Y-96439047D01*
X120330952Y-96510476D01*
X120045238Y-96796190D01*
X120354761Y-96796190D01*
X120545238Y-96343809D02*
X120569047Y-96320000D01*
X120616666Y-96296190D01*
X120735714Y-96296190D01*
X120783333Y-96320000D01*
X120807142Y-96343809D01*
X120830952Y-96391428D01*
X120830952Y-96439047D01*
X120807142Y-96510476D01*
X120521428Y-96796190D01*
X120830952Y-96796190D01*
X125958571Y-106558571D02*
X125934761Y-106582380D01*
X125863333Y-106606190D01*
X125815714Y-106606190D01*
X125744285Y-106582380D01*
X125696666Y-106534761D01*
X125672857Y-106487142D01*
X125649047Y-106391904D01*
X125649047Y-106320476D01*
X125672857Y-106225238D01*
X125696666Y-106177619D01*
X125744285Y-106130000D01*
X125815714Y-106106190D01*
X125863333Y-106106190D01*
X125934761Y-106130000D01*
X125958571Y-106153809D01*
X126149047Y-106153809D02*
X126172857Y-106130000D01*
X126220476Y-106106190D01*
X126339523Y-106106190D01*
X126387142Y-106130000D01*
X126410952Y-106153809D01*
X126434761Y-106201428D01*
X126434761Y-106249047D01*
X126410952Y-106320476D01*
X126125238Y-106606190D01*
X126434761Y-106606190D01*
X126601428Y-106106190D02*
X126910952Y-106106190D01*
X126744285Y-106296666D01*
X126815714Y-106296666D01*
X126863333Y-106320476D01*
X126887142Y-106344285D01*
X126910952Y-106391904D01*
X126910952Y-106510952D01*
X126887142Y-106558571D01*
X126863333Y-106582380D01*
X126815714Y-106606190D01*
X126672857Y-106606190D01*
X126625238Y-106582380D01*
X126601428Y-106558571D01*
D13*
X154338095Y-94092380D02*
X154338095Y-94901904D01*
X154385714Y-94997142D01*
X154433333Y-95044761D01*
X154528571Y-95092380D01*
X154719047Y-95092380D01*
X154814285Y-95044761D01*
X154861904Y-94997142D01*
X154909523Y-94901904D01*
X154909523Y-94092380D01*
X155338095Y-94187619D02*
X155385714Y-94140000D01*
X155480952Y-94092380D01*
X155719047Y-94092380D01*
X155814285Y-94140000D01*
X155861904Y-94187619D01*
X155909523Y-94282857D01*
X155909523Y-94378095D01*
X155861904Y-94520952D01*
X155290476Y-95092380D01*
X155909523Y-95092380D01*
X117766666Y-105962380D02*
X117766666Y-106676666D01*
X117719047Y-106819523D01*
X117623809Y-106914761D01*
X117480952Y-106962380D01*
X117385714Y-106962380D01*
X118195238Y-106057619D02*
X118242857Y-106010000D01*
X118338095Y-105962380D01*
X118576190Y-105962380D01*
X118671428Y-106010000D01*
X118719047Y-106057619D01*
X118766666Y-106152857D01*
X118766666Y-106248095D01*
X118719047Y-106390952D01*
X118147619Y-106962380D01*
X118766666Y-106962380D01*
X174096666Y-97533333D02*
X174596666Y-97533333D01*
X174696666Y-97566666D01*
X174763333Y-97633333D01*
X174796666Y-97733333D01*
X174796666Y-97800000D01*
X174330000Y-96900000D02*
X174796666Y-96900000D01*
X174063333Y-97066666D02*
X174563333Y-97233333D01*
X174563333Y-96800000D01*
X147036666Y-83892380D02*
X147036666Y-84606666D01*
X146989047Y-84749523D01*
X146893809Y-84844761D01*
X146750952Y-84892380D01*
X146655714Y-84892380D01*
X147417619Y-83892380D02*
X148084285Y-83892380D01*
X147655714Y-84892380D01*
X147036666Y-104392380D02*
X147036666Y-105106666D01*
X146989047Y-105249523D01*
X146893809Y-105344761D01*
X146750952Y-105392380D01*
X146655714Y-105392380D01*
X147941428Y-104392380D02*
X147750952Y-104392380D01*
X147655714Y-104440000D01*
X147608095Y-104487619D01*
X147512857Y-104630476D01*
X147465238Y-104820952D01*
X147465238Y-105201904D01*
X147512857Y-105297142D01*
X147560476Y-105344761D01*
X147655714Y-105392380D01*
X147846190Y-105392380D01*
X147941428Y-105344761D01*
X147989047Y-105297142D01*
X148036666Y-105201904D01*
X148036666Y-104963809D01*
X147989047Y-104868571D01*
X147941428Y-104820952D01*
X147846190Y-104773333D01*
X147655714Y-104773333D01*
X147560476Y-104820952D01*
X147512857Y-104868571D01*
X147465238Y-104963809D01*
D14*
X110986666Y-101568571D02*
X110962857Y-101592380D01*
X110891428Y-101616190D01*
X110843809Y-101616190D01*
X110772380Y-101592380D01*
X110724761Y-101544761D01*
X110700952Y-101497142D01*
X110677142Y-101401904D01*
X110677142Y-101330476D01*
X110700952Y-101235238D01*
X110724761Y-101187619D01*
X110772380Y-101140000D01*
X110843809Y-101116190D01*
X110891428Y-101116190D01*
X110962857Y-101140000D01*
X110986666Y-101163809D01*
X111462857Y-101616190D02*
X111177142Y-101616190D01*
X111320000Y-101616190D02*
X111320000Y-101116190D01*
X111272380Y-101187619D01*
X111224761Y-101235238D01*
X111177142Y-101259047D01*
D13*
X170363333Y-88296666D02*
X170030000Y-88296666D01*
X170030000Y-87596666D01*
X170963333Y-88296666D02*
X170563333Y-88296666D01*
X170763333Y-88296666D02*
X170763333Y-87596666D01*
X170696666Y-87696666D01*
X170630000Y-87763333D01*
X170563333Y-87796666D01*
D14*
X116526666Y-89856190D02*
X116288571Y-89856190D01*
X116288571Y-89356190D01*
X116669523Y-89403809D02*
X116693333Y-89380000D01*
X116740952Y-89356190D01*
X116860000Y-89356190D01*
X116907619Y-89380000D01*
X116931428Y-89403809D01*
X116955238Y-89451428D01*
X116955238Y-89499047D01*
X116931428Y-89570476D01*
X116645714Y-89856190D01*
X116955238Y-89856190D01*
D13*
X130347466Y-98712066D02*
X130347466Y-99045400D01*
X129647466Y-99045400D01*
X129647466Y-98545400D02*
X129647466Y-98112066D01*
X129914133Y-98345400D01*
X129914133Y-98245400D01*
X129947466Y-98178733D01*
X129980800Y-98145400D01*
X130047466Y-98112066D01*
X130214133Y-98112066D01*
X130280800Y-98145400D01*
X130314133Y-98178733D01*
X130347466Y-98245400D01*
X130347466Y-98445400D01*
X130314133Y-98512066D01*
X130280800Y-98545400D01*
D14*
X114346190Y-101293333D02*
X114108095Y-101460000D01*
X114346190Y-101579047D02*
X113846190Y-101579047D01*
X113846190Y-101388571D01*
X113870000Y-101340952D01*
X113893809Y-101317142D01*
X113941428Y-101293333D01*
X114012857Y-101293333D01*
X114060476Y-101317142D01*
X114084285Y-101340952D01*
X114108095Y-101388571D01*
X114108095Y-101579047D01*
X114346190Y-100817142D02*
X114346190Y-101102857D01*
X114346190Y-100960000D02*
X113846190Y-100960000D01*
X113917619Y-101007619D01*
X113965238Y-101055238D01*
X113989047Y-101102857D01*
X116316666Y-91776190D02*
X116150000Y-91538095D01*
X116030952Y-91776190D02*
X116030952Y-91276190D01*
X116221428Y-91276190D01*
X116269047Y-91300000D01*
X116292857Y-91323809D01*
X116316666Y-91371428D01*
X116316666Y-91442857D01*
X116292857Y-91490476D01*
X116269047Y-91514285D01*
X116221428Y-91538095D01*
X116030952Y-91538095D01*
X116769047Y-91276190D02*
X116530952Y-91276190D01*
X116507142Y-91514285D01*
X116530952Y-91490476D01*
X116578571Y-91466666D01*
X116697619Y-91466666D01*
X116745238Y-91490476D01*
X116769047Y-91514285D01*
X116792857Y-91561904D01*
X116792857Y-91680952D01*
X116769047Y-91728571D01*
X116745238Y-91752380D01*
X116697619Y-91776190D01*
X116578571Y-91776190D01*
X116530952Y-91752380D01*
X116507142Y-91728571D01*
D13*
X126138095Y-92442380D02*
X126138095Y-93251904D01*
X126185714Y-93347142D01*
X126233333Y-93394761D01*
X126328571Y-93442380D01*
X126519047Y-93442380D01*
X126614285Y-93394761D01*
X126661904Y-93347142D01*
X126709523Y-93251904D01*
X126709523Y-92442380D01*
X127090476Y-92442380D02*
X127709523Y-92442380D01*
X127376190Y-92823333D01*
X127519047Y-92823333D01*
X127614285Y-92870952D01*
X127661904Y-92918571D01*
X127709523Y-93013809D01*
X127709523Y-93251904D01*
X127661904Y-93347142D01*
X127614285Y-93394761D01*
X127519047Y-93442380D01*
X127233333Y-93442380D01*
X127138095Y-93394761D01*
X127090476Y-93347142D01*
D15*
X132776666Y-87386666D02*
X132776666Y-87953333D01*
X132810000Y-88020000D01*
X132843333Y-88053333D01*
X132910000Y-88086666D01*
X133043333Y-88086666D01*
X133110000Y-88053333D01*
X133143333Y-88020000D01*
X133176666Y-87953333D01*
X133176666Y-87386666D01*
X133876666Y-88086666D02*
X133476666Y-88086666D01*
X133676666Y-88086666D02*
X133676666Y-87386666D01*
X133610000Y-87486666D01*
X133543333Y-87553333D01*
X133476666Y-87586666D01*
D13*
X132186190Y-97396190D02*
X132662380Y-97396190D01*
X131662380Y-97729523D02*
X132186190Y-97396190D01*
X131662380Y-97062857D01*
X132662380Y-96205714D02*
X132662380Y-96777142D01*
X132662380Y-96491428D02*
X131662380Y-96491428D01*
X131805238Y-96586666D01*
X131900476Y-96681904D01*
X131948095Y-96777142D01*
X109612380Y-95023333D02*
X110326666Y-95023333D01*
X110469523Y-95070952D01*
X110564761Y-95166190D01*
X110612380Y-95309047D01*
X110612380Y-95404285D01*
X110612380Y-94023333D02*
X110612380Y-94594761D01*
X110612380Y-94309047D02*
X109612380Y-94309047D01*
X109755238Y-94404285D01*
X109850476Y-94499523D01*
X109898095Y-94594761D01*
D14*
X124152380Y-83693809D02*
X124104761Y-83670000D01*
X124057142Y-83622380D01*
X123985714Y-83550952D01*
X123938095Y-83527142D01*
X123890476Y-83527142D01*
X123914285Y-83646190D02*
X123866666Y-83622380D01*
X123819047Y-83574761D01*
X123795238Y-83479523D01*
X123795238Y-83312857D01*
X123819047Y-83217619D01*
X123866666Y-83170000D01*
X123914285Y-83146190D01*
X124009523Y-83146190D01*
X124057142Y-83170000D01*
X124104761Y-83217619D01*
X124128571Y-83312857D01*
X124128571Y-83479523D01*
X124104761Y-83574761D01*
X124057142Y-83622380D01*
X124009523Y-83646190D01*
X123914285Y-83646190D01*
X124414285Y-83360476D02*
X124366666Y-83336666D01*
X124342857Y-83312857D01*
X124319047Y-83265238D01*
X124319047Y-83241428D01*
X124342857Y-83193809D01*
X124366666Y-83170000D01*
X124414285Y-83146190D01*
X124509523Y-83146190D01*
X124557142Y-83170000D01*
X124580952Y-83193809D01*
X124604761Y-83241428D01*
X124604761Y-83265238D01*
X124580952Y-83312857D01*
X124557142Y-83336666D01*
X124509523Y-83360476D01*
X124414285Y-83360476D01*
X124366666Y-83384285D01*
X124342857Y-83408095D01*
X124319047Y-83455714D01*
X124319047Y-83550952D01*
X124342857Y-83598571D01*
X124366666Y-83622380D01*
X124414285Y-83646190D01*
X124509523Y-83646190D01*
X124557142Y-83622380D01*
X124580952Y-83598571D01*
X124604761Y-83550952D01*
X124604761Y-83455714D01*
X124580952Y-83408095D01*
X124557142Y-83384285D01*
X124509523Y-83360476D01*
X126452380Y-103913809D02*
X126404761Y-103890000D01*
X126357142Y-103842380D01*
X126285714Y-103770952D01*
X126238095Y-103747142D01*
X126190476Y-103747142D01*
X126214285Y-103866190D02*
X126166666Y-103842380D01*
X126119047Y-103794761D01*
X126095238Y-103699523D01*
X126095238Y-103532857D01*
X126119047Y-103437619D01*
X126166666Y-103390000D01*
X126214285Y-103366190D01*
X126309523Y-103366190D01*
X126357142Y-103390000D01*
X126404761Y-103437619D01*
X126428571Y-103532857D01*
X126428571Y-103699523D01*
X126404761Y-103794761D01*
X126357142Y-103842380D01*
X126309523Y-103866190D01*
X126214285Y-103866190D01*
X126880952Y-103366190D02*
X126642857Y-103366190D01*
X126619047Y-103604285D01*
X126642857Y-103580476D01*
X126690476Y-103556666D01*
X126809523Y-103556666D01*
X126857142Y-103580476D01*
X126880952Y-103604285D01*
X126904761Y-103651904D01*
X126904761Y-103770952D01*
X126880952Y-103818571D01*
X126857142Y-103842380D01*
X126809523Y-103866190D01*
X126690476Y-103866190D01*
X126642857Y-103842380D01*
X126619047Y-103818571D01*
X123942380Y-85783809D02*
X123894761Y-85760000D01*
X123847142Y-85712380D01*
X123775714Y-85640952D01*
X123728095Y-85617142D01*
X123680476Y-85617142D01*
X123704285Y-85736190D02*
X123656666Y-85712380D01*
X123609047Y-85664761D01*
X123585238Y-85569523D01*
X123585238Y-85402857D01*
X123609047Y-85307619D01*
X123656666Y-85260000D01*
X123704285Y-85236190D01*
X123799523Y-85236190D01*
X123847142Y-85260000D01*
X123894761Y-85307619D01*
X123918571Y-85402857D01*
X123918571Y-85569523D01*
X123894761Y-85664761D01*
X123847142Y-85712380D01*
X123799523Y-85736190D01*
X123704285Y-85736190D01*
X124109047Y-85283809D02*
X124132857Y-85260000D01*
X124180476Y-85236190D01*
X124299523Y-85236190D01*
X124347142Y-85260000D01*
X124370952Y-85283809D01*
X124394761Y-85331428D01*
X124394761Y-85379047D01*
X124370952Y-85450476D01*
X124085238Y-85736190D01*
X124394761Y-85736190D01*
X118022380Y-85683809D02*
X117974761Y-85660000D01*
X117927142Y-85612380D01*
X117855714Y-85540952D01*
X117808095Y-85517142D01*
X117760476Y-85517142D01*
X117784285Y-85636190D02*
X117736666Y-85612380D01*
X117689047Y-85564761D01*
X117665238Y-85469523D01*
X117665238Y-85302857D01*
X117689047Y-85207619D01*
X117736666Y-85160000D01*
X117784285Y-85136190D01*
X117879523Y-85136190D01*
X117927142Y-85160000D01*
X117974761Y-85207619D01*
X117998571Y-85302857D01*
X117998571Y-85469523D01*
X117974761Y-85564761D01*
X117927142Y-85612380D01*
X117879523Y-85636190D01*
X117784285Y-85636190D01*
X118474761Y-85636190D02*
X118189047Y-85636190D01*
X118331904Y-85636190D02*
X118331904Y-85136190D01*
X118284285Y-85207619D01*
X118236666Y-85255238D01*
X118189047Y-85279047D01*
X129618571Y-86516190D02*
X129451904Y-86278095D01*
X129332857Y-86516190D02*
X129332857Y-86016190D01*
X129523333Y-86016190D01*
X129570952Y-86040000D01*
X129594761Y-86063809D01*
X129618571Y-86111428D01*
X129618571Y-86182857D01*
X129594761Y-86230476D01*
X129570952Y-86254285D01*
X129523333Y-86278095D01*
X129332857Y-86278095D01*
X129809047Y-86063809D02*
X129832857Y-86040000D01*
X129880476Y-86016190D01*
X129999523Y-86016190D01*
X130047142Y-86040000D01*
X130070952Y-86063809D01*
X130094761Y-86111428D01*
X130094761Y-86159047D01*
X130070952Y-86230476D01*
X129785238Y-86516190D01*
X130094761Y-86516190D01*
X130261428Y-86016190D02*
X130594761Y-86016190D01*
X130380476Y-86516190D01*
X129618571Y-88916190D02*
X129451904Y-88678095D01*
X129332857Y-88916190D02*
X129332857Y-88416190D01*
X129523333Y-88416190D01*
X129570952Y-88440000D01*
X129594761Y-88463809D01*
X129618571Y-88511428D01*
X129618571Y-88582857D01*
X129594761Y-88630476D01*
X129570952Y-88654285D01*
X129523333Y-88678095D01*
X129332857Y-88678095D01*
X129809047Y-88463809D02*
X129832857Y-88440000D01*
X129880476Y-88416190D01*
X129999523Y-88416190D01*
X130047142Y-88440000D01*
X130070952Y-88463809D01*
X130094761Y-88511428D01*
X130094761Y-88559047D01*
X130070952Y-88630476D01*
X129785238Y-88916190D01*
X130094761Y-88916190D01*
X130523333Y-88416190D02*
X130428095Y-88416190D01*
X130380476Y-88440000D01*
X130356666Y-88463809D01*
X130309047Y-88535238D01*
X130285238Y-88630476D01*
X130285238Y-88820952D01*
X130309047Y-88868571D01*
X130332857Y-88892380D01*
X130380476Y-88916190D01*
X130475714Y-88916190D01*
X130523333Y-88892380D01*
X130547142Y-88868571D01*
X130570952Y-88820952D01*
X130570952Y-88701904D01*
X130547142Y-88654285D01*
X130523333Y-88630476D01*
X130475714Y-88606666D01*
X130380476Y-88606666D01*
X130332857Y-88630476D01*
X130309047Y-88654285D01*
X130285238Y-88701904D01*
X131488571Y-101366190D02*
X131321904Y-101128095D01*
X131202857Y-101366190D02*
X131202857Y-100866190D01*
X131393333Y-100866190D01*
X131440952Y-100890000D01*
X131464761Y-100913809D01*
X131488571Y-100961428D01*
X131488571Y-101032857D01*
X131464761Y-101080476D01*
X131440952Y-101104285D01*
X131393333Y-101128095D01*
X131202857Y-101128095D01*
X131679047Y-100913809D02*
X131702857Y-100890000D01*
X131750476Y-100866190D01*
X131869523Y-100866190D01*
X131917142Y-100890000D01*
X131940952Y-100913809D01*
X131964761Y-100961428D01*
X131964761Y-101009047D01*
X131940952Y-101080476D01*
X131655238Y-101366190D01*
X131964761Y-101366190D01*
X132417142Y-100866190D02*
X132179047Y-100866190D01*
X132155238Y-101104285D01*
X132179047Y-101080476D01*
X132226666Y-101056666D01*
X132345714Y-101056666D01*
X132393333Y-101080476D01*
X132417142Y-101104285D01*
X132440952Y-101151904D01*
X132440952Y-101270952D01*
X132417142Y-101318571D01*
X132393333Y-101342380D01*
X132345714Y-101366190D01*
X132226666Y-101366190D01*
X132179047Y-101342380D01*
X132155238Y-101318571D01*
X126048571Y-84106190D02*
X125881904Y-83868095D01*
X125762857Y-84106190D02*
X125762857Y-83606190D01*
X125953333Y-83606190D01*
X126000952Y-83630000D01*
X126024761Y-83653809D01*
X126048571Y-83701428D01*
X126048571Y-83772857D01*
X126024761Y-83820476D01*
X126000952Y-83844285D01*
X125953333Y-83868095D01*
X125762857Y-83868095D01*
X126239047Y-83653809D02*
X126262857Y-83630000D01*
X126310476Y-83606190D01*
X126429523Y-83606190D01*
X126477142Y-83630000D01*
X126500952Y-83653809D01*
X126524761Y-83701428D01*
X126524761Y-83749047D01*
X126500952Y-83820476D01*
X126215238Y-84106190D01*
X126524761Y-84106190D01*
X126953333Y-83772857D02*
X126953333Y-84106190D01*
X126834285Y-83582380D02*
X126715238Y-83939523D01*
X127024761Y-83939523D01*
X120488571Y-83246190D02*
X120321904Y-83008095D01*
X120202857Y-83246190D02*
X120202857Y-82746190D01*
X120393333Y-82746190D01*
X120440952Y-82770000D01*
X120464761Y-82793809D01*
X120488571Y-82841428D01*
X120488571Y-82912857D01*
X120464761Y-82960476D01*
X120440952Y-82984285D01*
X120393333Y-83008095D01*
X120202857Y-83008095D01*
X120679047Y-82793809D02*
X120702857Y-82770000D01*
X120750476Y-82746190D01*
X120869523Y-82746190D01*
X120917142Y-82770000D01*
X120940952Y-82793809D01*
X120964761Y-82841428D01*
X120964761Y-82889047D01*
X120940952Y-82960476D01*
X120655238Y-83246190D01*
X120964761Y-83246190D01*
X121131428Y-82746190D02*
X121440952Y-82746190D01*
X121274285Y-82936666D01*
X121345714Y-82936666D01*
X121393333Y-82960476D01*
X121417142Y-82984285D01*
X121440952Y-83031904D01*
X121440952Y-83150952D01*
X121417142Y-83198571D01*
X121393333Y-83222380D01*
X121345714Y-83246190D01*
X121202857Y-83246190D01*
X121155238Y-83222380D01*
X121131428Y-83198571D01*
X121738571Y-104396190D02*
X121571904Y-104158095D01*
X121452857Y-104396190D02*
X121452857Y-103896190D01*
X121643333Y-103896190D01*
X121690952Y-103920000D01*
X121714761Y-103943809D01*
X121738571Y-103991428D01*
X121738571Y-104062857D01*
X121714761Y-104110476D01*
X121690952Y-104134285D01*
X121643333Y-104158095D01*
X121452857Y-104158095D01*
X121929047Y-103943809D02*
X121952857Y-103920000D01*
X122000476Y-103896190D01*
X122119523Y-103896190D01*
X122167142Y-103920000D01*
X122190952Y-103943809D01*
X122214761Y-103991428D01*
X122214761Y-104039047D01*
X122190952Y-104110476D01*
X121905238Y-104396190D01*
X122214761Y-104396190D01*
X122405238Y-103943809D02*
X122429047Y-103920000D01*
X122476666Y-103896190D01*
X122595714Y-103896190D01*
X122643333Y-103920000D01*
X122667142Y-103943809D01*
X122690952Y-103991428D01*
X122690952Y-104039047D01*
X122667142Y-104110476D01*
X122381428Y-104396190D01*
X122690952Y-104396190D01*
X124848571Y-97956190D02*
X124681904Y-97718095D01*
X124562857Y-97956190D02*
X124562857Y-97456190D01*
X124753333Y-97456190D01*
X124800952Y-97480000D01*
X124824761Y-97503809D01*
X124848571Y-97551428D01*
X124848571Y-97622857D01*
X124824761Y-97670476D01*
X124800952Y-97694285D01*
X124753333Y-97718095D01*
X124562857Y-97718095D01*
X125039047Y-97503809D02*
X125062857Y-97480000D01*
X125110476Y-97456190D01*
X125229523Y-97456190D01*
X125277142Y-97480000D01*
X125300952Y-97503809D01*
X125324761Y-97551428D01*
X125324761Y-97599047D01*
X125300952Y-97670476D01*
X125015238Y-97956190D01*
X125324761Y-97956190D01*
X125800952Y-97956190D02*
X125515238Y-97956190D01*
X125658095Y-97956190D02*
X125658095Y-97456190D01*
X125610476Y-97527619D01*
X125562857Y-97575238D01*
X125515238Y-97599047D01*
X121698571Y-98526190D02*
X121531904Y-98288095D01*
X121412857Y-98526190D02*
X121412857Y-98026190D01*
X121603333Y-98026190D01*
X121650952Y-98050000D01*
X121674761Y-98073809D01*
X121698571Y-98121428D01*
X121698571Y-98192857D01*
X121674761Y-98240476D01*
X121650952Y-98264285D01*
X121603333Y-98288095D01*
X121412857Y-98288095D01*
X121889047Y-98073809D02*
X121912857Y-98050000D01*
X121960476Y-98026190D01*
X122079523Y-98026190D01*
X122127142Y-98050000D01*
X122150952Y-98073809D01*
X122174761Y-98121428D01*
X122174761Y-98169047D01*
X122150952Y-98240476D01*
X121865238Y-98526190D01*
X122174761Y-98526190D01*
X122484285Y-98026190D02*
X122531904Y-98026190D01*
X122579523Y-98050000D01*
X122603333Y-98073809D01*
X122627142Y-98121428D01*
X122650952Y-98216666D01*
X122650952Y-98335714D01*
X122627142Y-98430952D01*
X122603333Y-98478571D01*
X122579523Y-98502380D01*
X122531904Y-98526190D01*
X122484285Y-98526190D01*
X122436666Y-98502380D01*
X122412857Y-98478571D01*
X122389047Y-98430952D01*
X122365238Y-98335714D01*
X122365238Y-98216666D01*
X122389047Y-98121428D01*
X122412857Y-98073809D01*
X122436666Y-98050000D01*
X122484285Y-98026190D01*
X122006190Y-101671428D02*
X121768095Y-101838095D01*
X122006190Y-101957142D02*
X121506190Y-101957142D01*
X121506190Y-101766666D01*
X121530000Y-101719047D01*
X121553809Y-101695238D01*
X121601428Y-101671428D01*
X121672857Y-101671428D01*
X121720476Y-101695238D01*
X121744285Y-101719047D01*
X121768095Y-101766666D01*
X121768095Y-101957142D01*
X122006190Y-101195238D02*
X122006190Y-101480952D01*
X122006190Y-101338095D02*
X121506190Y-101338095D01*
X121577619Y-101385714D01*
X121625238Y-101433333D01*
X121649047Y-101480952D01*
X122006190Y-100957142D02*
X122006190Y-100861904D01*
X121982380Y-100814285D01*
X121958571Y-100790476D01*
X121887142Y-100742857D01*
X121791904Y-100719047D01*
X121601428Y-100719047D01*
X121553809Y-100742857D01*
X121530000Y-100766666D01*
X121506190Y-100814285D01*
X121506190Y-100909523D01*
X121530000Y-100957142D01*
X121553809Y-100980952D01*
X121601428Y-101004761D01*
X121720476Y-101004761D01*
X121768095Y-100980952D01*
X121791904Y-100957142D01*
X121815714Y-100909523D01*
X121815714Y-100814285D01*
X121791904Y-100766666D01*
X121768095Y-100742857D01*
X121720476Y-100719047D01*
X122928571Y-99646190D02*
X122761904Y-99408095D01*
X122642857Y-99646190D02*
X122642857Y-99146190D01*
X122833333Y-99146190D01*
X122880952Y-99170000D01*
X122904761Y-99193809D01*
X122928571Y-99241428D01*
X122928571Y-99312857D01*
X122904761Y-99360476D01*
X122880952Y-99384285D01*
X122833333Y-99408095D01*
X122642857Y-99408095D01*
X123404761Y-99646190D02*
X123119047Y-99646190D01*
X123261904Y-99646190D02*
X123261904Y-99146190D01*
X123214285Y-99217619D01*
X123166666Y-99265238D01*
X123119047Y-99289047D01*
X123690476Y-99360476D02*
X123642857Y-99336666D01*
X123619047Y-99312857D01*
X123595238Y-99265238D01*
X123595238Y-99241428D01*
X123619047Y-99193809D01*
X123642857Y-99170000D01*
X123690476Y-99146190D01*
X123785714Y-99146190D01*
X123833333Y-99170000D01*
X123857142Y-99193809D01*
X123880952Y-99241428D01*
X123880952Y-99265238D01*
X123857142Y-99312857D01*
X123833333Y-99336666D01*
X123785714Y-99360476D01*
X123690476Y-99360476D01*
X123642857Y-99384285D01*
X123619047Y-99408095D01*
X123595238Y-99455714D01*
X123595238Y-99550952D01*
X123619047Y-99598571D01*
X123642857Y-99622380D01*
X123690476Y-99646190D01*
X123785714Y-99646190D01*
X123833333Y-99622380D01*
X123857142Y-99598571D01*
X123880952Y-99550952D01*
X123880952Y-99455714D01*
X123857142Y-99408095D01*
X123833333Y-99384285D01*
X123785714Y-99360476D01*
X125936190Y-99461428D02*
X125698095Y-99628095D01*
X125936190Y-99747142D02*
X125436190Y-99747142D01*
X125436190Y-99556666D01*
X125460000Y-99509047D01*
X125483809Y-99485238D01*
X125531428Y-99461428D01*
X125602857Y-99461428D01*
X125650476Y-99485238D01*
X125674285Y-99509047D01*
X125698095Y-99556666D01*
X125698095Y-99747142D01*
X125936190Y-98985238D02*
X125936190Y-99270952D01*
X125936190Y-99128095D02*
X125436190Y-99128095D01*
X125507619Y-99175714D01*
X125555238Y-99223333D01*
X125579047Y-99270952D01*
X125436190Y-98818571D02*
X125436190Y-98485238D01*
X125936190Y-98699523D01*
X128596190Y-102801428D02*
X128358095Y-102968095D01*
X128596190Y-103087142D02*
X128096190Y-103087142D01*
X128096190Y-102896666D01*
X128120000Y-102849047D01*
X128143809Y-102825238D01*
X128191428Y-102801428D01*
X128262857Y-102801428D01*
X128310476Y-102825238D01*
X128334285Y-102849047D01*
X128358095Y-102896666D01*
X128358095Y-103087142D01*
X128596190Y-102325238D02*
X128596190Y-102610952D01*
X128596190Y-102468095D02*
X128096190Y-102468095D01*
X128167619Y-102515714D01*
X128215238Y-102563333D01*
X128239047Y-102610952D01*
X128096190Y-101896666D02*
X128096190Y-101991904D01*
X128120000Y-102039523D01*
X128143809Y-102063333D01*
X128215238Y-102110952D01*
X128310476Y-102134761D01*
X128500952Y-102134761D01*
X128548571Y-102110952D01*
X128572380Y-102087142D01*
X128596190Y-102039523D01*
X128596190Y-101944285D01*
X128572380Y-101896666D01*
X128548571Y-101872857D01*
X128500952Y-101849047D01*
X128381904Y-101849047D01*
X128334285Y-101872857D01*
X128310476Y-101896666D01*
X128286666Y-101944285D01*
X128286666Y-102039523D01*
X128310476Y-102087142D01*
X128334285Y-102110952D01*
X128381904Y-102134761D01*
X127598571Y-105516190D02*
X127431904Y-105278095D01*
X127312857Y-105516190D02*
X127312857Y-105016190D01*
X127503333Y-105016190D01*
X127550952Y-105040000D01*
X127574761Y-105063809D01*
X127598571Y-105111428D01*
X127598571Y-105182857D01*
X127574761Y-105230476D01*
X127550952Y-105254285D01*
X127503333Y-105278095D01*
X127312857Y-105278095D01*
X128074761Y-105516190D02*
X127789047Y-105516190D01*
X127931904Y-105516190D02*
X127931904Y-105016190D01*
X127884285Y-105087619D01*
X127836666Y-105135238D01*
X127789047Y-105159047D01*
X128527142Y-105016190D02*
X128289047Y-105016190D01*
X128265238Y-105254285D01*
X128289047Y-105230476D01*
X128336666Y-105206666D01*
X128455714Y-105206666D01*
X128503333Y-105230476D01*
X128527142Y-105254285D01*
X128550952Y-105301904D01*
X128550952Y-105420952D01*
X128527142Y-105468571D01*
X128503333Y-105492380D01*
X128455714Y-105516190D01*
X128336666Y-105516190D01*
X128289047Y-105492380D01*
X128265238Y-105468571D01*
X114058571Y-87476190D02*
X113891904Y-87238095D01*
X113772857Y-87476190D02*
X113772857Y-86976190D01*
X113963333Y-86976190D01*
X114010952Y-87000000D01*
X114034761Y-87023809D01*
X114058571Y-87071428D01*
X114058571Y-87142857D01*
X114034761Y-87190476D01*
X114010952Y-87214285D01*
X113963333Y-87238095D01*
X113772857Y-87238095D01*
X114534761Y-87476190D02*
X114249047Y-87476190D01*
X114391904Y-87476190D02*
X114391904Y-86976190D01*
X114344285Y-87047619D01*
X114296666Y-87095238D01*
X114249047Y-87119047D01*
X114963333Y-87142857D02*
X114963333Y-87476190D01*
X114844285Y-86952380D02*
X114725238Y-87309523D01*
X115034761Y-87309523D01*
X118626190Y-89461428D02*
X118388095Y-89628095D01*
X118626190Y-89747142D02*
X118126190Y-89747142D01*
X118126190Y-89556666D01*
X118150000Y-89509047D01*
X118173809Y-89485238D01*
X118221428Y-89461428D01*
X118292857Y-89461428D01*
X118340476Y-89485238D01*
X118364285Y-89509047D01*
X118388095Y-89556666D01*
X118388095Y-89747142D01*
X118626190Y-88985238D02*
X118626190Y-89270952D01*
X118626190Y-89128095D02*
X118126190Y-89128095D01*
X118197619Y-89175714D01*
X118245238Y-89223333D01*
X118269047Y-89270952D01*
X118126190Y-88818571D02*
X118126190Y-88509047D01*
X118316666Y-88675714D01*
X118316666Y-88604285D01*
X118340476Y-88556666D01*
X118364285Y-88532857D01*
X118411904Y-88509047D01*
X118530952Y-88509047D01*
X118578571Y-88532857D01*
X118602380Y-88556666D01*
X118626190Y-88604285D01*
X118626190Y-88747142D01*
X118602380Y-88794761D01*
X118578571Y-88818571D01*
X113308571Y-86286190D02*
X113141904Y-86048095D01*
X113022857Y-86286190D02*
X113022857Y-85786190D01*
X113213333Y-85786190D01*
X113260952Y-85810000D01*
X113284761Y-85833809D01*
X113308571Y-85881428D01*
X113308571Y-85952857D01*
X113284761Y-86000476D01*
X113260952Y-86024285D01*
X113213333Y-86048095D01*
X113022857Y-86048095D01*
X113784761Y-86286190D02*
X113499047Y-86286190D01*
X113641904Y-86286190D02*
X113641904Y-85786190D01*
X113594285Y-85857619D01*
X113546666Y-85905238D01*
X113499047Y-85929047D01*
X113975238Y-85833809D02*
X113999047Y-85810000D01*
X114046666Y-85786190D01*
X114165714Y-85786190D01*
X114213333Y-85810000D01*
X114237142Y-85833809D01*
X114260952Y-85881428D01*
X114260952Y-85929047D01*
X114237142Y-86000476D01*
X113951428Y-86286190D01*
X114260952Y-86286190D01*
X137086190Y-93021428D02*
X136848095Y-93188095D01*
X137086190Y-93307142D02*
X136586190Y-93307142D01*
X136586190Y-93116666D01*
X136610000Y-93069047D01*
X136633809Y-93045238D01*
X136681428Y-93021428D01*
X136752857Y-93021428D01*
X136800476Y-93045238D01*
X136824285Y-93069047D01*
X136848095Y-93116666D01*
X136848095Y-93307142D01*
X137086190Y-92545238D02*
X137086190Y-92830952D01*
X137086190Y-92688095D02*
X136586190Y-92688095D01*
X136657619Y-92735714D01*
X136705238Y-92783333D01*
X136729047Y-92830952D01*
X137086190Y-92069047D02*
X137086190Y-92354761D01*
X137086190Y-92211904D02*
X136586190Y-92211904D01*
X136657619Y-92259523D01*
X136705238Y-92307142D01*
X136729047Y-92354761D01*
X138106190Y-92991428D02*
X137868095Y-93158095D01*
X138106190Y-93277142D02*
X137606190Y-93277142D01*
X137606190Y-93086666D01*
X137630000Y-93039047D01*
X137653809Y-93015238D01*
X137701428Y-92991428D01*
X137772857Y-92991428D01*
X137820476Y-93015238D01*
X137844285Y-93039047D01*
X137868095Y-93086666D01*
X137868095Y-93277142D01*
X138106190Y-92515238D02*
X138106190Y-92800952D01*
X138106190Y-92658095D02*
X137606190Y-92658095D01*
X137677619Y-92705714D01*
X137725238Y-92753333D01*
X137749047Y-92800952D01*
X137606190Y-92205714D02*
X137606190Y-92158095D01*
X137630000Y-92110476D01*
X137653809Y-92086666D01*
X137701428Y-92062857D01*
X137796666Y-92039047D01*
X137915714Y-92039047D01*
X138010952Y-92062857D01*
X138058571Y-92086666D01*
X138082380Y-92110476D01*
X138106190Y-92158095D01*
X138106190Y-92205714D01*
X138082380Y-92253333D01*
X138058571Y-92277142D01*
X138010952Y-92300952D01*
X137915714Y-92324761D01*
X137796666Y-92324761D01*
X137701428Y-92300952D01*
X137653809Y-92277142D01*
X137630000Y-92253333D01*
X137606190Y-92205714D01*
X117736666Y-83316190D02*
X117570000Y-83078095D01*
X117450952Y-83316190D02*
X117450952Y-82816190D01*
X117641428Y-82816190D01*
X117689047Y-82840000D01*
X117712857Y-82863809D01*
X117736666Y-82911428D01*
X117736666Y-82982857D01*
X117712857Y-83030476D01*
X117689047Y-83054285D01*
X117641428Y-83078095D01*
X117450952Y-83078095D01*
X117974761Y-83316190D02*
X118070000Y-83316190D01*
X118117619Y-83292380D01*
X118141428Y-83268571D01*
X118189047Y-83197142D01*
X118212857Y-83101904D01*
X118212857Y-82911428D01*
X118189047Y-82863809D01*
X118165238Y-82840000D01*
X118117619Y-82816190D01*
X118022380Y-82816190D01*
X117974761Y-82840000D01*
X117950952Y-82863809D01*
X117927142Y-82911428D01*
X117927142Y-83030476D01*
X117950952Y-83078095D01*
X117974761Y-83101904D01*
X118022380Y-83125714D01*
X118117619Y-83125714D01*
X118165238Y-83101904D01*
X118189047Y-83078095D01*
X118212857Y-83030476D01*
X119016666Y-84286190D02*
X118850000Y-84048095D01*
X118730952Y-84286190D02*
X118730952Y-83786190D01*
X118921428Y-83786190D01*
X118969047Y-83810000D01*
X118992857Y-83833809D01*
X119016666Y-83881428D01*
X119016666Y-83952857D01*
X118992857Y-84000476D01*
X118969047Y-84024285D01*
X118921428Y-84048095D01*
X118730952Y-84048095D01*
X119302380Y-84000476D02*
X119254761Y-83976666D01*
X119230952Y-83952857D01*
X119207142Y-83905238D01*
X119207142Y-83881428D01*
X119230952Y-83833809D01*
X119254761Y-83810000D01*
X119302380Y-83786190D01*
X119397619Y-83786190D01*
X119445238Y-83810000D01*
X119469047Y-83833809D01*
X119492857Y-83881428D01*
X119492857Y-83905238D01*
X119469047Y-83952857D01*
X119445238Y-83976666D01*
X119397619Y-84000476D01*
X119302380Y-84000476D01*
X119254761Y-84024285D01*
X119230952Y-84048095D01*
X119207142Y-84095714D01*
X119207142Y-84190952D01*
X119230952Y-84238571D01*
X119254761Y-84262380D01*
X119302380Y-84286190D01*
X119397619Y-84286190D01*
X119445238Y-84262380D01*
X119469047Y-84238571D01*
X119492857Y-84190952D01*
X119492857Y-84095714D01*
X119469047Y-84048095D01*
X119445238Y-84024285D01*
X119397619Y-84000476D01*
X120906666Y-85386190D02*
X120740000Y-85148095D01*
X120620952Y-85386190D02*
X120620952Y-84886190D01*
X120811428Y-84886190D01*
X120859047Y-84910000D01*
X120882857Y-84933809D01*
X120906666Y-84981428D01*
X120906666Y-85052857D01*
X120882857Y-85100476D01*
X120859047Y-85124285D01*
X120811428Y-85148095D01*
X120620952Y-85148095D01*
X121073333Y-84886190D02*
X121406666Y-84886190D01*
X121192380Y-85386190D01*
X120896666Y-86336190D02*
X120730000Y-86098095D01*
X120610952Y-86336190D02*
X120610952Y-85836190D01*
X120801428Y-85836190D01*
X120849047Y-85860000D01*
X120872857Y-85883809D01*
X120896666Y-85931428D01*
X120896666Y-86002857D01*
X120872857Y-86050476D01*
X120849047Y-86074285D01*
X120801428Y-86098095D01*
X120610952Y-86098095D01*
X121325238Y-85836190D02*
X121230000Y-85836190D01*
X121182380Y-85860000D01*
X121158571Y-85883809D01*
X121110952Y-85955238D01*
X121087142Y-86050476D01*
X121087142Y-86240952D01*
X121110952Y-86288571D01*
X121134761Y-86312380D01*
X121182380Y-86336190D01*
X121277619Y-86336190D01*
X121325238Y-86312380D01*
X121349047Y-86288571D01*
X121372857Y-86240952D01*
X121372857Y-86121904D01*
X121349047Y-86074285D01*
X121325238Y-86050476D01*
X121277619Y-86026666D01*
X121182380Y-86026666D01*
X121134761Y-86050476D01*
X121110952Y-86074285D01*
X121087142Y-86121904D01*
X170956190Y-90563333D02*
X170718095Y-90730000D01*
X170956190Y-90849047D02*
X170456190Y-90849047D01*
X170456190Y-90658571D01*
X170480000Y-90610952D01*
X170503809Y-90587142D01*
X170551428Y-90563333D01*
X170622857Y-90563333D01*
X170670476Y-90587142D01*
X170694285Y-90610952D01*
X170718095Y-90658571D01*
X170718095Y-90849047D01*
X170622857Y-90134761D02*
X170956190Y-90134761D01*
X170432380Y-90253809D02*
X170789523Y-90372857D01*
X170789523Y-90063333D01*
X140786666Y-86946190D02*
X140620000Y-86708095D01*
X140500952Y-86946190D02*
X140500952Y-86446190D01*
X140691428Y-86446190D01*
X140739047Y-86470000D01*
X140762857Y-86493809D01*
X140786666Y-86541428D01*
X140786666Y-86612857D01*
X140762857Y-86660476D01*
X140739047Y-86684285D01*
X140691428Y-86708095D01*
X140500952Y-86708095D01*
X140953333Y-86446190D02*
X141262857Y-86446190D01*
X141096190Y-86636666D01*
X141167619Y-86636666D01*
X141215238Y-86660476D01*
X141239047Y-86684285D01*
X141262857Y-86731904D01*
X141262857Y-86850952D01*
X141239047Y-86898571D01*
X141215238Y-86922380D01*
X141167619Y-86946190D01*
X141024761Y-86946190D01*
X140977142Y-86922380D01*
X140953333Y-86898571D01*
X140776666Y-89186190D02*
X140610000Y-88948095D01*
X140490952Y-89186190D02*
X140490952Y-88686190D01*
X140681428Y-88686190D01*
X140729047Y-88710000D01*
X140752857Y-88733809D01*
X140776666Y-88781428D01*
X140776666Y-88852857D01*
X140752857Y-88900476D01*
X140729047Y-88924285D01*
X140681428Y-88948095D01*
X140490952Y-88948095D01*
X140967142Y-88733809D02*
X140990952Y-88710000D01*
X141038571Y-88686190D01*
X141157619Y-88686190D01*
X141205238Y-88710000D01*
X141229047Y-88733809D01*
X141252857Y-88781428D01*
X141252857Y-88829047D01*
X141229047Y-88900476D01*
X140943333Y-89186190D01*
X141252857Y-89186190D01*
X123148571Y-100468571D02*
X123124761Y-100492380D01*
X123053333Y-100516190D01*
X123005714Y-100516190D01*
X122934285Y-100492380D01*
X122886666Y-100444761D01*
X122862857Y-100397142D01*
X122839047Y-100301904D01*
X122839047Y-100230476D01*
X122862857Y-100135238D01*
X122886666Y-100087619D01*
X122934285Y-100040000D01*
X123005714Y-100016190D01*
X123053333Y-100016190D01*
X123124761Y-100040000D01*
X123148571Y-100063809D01*
X123339047Y-100063809D02*
X123362857Y-100040000D01*
X123410476Y-100016190D01*
X123529523Y-100016190D01*
X123577142Y-100040000D01*
X123600952Y-100063809D01*
X123624761Y-100111428D01*
X123624761Y-100159047D01*
X123600952Y-100230476D01*
X123315238Y-100516190D01*
X123624761Y-100516190D01*
X124100952Y-100516190D02*
X123815238Y-100516190D01*
X123958095Y-100516190D02*
X123958095Y-100016190D01*
X123910476Y-100087619D01*
X123862857Y-100135238D01*
X123815238Y-100159047D01*
X121378571Y-94948571D02*
X121354761Y-94972380D01*
X121283333Y-94996190D01*
X121235714Y-94996190D01*
X121164285Y-94972380D01*
X121116666Y-94924761D01*
X121092857Y-94877142D01*
X121069047Y-94781904D01*
X121069047Y-94710476D01*
X121092857Y-94615238D01*
X121116666Y-94567619D01*
X121164285Y-94520000D01*
X121235714Y-94496190D01*
X121283333Y-94496190D01*
X121354761Y-94520000D01*
X121378571Y-94543809D01*
X121569047Y-94543809D02*
X121592857Y-94520000D01*
X121640476Y-94496190D01*
X121759523Y-94496190D01*
X121807142Y-94520000D01*
X121830952Y-94543809D01*
X121854761Y-94591428D01*
X121854761Y-94639047D01*
X121830952Y-94710476D01*
X121545238Y-94996190D01*
X121854761Y-94996190D01*
X122164285Y-94496190D02*
X122211904Y-94496190D01*
X122259523Y-94520000D01*
X122283333Y-94543809D01*
X122307142Y-94591428D01*
X122330952Y-94686666D01*
X122330952Y-94805714D01*
X122307142Y-94900952D01*
X122283333Y-94948571D01*
X122259523Y-94972380D01*
X122211904Y-94996190D01*
X122164285Y-94996190D01*
X122116666Y-94972380D01*
X122092857Y-94948571D01*
X122069047Y-94900952D01*
X122045238Y-94805714D01*
X122045238Y-94686666D01*
X122069047Y-94591428D01*
X122092857Y-94543809D01*
X122116666Y-94520000D01*
X122164285Y-94496190D01*
X121168571Y-93428571D02*
X121144761Y-93452380D01*
X121073333Y-93476190D01*
X121025714Y-93476190D01*
X120954285Y-93452380D01*
X120906666Y-93404761D01*
X120882857Y-93357142D01*
X120859047Y-93261904D01*
X120859047Y-93190476D01*
X120882857Y-93095238D01*
X120906666Y-93047619D01*
X120954285Y-93000000D01*
X121025714Y-92976190D01*
X121073333Y-92976190D01*
X121144761Y-93000000D01*
X121168571Y-93023809D01*
X121644761Y-93476190D02*
X121359047Y-93476190D01*
X121501904Y-93476190D02*
X121501904Y-92976190D01*
X121454285Y-93047619D01*
X121406666Y-93095238D01*
X121359047Y-93119047D01*
X121930476Y-93190476D02*
X121882857Y-93166666D01*
X121859047Y-93142857D01*
X121835238Y-93095238D01*
X121835238Y-93071428D01*
X121859047Y-93023809D01*
X121882857Y-93000000D01*
X121930476Y-92976190D01*
X122025714Y-92976190D01*
X122073333Y-93000000D01*
X122097142Y-93023809D01*
X122120952Y-93071428D01*
X122120952Y-93095238D01*
X122097142Y-93142857D01*
X122073333Y-93166666D01*
X122025714Y-93190476D01*
X121930476Y-93190476D01*
X121882857Y-93214285D01*
X121859047Y-93238095D01*
X121835238Y-93285714D01*
X121835238Y-93380952D01*
X121859047Y-93428571D01*
X121882857Y-93452380D01*
X121930476Y-93476190D01*
X122025714Y-93476190D01*
X122073333Y-93452380D01*
X122097142Y-93428571D01*
X122120952Y-93380952D01*
X122120952Y-93285714D01*
X122097142Y-93238095D01*
X122073333Y-93214285D01*
X122025714Y-93190476D01*
X127588571Y-100121428D02*
X127612380Y-100145238D01*
X127636190Y-100216666D01*
X127636190Y-100264285D01*
X127612380Y-100335714D01*
X127564761Y-100383333D01*
X127517142Y-100407142D01*
X127421904Y-100430952D01*
X127350476Y-100430952D01*
X127255238Y-100407142D01*
X127207619Y-100383333D01*
X127160000Y-100335714D01*
X127136190Y-100264285D01*
X127136190Y-100216666D01*
X127160000Y-100145238D01*
X127183809Y-100121428D01*
X127636190Y-99645238D02*
X127636190Y-99930952D01*
X127636190Y-99788095D02*
X127136190Y-99788095D01*
X127207619Y-99835714D01*
X127255238Y-99883333D01*
X127279047Y-99930952D01*
X127136190Y-99478571D02*
X127136190Y-99145238D01*
X127636190Y-99359523D01*
X127818571Y-86631428D02*
X127842380Y-86655238D01*
X127866190Y-86726666D01*
X127866190Y-86774285D01*
X127842380Y-86845714D01*
X127794761Y-86893333D01*
X127747142Y-86917142D01*
X127651904Y-86940952D01*
X127580476Y-86940952D01*
X127485238Y-86917142D01*
X127437619Y-86893333D01*
X127390000Y-86845714D01*
X127366190Y-86774285D01*
X127366190Y-86726666D01*
X127390000Y-86655238D01*
X127413809Y-86631428D01*
X127866190Y-86155238D02*
X127866190Y-86440952D01*
X127866190Y-86298095D02*
X127366190Y-86298095D01*
X127437619Y-86345714D01*
X127485238Y-86393333D01*
X127509047Y-86440952D01*
X127366190Y-85726666D02*
X127366190Y-85821904D01*
X127390000Y-85869523D01*
X127413809Y-85893333D01*
X127485238Y-85940952D01*
X127580476Y-85964761D01*
X127770952Y-85964761D01*
X127818571Y-85940952D01*
X127842380Y-85917142D01*
X127866190Y-85869523D01*
X127866190Y-85774285D01*
X127842380Y-85726666D01*
X127818571Y-85702857D01*
X127770952Y-85679047D01*
X127651904Y-85679047D01*
X127604285Y-85702857D01*
X127580476Y-85726666D01*
X127556666Y-85774285D01*
X127556666Y-85869523D01*
X127580476Y-85917142D01*
X127604285Y-85940952D01*
X127651904Y-85964761D01*
X126748571Y-100161428D02*
X126772380Y-100185238D01*
X126796190Y-100256666D01*
X126796190Y-100304285D01*
X126772380Y-100375714D01*
X126724761Y-100423333D01*
X126677142Y-100447142D01*
X126581904Y-100470952D01*
X126510476Y-100470952D01*
X126415238Y-100447142D01*
X126367619Y-100423333D01*
X126320000Y-100375714D01*
X126296190Y-100304285D01*
X126296190Y-100256666D01*
X126320000Y-100185238D01*
X126343809Y-100161428D01*
X126796190Y-99685238D02*
X126796190Y-99970952D01*
X126796190Y-99828095D02*
X126296190Y-99828095D01*
X126367619Y-99875714D01*
X126415238Y-99923333D01*
X126439047Y-99970952D01*
X126462857Y-99256666D02*
X126796190Y-99256666D01*
X126272380Y-99375714D02*
X126629523Y-99494761D01*
X126629523Y-99185238D01*
X124098571Y-88251428D02*
X124122380Y-88275238D01*
X124146190Y-88346666D01*
X124146190Y-88394285D01*
X124122380Y-88465714D01*
X124074761Y-88513333D01*
X124027142Y-88537142D01*
X123931904Y-88560952D01*
X123860476Y-88560952D01*
X123765238Y-88537142D01*
X123717619Y-88513333D01*
X123670000Y-88465714D01*
X123646190Y-88394285D01*
X123646190Y-88346666D01*
X123670000Y-88275238D01*
X123693809Y-88251428D01*
X124146190Y-87775238D02*
X124146190Y-88060952D01*
X124146190Y-87918095D02*
X123646190Y-87918095D01*
X123717619Y-87965714D01*
X123765238Y-88013333D01*
X123789047Y-88060952D01*
X123646190Y-87608571D02*
X123646190Y-87299047D01*
X123836666Y-87465714D01*
X123836666Y-87394285D01*
X123860476Y-87346666D01*
X123884285Y-87322857D01*
X123931904Y-87299047D01*
X124050952Y-87299047D01*
X124098571Y-87322857D01*
X124122380Y-87346666D01*
X124146190Y-87394285D01*
X124146190Y-87537142D01*
X124122380Y-87584761D01*
X124098571Y-87608571D01*
X135468571Y-95868571D02*
X135444761Y-95892380D01*
X135373333Y-95916190D01*
X135325714Y-95916190D01*
X135254285Y-95892380D01*
X135206666Y-95844761D01*
X135182857Y-95797142D01*
X135159047Y-95701904D01*
X135159047Y-95630476D01*
X135182857Y-95535238D01*
X135206666Y-95487619D01*
X135254285Y-95440000D01*
X135325714Y-95416190D01*
X135373333Y-95416190D01*
X135444761Y-95440000D01*
X135468571Y-95463809D01*
X135944761Y-95916190D02*
X135659047Y-95916190D01*
X135801904Y-95916190D02*
X135801904Y-95416190D01*
X135754285Y-95487619D01*
X135706666Y-95535238D01*
X135659047Y-95559047D01*
X136135238Y-95463809D02*
X136159047Y-95440000D01*
X136206666Y-95416190D01*
X136325714Y-95416190D01*
X136373333Y-95440000D01*
X136397142Y-95463809D01*
X136420952Y-95511428D01*
X136420952Y-95559047D01*
X136397142Y-95630476D01*
X136111428Y-95916190D01*
X136420952Y-95916190D01*
X135448571Y-98558571D02*
X135424761Y-98582380D01*
X135353333Y-98606190D01*
X135305714Y-98606190D01*
X135234285Y-98582380D01*
X135186666Y-98534761D01*
X135162857Y-98487142D01*
X135139047Y-98391904D01*
X135139047Y-98320476D01*
X135162857Y-98225238D01*
X135186666Y-98177619D01*
X135234285Y-98130000D01*
X135305714Y-98106190D01*
X135353333Y-98106190D01*
X135424761Y-98130000D01*
X135448571Y-98153809D01*
X135924761Y-98606190D02*
X135639047Y-98606190D01*
X135781904Y-98606190D02*
X135781904Y-98106190D01*
X135734285Y-98177619D01*
X135686666Y-98225238D01*
X135639047Y-98249047D01*
X136400952Y-98606190D02*
X136115238Y-98606190D01*
X136258095Y-98606190D02*
X136258095Y-98106190D01*
X136210476Y-98177619D01*
X136162857Y-98225238D01*
X136115238Y-98249047D01*
X134988571Y-92778571D02*
X134964761Y-92802380D01*
X134893333Y-92826190D01*
X134845714Y-92826190D01*
X134774285Y-92802380D01*
X134726666Y-92754761D01*
X134702857Y-92707142D01*
X134679047Y-92611904D01*
X134679047Y-92540476D01*
X134702857Y-92445238D01*
X134726666Y-92397619D01*
X134774285Y-92350000D01*
X134845714Y-92326190D01*
X134893333Y-92326190D01*
X134964761Y-92350000D01*
X134988571Y-92373809D01*
X135464761Y-92826190D02*
X135179047Y-92826190D01*
X135321904Y-92826190D02*
X135321904Y-92326190D01*
X135274285Y-92397619D01*
X135226666Y-92445238D01*
X135179047Y-92469047D01*
X135774285Y-92326190D02*
X135821904Y-92326190D01*
X135869523Y-92350000D01*
X135893333Y-92373809D01*
X135917142Y-92421428D01*
X135940952Y-92516666D01*
X135940952Y-92635714D01*
X135917142Y-92730952D01*
X135893333Y-92778571D01*
X135869523Y-92802380D01*
X135821904Y-92826190D01*
X135774285Y-92826190D01*
X135726666Y-92802380D01*
X135702857Y-92778571D01*
X135679047Y-92730952D01*
X135655238Y-92635714D01*
X135655238Y-92516666D01*
X135679047Y-92421428D01*
X135702857Y-92373809D01*
X135726666Y-92350000D01*
X135774285Y-92326190D01*
X135046666Y-90888571D02*
X135022857Y-90912380D01*
X134951428Y-90936190D01*
X134903809Y-90936190D01*
X134832380Y-90912380D01*
X134784761Y-90864761D01*
X134760952Y-90817142D01*
X134737142Y-90721904D01*
X134737142Y-90650476D01*
X134760952Y-90555238D01*
X134784761Y-90507619D01*
X134832380Y-90460000D01*
X134903809Y-90436190D01*
X134951428Y-90436190D01*
X135022857Y-90460000D01*
X135046666Y-90483809D01*
X135284761Y-90936190D02*
X135380000Y-90936190D01*
X135427619Y-90912380D01*
X135451428Y-90888571D01*
X135499047Y-90817142D01*
X135522857Y-90721904D01*
X135522857Y-90531428D01*
X135499047Y-90483809D01*
X135475238Y-90460000D01*
X135427619Y-90436190D01*
X135332380Y-90436190D01*
X135284761Y-90460000D01*
X135260952Y-90483809D01*
X135237142Y-90531428D01*
X135237142Y-90650476D01*
X135260952Y-90698095D01*
X135284761Y-90721904D01*
X135332380Y-90745714D01*
X135427619Y-90745714D01*
X135475238Y-90721904D01*
X135499047Y-90698095D01*
X135522857Y-90650476D01*
X135026666Y-94418571D02*
X135002857Y-94442380D01*
X134931428Y-94466190D01*
X134883809Y-94466190D01*
X134812380Y-94442380D01*
X134764761Y-94394761D01*
X134740952Y-94347142D01*
X134717142Y-94251904D01*
X134717142Y-94180476D01*
X134740952Y-94085238D01*
X134764761Y-94037619D01*
X134812380Y-93990000D01*
X134883809Y-93966190D01*
X134931428Y-93966190D01*
X135002857Y-93990000D01*
X135026666Y-94013809D01*
X135312380Y-94180476D02*
X135264761Y-94156666D01*
X135240952Y-94132857D01*
X135217142Y-94085238D01*
X135217142Y-94061428D01*
X135240952Y-94013809D01*
X135264761Y-93990000D01*
X135312380Y-93966190D01*
X135407619Y-93966190D01*
X135455238Y-93990000D01*
X135479047Y-94013809D01*
X135502857Y-94061428D01*
X135502857Y-94085238D01*
X135479047Y-94132857D01*
X135455238Y-94156666D01*
X135407619Y-94180476D01*
X135312380Y-94180476D01*
X135264761Y-94204285D01*
X135240952Y-94228095D01*
X135217142Y-94275714D01*
X135217142Y-94370952D01*
X135240952Y-94418571D01*
X135264761Y-94442380D01*
X135312380Y-94466190D01*
X135407619Y-94466190D01*
X135455238Y-94442380D01*
X135479047Y-94418571D01*
X135502857Y-94370952D01*
X135502857Y-94275714D01*
X135479047Y-94228095D01*
X135455238Y-94204285D01*
X135407619Y-94180476D01*
X135026666Y-93628571D02*
X135002857Y-93652380D01*
X134931428Y-93676190D01*
X134883809Y-93676190D01*
X134812380Y-93652380D01*
X134764761Y-93604761D01*
X134740952Y-93557142D01*
X134717142Y-93461904D01*
X134717142Y-93390476D01*
X134740952Y-93295238D01*
X134764761Y-93247619D01*
X134812380Y-93200000D01*
X134883809Y-93176190D01*
X134931428Y-93176190D01*
X135002857Y-93200000D01*
X135026666Y-93223809D01*
X135455238Y-93176190D02*
X135360000Y-93176190D01*
X135312380Y-93200000D01*
X135288571Y-93223809D01*
X135240952Y-93295238D01*
X135217142Y-93390476D01*
X135217142Y-93580952D01*
X135240952Y-93628571D01*
X135264761Y-93652380D01*
X135312380Y-93676190D01*
X135407619Y-93676190D01*
X135455238Y-93652380D01*
X135479047Y-93628571D01*
X135502857Y-93580952D01*
X135502857Y-93461904D01*
X135479047Y-93414285D01*
X135455238Y-93390476D01*
X135407619Y-93366666D01*
X135312380Y-93366666D01*
X135264761Y-93390476D01*
X135240952Y-93414285D01*
X135217142Y-93461904D01*
X125678571Y-86573333D02*
X125702380Y-86597142D01*
X125726190Y-86668571D01*
X125726190Y-86716190D01*
X125702380Y-86787619D01*
X125654761Y-86835238D01*
X125607142Y-86859047D01*
X125511904Y-86882857D01*
X125440476Y-86882857D01*
X125345238Y-86859047D01*
X125297619Y-86835238D01*
X125250000Y-86787619D01*
X125226190Y-86716190D01*
X125226190Y-86668571D01*
X125250000Y-86597142D01*
X125273809Y-86573333D01*
X125226190Y-86120952D02*
X125226190Y-86359047D01*
X125464285Y-86382857D01*
X125440476Y-86359047D01*
X125416666Y-86311428D01*
X125416666Y-86192380D01*
X125440476Y-86144761D01*
X125464285Y-86120952D01*
X125511904Y-86097142D01*
X125630952Y-86097142D01*
X125678571Y-86120952D01*
X125702380Y-86144761D01*
X125726190Y-86192380D01*
X125726190Y-86311428D01*
X125702380Y-86359047D01*
X125678571Y-86382857D01*
X133506666Y-89798571D02*
X133482857Y-89822380D01*
X133411428Y-89846190D01*
X133363809Y-89846190D01*
X133292380Y-89822380D01*
X133244761Y-89774761D01*
X133220952Y-89727142D01*
X133197142Y-89631904D01*
X133197142Y-89560476D01*
X133220952Y-89465238D01*
X133244761Y-89417619D01*
X133292380Y-89370000D01*
X133363809Y-89346190D01*
X133411428Y-89346190D01*
X133482857Y-89370000D01*
X133506666Y-89393809D01*
X133935238Y-89512857D02*
X133935238Y-89846190D01*
X133816190Y-89322380D02*
X133697142Y-89679523D01*
X134006666Y-89679523D01*
X114296666Y-89258571D02*
X114272857Y-89282380D01*
X114201428Y-89306190D01*
X114153809Y-89306190D01*
X114082380Y-89282380D01*
X114034761Y-89234761D01*
X114010952Y-89187142D01*
X113987142Y-89091904D01*
X113987142Y-89020476D01*
X114010952Y-88925238D01*
X114034761Y-88877619D01*
X114082380Y-88830000D01*
X114153809Y-88806190D01*
X114201428Y-88806190D01*
X114272857Y-88830000D01*
X114296666Y-88853809D01*
X114463333Y-88806190D02*
X114772857Y-88806190D01*
X114606190Y-88996666D01*
X114677619Y-88996666D01*
X114725238Y-89020476D01*
X114749047Y-89044285D01*
X114772857Y-89091904D01*
X114772857Y-89210952D01*
X114749047Y-89258571D01*
X114725238Y-89282380D01*
X114677619Y-89306190D01*
X114534761Y-89306190D01*
X114487142Y-89282380D01*
X114463333Y-89258571D01*
X116938571Y-87893333D02*
X116962380Y-87917142D01*
X116986190Y-87988571D01*
X116986190Y-88036190D01*
X116962380Y-88107619D01*
X116914761Y-88155238D01*
X116867142Y-88179047D01*
X116771904Y-88202857D01*
X116700476Y-88202857D01*
X116605238Y-88179047D01*
X116557619Y-88155238D01*
X116510000Y-88107619D01*
X116486190Y-88036190D01*
X116486190Y-87988571D01*
X116510000Y-87917142D01*
X116533809Y-87893333D01*
X116533809Y-87702857D02*
X116510000Y-87679047D01*
X116486190Y-87631428D01*
X116486190Y-87512380D01*
X116510000Y-87464761D01*
X116533809Y-87440952D01*
X116581428Y-87417142D01*
X116629047Y-87417142D01*
X116700476Y-87440952D01*
X116986190Y-87726666D01*
X116986190Y-87417142D01*
X128336190Y-84219047D02*
X127836190Y-84219047D01*
X127836190Y-84100000D01*
X127860000Y-84028571D01*
X127907619Y-83980952D01*
X127955238Y-83957142D01*
X128050476Y-83933333D01*
X128121904Y-83933333D01*
X128217142Y-83957142D01*
X128264761Y-83980952D01*
X128312380Y-84028571D01*
X128336190Y-84100000D01*
X128336190Y-84219047D01*
X127836190Y-83766666D02*
X127836190Y-83433333D01*
X128336190Y-83647619D01*
X110210952Y-88756190D02*
X110210952Y-88256190D01*
X110330000Y-88256190D01*
X110401428Y-88280000D01*
X110449047Y-88327619D01*
X110472857Y-88375238D01*
X110496666Y-88470476D01*
X110496666Y-88541904D01*
X110472857Y-88637142D01*
X110449047Y-88684761D01*
X110401428Y-88732380D01*
X110330000Y-88756190D01*
X110210952Y-88756190D01*
X110949047Y-88256190D02*
X110710952Y-88256190D01*
X110687142Y-88494285D01*
X110710952Y-88470476D01*
X110758571Y-88446666D01*
X110877619Y-88446666D01*
X110925238Y-88470476D01*
X110949047Y-88494285D01*
X110972857Y-88541904D01*
X110972857Y-88660952D01*
X110949047Y-88708571D01*
X110925238Y-88732380D01*
X110877619Y-88756190D01*
X110758571Y-88756190D01*
X110710952Y-88732380D01*
X110687142Y-88708571D01*
X138380952Y-87476190D02*
X138380952Y-86976190D01*
X138500000Y-86976190D01*
X138571428Y-87000000D01*
X138619047Y-87047619D01*
X138642857Y-87095238D01*
X138666666Y-87190476D01*
X138666666Y-87261904D01*
X138642857Y-87357142D01*
X138619047Y-87404761D01*
X138571428Y-87452380D01*
X138500000Y-87476190D01*
X138380952Y-87476190D01*
X138857142Y-87023809D02*
X138880952Y-87000000D01*
X138928571Y-86976190D01*
X139047619Y-86976190D01*
X139095238Y-87000000D01*
X139119047Y-87023809D01*
X139142857Y-87071428D01*
X139142857Y-87119047D01*
X139119047Y-87190476D01*
X138833333Y-87476190D01*
X139142857Y-87476190D01*
X138440952Y-88786190D02*
X138440952Y-88286190D01*
X138560000Y-88286190D01*
X138631428Y-88310000D01*
X138679047Y-88357619D01*
X138702857Y-88405238D01*
X138726666Y-88500476D01*
X138726666Y-88571904D01*
X138702857Y-88667142D01*
X138679047Y-88714761D01*
X138631428Y-88762380D01*
X138560000Y-88786190D01*
X138440952Y-88786190D01*
X139202857Y-88786190D02*
X138917142Y-88786190D01*
X139060000Y-88786190D02*
X139060000Y-88286190D01*
X139012380Y-88357619D01*
X138964761Y-88405238D01*
X138917142Y-88429047D01*
X113906190Y-85199047D02*
X113406190Y-85199047D01*
X113406190Y-85080000D01*
X113430000Y-85008571D01*
X113477619Y-84960952D01*
X113525238Y-84937142D01*
X113620476Y-84913333D01*
X113691904Y-84913333D01*
X113787142Y-84937142D01*
X113834761Y-84960952D01*
X113882380Y-85008571D01*
X113906190Y-85080000D01*
X113906190Y-85199047D01*
X113572857Y-84484761D02*
X113906190Y-84484761D01*
X113382380Y-84603809D02*
X113739523Y-84722857D01*
X113739523Y-84413333D01*
X115026190Y-98909047D02*
X114526190Y-98909047D01*
X114526190Y-98790000D01*
X114550000Y-98718571D01*
X114597619Y-98670952D01*
X114645238Y-98647142D01*
X114740476Y-98623333D01*
X114811904Y-98623333D01*
X114907142Y-98647142D01*
X114954761Y-98670952D01*
X115002380Y-98718571D01*
X115026190Y-98790000D01*
X115026190Y-98909047D01*
X114526190Y-98194761D02*
X114526190Y-98290000D01*
X114550000Y-98337619D01*
X114573809Y-98361428D01*
X114645238Y-98409047D01*
X114740476Y-98432857D01*
X114930952Y-98432857D01*
X114978571Y-98409047D01*
X115002380Y-98385238D01*
X115026190Y-98337619D01*
X115026190Y-98242380D01*
X115002380Y-98194761D01*
X114978571Y-98170952D01*
X114930952Y-98147142D01*
X114811904Y-98147142D01*
X114764285Y-98170952D01*
X114740476Y-98194761D01*
X114716666Y-98242380D01*
X114716666Y-98337619D01*
X114740476Y-98385238D01*
X114764285Y-98409047D01*
X114811904Y-98432857D01*
X124032380Y-102263809D02*
X123984761Y-102240000D01*
X123937142Y-102192380D01*
X123865714Y-102120952D01*
X123818095Y-102097142D01*
X123770476Y-102097142D01*
X123794285Y-102216190D02*
X123746666Y-102192380D01*
X123699047Y-102144761D01*
X123675238Y-102049523D01*
X123675238Y-101882857D01*
X123699047Y-101787619D01*
X123746666Y-101740000D01*
X123794285Y-101716190D01*
X123889523Y-101716190D01*
X123937142Y-101740000D01*
X123984761Y-101787619D01*
X124008571Y-101882857D01*
X124008571Y-102049523D01*
X123984761Y-102144761D01*
X123937142Y-102192380D01*
X123889523Y-102216190D01*
X123794285Y-102216190D01*
X124175238Y-101716190D02*
X124508571Y-101716190D01*
X124294285Y-102216190D01*
X124062380Y-105853809D02*
X124014761Y-105830000D01*
X123967142Y-105782380D01*
X123895714Y-105710952D01*
X123848095Y-105687142D01*
X123800476Y-105687142D01*
X123824285Y-105806190D02*
X123776666Y-105782380D01*
X123729047Y-105734761D01*
X123705238Y-105639523D01*
X123705238Y-105472857D01*
X123729047Y-105377619D01*
X123776666Y-105330000D01*
X123824285Y-105306190D01*
X123919523Y-105306190D01*
X123967142Y-105330000D01*
X124014761Y-105377619D01*
X124038571Y-105472857D01*
X124038571Y-105639523D01*
X124014761Y-105734761D01*
X123967142Y-105782380D01*
X123919523Y-105806190D01*
X123824285Y-105806190D01*
X124467142Y-105306190D02*
X124371904Y-105306190D01*
X124324285Y-105330000D01*
X124300476Y-105353809D01*
X124252857Y-105425238D01*
X124229047Y-105520476D01*
X124229047Y-105710952D01*
X124252857Y-105758571D01*
X124276666Y-105782380D01*
X124324285Y-105806190D01*
X124419523Y-105806190D01*
X124467142Y-105782380D01*
X124490952Y-105758571D01*
X124514761Y-105710952D01*
X124514761Y-105591904D01*
X124490952Y-105544285D01*
X124467142Y-105520476D01*
X124419523Y-105496666D01*
X124324285Y-105496666D01*
X124276666Y-105520476D01*
X124252857Y-105544285D01*
X124229047Y-105591904D01*
X120372380Y-88043809D02*
X120324761Y-88020000D01*
X120277142Y-87972380D01*
X120205714Y-87900952D01*
X120158095Y-87877142D01*
X120110476Y-87877142D01*
X120134285Y-87996190D02*
X120086666Y-87972380D01*
X120039047Y-87924761D01*
X120015238Y-87829523D01*
X120015238Y-87662857D01*
X120039047Y-87567619D01*
X120086666Y-87520000D01*
X120134285Y-87496190D01*
X120229523Y-87496190D01*
X120277142Y-87520000D01*
X120324761Y-87567619D01*
X120348571Y-87662857D01*
X120348571Y-87829523D01*
X120324761Y-87924761D01*
X120277142Y-87972380D01*
X120229523Y-87996190D01*
X120134285Y-87996190D01*
X120777142Y-87662857D02*
X120777142Y-87996190D01*
X120658095Y-87472380D02*
X120539047Y-87829523D01*
X120848571Y-87829523D01*
X115322380Y-84593809D02*
X115274761Y-84570000D01*
X115227142Y-84522380D01*
X115155714Y-84450952D01*
X115108095Y-84427142D01*
X115060476Y-84427142D01*
X115084285Y-84546190D02*
X115036666Y-84522380D01*
X114989047Y-84474761D01*
X114965238Y-84379523D01*
X114965238Y-84212857D01*
X114989047Y-84117619D01*
X115036666Y-84070000D01*
X115084285Y-84046190D01*
X115179523Y-84046190D01*
X115227142Y-84070000D01*
X115274761Y-84117619D01*
X115298571Y-84212857D01*
X115298571Y-84379523D01*
X115274761Y-84474761D01*
X115227142Y-84522380D01*
X115179523Y-84546190D01*
X115084285Y-84546190D01*
X115465238Y-84046190D02*
X115774761Y-84046190D01*
X115608095Y-84236666D01*
X115679523Y-84236666D01*
X115727142Y-84260476D01*
X115750952Y-84284285D01*
X115774761Y-84331904D01*
X115774761Y-84450952D01*
X115750952Y-84498571D01*
X115727142Y-84522380D01*
X115679523Y-84546190D01*
X115536666Y-84546190D01*
X115489047Y-84522380D01*
X115465238Y-84498571D01*
X119909047Y-90746190D02*
X119909047Y-91150952D01*
X119932857Y-91198571D01*
X119956666Y-91222380D01*
X120004285Y-91246190D01*
X120099523Y-91246190D01*
X120147142Y-91222380D01*
X120170952Y-91198571D01*
X120194761Y-91150952D01*
X120194761Y-90746190D01*
X120647142Y-90912857D02*
X120647142Y-91246190D01*
X120528095Y-90722380D02*
X120409047Y-91079523D01*
X120718571Y-91079523D01*
X117543333Y-98692380D02*
X117614761Y-98716190D01*
X117733809Y-98716190D01*
X117781428Y-98692380D01*
X117805238Y-98668571D01*
X117829047Y-98620952D01*
X117829047Y-98573333D01*
X117805238Y-98525714D01*
X117781428Y-98501904D01*
X117733809Y-98478095D01*
X117638571Y-98454285D01*
X117590952Y-98430476D01*
X117567142Y-98406666D01*
X117543333Y-98359047D01*
X117543333Y-98311428D01*
X117567142Y-98263809D01*
X117590952Y-98240000D01*
X117638571Y-98216190D01*
X117757619Y-98216190D01*
X117829047Y-98240000D01*
X117995714Y-98216190D02*
X118114761Y-98716190D01*
X118210000Y-98359047D01*
X118305238Y-98716190D01*
X118424285Y-98216190D01*
X118876666Y-98716190D02*
X118590952Y-98716190D01*
X118733809Y-98716190D02*
X118733809Y-98216190D01*
X118686190Y-98287619D01*
X118638571Y-98335238D01*
X118590952Y-98359047D01*
X116020952Y-94306190D02*
X116020952Y-93806190D01*
X116140000Y-93806190D01*
X116211428Y-93830000D01*
X116259047Y-93877619D01*
X116282857Y-93925238D01*
X116306666Y-94020476D01*
X116306666Y-94091904D01*
X116282857Y-94187142D01*
X116259047Y-94234761D01*
X116211428Y-94282380D01*
X116140000Y-94306190D01*
X116020952Y-94306190D01*
X116473333Y-93806190D02*
X116782857Y-93806190D01*
X116616190Y-93996666D01*
X116687619Y-93996666D01*
X116735238Y-94020476D01*
X116759047Y-94044285D01*
X116782857Y-94091904D01*
X116782857Y-94210952D01*
X116759047Y-94258571D01*
X116735238Y-94282380D01*
X116687619Y-94306190D01*
X116544761Y-94306190D01*
X116497142Y-94282380D01*
X116473333Y-94258571D01*
X168948571Y-98191428D02*
X168972380Y-98215238D01*
X168996190Y-98286666D01*
X168996190Y-98334285D01*
X168972380Y-98405714D01*
X168924761Y-98453333D01*
X168877142Y-98477142D01*
X168781904Y-98500952D01*
X168710476Y-98500952D01*
X168615238Y-98477142D01*
X168567619Y-98453333D01*
X168520000Y-98405714D01*
X168496190Y-98334285D01*
X168496190Y-98286666D01*
X168520000Y-98215238D01*
X168543809Y-98191428D01*
X168543809Y-98000952D02*
X168520000Y-97977142D01*
X168496190Y-97929523D01*
X168496190Y-97810476D01*
X168520000Y-97762857D01*
X168543809Y-97739047D01*
X168591428Y-97715238D01*
X168639047Y-97715238D01*
X168710476Y-97739047D01*
X168996190Y-98024761D01*
X168996190Y-97715238D01*
X168662857Y-97286666D02*
X168996190Y-97286666D01*
X168472380Y-97405714D02*
X168829523Y-97524761D01*
X168829523Y-97215238D01*
X172608571Y-98211428D02*
X172632380Y-98235238D01*
X172656190Y-98306666D01*
X172656190Y-98354285D01*
X172632380Y-98425714D01*
X172584761Y-98473333D01*
X172537142Y-98497142D01*
X172441904Y-98520952D01*
X172370476Y-98520952D01*
X172275238Y-98497142D01*
X172227619Y-98473333D01*
X172180000Y-98425714D01*
X172156190Y-98354285D01*
X172156190Y-98306666D01*
X172180000Y-98235238D01*
X172203809Y-98211428D01*
X172203809Y-98020952D02*
X172180000Y-97997142D01*
X172156190Y-97949523D01*
X172156190Y-97830476D01*
X172180000Y-97782857D01*
X172203809Y-97759047D01*
X172251428Y-97735238D01*
X172299047Y-97735238D01*
X172370476Y-97759047D01*
X172656190Y-98044761D01*
X172656190Y-97735238D01*
X172156190Y-97282857D02*
X172156190Y-97520952D01*
X172394285Y-97544761D01*
X172370476Y-97520952D01*
X172346666Y-97473333D01*
X172346666Y-97354285D01*
X172370476Y-97306666D01*
X172394285Y-97282857D01*
X172441904Y-97259047D01*
X172560952Y-97259047D01*
X172608571Y-97282857D01*
X172632380Y-97306666D01*
X172656190Y-97354285D01*
X172656190Y-97473333D01*
X172632380Y-97520952D01*
X172608571Y-97544761D01*
X170366666Y-96876190D02*
X170128571Y-96876190D01*
X170128571Y-96376190D01*
X170747619Y-96542857D02*
X170747619Y-96876190D01*
X170628571Y-96352380D02*
X170509523Y-96709523D01*
X170819047Y-96709523D01*
M02*
