G04 #@! TF.GenerationSoftware,KiCad,Pcbnew,5.1.0-060a0da~80~ubuntu16.04.1*
G04 #@! TF.CreationDate,2019-04-04T13:00:51+02:00*
G04 #@! TF.ProjectId,k2,6b322e6b-6963-4616-945f-706362585858,RevPB*
G04 #@! TF.SameCoordinates,Original*
G04 #@! TF.FileFunction,Paste,Top*
G04 #@! TF.FilePolarity,Positive*
%FSLAX46Y46*%
G04 Gerber Fmt 4.6, Leading zero omitted, Abs format (unit mm)*
G04 Created by KiCad (PCBNEW 5.1.0-060a0da~80~ubuntu16.04.1) date 2019-04-04 13:00:51*
%MOMM*%
%LPD*%
G04 APERTURE LIST*
%ADD10R,0.800000X0.750000*%
%ADD11R,0.750000X0.800000*%
%ADD12O,2.032000X1.016000*%
%ADD13O,1.016000X2.032000*%
%ADD14R,1.000000X1.000000*%
%ADD15R,2.200000X1.000000*%
%ADD16R,1.000000X1.250000*%
%ADD17R,0.500000X0.900000*%
%ADD18R,0.900000X0.500000*%
%ADD19R,1.300000X0.700000*%
%ADD20R,0.700000X1.300000*%
%ADD21R,0.700000X0.250000*%
%ADD22R,0.250000X0.700000*%
%ADD23R,0.830000X0.830000*%
%ADD24R,0.850000X0.300000*%
%ADD25R,0.500000X0.600000*%
%ADD26R,1.600000X1.100000*%
%ADD27R,1.380000X0.450000*%
%ADD28R,1.600000X2.100000*%
%ADD29R,1.900000X1.800000*%
%ADD30R,1.900000X1.900000*%
%ADD31R,0.510000X0.400000*%
%ADD32R,0.400000X0.600000*%
%ADD33R,0.600000X0.400000*%
%ADD34R,0.600000X0.500000*%
%ADD35R,0.797560X0.797560*%
%ADD36R,0.550000X0.300000*%
%ADD37R,0.500000X0.350000*%
%ADD38R,1.000000X0.600000*%
%ADD39R,0.350000X0.500000*%
%ADD40R,0.600000X1.000000*%
%ADD41R,0.300000X0.450000*%
%ADD42R,0.700000X1.000000*%
%ADD43R,1.150000X0.750000*%
%ADD44R,0.950000X1.400000*%
%ADD45R,0.600000X0.700000*%
%ADD46R,1.000000X0.700000*%
G04 APERTURE END LIST*
D10*
X134520000Y-91690000D03*
X133020000Y-91690000D03*
D11*
X126740000Y-86700000D03*
X126740000Y-88200000D03*
X128250000Y-99450000D03*
X128250000Y-97950000D03*
D10*
X121080000Y-96550000D03*
X122580000Y-96550000D03*
X128710000Y-106330000D03*
X127210000Y-106330000D03*
D12*
X142400000Y-94640000D03*
X142400000Y-93370000D03*
X142400000Y-92100000D03*
X142400000Y-90830000D03*
X142400000Y-95910000D03*
X142400000Y-97180000D03*
X142400000Y-98450000D03*
X167800000Y-98450000D03*
X167800000Y-97180000D03*
X167800000Y-95910000D03*
X167800000Y-90830000D03*
X167800000Y-92100000D03*
X167800000Y-93370000D03*
X167800000Y-94640000D03*
D13*
X144940000Y-88290000D03*
X146210000Y-88290000D03*
X148750000Y-88290000D03*
X147480000Y-88290000D03*
X152560000Y-88290000D03*
X153830000Y-88290000D03*
X151290000Y-88290000D03*
X150020000Y-88290000D03*
X160180000Y-88290000D03*
X161450000Y-88290000D03*
X163990000Y-88290000D03*
X162720000Y-88290000D03*
X157640000Y-88290000D03*
X158910000Y-88290000D03*
X158910000Y-100990000D03*
X157640000Y-100990000D03*
X162720000Y-100990000D03*
X163990000Y-100990000D03*
X161450000Y-100990000D03*
X160180000Y-100990000D03*
X150020000Y-100990000D03*
X151290000Y-100990000D03*
X153830000Y-100990000D03*
X152560000Y-100990000D03*
X147480000Y-100990000D03*
X148750000Y-100990000D03*
X146210000Y-100990000D03*
X144940000Y-100990000D03*
D14*
X172600000Y-97190000D03*
D15*
X174370000Y-98690000D03*
X174370000Y-95690000D03*
D16*
X110050000Y-101380000D03*
X112050000Y-101380000D03*
D17*
X171210000Y-87940000D03*
X169710000Y-87940000D03*
X115860000Y-89630000D03*
X117360000Y-89630000D03*
D18*
X129980000Y-99320000D03*
X129980000Y-97820000D03*
D19*
X114120000Y-102160000D03*
X114120000Y-100260000D03*
D20*
X117350000Y-91550000D03*
X115450000Y-91550000D03*
D21*
X130300000Y-95740000D03*
X130300000Y-95240000D03*
X130300000Y-94740000D03*
X130300000Y-94240000D03*
X130300000Y-93740000D03*
X130300000Y-93240000D03*
X130300000Y-92740000D03*
X130300000Y-92240000D03*
X130300000Y-91740000D03*
X130300000Y-91240000D03*
X130300000Y-90740000D03*
X130300000Y-90240000D03*
D22*
X129650000Y-89590000D03*
X129150000Y-89590000D03*
X128650000Y-89590000D03*
X128150000Y-89590000D03*
X127650000Y-89590000D03*
X127150000Y-89590000D03*
X126650000Y-89590000D03*
X126150000Y-89590000D03*
X125650000Y-89590000D03*
X125150000Y-89590000D03*
X124650000Y-89590000D03*
X124150000Y-89590000D03*
D21*
X123500000Y-90240000D03*
X123500000Y-90740000D03*
X123500000Y-91240000D03*
X123500000Y-91740000D03*
X123500000Y-92240000D03*
X123500000Y-92740000D03*
X123500000Y-93240000D03*
X123500000Y-93740000D03*
X123500000Y-94240000D03*
X123500000Y-94740000D03*
X123500000Y-95240000D03*
X123500000Y-95740000D03*
D22*
X124150000Y-96390000D03*
X124650000Y-96390000D03*
X125150000Y-96390000D03*
X125650000Y-96390000D03*
X126150000Y-96390000D03*
X126650000Y-96390000D03*
X127150000Y-96390000D03*
X127650000Y-96390000D03*
X128150000Y-96390000D03*
X128650000Y-96390000D03*
X129150000Y-96390000D03*
X129650000Y-96390000D03*
D23*
X124840000Y-90930000D03*
X125870000Y-90930000D03*
X126900000Y-90930000D03*
X127930000Y-90930000D03*
X128960000Y-90930000D03*
X128960000Y-91960000D03*
X127930000Y-91960000D03*
X126900000Y-91960000D03*
X125870000Y-91960000D03*
X124840000Y-91960000D03*
X128960000Y-92990000D03*
X127930000Y-92990000D03*
X126900000Y-92990000D03*
X125870000Y-92990000D03*
X124840000Y-92990000D03*
X128960000Y-94020000D03*
X127930000Y-94020000D03*
X126900000Y-94020000D03*
X125870000Y-94020000D03*
X124840000Y-94020000D03*
X128960000Y-95050000D03*
X127930000Y-95050000D03*
X126900000Y-95050000D03*
X125870000Y-95050000D03*
X124840000Y-95050000D03*
D24*
X134760000Y-88520000D03*
X134760000Y-88020000D03*
X134760000Y-87520000D03*
X134760000Y-87020000D03*
X131860000Y-87020000D03*
X131860000Y-87520000D03*
X131860000Y-88020000D03*
X131860000Y-88520000D03*
D25*
X133635000Y-88145000D03*
X133635000Y-87395000D03*
X132985000Y-88145000D03*
X132985000Y-87395000D03*
D26*
X132210000Y-98190000D03*
X132210000Y-95690000D03*
D27*
X112820000Y-93390000D03*
X112820000Y-94040000D03*
X112820000Y-94690000D03*
X112820000Y-95340000D03*
X112820000Y-95990000D03*
D28*
X112710000Y-91590000D03*
X112710000Y-97790000D03*
D29*
X110160000Y-90690000D03*
X110160000Y-98690000D03*
D30*
X110160000Y-93490000D03*
X110160000Y-95890000D03*
D31*
X124860000Y-83390000D03*
X123560000Y-82890000D03*
X123560000Y-83890000D03*
X125960000Y-103680000D03*
X127260000Y-104180000D03*
X127260000Y-103180000D03*
X123320000Y-85570000D03*
X124620000Y-86070000D03*
X124620000Y-85070000D03*
X117440000Y-85470000D03*
X118740000Y-85970000D03*
X118740000Y-84970000D03*
D32*
X130250000Y-86990000D03*
X129350000Y-86990000D03*
X130250000Y-87890000D03*
X129350000Y-87890000D03*
X130020000Y-101130000D03*
X130920000Y-101130000D03*
X126770000Y-83130000D03*
X125870000Y-83130000D03*
X121710000Y-83050000D03*
X122610000Y-83050000D03*
D33*
X121730000Y-105580000D03*
X121730000Y-104680000D03*
X124870000Y-99080000D03*
X124870000Y-98180000D03*
D32*
X122920000Y-98280000D03*
X123820000Y-98280000D03*
D33*
X121740000Y-103110000D03*
X121740000Y-102210000D03*
D32*
X122390000Y-99420000D03*
X121490000Y-99420000D03*
X125030000Y-100170000D03*
X125930000Y-100170000D03*
D33*
X128370000Y-103320000D03*
X128370000Y-104220000D03*
D32*
X127060000Y-105280000D03*
X126160000Y-105280000D03*
X112520000Y-87170000D03*
X113420000Y-87170000D03*
D33*
X118510000Y-88020000D03*
X118510000Y-87120000D03*
D32*
X115490000Y-86040000D03*
X114590000Y-86040000D03*
D33*
X136890000Y-91780000D03*
X136890000Y-90880000D03*
X137790000Y-90880000D03*
X137790000Y-91780000D03*
D32*
X119360000Y-83090000D03*
X118460000Y-83090000D03*
X118460000Y-83990000D03*
X117560000Y-83990000D03*
X121700000Y-85160000D03*
X122600000Y-85160000D03*
X122600000Y-86060000D03*
X121700000Y-86060000D03*
D33*
X170000000Y-90750000D03*
X170000000Y-89850000D03*
D32*
X140490000Y-87370000D03*
X141390000Y-87370000D03*
X140490000Y-88270000D03*
X141390000Y-88270000D03*
D34*
X122690000Y-100270000D03*
X121590000Y-100270000D03*
X122290000Y-95470000D03*
X121190000Y-95470000D03*
X119590000Y-93220000D03*
X120690000Y-93220000D03*
D25*
X127390000Y-97940000D03*
X127390000Y-99040000D03*
X127640000Y-88320000D03*
X127640000Y-87220000D03*
X126590000Y-99040000D03*
X126590000Y-97940000D03*
X123090000Y-87110000D03*
X123090000Y-88210000D03*
D34*
X133760000Y-95690000D03*
X134860000Y-95690000D03*
X133730000Y-98340000D03*
X134830000Y-98340000D03*
X133380000Y-92590000D03*
X134480000Y-92590000D03*
X133420000Y-90750000D03*
X134520000Y-90750000D03*
X133380000Y-94190000D03*
X134480000Y-94190000D03*
X133380000Y-93390000D03*
X134480000Y-93390000D03*
D25*
X125480000Y-85940000D03*
X125480000Y-84840000D03*
D34*
X131960000Y-89550000D03*
X133060000Y-89550000D03*
X113830000Y-89030000D03*
X112730000Y-89030000D03*
D25*
X117510000Y-88290000D03*
X117510000Y-87190000D03*
D35*
X128060000Y-84679300D03*
X128060000Y-83180700D03*
X111259300Y-88560000D03*
X109760700Y-88560000D03*
X139379300Y-87290000D03*
X137880700Y-87290000D03*
X139379300Y-88570000D03*
X137880700Y-88570000D03*
D36*
X113690000Y-83155000D03*
X113690000Y-83805000D03*
X114810000Y-97735000D03*
X114810000Y-97085000D03*
D37*
X123180000Y-101340000D03*
X123180000Y-101990000D03*
X123180000Y-102640000D03*
X124980000Y-102640000D03*
X124980000Y-101990000D03*
X124980000Y-101340000D03*
D38*
X124080000Y-101465000D03*
X124080000Y-102515000D03*
D37*
X125010000Y-106230000D03*
X125010000Y-105580000D03*
X125010000Y-104930000D03*
X123210000Y-104930000D03*
X123210000Y-105580000D03*
X123210000Y-106230000D03*
D38*
X124110000Y-106105000D03*
X124110000Y-105055000D03*
D37*
X119520000Y-87120000D03*
X119520000Y-87770000D03*
X119520000Y-88420000D03*
X121320000Y-88420000D03*
X121320000Y-87770000D03*
X121320000Y-87120000D03*
D38*
X120420000Y-87245000D03*
X120420000Y-88295000D03*
D39*
X116140000Y-83210000D03*
X115490000Y-83210000D03*
X114840000Y-83210000D03*
X114840000Y-85010000D03*
X115490000Y-85010000D03*
X116140000Y-85010000D03*
D40*
X116015000Y-84110000D03*
X114965000Y-84110000D03*
D41*
X119580000Y-92070000D03*
X120230000Y-92070000D03*
X120880000Y-92070000D03*
X120880000Y-90270000D03*
X120230000Y-90270000D03*
X119580000Y-90270000D03*
D42*
X119780000Y-91170000D03*
X120680000Y-91170000D03*
D43*
X116635000Y-96965000D03*
X119785000Y-96965000D03*
X119785000Y-100015000D03*
D44*
X120285000Y-98490000D03*
X116135000Y-98490000D03*
D43*
X116635000Y-100015000D03*
D45*
X117340000Y-95080000D03*
D46*
X115640000Y-95080000D03*
D45*
X117340000Y-93080000D03*
X115440000Y-93080000D03*
D25*
X169510000Y-97390000D03*
X169510000Y-98490000D03*
X171650000Y-98490000D03*
X171650000Y-97390000D03*
D32*
X170130000Y-97390000D03*
X171030000Y-97390000D03*
M02*
