M48
; DRILL file {KiCad 5.1.0-060a0da~80~ubuntu16.04.1} date Thu 04 Apr 2019 12:35:53 PM CEST
; FORMAT={-:-/ absolute / metric / decimal}
; #@! TF.CreationDate,2019-04-04T12:35:53+02:00
; #@! TF.GenerationSoftware,Kicad,Pcbnew,5.1.0-060a0da~80~ubuntu16.04.1
; #@! TF.FileFunction,Plated,1,2,Blind
FMAT,2
METRIC
T1C0.300
%
G90
G05
T1
X113.69Y-83.01
X113.97Y-86.4
X114.12Y-99.39
X114.46Y-85.01
X114.64Y-83.17
X114.81Y-96.21
X114.83Y-97.86
X115.08Y-84.36
X115.51Y-86.14
X115.52Y-96.09
X115.93Y-89.66
X116.34Y-83.15
X116.35Y-85.01
X116.68Y-86.78
X116.7Y-85.88
X117.0Y-82.75
X117.57Y-84.77
X118.16Y-89.7
X118.49Y-88.24
X118.56Y-86.83
X119.33Y-93.2
X119.44Y-88.77
X119.6Y-86.37
X120.42Y-87.245
X120.82Y-100.86
X120.87Y-89.67
X121.37Y-102.28
X121.66Y-87.77
X121.98Y-92.54
X122.38Y-88.35
X122.51Y-97.25
X122.55Y-90.27
X122.65Y-91.07
X122.66Y-91.76
X122.79Y-102.65
X122.83Y-106.15
X123.09Y-87.11
X123.54Y-89.97
X123.92Y-100.95
X124.1Y-104.15
X124.42Y-97.57
X125.08Y-103.61
X126.18Y-101.54
X126.71Y-106.04
X126.77Y-100.15
X127.85Y-88.41
X128.17Y-97.15
X129.27Y-87.92
X130.25Y-87.89
X130.56Y-97.6
X130.93Y-90.22
X131.23Y-87.52
X131.26Y-93.22
X131.28Y-92.24
X131.3Y-91.25
X131.32Y-88.67
X131.81Y-91.74
X131.84Y-90.76
X131.99Y-99.84
X132.68Y-94.18
X132.77Y-100.4
X132.87Y-103.1
X134.2Y-100.12
X139.99Y-99.56
X140.01Y-100.72
X142.37Y-94.66
X142.86Y-99.58
X143.52Y-99.37
X144.86Y-103.17
X149.48Y-103.02
T0
M30
