G04 #@! TF.GenerationSoftware,KiCad,Pcbnew,5.1.0-060a0da~80~ubuntu16.04.1*
G04 #@! TF.CreationDate,2019-04-04T13:00:50+02:00*
G04 #@! TF.ProjectId,k2,6b322e6b-6963-4616-945f-706362585858,RevPB*
G04 #@! TF.SameCoordinates,Original*
G04 #@! TF.FileFunction,Copper,L2,Inr*
G04 #@! TF.FilePolarity,Positive*
%FSLAX46Y46*%
G04 Gerber Fmt 4.6, Leading zero omitted, Abs format (unit mm)*
G04 Created by KiCad (PCBNEW 5.1.0-060a0da~80~ubuntu16.04.1) date 2019-04-04 13:00:50*
%MOMM*%
%LPD*%
G04 APERTURE LIST*
%ADD10O,2.000000X4.000000*%
%ADD11R,2.000000X2.000000*%
%ADD12O,2.000000X2.000000*%
%ADD13C,0.500000*%
%ADD14C,0.500000*%
%ADD15C,0.150000*%
%ADD16C,0.250000*%
%ADD17C,0.254000*%
G04 APERTURE END LIST*
D10*
X116950000Y-103970000D03*
X119490000Y-103970000D03*
D11*
X163880000Y-84440000D03*
D12*
X161340000Y-84440000D03*
X158800000Y-84440000D03*
X156260000Y-84440000D03*
X153720000Y-84440000D03*
X151180000Y-84440000D03*
X148640000Y-84440000D03*
X146100000Y-84440000D03*
X143560000Y-84440000D03*
X141020000Y-84440000D03*
X138480000Y-84440000D03*
X135940000Y-84440000D03*
X133400000Y-84440000D03*
X130860000Y-84440000D03*
D11*
X130860000Y-104940000D03*
D12*
X133400000Y-104940000D03*
X135940000Y-104940000D03*
X138480000Y-104940000D03*
X141020000Y-104940000D03*
X143560000Y-104940000D03*
X146100000Y-104940000D03*
X148640000Y-104940000D03*
X151180000Y-104940000D03*
X153720000Y-104940000D03*
X156260000Y-104940000D03*
X158800000Y-104940000D03*
X161340000Y-104940000D03*
X163880000Y-104940000D03*
D13*
X127280000Y-90640000D03*
X124520000Y-94660000D03*
X129280000Y-93500000D03*
X109420000Y-87820000D03*
X169060000Y-95860000D03*
X169110000Y-99200000D03*
X168530000Y-99330000D03*
X167710000Y-99250000D03*
X167710000Y-99900000D03*
X167710000Y-100560000D03*
X167790000Y-101240000D03*
X168440000Y-101250000D03*
X169100000Y-101250000D03*
X169770000Y-101240000D03*
X170420000Y-101260000D03*
X171080000Y-101260000D03*
X171730000Y-101250000D03*
X172380000Y-101260000D03*
X173030000Y-101260000D03*
X173700000Y-101260000D03*
X174350000Y-101260000D03*
X175030000Y-101250000D03*
X175690000Y-101200000D03*
X175690000Y-100530000D03*
X175680000Y-99870000D03*
X175690000Y-99190000D03*
X175680000Y-98520000D03*
X175690000Y-97860000D03*
X175680000Y-97200000D03*
X175700000Y-96520000D03*
X175690000Y-95160000D03*
X175700000Y-94500000D03*
X175360000Y-93940000D03*
X174700000Y-93950000D03*
X174030000Y-93940000D03*
X173370000Y-93950000D03*
X172700000Y-93950000D03*
X172040000Y-93940000D03*
X171380000Y-93950000D03*
X170720000Y-93960000D03*
X170050000Y-93940000D03*
X169400000Y-93990000D03*
X169400000Y-94650000D03*
X169390000Y-95300000D03*
X119190000Y-90910000D03*
X118570000Y-90910000D03*
X119140000Y-91560000D03*
X118560000Y-91560000D03*
X121280000Y-90850000D03*
X121320000Y-91500000D03*
X127250000Y-87210000D03*
X136810000Y-92180000D03*
X135060000Y-91660000D03*
X135290000Y-92810000D03*
X149460000Y-98000000D03*
X169060000Y-98590000D03*
X167900000Y-90010000D03*
X142300000Y-99220000D03*
X143620000Y-91230000D03*
X138310000Y-88650000D03*
X133460000Y-89200000D03*
X133310000Y-87770000D03*
X127660000Y-99570000D03*
X121160000Y-92960000D03*
X121220000Y-92150000D03*
X125480000Y-84380000D03*
X124570000Y-84610000D03*
X123980000Y-84060000D03*
X121540000Y-84720000D03*
X121570000Y-83590000D03*
X119060000Y-84460000D03*
X117650000Y-86610000D03*
X112560000Y-89590000D03*
X114240000Y-102870000D03*
X112520000Y-102460000D03*
X113970000Y-96190000D03*
X115280000Y-98720000D03*
X120920000Y-100080000D03*
X121640000Y-103660000D03*
X127510000Y-102780000D03*
X128560000Y-102950000D03*
X128660000Y-105700000D03*
X135330000Y-95860000D03*
X135530000Y-98310000D03*
X120920000Y-97090000D03*
X120910000Y-95215000D03*
X123561977Y-88391977D03*
X175690000Y-95850000D03*
X172130000Y-98530000D03*
X171130000Y-98490000D03*
X148380000Y-95320000D03*
X151510000Y-97890000D03*
X151300000Y-91330000D03*
X148560000Y-91310000D03*
X166180000Y-92170000D03*
X149670000Y-94090000D03*
X144380000Y-95280000D03*
X166590000Y-93380000D03*
X124420000Y-97570000D03*
X145240000Y-98510000D03*
X132770000Y-100400000D03*
X134200000Y-100120000D03*
X147100000Y-95300000D03*
X143740000Y-97510000D03*
X125280000Y-86670000D03*
X126540000Y-84630000D03*
X133930000Y-89700000D03*
X147070000Y-91100000D03*
X124036482Y-87917446D03*
X142370000Y-94660000D03*
X131280000Y-92240000D03*
X136650000Y-97280000D03*
X137250000Y-99220000D03*
X131320000Y-88670000D03*
X129270000Y-87920000D03*
X122510000Y-97250000D03*
X126770000Y-100150000D03*
X127850000Y-88410000D03*
X122830000Y-106150000D03*
X124100000Y-104150000D03*
X126710000Y-106040000D03*
X138430000Y-97260000D03*
X132710000Y-96870000D03*
X123570000Y-99300000D03*
X136440000Y-95280000D03*
X138440000Y-99170000D03*
X128170000Y-97150000D03*
X131990000Y-99840000D03*
X138229998Y-95400000D03*
X132680000Y-94180000D03*
X131970000Y-94720000D03*
X129330000Y-97150000D03*
X135030000Y-101500000D03*
X131920000Y-101480000D03*
X135530000Y-101060000D03*
X129980000Y-97120000D03*
X132820000Y-101090000D03*
X131810000Y-91740000D03*
X142860000Y-99580000D03*
X143520000Y-99370000D03*
X131300000Y-91250000D03*
X131840000Y-90760000D03*
X130930000Y-90220000D03*
X121970000Y-93200000D03*
X128620000Y-105020000D03*
X121520000Y-93730000D03*
X139990000Y-99560000D03*
X140010000Y-100720000D03*
X129140000Y-88610000D03*
X149480000Y-103020000D03*
X144860000Y-103170000D03*
X132870000Y-103100000D03*
X144850000Y-103890000D03*
X129990000Y-102500000D03*
X128880000Y-100160000D03*
X128480000Y-88570000D03*
X130570000Y-96840000D03*
X135670000Y-88550000D03*
X125910971Y-87815794D03*
X151400000Y-89880000D03*
X149360000Y-90100000D03*
X134990000Y-89250000D03*
X125664961Y-88449117D03*
X122690000Y-83570000D03*
X121990000Y-91850000D03*
X121980000Y-92540000D03*
X123540000Y-89970000D03*
X136900000Y-86190000D03*
X122550000Y-90270000D03*
X122660000Y-91760000D03*
X147140000Y-90440000D03*
X130750000Y-89220000D03*
X143660000Y-88380000D03*
X130250000Y-87890000D03*
X131230000Y-87520000D03*
X123650000Y-97250000D03*
X138630000Y-86070000D03*
X139710000Y-85450000D03*
X123540000Y-96450000D03*
X125110000Y-97570000D03*
X116680000Y-86780000D03*
X115930000Y-89660000D03*
X118160000Y-89700000D03*
X120420000Y-87245000D03*
X119440000Y-88770000D03*
X117000000Y-82750000D03*
X114640000Y-83170000D03*
X117570000Y-84770000D03*
X116350000Y-85010000D03*
X115080000Y-84360000D03*
X123090000Y-87110000D03*
X120870000Y-89670000D03*
X114120000Y-99390000D03*
X115520000Y-96090000D03*
X130560000Y-97600000D03*
X131260000Y-93220000D03*
X119330000Y-93200000D03*
X120820000Y-100860000D03*
X125080000Y-103610000D03*
X121370000Y-102280000D03*
X152600000Y-91190000D03*
X143630000Y-89040000D03*
X136150000Y-88070000D03*
X124394990Y-87375239D03*
X136660000Y-87550000D03*
X152820000Y-95760000D03*
X124620330Y-86738381D03*
X119600000Y-86370000D03*
X121660000Y-87770000D03*
X118490000Y-88240000D03*
X126180000Y-101540000D03*
X123920000Y-100950000D03*
X122790000Y-102650000D03*
X113690000Y-83010000D03*
X115510000Y-86140000D03*
X116700000Y-85880000D03*
X116340000Y-83150000D03*
X114460000Y-85010000D03*
X118560000Y-86830000D03*
X122380000Y-88350000D03*
X121710000Y-105790000D03*
X125550000Y-105460000D03*
X125490000Y-106170000D03*
X122580000Y-104690000D03*
X125400000Y-102670000D03*
X122580000Y-101270000D03*
X122650000Y-91070000D03*
X114830000Y-97860000D03*
X114810000Y-96210000D03*
X113970000Y-86400000D03*
D14*
X173630000Y-83780000D02*
X173630000Y-85570000D01*
D15*
X148380000Y-95320000D02*
X148380000Y-95330000D01*
X148560000Y-91310000D02*
X148560000Y-91330000D01*
X143630000Y-100120000D02*
X145240000Y-98510000D01*
X131230000Y-100370000D02*
X132740000Y-100370000D01*
X124420000Y-97740000D02*
X125600000Y-98920000D01*
X125600000Y-98920000D02*
X129780000Y-98920000D01*
X129780000Y-98920000D02*
X131230000Y-100370000D01*
X124420000Y-97570000D02*
X124420000Y-97740000D01*
X132740000Y-100370000D02*
X132770000Y-100400000D01*
X134200000Y-100120000D02*
X143630000Y-100120000D01*
X133930000Y-89700000D02*
X133950000Y-89700000D01*
X146129996Y-90159996D02*
X147070000Y-91100000D01*
X134409996Y-90159996D02*
X146129996Y-90159996D01*
X133950000Y-89700000D02*
X134409996Y-90159996D01*
X131280000Y-92240000D02*
X133100000Y-92240000D01*
X141330000Y-93620000D02*
X142370000Y-94660000D01*
X134480000Y-93620000D02*
X141330000Y-93620000D01*
X133100000Y-92240000D02*
X134480000Y-93620000D01*
D16*
X129270000Y-87920000D02*
X129480000Y-87920000D01*
X130230000Y-88670000D02*
X131320000Y-88670000D01*
X129480000Y-87920000D02*
X130230000Y-88670000D01*
X127850000Y-88410000D02*
X127894978Y-88410000D01*
X128384978Y-87920000D02*
X129270000Y-87920000D01*
X127894978Y-88410000D02*
X128384978Y-87920000D01*
X122510000Y-97250000D02*
X122510000Y-93740000D01*
X127840000Y-88410000D02*
X127850000Y-88410000D01*
X122510000Y-93740000D02*
X127840000Y-88410000D01*
X126770000Y-100150000D02*
X125410000Y-100150000D01*
X125410000Y-100150000D02*
X122510000Y-97250000D01*
X124100000Y-104150000D02*
X126780000Y-104150000D01*
X126780000Y-105360000D02*
X126780000Y-104150000D01*
X126780000Y-104150000D02*
X126780000Y-100160000D01*
X126780000Y-100160000D02*
X126770000Y-100150000D01*
X124100000Y-104150000D02*
X122300000Y-104150000D01*
X121930000Y-105250000D02*
X122830000Y-106150000D01*
X121930000Y-104520000D02*
X121930000Y-105250000D01*
X122300000Y-104150000D02*
X121930000Y-104520000D01*
X126780000Y-105566447D02*
X126780000Y-105360000D01*
X126680000Y-105666447D02*
X126780000Y-105566447D01*
X126680000Y-106020000D02*
X126680000Y-105666447D01*
D15*
X128170000Y-97170000D02*
X128180000Y-97170000D01*
X128170000Y-97170000D02*
X128180000Y-97170000D01*
X128180000Y-97170000D02*
X128560000Y-97170000D01*
X128560000Y-97170000D02*
X131230000Y-99840000D01*
X131230000Y-99840000D02*
X131990000Y-99840000D01*
D16*
X132680000Y-94180000D02*
X132680000Y-94300000D01*
X132680000Y-102200000D02*
X130860000Y-104020000D01*
X133370000Y-101510000D02*
X132680000Y-102200000D01*
X133370000Y-94990000D02*
X133370000Y-101510000D01*
X132680000Y-94300000D02*
X133370000Y-94990000D01*
X130860000Y-104940000D02*
X130860000Y-104020000D01*
D15*
X132320000Y-91930000D02*
X133330000Y-91930000D01*
X131810000Y-91740000D02*
X132130000Y-91740000D01*
X132130000Y-91740000D02*
X132320000Y-91930000D01*
X135860002Y-93319998D02*
X136200000Y-92980000D01*
X134719998Y-93319998D02*
X135860002Y-93319998D01*
X133330000Y-91930000D02*
X134719998Y-93319998D01*
X142860000Y-94340000D02*
X142860000Y-99580000D01*
X141500000Y-92980000D02*
X142860000Y-94340000D01*
X136200000Y-92980000D02*
X141500000Y-92980000D01*
X131300000Y-91250000D02*
X132100000Y-91250000D01*
X143260000Y-99110000D02*
X143520000Y-99370000D01*
X143260000Y-94160000D02*
X143260000Y-99110000D01*
X140350000Y-91250000D02*
X143260000Y-94160000D01*
X140160002Y-91060002D02*
X140350000Y-91250000D01*
X132289998Y-91060002D02*
X140160002Y-91060002D01*
X132100000Y-91250000D02*
X132289998Y-91060002D01*
X131840000Y-90760000D02*
X140550000Y-90760000D01*
X146100000Y-96310000D02*
X146100000Y-104940000D01*
X140550000Y-90760000D02*
X146100000Y-96310000D01*
X140140002Y-90459998D02*
X140869998Y-90459998D01*
X148640000Y-104940000D02*
X148640000Y-98230000D01*
X130930000Y-90220000D02*
X130950000Y-90240000D01*
X130950000Y-90240000D02*
X132340000Y-90240000D01*
X132340000Y-90240000D02*
X132559998Y-90459998D01*
X132559998Y-90459998D02*
X140140002Y-90459998D01*
X140869998Y-90459998D02*
X148640000Y-98230000D01*
X128620000Y-105020000D02*
X128670000Y-105020000D01*
X149830000Y-106290000D02*
X151180000Y-104940000D01*
X129600000Y-106290000D02*
X149830000Y-106290000D01*
X129260000Y-105950000D02*
X129600000Y-106290000D01*
X129260000Y-105610000D02*
X129260000Y-105950000D01*
X128670000Y-105020000D02*
X129260000Y-105610000D01*
X140010000Y-100720000D02*
X140010000Y-102099998D01*
X129140000Y-91280000D02*
X130600000Y-92740000D01*
X130600000Y-92740000D02*
X133160000Y-92740000D01*
X133160000Y-92740000D02*
X139980000Y-99560000D01*
X139980000Y-99560000D02*
X139990000Y-99560000D01*
X129140000Y-88610000D02*
X129140000Y-91280000D01*
X154750000Y-103430000D02*
X156260000Y-104940000D01*
X149890000Y-103430000D02*
X154750000Y-103430000D01*
X149480000Y-103020000D02*
X149890000Y-103430000D01*
X144800000Y-103230000D02*
X144860000Y-103170000D01*
X141140002Y-103230000D02*
X144800000Y-103230000D01*
X140010000Y-102099998D02*
X141140002Y-103230000D01*
X129990000Y-102500000D02*
X129590000Y-102500000D01*
X133310000Y-103540000D02*
X132870000Y-103100000D01*
X134860000Y-103540000D02*
X144500000Y-103540000D01*
X144500000Y-103540000D02*
X144850000Y-103890000D01*
X134860000Y-103540000D02*
X133310000Y-103540000D01*
X129590000Y-102500000D02*
X128880000Y-101790000D01*
X128480000Y-88570000D02*
X128480000Y-91170000D01*
X128480000Y-91170000D02*
X130570000Y-93260000D01*
X130570000Y-93260000D02*
X130570000Y-96840000D01*
X128880000Y-100160000D02*
X128880000Y-101790000D01*
X149360000Y-90100000D02*
X149360000Y-90230000D01*
X150850000Y-90430000D02*
X151400000Y-89880000D01*
X149560000Y-90430000D02*
X150850000Y-90430000D01*
X149360000Y-90230000D02*
X149560000Y-90430000D01*
X121980000Y-92540000D02*
X123040000Y-92540000D01*
X123040000Y-92540000D02*
X127650000Y-87930000D01*
X158800000Y-86980000D02*
X161340000Y-84440000D01*
X128830000Y-86980000D02*
X158800000Y-86980000D01*
X127880000Y-87930000D02*
X128830000Y-86980000D01*
X127650000Y-87930000D02*
X127880000Y-87930000D01*
X136700000Y-85990000D02*
X136900000Y-86190000D01*
X123540000Y-89970000D02*
X123540000Y-89510000D01*
X127060000Y-85990000D02*
X136700000Y-85990000D01*
X123540000Y-89510000D02*
X127060000Y-85990000D01*
X135170000Y-83170000D02*
X154990000Y-83170000D01*
X155260001Y-83440001D02*
X156260000Y-84440000D01*
X154990000Y-83170000D02*
X155260001Y-83440001D01*
X126945721Y-85680000D02*
X134280000Y-85680000D01*
X134680000Y-85280000D02*
X134680000Y-83660000D01*
X134280000Y-85680000D02*
X134680000Y-85280000D01*
X122799999Y-89825722D02*
X126945721Y-85680000D01*
X122799999Y-90020001D02*
X122799999Y-89825722D01*
X122550000Y-90270000D02*
X122799999Y-90020001D01*
X134680000Y-83660000D02*
X135170000Y-83170000D01*
X151490000Y-86670000D02*
X153720000Y-84440000D01*
X128670000Y-86670000D02*
X151490000Y-86670000D01*
X127740000Y-87600000D02*
X128670000Y-86670000D01*
X127540000Y-87600000D02*
X127740000Y-87600000D01*
X123530000Y-91610000D02*
X127540000Y-87600000D01*
X122810000Y-91610000D02*
X123530000Y-91610000D01*
X122660000Y-91760000D02*
X122810000Y-91610000D01*
X132240000Y-89220000D02*
X132850000Y-88610000D01*
X132850000Y-88610000D02*
X133610000Y-88610000D01*
X133610000Y-88610000D02*
X134810000Y-89810000D01*
X134810000Y-89810000D02*
X146510000Y-89810000D01*
X146510000Y-89810000D02*
X147140000Y-90440000D01*
X130750000Y-89220000D02*
X132240000Y-89220000D01*
X142360000Y-89450000D02*
X142360000Y-89440000D01*
X131270000Y-87520000D02*
X132030000Y-88280000D01*
X132030000Y-88280000D02*
X134710000Y-88280000D01*
X134710000Y-88280000D02*
X135880000Y-89450000D01*
X135880000Y-89450000D02*
X142360000Y-89450000D01*
X131270000Y-87520000D02*
X131230000Y-87520000D01*
X143420000Y-88380000D02*
X143660000Y-88380000D01*
X142360000Y-89440000D02*
X143420000Y-88380000D01*
X130620000Y-87520000D02*
X131230000Y-87520000D01*
X130620000Y-87520000D02*
X130250000Y-87890000D01*
X139710000Y-85450000D02*
X139790000Y-85450000D01*
X142190000Y-85810000D02*
X143560000Y-84440000D01*
X140150000Y-85810000D02*
X142190000Y-85810000D01*
X139790000Y-85450000D02*
X140150000Y-85810000D01*
D16*
X133400000Y-84440000D02*
X133400000Y-84170000D01*
X133400000Y-84170000D02*
X131980000Y-82750000D01*
X131980000Y-82750000D02*
X117000000Y-82750000D01*
X117260000Y-86200000D02*
X117260000Y-85650000D01*
X116680000Y-86780000D02*
X117260000Y-86200000D01*
X117000000Y-85390000D02*
X117000000Y-82750000D01*
X117260000Y-85650000D02*
X117000000Y-85390000D01*
X118120000Y-89660000D02*
X115930000Y-89660000D01*
X118160000Y-89700000D02*
X118120000Y-89660000D01*
X119440000Y-88225000D02*
X119440000Y-88770000D01*
X120420000Y-87245000D02*
X119440000Y-88225000D01*
X115190000Y-82620000D02*
X114640000Y-83170000D01*
X116870000Y-82620000D02*
X115190000Y-82620000D01*
X117000000Y-82750000D02*
X116870000Y-82620000D01*
X120910000Y-85000000D02*
X121060000Y-85000000D01*
X117800000Y-85000000D02*
X117570000Y-84770000D01*
X120910000Y-85000000D02*
X119840000Y-85000000D01*
X115865000Y-85010000D02*
X115730000Y-85010000D01*
X116350000Y-85010000D02*
X115865000Y-85010000D01*
X115730000Y-85010000D02*
X115080000Y-84360000D01*
X119840000Y-85000000D02*
X117800000Y-85000000D01*
X121900000Y-85840000D02*
X123090000Y-85840000D01*
X121060000Y-85000000D02*
X121900000Y-85840000D01*
X123090000Y-87110000D02*
X123090000Y-85840000D01*
X130090000Y-85210000D02*
X130860000Y-84440000D01*
X123090000Y-85840000D02*
X123720000Y-85210000D01*
X123720000Y-85210000D02*
X130090000Y-85210000D01*
X123020000Y-87110000D02*
X123090000Y-87110000D01*
X123090000Y-87660000D02*
X123036976Y-87713024D01*
X123090000Y-87110000D02*
X123090000Y-87660000D01*
X123036976Y-87713024D02*
X123036976Y-88513024D01*
X123036976Y-88513024D02*
X121880000Y-89670000D01*
X121880000Y-89670000D02*
X121223553Y-89670000D01*
X121223553Y-89670000D02*
X120870000Y-89670000D01*
X114120000Y-98600000D02*
X114120000Y-97670000D01*
X114120000Y-98600000D02*
X114120000Y-99390000D01*
X115520000Y-96270000D02*
X115520000Y-96090000D01*
X114120000Y-97670000D02*
X115520000Y-96270000D01*
X115520000Y-96090000D02*
X115490000Y-96120000D01*
X130560000Y-97600000D02*
X131260000Y-96900000D01*
X131260000Y-96900000D02*
X131260000Y-93220000D01*
X119330000Y-99370000D02*
X119330000Y-93200000D01*
X120820000Y-100860000D02*
X119330000Y-99370000D01*
X122700000Y-103610000D02*
X125080000Y-103610000D01*
X121370000Y-102280000D02*
X122700000Y-103610000D01*
D15*
X142280000Y-87570000D02*
X136680000Y-87570000D01*
X150040000Y-87570000D02*
X151880000Y-89410000D01*
X151880000Y-89410000D02*
X151880000Y-94820000D01*
X152820000Y-95760000D02*
X151880000Y-94820000D01*
X142280000Y-87570000D02*
X150040000Y-87570000D01*
X136680000Y-87570000D02*
X136660000Y-87550000D01*
D16*
X119600000Y-86370000D02*
X119600000Y-86710000D01*
X118490000Y-87820000D02*
X118490000Y-88240000D01*
X119600000Y-86710000D02*
X118490000Y-87820000D01*
X118490000Y-88790000D02*
X118490000Y-88240000D01*
X119070000Y-89370000D02*
X118490000Y-88790000D01*
X120060000Y-89370000D02*
X119070000Y-89370000D01*
X121660000Y-87770000D02*
X120060000Y-89370000D01*
D15*
X126180000Y-101540000D02*
X125590000Y-100950000D01*
X123920000Y-100950000D02*
X125590000Y-100950000D01*
D16*
X122310000Y-100680000D02*
X121490000Y-101500000D01*
X123650000Y-100680000D02*
X122310000Y-100680000D01*
X123920000Y-100950000D02*
X123650000Y-100680000D01*
X117430000Y-101500000D02*
X116950000Y-101980000D01*
X121640000Y-101500000D02*
X121490000Y-101500000D01*
X121490000Y-101500000D02*
X117430000Y-101500000D01*
X122790000Y-102650000D02*
X121640000Y-101500000D01*
X116950000Y-101980000D02*
X116950000Y-103970000D01*
D15*
X115510000Y-86140000D02*
X114700000Y-86140000D01*
X113690000Y-85130000D02*
X113690000Y-83010000D01*
X114700000Y-86140000D02*
X113690000Y-85130000D01*
X116440000Y-86140000D02*
X115510000Y-86140000D01*
X116700000Y-85880000D02*
X116440000Y-86140000D01*
D16*
X116340000Y-83150000D02*
X115750000Y-83740000D01*
X115750000Y-83740000D02*
X114770000Y-83740000D01*
X114770000Y-83740000D02*
X114460000Y-84050000D01*
X114460000Y-84050000D02*
X114460000Y-85010000D01*
X118990000Y-85800000D02*
X120990000Y-85800000D01*
X118560000Y-86230000D02*
X118990000Y-85800000D01*
X118560000Y-86830000D02*
X118560000Y-86230000D01*
X120990000Y-85800000D02*
X122520000Y-87330000D01*
X122520000Y-87330000D02*
X122520000Y-88210000D01*
X122520000Y-88210000D02*
X122380000Y-88350000D01*
X122650000Y-106730000D02*
X122010000Y-106730000D01*
X126030000Y-105940000D02*
X126030000Y-106630000D01*
X126030000Y-106630000D02*
X125930000Y-106730000D01*
X125930000Y-106730000D02*
X122650000Y-106730000D01*
X125550000Y-105460000D02*
X126030000Y-105940000D01*
X121710000Y-106430000D02*
X121710000Y-105790000D01*
X122010000Y-106730000D02*
X121710000Y-106430000D01*
X125490000Y-106170000D02*
X124060000Y-106170000D01*
X124060000Y-106170000D02*
X122580000Y-104690000D01*
X125400000Y-102670000D02*
X123980000Y-102670000D01*
X123980000Y-102670000D02*
X122580000Y-101270000D01*
D15*
X116120000Y-92400000D02*
X116120000Y-97040000D01*
X122650000Y-91070000D02*
X121770000Y-90190000D01*
X121770000Y-90190000D02*
X118330000Y-90190000D01*
X118330000Y-90190000D02*
X116120000Y-92400000D01*
X115300000Y-97860000D02*
X114830000Y-97860000D01*
X116120000Y-97040000D02*
X115300000Y-97860000D01*
X113970000Y-86400000D02*
X114810000Y-87240000D01*
X114810000Y-87240000D02*
X114810000Y-96210000D01*
D17*
G36*
X120473000Y-90560000D02*
G01*
X120475440Y-90584776D01*
X120482667Y-90608601D01*
X120494403Y-90630557D01*
X120510197Y-90649803D01*
X120529443Y-90665597D01*
X120551399Y-90677333D01*
X120575224Y-90684560D01*
X120600000Y-90687000D01*
X121769198Y-90687000D01*
X122083000Y-91000803D01*
X122083000Y-91331174D01*
X122041905Y-91323000D01*
X121938095Y-91323000D01*
X121836280Y-91343252D01*
X121740372Y-91382979D01*
X121688935Y-91417348D01*
X121671399Y-91422667D01*
X121649443Y-91434403D01*
X121630197Y-91450197D01*
X121614403Y-91469443D01*
X121602667Y-91491399D01*
X121602387Y-91492322D01*
X121580652Y-91514057D01*
X121522979Y-91600372D01*
X121483252Y-91696280D01*
X121463000Y-91798095D01*
X121463000Y-91901905D01*
X121483252Y-92003720D01*
X121522979Y-92099628D01*
X121580652Y-92185943D01*
X121584709Y-92190000D01*
X121570652Y-92204057D01*
X121512979Y-92290372D01*
X121473252Y-92386280D01*
X121453000Y-92488095D01*
X121453000Y-92591905D01*
X121473252Y-92693720D01*
X121512979Y-92789628D01*
X121524599Y-92807019D01*
X121514403Y-92819443D01*
X121502667Y-92841399D01*
X121495440Y-92865224D01*
X121493000Y-92890000D01*
X121493000Y-92974463D01*
X121463252Y-93046280D01*
X121443000Y-93148095D01*
X121443000Y-93207992D01*
X121366280Y-93223252D01*
X121270372Y-93262979D01*
X121210475Y-93303000D01*
X121180000Y-93303000D01*
X121155224Y-93305440D01*
X121131399Y-93312667D01*
X121109443Y-93324403D01*
X121090197Y-93340197D01*
X121074403Y-93359443D01*
X121062667Y-93381399D01*
X121055440Y-93405224D01*
X121053000Y-93430000D01*
X121053000Y-93480341D01*
X121052979Y-93480372D01*
X121013252Y-93576280D01*
X120993000Y-93678095D01*
X120993000Y-93781905D01*
X120998868Y-93811406D01*
X120167000Y-93804109D01*
X120167000Y-92830000D01*
X120164560Y-92805224D01*
X120157333Y-92781399D01*
X120145597Y-92759443D01*
X120129803Y-92740197D01*
X120110557Y-92724403D01*
X120088601Y-92712667D01*
X120064776Y-92705440D01*
X120040000Y-92703000D01*
X119947000Y-92703000D01*
X119947000Y-91810000D01*
X119944560Y-91785224D01*
X119937333Y-91761399D01*
X119925597Y-91739443D01*
X119909803Y-91720197D01*
X119890557Y-91704403D01*
X119868601Y-91692667D01*
X119844776Y-91685440D01*
X119820000Y-91683000D01*
X118317000Y-91683000D01*
X118317000Y-90700803D01*
X118330803Y-90687000D01*
X119850000Y-90687000D01*
X119874776Y-90684560D01*
X119898601Y-90677333D01*
X119920557Y-90665597D01*
X119939803Y-90649803D01*
X119955597Y-90630557D01*
X119967333Y-90608601D01*
X119974560Y-90584776D01*
X119977000Y-90560000D01*
X119977000Y-90542000D01*
X120473000Y-90542000D01*
X120473000Y-90560000D01*
X120473000Y-90560000D01*
G37*
X120473000Y-90560000D02*
X120475440Y-90584776D01*
X120482667Y-90608601D01*
X120494403Y-90630557D01*
X120510197Y-90649803D01*
X120529443Y-90665597D01*
X120551399Y-90677333D01*
X120575224Y-90684560D01*
X120600000Y-90687000D01*
X121769198Y-90687000D01*
X122083000Y-91000803D01*
X122083000Y-91331174D01*
X122041905Y-91323000D01*
X121938095Y-91323000D01*
X121836280Y-91343252D01*
X121740372Y-91382979D01*
X121688935Y-91417348D01*
X121671399Y-91422667D01*
X121649443Y-91434403D01*
X121630197Y-91450197D01*
X121614403Y-91469443D01*
X121602667Y-91491399D01*
X121602387Y-91492322D01*
X121580652Y-91514057D01*
X121522979Y-91600372D01*
X121483252Y-91696280D01*
X121463000Y-91798095D01*
X121463000Y-91901905D01*
X121483252Y-92003720D01*
X121522979Y-92099628D01*
X121580652Y-92185943D01*
X121584709Y-92190000D01*
X121570652Y-92204057D01*
X121512979Y-92290372D01*
X121473252Y-92386280D01*
X121453000Y-92488095D01*
X121453000Y-92591905D01*
X121473252Y-92693720D01*
X121512979Y-92789628D01*
X121524599Y-92807019D01*
X121514403Y-92819443D01*
X121502667Y-92841399D01*
X121495440Y-92865224D01*
X121493000Y-92890000D01*
X121493000Y-92974463D01*
X121463252Y-93046280D01*
X121443000Y-93148095D01*
X121443000Y-93207992D01*
X121366280Y-93223252D01*
X121270372Y-93262979D01*
X121210475Y-93303000D01*
X121180000Y-93303000D01*
X121155224Y-93305440D01*
X121131399Y-93312667D01*
X121109443Y-93324403D01*
X121090197Y-93340197D01*
X121074403Y-93359443D01*
X121062667Y-93381399D01*
X121055440Y-93405224D01*
X121053000Y-93430000D01*
X121053000Y-93480341D01*
X121052979Y-93480372D01*
X121013252Y-93576280D01*
X120993000Y-93678095D01*
X120993000Y-93781905D01*
X120998868Y-93811406D01*
X120167000Y-93804109D01*
X120167000Y-92830000D01*
X120164560Y-92805224D01*
X120157333Y-92781399D01*
X120145597Y-92759443D01*
X120129803Y-92740197D01*
X120110557Y-92724403D01*
X120088601Y-92712667D01*
X120064776Y-92705440D01*
X120040000Y-92703000D01*
X119947000Y-92703000D01*
X119947000Y-91810000D01*
X119944560Y-91785224D01*
X119937333Y-91761399D01*
X119925597Y-91739443D01*
X119909803Y-91720197D01*
X119890557Y-91704403D01*
X119868601Y-91692667D01*
X119844776Y-91685440D01*
X119820000Y-91683000D01*
X118317000Y-91683000D01*
X118317000Y-90700803D01*
X118330803Y-90687000D01*
X119850000Y-90687000D01*
X119874776Y-90684560D01*
X119898601Y-90677333D01*
X119920557Y-90665597D01*
X119939803Y-90649803D01*
X119955597Y-90630557D01*
X119967333Y-90608601D01*
X119974560Y-90584776D01*
X119977000Y-90560000D01*
X119977000Y-90542000D01*
X120473000Y-90542000D01*
X120473000Y-90560000D01*
M02*
