G04 #@! TF.GenerationSoftware,KiCad,Pcbnew,5.1.0-060a0da~80~ubuntu16.04.1*
G04 #@! TF.CreationDate,2019-04-04T13:00:51+02:00*
G04 #@! TF.ProjectId,k2,6b322e6b-6963-4616-945f-706362585858,RevPB*
G04 #@! TF.SameCoordinates,Original*
G04 #@! TF.FileFunction,Copper,L3,Inr*
G04 #@! TF.FilePolarity,Positive*
%FSLAX46Y46*%
G04 Gerber Fmt 4.6, Leading zero omitted, Abs format (unit mm)*
G04 Created by KiCad (PCBNEW 5.1.0-060a0da~80~ubuntu16.04.1) date 2019-04-04 13:00:51*
%MOMM*%
%LPD*%
G04 APERTURE LIST*
%ADD10O,2.000000X4.000000*%
%ADD11R,2.000000X2.000000*%
%ADD12O,2.000000X2.000000*%
%ADD13C,0.500000*%
%ADD14C,0.500000*%
%ADD15C,0.250000*%
%ADD16C,0.150000*%
%ADD17C,0.254000*%
G04 APERTURE END LIST*
D10*
X116950000Y-103970000D03*
X119490000Y-103970000D03*
D11*
X163880000Y-84440000D03*
D12*
X161340000Y-84440000D03*
X158800000Y-84440000D03*
X156260000Y-84440000D03*
X153720000Y-84440000D03*
X151180000Y-84440000D03*
X148640000Y-84440000D03*
X146100000Y-84440000D03*
X143560000Y-84440000D03*
X141020000Y-84440000D03*
X138480000Y-84440000D03*
X135940000Y-84440000D03*
X133400000Y-84440000D03*
X130860000Y-84440000D03*
D11*
X130860000Y-104940000D03*
D12*
X133400000Y-104940000D03*
X135940000Y-104940000D03*
X138480000Y-104940000D03*
X141020000Y-104940000D03*
X143560000Y-104940000D03*
X146100000Y-104940000D03*
X148640000Y-104940000D03*
X151180000Y-104940000D03*
X153720000Y-104940000D03*
X156260000Y-104940000D03*
X158800000Y-104940000D03*
X161340000Y-104940000D03*
X163880000Y-104940000D03*
D13*
X127280000Y-90640000D03*
X124520000Y-94660000D03*
X129280000Y-93500000D03*
X109420000Y-87820000D03*
X169060000Y-95860000D03*
X169110000Y-99200000D03*
X168530000Y-99330000D03*
X167710000Y-99250000D03*
X167710000Y-99900000D03*
X167710000Y-100560000D03*
X167790000Y-101240000D03*
X168440000Y-101250000D03*
X169100000Y-101250000D03*
X169770000Y-101240000D03*
X170420000Y-101260000D03*
X171080000Y-101260000D03*
X171730000Y-101250000D03*
X172380000Y-101260000D03*
X173030000Y-101260000D03*
X173700000Y-101260000D03*
X174350000Y-101260000D03*
X175030000Y-101250000D03*
X175690000Y-101200000D03*
X175690000Y-100530000D03*
X175680000Y-99870000D03*
X175690000Y-99190000D03*
X175680000Y-98520000D03*
X175690000Y-97860000D03*
X175680000Y-97200000D03*
X175700000Y-96520000D03*
X175690000Y-95160000D03*
X175700000Y-94500000D03*
X175360000Y-93940000D03*
X174700000Y-93950000D03*
X174030000Y-93940000D03*
X173370000Y-93950000D03*
X172700000Y-93950000D03*
X172040000Y-93940000D03*
X171380000Y-93950000D03*
X170720000Y-93960000D03*
X170050000Y-93940000D03*
X169400000Y-93990000D03*
X169400000Y-94650000D03*
X169390000Y-95300000D03*
X119190000Y-90910000D03*
X118570000Y-90910000D03*
X119140000Y-91560000D03*
X118560000Y-91560000D03*
X121280000Y-90850000D03*
X121320000Y-91500000D03*
X127250000Y-87210000D03*
X136810000Y-92180000D03*
X135060000Y-91660000D03*
X135290000Y-92810000D03*
X149460000Y-98000000D03*
X169060000Y-98590000D03*
X167900000Y-90010000D03*
X142300000Y-99220000D03*
X143620000Y-91230000D03*
X138310000Y-88650000D03*
X133460000Y-89200000D03*
X133310000Y-87770000D03*
X127660000Y-99570000D03*
X121160000Y-92960000D03*
X121220000Y-92150000D03*
X125480000Y-84380000D03*
X124570000Y-84610000D03*
X123980000Y-84060000D03*
X121540000Y-84720000D03*
X121570000Y-83590000D03*
X119060000Y-84460000D03*
X117650000Y-86610000D03*
X112560000Y-89590000D03*
X114240000Y-102870000D03*
X112520000Y-102460000D03*
X113970000Y-96190000D03*
X115280000Y-98720000D03*
X120920000Y-100080000D03*
X121640000Y-103660000D03*
X127510000Y-102780000D03*
X128560000Y-102950000D03*
X128660000Y-105700000D03*
X135330000Y-95860000D03*
X135530000Y-98310000D03*
X120920000Y-97090000D03*
X120910000Y-95215000D03*
X123561977Y-88391977D03*
X175690000Y-95850000D03*
X172130000Y-98530000D03*
X171130000Y-98490000D03*
X148380000Y-95320000D03*
X151510000Y-97890000D03*
X151300000Y-91330000D03*
X148560000Y-91310000D03*
X166180000Y-92170000D03*
X149670000Y-94090000D03*
X144380000Y-95280000D03*
X166590000Y-93380000D03*
X145240000Y-98510000D03*
X147100000Y-95300000D03*
X143740000Y-97510000D03*
X125280000Y-86670000D03*
X126540000Y-84630000D03*
X133930000Y-89700000D03*
X147070000Y-91100000D03*
X124036482Y-87917446D03*
X136650000Y-97280000D03*
X137250000Y-99220000D03*
X138430000Y-97260000D03*
X132710000Y-96870000D03*
X123570000Y-99300000D03*
X136440000Y-95280000D03*
X138440000Y-99170000D03*
X138229998Y-95400000D03*
X131970000Y-94720000D03*
X129330000Y-97150000D03*
X135030000Y-101500000D03*
X131920000Y-101480000D03*
X135530000Y-101060000D03*
X129980000Y-97120000D03*
X132820000Y-101090000D03*
X121970000Y-93200000D03*
X128620000Y-105020000D03*
X121520000Y-93730000D03*
X129140000Y-88610000D03*
X144850000Y-103890000D03*
X129990000Y-102500000D03*
X128880000Y-100160000D03*
X128480000Y-88570000D03*
X130570000Y-96840000D03*
X135670000Y-88550000D03*
X125910971Y-87815794D03*
X151400000Y-89880000D03*
X149360000Y-90100000D03*
X134990000Y-89250000D03*
X125664961Y-88449117D03*
X122690000Y-83570000D03*
X121990000Y-91850000D03*
X136900000Y-86190000D03*
X147140000Y-90440000D03*
X130750000Y-89220000D03*
X143660000Y-88380000D03*
X123650000Y-97250000D03*
X138630000Y-86070000D03*
X139710000Y-85450000D03*
X123540000Y-96450000D03*
X125110000Y-97570000D03*
X152600000Y-91190000D03*
X143630000Y-89040000D03*
X136150000Y-88070000D03*
X124394990Y-87375239D03*
X136660000Y-87550000D03*
X152820000Y-95760000D03*
X124620330Y-86738381D03*
X121710000Y-105790000D03*
X125550000Y-105460000D03*
X125490000Y-106170000D03*
X122580000Y-104690000D03*
X125400000Y-102670000D03*
X122580000Y-101270000D03*
D14*
X173630000Y-85570000D02*
X171730000Y-85570000D01*
D15*
X149670000Y-94090000D02*
X164260000Y-94090000D01*
X164260000Y-94090000D02*
X166180000Y-92170000D01*
D16*
X146280000Y-95280000D02*
X146300000Y-95280000D01*
D15*
X144380000Y-95280000D02*
X146280000Y-95280000D01*
X147490000Y-94090000D02*
X149670000Y-94090000D01*
X146300000Y-95280000D02*
X147490000Y-94090000D01*
D16*
X145240000Y-98510000D02*
X160880000Y-98510000D01*
X166010000Y-93380000D02*
X166590000Y-93380000D01*
X160880000Y-98510000D02*
X166010000Y-93380000D01*
X126620000Y-84630000D02*
X128080000Y-83170000D01*
X128080000Y-83170000D02*
X144460000Y-83170000D01*
X144460000Y-83170000D02*
X144830000Y-83540000D01*
X144830000Y-83540000D02*
X144830000Y-85390000D01*
X144830000Y-85390000D02*
X143120000Y-87100000D01*
X143120000Y-87100000D02*
X143120000Y-96890000D01*
X143120000Y-96890000D02*
X143740000Y-97510000D01*
X126540000Y-84630000D02*
X126620000Y-84630000D01*
X124286481Y-88167445D02*
X124036482Y-87917446D01*
X133930000Y-89700000D02*
X125819036Y-89700000D01*
X125819036Y-89700000D02*
X124286481Y-88167445D01*
X137250000Y-97880000D02*
X136650000Y-97280000D01*
X137250000Y-99220000D02*
X137250000Y-97880000D01*
X132200000Y-96360000D02*
X132710000Y-96870000D01*
X127730000Y-96360000D02*
X132200000Y-96360000D01*
X125810000Y-98280000D02*
X127730000Y-96360000D01*
X124590000Y-98280000D02*
X125810000Y-98280000D01*
X123570000Y-99300000D02*
X124590000Y-98280000D01*
X137979999Y-95649999D02*
X138229998Y-95400000D01*
X138440000Y-99170000D02*
X137940000Y-98670000D01*
X137940000Y-95689998D02*
X137979999Y-95649999D01*
X137940000Y-98670000D02*
X137940000Y-95689998D01*
X133400000Y-96150000D02*
X133400000Y-104940000D01*
X131970000Y-94720000D02*
X133400000Y-96150000D01*
X131920000Y-101480000D02*
X131920000Y-101220000D01*
X129330000Y-97150000D02*
X129620000Y-97440000D01*
X129620000Y-97440000D02*
X129620000Y-98900000D01*
X135940000Y-102410000D02*
X135030000Y-101500000D01*
X135940000Y-102940000D02*
X135940000Y-104940000D01*
X135940000Y-102940000D02*
X135940000Y-102410000D01*
X129620000Y-98920000D02*
X129620000Y-98900000D01*
X131920000Y-101220000D02*
X129620000Y-98920000D01*
X136620000Y-101060000D02*
X138480000Y-102920000D01*
X138480000Y-102920000D02*
X138480000Y-103350000D01*
X138480000Y-104940000D02*
X138480000Y-103350000D01*
X135530000Y-101060000D02*
X136620000Y-101060000D01*
X130082133Y-98872133D02*
X132300000Y-101090000D01*
X132300000Y-101090000D02*
X132820000Y-101090000D01*
X130062133Y-97202133D02*
X130062133Y-98872133D01*
X129980000Y-97120000D02*
X130062133Y-97202133D01*
X130062133Y-98872133D02*
X130082133Y-98872133D01*
X121970000Y-93200000D02*
X122020000Y-93250000D01*
X122020000Y-93250000D02*
X122020000Y-99820000D01*
X122020000Y-99820000D02*
X124230000Y-102030000D01*
X124230000Y-102030000D02*
X125630000Y-102030000D01*
X125630000Y-102030000D02*
X128620000Y-105020000D01*
X152480000Y-106180000D02*
X153720000Y-104940000D01*
X128370000Y-106180000D02*
X152480000Y-106180000D01*
X127030000Y-104840000D02*
X128370000Y-106180000D01*
X123640000Y-104840000D02*
X127030000Y-104840000D01*
X122180000Y-103380000D02*
X123640000Y-104840000D01*
X122180000Y-102230000D02*
X122180000Y-103380000D01*
X121420000Y-101470000D02*
X122180000Y-102230000D01*
X121420000Y-93830000D02*
X121420000Y-101470000D01*
X121520000Y-93730000D02*
X121420000Y-93830000D01*
X126160970Y-87565795D02*
X125910971Y-87815794D01*
X134310004Y-86720004D02*
X127006761Y-86720004D01*
X127006761Y-86720004D02*
X126160970Y-87565795D01*
X135670000Y-88080000D02*
X134310004Y-86720004D01*
X135670000Y-88550000D02*
X135670000Y-88080000D01*
X126720000Y-88440000D02*
X128130000Y-87030000D01*
X128130000Y-87030000D02*
X134170000Y-87030000D01*
X134170000Y-87030000D02*
X134990000Y-87850000D01*
X134990000Y-87850000D02*
X134990000Y-89250000D01*
X126063553Y-88440000D02*
X126720000Y-88440000D01*
X126013553Y-88390000D02*
X126063553Y-88440000D01*
X125660000Y-88390000D02*
X126013553Y-88390000D01*
X122690000Y-83570000D02*
X122690000Y-83430000D01*
X122690000Y-83430000D02*
X123340000Y-82780000D01*
X162220000Y-82780000D02*
X163880000Y-84440000D01*
X123340000Y-82780000D02*
X162220000Y-82780000D01*
X121990000Y-89660000D02*
X122990000Y-88660000D01*
X122990000Y-88660000D02*
X122990000Y-88070000D01*
X122990000Y-88070000D02*
X123670000Y-87390000D01*
X123670000Y-87390000D02*
X123670000Y-84550000D01*
X123670000Y-84550000D02*
X122690000Y-83570000D01*
X121990000Y-91850000D02*
X121990000Y-89660000D01*
X147140000Y-90440000D02*
X147140000Y-88480000D01*
X147140000Y-88480000D02*
X151180000Y-84440000D01*
X143660000Y-87210000D02*
X145000000Y-85870000D01*
X145000000Y-85870000D02*
X147210000Y-85870000D01*
X148640000Y-84440000D02*
X147210000Y-85870000D01*
X143660000Y-88380000D02*
X143660000Y-87210000D01*
X138630000Y-86070000D02*
X138630000Y-86330000D01*
X123650000Y-97250000D02*
X123040000Y-96640000D01*
X123040000Y-96640000D02*
X123040000Y-96250000D01*
X123040000Y-96250000D02*
X124140000Y-95150000D01*
X124140000Y-95150000D02*
X128640000Y-95150000D01*
X128640000Y-95150000D02*
X131040000Y-92750000D01*
X131040000Y-92750000D02*
X131950000Y-92750000D01*
X132210000Y-92750000D02*
X131950000Y-92750000D01*
X138630000Y-86330000D02*
X132210000Y-92750000D01*
X139750000Y-85490000D02*
X139710000Y-85450000D01*
X129950000Y-95470000D02*
X125050000Y-95470000D01*
X139750000Y-85670000D02*
X129950000Y-95470000D01*
X124520000Y-95470000D02*
X125050000Y-95470000D01*
X123540000Y-96450000D02*
X124520000Y-95470000D01*
X139750000Y-85670000D02*
X139750000Y-85490000D01*
X125110000Y-97570000D02*
X126870000Y-95810000D01*
X126870000Y-95810000D02*
X130090000Y-95810000D01*
X141020000Y-84880000D02*
X130090000Y-95810000D01*
X141020000Y-84880000D02*
X141020000Y-84440000D01*
X143630000Y-89040000D02*
X143630000Y-89770000D01*
X134500002Y-86420002D02*
X134220000Y-86420002D01*
X134500002Y-86420002D02*
X136150000Y-88070000D01*
X151960000Y-91830000D02*
X152600000Y-91190000D01*
X145690000Y-91830000D02*
X151960000Y-91830000D01*
X143630000Y-89770000D02*
X145690000Y-91830000D01*
X134220000Y-86420002D02*
X134220002Y-86420002D01*
X124748543Y-87375239D02*
X124394990Y-87375239D01*
X125264763Y-87375239D02*
X124748543Y-87375239D01*
X126220000Y-86420002D02*
X125264763Y-87375239D01*
X134220000Y-86420002D02*
X126220000Y-86420002D01*
X124620330Y-86384828D02*
X124620330Y-86738381D01*
X124885158Y-86120000D02*
X124620330Y-86384828D01*
X135230000Y-86120000D02*
X124885158Y-86120000D01*
X136660000Y-87550000D02*
X135230000Y-86120000D01*
D17*
G36*
X120473000Y-90560000D02*
G01*
X120475440Y-90584776D01*
X120482667Y-90608601D01*
X120494403Y-90630557D01*
X120510197Y-90649803D01*
X120529443Y-90665597D01*
X120551399Y-90677333D01*
X120575224Y-90684560D01*
X120600000Y-90687000D01*
X121638000Y-90687000D01*
X121638000Y-91443794D01*
X121630197Y-91450197D01*
X121614403Y-91469443D01*
X121602667Y-91491399D01*
X121602387Y-91492322D01*
X121580652Y-91514057D01*
X121522979Y-91600372D01*
X121483252Y-91696280D01*
X121463000Y-91798095D01*
X121463000Y-91901905D01*
X121483252Y-92003720D01*
X121522979Y-92099628D01*
X121580652Y-92185943D01*
X121593000Y-92198291D01*
X121593000Y-92766115D01*
X121571399Y-92772667D01*
X121549443Y-92784403D01*
X121530197Y-92800197D01*
X121514403Y-92819443D01*
X121502667Y-92841399D01*
X121495440Y-92865224D01*
X121493000Y-92890000D01*
X121493000Y-92974463D01*
X121463252Y-93046280D01*
X121443000Y-93148095D01*
X121443000Y-93207992D01*
X121366280Y-93223252D01*
X121270372Y-93262979D01*
X121210475Y-93303000D01*
X121180000Y-93303000D01*
X121155224Y-93305440D01*
X121131399Y-93312667D01*
X121109443Y-93324403D01*
X121090197Y-93340197D01*
X121074403Y-93359443D01*
X121062667Y-93381399D01*
X121055440Y-93405224D01*
X121053000Y-93430000D01*
X121053000Y-93480341D01*
X121052979Y-93480372D01*
X121013252Y-93576280D01*
X120993000Y-93678095D01*
X120993000Y-93781905D01*
X120998868Y-93811406D01*
X120167000Y-93804109D01*
X120167000Y-92830000D01*
X120164560Y-92805224D01*
X120157333Y-92781399D01*
X120145597Y-92759443D01*
X120129803Y-92740197D01*
X120110557Y-92724403D01*
X120088601Y-92712667D01*
X120064776Y-92705440D01*
X120040000Y-92703000D01*
X119947000Y-92703000D01*
X119947000Y-91810000D01*
X119944560Y-91785224D01*
X119937333Y-91761399D01*
X119925597Y-91739443D01*
X119909803Y-91720197D01*
X119890557Y-91704403D01*
X119868601Y-91692667D01*
X119844776Y-91685440D01*
X119820000Y-91683000D01*
X118317000Y-91683000D01*
X118317000Y-90687000D01*
X119850000Y-90687000D01*
X119874776Y-90684560D01*
X119898601Y-90677333D01*
X119920557Y-90665597D01*
X119939803Y-90649803D01*
X119955597Y-90630557D01*
X119967333Y-90608601D01*
X119974560Y-90584776D01*
X119977000Y-90560000D01*
X119977000Y-90017000D01*
X120473000Y-90017000D01*
X120473000Y-90560000D01*
X120473000Y-90560000D01*
G37*
X120473000Y-90560000D02*
X120475440Y-90584776D01*
X120482667Y-90608601D01*
X120494403Y-90630557D01*
X120510197Y-90649803D01*
X120529443Y-90665597D01*
X120551399Y-90677333D01*
X120575224Y-90684560D01*
X120600000Y-90687000D01*
X121638000Y-90687000D01*
X121638000Y-91443794D01*
X121630197Y-91450197D01*
X121614403Y-91469443D01*
X121602667Y-91491399D01*
X121602387Y-91492322D01*
X121580652Y-91514057D01*
X121522979Y-91600372D01*
X121483252Y-91696280D01*
X121463000Y-91798095D01*
X121463000Y-91901905D01*
X121483252Y-92003720D01*
X121522979Y-92099628D01*
X121580652Y-92185943D01*
X121593000Y-92198291D01*
X121593000Y-92766115D01*
X121571399Y-92772667D01*
X121549443Y-92784403D01*
X121530197Y-92800197D01*
X121514403Y-92819443D01*
X121502667Y-92841399D01*
X121495440Y-92865224D01*
X121493000Y-92890000D01*
X121493000Y-92974463D01*
X121463252Y-93046280D01*
X121443000Y-93148095D01*
X121443000Y-93207992D01*
X121366280Y-93223252D01*
X121270372Y-93262979D01*
X121210475Y-93303000D01*
X121180000Y-93303000D01*
X121155224Y-93305440D01*
X121131399Y-93312667D01*
X121109443Y-93324403D01*
X121090197Y-93340197D01*
X121074403Y-93359443D01*
X121062667Y-93381399D01*
X121055440Y-93405224D01*
X121053000Y-93430000D01*
X121053000Y-93480341D01*
X121052979Y-93480372D01*
X121013252Y-93576280D01*
X120993000Y-93678095D01*
X120993000Y-93781905D01*
X120998868Y-93811406D01*
X120167000Y-93804109D01*
X120167000Y-92830000D01*
X120164560Y-92805224D01*
X120157333Y-92781399D01*
X120145597Y-92759443D01*
X120129803Y-92740197D01*
X120110557Y-92724403D01*
X120088601Y-92712667D01*
X120064776Y-92705440D01*
X120040000Y-92703000D01*
X119947000Y-92703000D01*
X119947000Y-91810000D01*
X119944560Y-91785224D01*
X119937333Y-91761399D01*
X119925597Y-91739443D01*
X119909803Y-91720197D01*
X119890557Y-91704403D01*
X119868601Y-91692667D01*
X119844776Y-91685440D01*
X119820000Y-91683000D01*
X118317000Y-91683000D01*
X118317000Y-90687000D01*
X119850000Y-90687000D01*
X119874776Y-90684560D01*
X119898601Y-90677333D01*
X119920557Y-90665597D01*
X119939803Y-90649803D01*
X119955597Y-90630557D01*
X119967333Y-90608601D01*
X119974560Y-90584776D01*
X119977000Y-90560000D01*
X119977000Y-90017000D01*
X120473000Y-90017000D01*
X120473000Y-90560000D01*
M02*
