M48
; DRILL file {KiCad 5.1.0-060a0da~80~ubuntu16.04.1} date Thu 04 Apr 2019 12:35:53 PM CEST
; FORMAT={-:-/ absolute / metric / decimal}
; #@! TF.CreationDate,2019-04-04T12:35:53+02:00
; #@! TF.GenerationSoftware,Kicad,Pcbnew,5.1.0-060a0da~80~ubuntu16.04.1
; #@! TF.FileFunction,Plated,1,4,PTH
FMAT,2
METRIC
T1C0.300
T2C1.000
T3C1.300
%
G90
G05
T1
X109.42Y-87.82
X112.52Y-102.46
X112.56Y-89.59
X113.97Y-96.19
X114.24Y-102.87
X115.28Y-98.72
X117.65Y-86.61
X118.56Y-91.56
X118.57Y-90.91
X119.06Y-84.46
X119.14Y-91.56
X119.19Y-90.91
X120.91Y-95.215
X120.92Y-97.09
X120.92Y-100.08
X121.16Y-92.96
X121.22Y-92.15
X121.28Y-90.85
X121.32Y-91.5
X121.52Y-93.73
X121.54Y-84.72
X121.57Y-83.59
X121.64Y-103.66
X121.71Y-105.79
X121.97Y-93.2
X121.99Y-91.85
X122.58Y-101.27
X122.58Y-104.69
X122.69Y-83.57
X123.54Y-96.45
X123.562Y-88.392
X123.57Y-99.3
X123.65Y-97.25
X123.98Y-84.06
X124.036Y-87.917
X124.395Y-87.375
X124.52Y-94.66
X124.57Y-84.61
X124.62Y-86.738
X125.11Y-97.57
X125.28Y-86.67
X125.4Y-102.67
X125.48Y-84.38
X125.49Y-106.17
X125.55Y-105.46
X125.665Y-88.449
X125.911Y-87.816
X126.54Y-84.63
X127.25Y-87.21
X127.28Y-90.64
X127.51Y-102.78
X127.66Y-99.57
X128.48Y-88.57
X128.56Y-102.95
X128.62Y-105.02
X128.66Y-105.7
X128.88Y-100.16
X129.14Y-88.61
X129.28Y-93.5
X129.33Y-97.15
X129.98Y-97.12
X129.99Y-102.5
X130.57Y-96.84
X130.75Y-89.22
X131.92Y-101.48
X131.97Y-94.72
X132.71Y-96.87
X132.82Y-101.09
X133.31Y-87.77
X133.46Y-89.2
X133.93Y-89.7
X134.99Y-89.25
X135.03Y-101.5
X135.06Y-91.66
X135.29Y-92.81
X135.33Y-95.86
X135.53Y-98.31
X135.53Y-101.06
X135.67Y-88.55
X136.15Y-88.07
X136.44Y-95.28
X136.65Y-97.28
X136.66Y-87.55
X136.81Y-92.18
X136.9Y-86.19
X137.25Y-99.22
X138.23Y-95.4
X138.31Y-88.65
X138.43Y-97.26
X138.44Y-99.17
X138.63Y-86.07
X139.71Y-85.45
X142.3Y-99.22
X143.62Y-91.23
X143.63Y-89.04
X143.66Y-88.38
X143.74Y-97.51
X144.38Y-95.28
X144.85Y-103.89
X145.24Y-98.51
X147.07Y-91.1
X147.1Y-95.3
X147.14Y-90.44
X148.38Y-95.32
X148.56Y-91.31
X149.36Y-90.1
X149.46Y-98.0
X149.67Y-94.09
X151.3Y-91.33
X151.4Y-89.88
X151.51Y-97.89
X152.6Y-91.19
X152.82Y-95.76
X166.18Y-92.17
X166.59Y-93.38
X167.71Y-99.25
X167.71Y-99.9
X167.71Y-100.56
X167.79Y-101.24
X167.9Y-90.01
X168.44Y-101.25
X168.53Y-99.33
X169.06Y-95.86
X169.06Y-98.59
X169.1Y-101.25
X169.11Y-99.2
X169.39Y-95.3
X169.4Y-93.99
X169.4Y-94.65
X169.77Y-101.24
X170.05Y-93.94
X170.42Y-101.26
X170.72Y-93.96
X171.08Y-101.26
X171.13Y-98.49
X171.38Y-93.95
X171.73Y-101.25
X172.04Y-93.94
X172.13Y-98.53
X172.38Y-101.26
X172.7Y-93.95
X173.03Y-101.26
X173.37Y-93.95
X173.7Y-101.26
X174.03Y-93.94
X174.35Y-101.26
X174.7Y-93.95
X175.03Y-101.25
X175.36Y-93.94
X175.68Y-97.2
X175.68Y-98.52
X175.68Y-99.87
X175.69Y-95.16
X175.69Y-95.85
X175.69Y-97.86
X175.69Y-99.19
X175.69Y-100.53
X175.69Y-101.2
X175.7Y-94.5
X175.7Y-96.52
T2
X130.86Y-84.44
X133.4Y-84.44
X135.94Y-84.44
X138.48Y-84.44
X141.02Y-84.44
X143.56Y-84.44
X146.1Y-84.44
X148.64Y-84.44
X151.18Y-84.44
X153.72Y-84.44
X156.26Y-84.44
X158.8Y-84.44
X161.34Y-84.44
X163.88Y-84.44
X130.86Y-104.94
X133.4Y-104.94
X135.94Y-104.94
X138.48Y-104.94
X141.02Y-104.94
X143.56Y-104.94
X146.1Y-104.94
X148.64Y-104.94
X151.18Y-104.94
X153.72Y-104.94
X156.26Y-104.94
X158.8Y-104.94
X161.34Y-104.94
X163.88Y-104.94
T3
X116.95Y-103.97
X119.49Y-103.97
T0
M30
